<svg xmlns="http://www.w3.org/2000/svg" width="27.865" height="39.916" viewBox="0 0 27.865 39.916">
  <g id="Grupo_51" data-name="Grupo 51" transform="translate(653.79 -322.617)">
    <path id="Trazado_55" data-name="Trazado 55" d="M-653.524,342.585c0-5.678.023-11.356-.015-17.033a2.618,2.618,0,0,1,2.679-2.684c5.471.043,10.943.02,16.415.011a1.148,1.148,0,0,1,.887.361q3.5,3.52,7.019,7.019a1.153,1.153,0,0,1,.364.887q-.011,14.253-.006,28.505a2.457,2.457,0,0,1-2.622,2.633H-650.9a2.458,2.458,0,0,1-2.628-2.626Q-653.525,351.121-653.524,342.585Zm18.7-18.466h-15.96c-1.047,0-1.506.458-1.506,1.506q0,16.957,0,33.914c0,1.044.464,1.509,1.5,1.509h21.863c1.039,0,1.5-.466,1.5-1.509q0-13.79,0-27.58v-.435h-.473c-1.4,0-2.807.006-4.21-.005a3.6,3.6,0,0,1-.914-.112A2.46,2.46,0,0,1-634.819,329C-634.828,327.388-634.822,325.78-634.822,324.119Z" fill="#fff" stroke="#fff" stroke-width="0.5"/>
    <path id="Trazado_56" data-name="Trazado 56" d="M-534.973,462.458q2.51,0,5.019,0a1.692,1.692,0,0,1,.456.051.556.556,0,0,1,.432.567.563.563,0,0,1-.44.6,1.525,1.525,0,0,1-.418.049q-5.077,0-10.154,0c-.591,0-.935-.3-.852-.734.069-.36.329-.534.821-.535Q-537.54,462.455-534.973,462.458Z" transform="translate(-100.978 -125.183)" fill="#fff" stroke="#fff" stroke-width="0.5"/>
    <path id="Trazado_57" data-name="Trazado 57" d="M-535.017,602.2H-540a2.524,2.524,0,0,1-.347-.01.652.652,0,0,1-.6-.641.652.652,0,0,1,.6-.607,2.457,2.457,0,0,1,.347-.011h10a2.9,2.9,0,0,1,.309.005.625.625,0,0,1,.626.646.615.615,0,0,1-.62.61c-.307.022-.617.008-.926.008Z" transform="translate(-100.973 -249.363)" fill="#fff" stroke="#fff" stroke-width="0.5"/>
    <path id="Trazado_58" data-name="Trazado 58" d="M-534.982,533.113h-5.173c-.483,0-.775-.227-.786-.6s.293-.63.8-.63h10.308c.5,0,.764.206.771.6.008.416-.255.631-.783.631Z" transform="translate(-100.977 -187.44)" fill="#fff" stroke="#fff" stroke-width="0.5"/>
    <path id="Trazado_59" data-name="Trazado 59" d="M-614.059,531.738c.856-.861,1.71-1.717,2.56-2.577a.679.679,0,0,1,.719-.252.631.631,0,0,1,.209,1.086c-.554.574-1.125,1.131-1.689,1.7-.437.437-.869.877-1.311,1.309a.646.646,0,0,1-1.065,0q-.579-.567-1.145-1.147a.633.633,0,0,1-.061-.952.645.645,0,0,1,.953.08c.25.241.5.486.744.728C-614.137,531.718-614.122,531.719-614.059,531.738Z" transform="translate(-33.639 -184.751)" fill="#fff" stroke="#fff" stroke-width="0.5"/>
    <path id="Trazado_60" data-name="Trazado 60" d="M-614.136,601.063c.884-.885,1.7-1.7,2.515-2.52a2.126,2.126,0,0,1,.282-.261.6.6,0,0,1,.809.049.6.6,0,0,1,.04.835,6.1,6.1,0,0,1-.429.442q-1.308,1.309-2.617,2.616c-.425.423-.717.42-1.147-.005-.374-.371-.75-.74-1.117-1.118a.624.624,0,0,1-.056-.923.606.606,0,0,1,.921.033C-614.666,600.47-614.424,600.753-614.136,601.063Z" transform="translate(-33.636 -246.871)" fill="#fff" stroke="#fff" stroke-width="0.5"/>
    <path id="Trazado_61" data-name="Trazado 61" d="M-614.129,462.633l2.438-2.446c.091-.091.178-.186.275-.27a.634.634,0,0,1,.9-.019.611.611,0,0,1-.019.895c-.146.162-.306.312-.461.466q-1.24,1.24-2.48,2.48c-.5.495-.752.491-1.257-.012-.346-.345-.694-.687-1.035-1.036a.634.634,0,0,1-.075-.95.616.616,0,0,1,.949.066C-614.639,462.058-614.406,462.332-614.129,462.633Z" transform="translate(-33.644 -122.729)" fill="#fff" stroke="#fff" stroke-width="0.5"/>
    <path id="Trazado_62" data-name="Trazado 62" d="M-538.2,487.057c.643,0,1.285,0,1.927,0,.5,0,.795.251.786.648-.008.381-.285.617-.775.62q-1.947.011-3.893,0c-.5,0-.805-.265-.794-.647s.321-.619.822-.622C-539.481,487.054-538.839,487.057-538.2,487.057Z" transform="translate(-100.973 -147.243)" fill="#fff" stroke="#fff" stroke-width="0.5"/>
    <path id="Trazado_63" data-name="Trazado 63" d="M-538.181,625.578c.642,0,1.285,0,1.927,0,.478,0,.763.243.765.628s-.272.632-.758.636q-1.966.013-3.931,0c-.477,0-.772-.258-.774-.629s.311-.632.806-.635C-539.492,625.576-538.837,625.578-538.181,625.578Z" transform="translate(-100.967 -271.468)" fill="#fff" stroke="#fff" stroke-width="0.5"/>
    <path id="Trazado_64" data-name="Trazado 64" d="M-538.179,557.755c-.681,0-1.362,0-2.043,0a.65.65,0,0,1-.72-.634.632.632,0,0,1,.705-.6q2.023-.006,4.047,0c.452,0,.718.244.71.626s-.278.607-.734.61C-536.869,557.758-537.524,557.755-538.179,557.755Z" transform="translate(-100.977 -209.534)" fill="#fff" stroke="#fff" stroke-width="0.5"/>
  </g>
</svg>
