<svg xmlns="http://www.w3.org/2000/svg" width="24.764" height="25.02" viewBox="0 0 24.764 25.02">
  <g id="Grupo_1232" data-name="Grupo 1232" transform="translate(492.901 -834.156)">
    <path id="Trazado_232" data-name="Trazado 232" d="M-480.5,834.156A12.441,12.441,0,0,1-468.137,846.7a12.442,12.442,0,0,1-12.395,12.478A12.443,12.443,0,0,1-492.9,846.635,12.444,12.444,0,0,1-480.5,834.156Zm4.783,19.1h1.979a.848.848,0,0,0,.764-1.3,10.4,10.4,0,0,1-.729-1.359,5,5,0,0,1-.549-2.317c.006-1.355.008-2.711,0-4.066a8.153,8.153,0,0,0-.087-1.29A6.171,6.171,0,0,0-481.6,837.7a6.309,6.309,0,0,0-5.1,5.463c-.09,1.241-.067,2.491-.075,3.738-.02,2.863.172,2.354-1.206,4.948a.882.882,0,0,0,.848,1.405c1.259,0,2.519,0,3.778,0,.193,0,.27.049.348.25a5.5,5.5,0,0,0,.634,1.274,2.251,2.251,0,0,0,2.554.841,2.829,2.829,0,0,0,1.794-2.091c.063-.224.152-.279.364-.275C-477.018,853.266-476.37,853.258-475.722,853.258Z" fill="#e2ce4e"/>
    <path id="Trazado_233" data-name="Trazado 233" d="M-419.667,899.823a6.541,6.541,0,0,0,.814-3.672c-.029-1.342-.046-2.688.006-4.029a4.424,4.424,0,0,1,2.412-3.908,4.234,4.234,0,0,1,4.537.136,4.431,4.431,0,0,1,2.093,3.8c.038,1.186.03,2.375,0,3.561a7.929,7.929,0,0,0,.808,4.108Z" transform="translate(-66.192 -48.324)" fill="#e2ce4e"/>
    <path id="Trazado_234" data-name="Trazado 234" d="M-370.057,1033.016c-.118.435-.4.719-.709.718s-.595-.291-.7-.718Z" transform="translate(-109.754 -179.738)" fill="#e2ce4e"/>
  </g>
</svg>
