<svg xmlns="http://www.w3.org/2000/svg" width="29.026" height="29.026" viewBox="0 0 29.026 29.026">
  <g id="Grupo_1225" data-name="Grupo 1225" transform="translate(377.457 8.986)">
    <path id="Trazado_83" data-name="Trazado 83" d="M-361.974,20.04H-363.9c-.082-.018-.164-.04-.246-.054-.88-.154-1.78-.233-2.636-.471a14.5,14.5,0,0,1-10.238-17.5,14.528,14.528,0,0,1,16.072-10.86,14.155,14.155,0,0,1,7.595,3.489,14.232,14.232,0,0,1,4.7,8.367c.092.516.149,1.039.223,1.559V6.495c-.043.353-.079.707-.131,1.059a14.3,14.3,0,0,1-3.376,7.436,14.266,14.266,0,0,1-8.808,4.883C-361.153,19.937-361.564,19.985-361.974,20.04Zm-.945-12.706V7.327c-1.047,0-2.1-.053-3.141.011a4.771,4.771,0,0,0-4.52,4.617,2.05,2.05,0,0,0,.77,1.771,10.53,10.53,0,0,0,8.216,2.412,10.684,10.684,0,0,0,5.23-2.169,2.431,2.431,0,0,0,1.038-2.37,4.814,4.814,0,0,0-4.367-4.257C-360.765,7.292-361.843,7.334-362.918,7.334ZM-358.15.156a4.775,4.775,0,0,0-4.791-4.778A4.77,4.77,0,0,0-367.72.165a4.8,4.8,0,0,0,4.788,4.792A4.805,4.805,0,0,0-358.15.156Z" transform="translate(0)" fill="#25aae1"/>
  </g>
</svg>
