<svg xmlns="http://www.w3.org/2000/svg" width="24.764" height="23.341" viewBox="0 0 24.764 23.341">
  <g id="Grupo_1231" data-name="Grupo 1231" transform="translate(-960.83 -578.779)">
    <path id="Trazado_231" data-name="Trazado 231" d="M960.83,598.96v-.967c.2-.5.367-1.019.6-1.507.257-.544.57-1.062.858-1.592q3.862-7.1,7.724-14.193a3.6,3.6,0,0,1,3.648-1.889,3.531,3.531,0,0,1,2.738,1.877q2.4,4.39,4.786,8.79c1.347,2.479,2.7,4.955,4.031,7.443a3.332,3.332,0,0,1,.2,2.646,3.64,3.64,0,0,1-3.538,2.55c-5.776-.008-11.551,0-17.327-.006a3.52,3.52,0,0,1-3.395-2.155A7.713,7.713,0,0,1,960.83,598.96Zm10.925-9.161c0,1.168,0,2.337,0,3.5a1.452,1.452,0,1,0,2.9.012c.006-.822,0-1.644,0-2.465,0-1.531.006-3.062,0-4.592a1.452,1.452,0,0,0-1.905-1.461,1.475,1.475,0,0,0-.993,1.474C971.753,587.447,971.755,588.623,971.755,589.8Zm1.455,9.405a1.44,1.44,0,1,0-1.452-1.442A1.461,1.461,0,0,0,973.211,599.2Z" transform="translate(0)" fill="#de6b39"/>
  </g>
</svg>
