<svg xmlns="http://www.w3.org/2000/svg" width="13.744" height="13.741" viewBox="0 0 13.744 13.741">
  <g id="Grupo_1233" data-name="Grupo 1233" transform="translate(441.608 15.907)">
    <path id="Trazado_235" data-name="Trazado 235" d="M-434.726-2.166a6.864,6.864,0,0,1-6.882-6.869,6.864,6.864,0,0,1,6.878-6.873,6.863,6.863,0,0,1,6.866,6.868A6.864,6.864,0,0,1-434.726-2.166Zm-.409-7.411v2.861c-.125,0-.237,0-.349,0a.434.434,0,0,0-.449.441.44.44,0,0,0,.462.428q.782,0,1.564,0a.431.431,0,0,0,.468-.435.425.425,0,0,0-.467-.433c-.11,0-.22,0-.338,0v-.193q0-1.54,0-3.081c0-.253-.125-.443-.352-.464a4.673,4.673,0,0,0-.823,0,.388.388,0,0,0-.336.4.413.413,0,0,0,.31.436A2.521,2.521,0,0,0-435.135-9.577Zm.126-1.573a.58.58,0,0,0,.593-.587.577.577,0,0,0-.592-.587.584.584,0,0,0-.588.578A.588.588,0,0,0-435.009-11.15Z" transform="translate(0 0)" fill="#25aae1"/>
  </g>
</svg>
