<svg xmlns="http://www.w3.org/2000/svg" width="29.036" height="29.026" viewBox="0 0 29.036 29.026">
  <g id="Grupo_1226" data-name="Grupo 1226" transform="translate(-820.436 -306.201)">
    <path id="Trazado_220" data-name="Trazado 220" d="M833.482,335.227c-.364-.97-.725-1.94-1.1-2.907a.321.321,0,0,0-.195-.164,11.861,11.861,0,0,1-3.246-1.436.446.446,0,0,0-.492-.012c-.856.417-1.719.819-2.575,1.234a.26.26,0,0,1-.364-.046q-.859-.885-1.744-1.744c-.132-.128-.115-.221-.045-.364.415-.857.816-1.721,1.235-2.575a.5.5,0,0,0-.017-.522,12.85,12.85,0,0,1-1.253-3.141.383.383,0,0,0-.283-.3c-.914-.326-1.821-.67-2.736-.991a.3.3,0,0,1-.235-.341q.017-1.2,0-2.41a.3.3,0,0,1,.236-.341q1.372-.483,2.732-1a.475.475,0,0,0,.265-.27,12.3,12.3,0,0,1,1.3-3.243.478.478,0,0,0,.006-.382q-.607-1.324-1.249-2.631a.268.268,0,0,1,.07-.381q.861-.781,1.7-1.583a.275.275,0,0,1,.367-.06q1.321.646,2.655,1.264a.442.442,0,0,0,.355,0,12.408,12.408,0,0,1,3.327-1.462.4.4,0,0,0,.2-.234c.369-.988.728-1.979,1.091-2.975h2.92c.268.84.57,1.672.793,2.525a1.01,1.01,0,0,0,.88.837,8.574,8.574,0,0,1,2.652,1.1.584.584,0,0,0,.644.018c.827-.412,1.667-.8,2.5-1.2a.281.281,0,0,1,.389.059q.84.864,1.7,1.7a.293.293,0,0,1,.058.412c-.422.864-.827,1.736-1.246,2.6a.383.383,0,0,0,.016.415,12.708,12.708,0,0,1,1.435,3.369.373.373,0,0,0,.193.234c1.011.33,2.026.645,3.04.964v2.949c-1.014.319-2.029.635-3.041.963a.312.312,0,0,0-.148.2c-.094.322-.174.649-.269,1.015-.108-.1-.178-.163-.244-.229-.689-.688-1.372-1.381-2.069-2.061a.5.5,0,0,1-.161-.5,6.832,6.832,0,0,0-.042-2.507,8.3,8.3,0,0,0-2.908-4.98,8.428,8.428,0,0,0-7.685-1.81,8.64,8.64,0,0,0-6.611,7.637,8.383,8.383,0,0,0,2.14,6.562,8.686,8.686,0,0,0,8.052,2.834.467.467,0,0,1,.343.105c.69.672,1.368,1.358,2.049,2.04.038.039.071.083.13.154-.437.134-.849.254-1.257.39a.379.379,0,0,0-.222.179c-.374,1.016-.736,2.036-1.1,3.055Z" transform="translate(0)" fill="#25aae1"/>
    <path id="Trazado_221" data-name="Trazado 221" d="M944.064,429.966c.06.047.113.083.158.126.857.813,1.72,1.62,2.569,2.441a2.837,2.837,0,0,0,3.831-.01,2.748,2.748,0,0,0,.949-1.834,2.9,2.9,0,0,0-.851-2.338c-.783-.794-1.575-1.579-2.363-2.368-.071-.071-.137-.146-.233-.249a5.389,5.389,0,0,1,3.288.061,5.849,5.849,0,0,1,3.9,4.224,5.257,5.257,0,0,1-.239,3.385.446.446,0,0,0,.128.573q4.1,4.079,8.183,8.176a2.251,2.251,0,0,1,.334,2.764,2.134,2.134,0,0,1-3.255.547c-.122-.1-.239-.214-.353-.328q-4.07-4.069-8.135-8.144a.421.421,0,0,0-.516-.117,5.732,5.732,0,0,1-7.275-3.467,5.169,5.169,0,0,1-.16-3.354A.7.7,0,0,1,944.064,429.966Z" transform="translate(-114.617 -110.835)" fill="#25aae1"/>
  </g>
</svg>
