<svg xmlns="http://www.w3.org/2000/svg" width="45.508" height="28.093" viewBox="0 0 45.508 28.093">
  <g id="Grupo_1076" data-name="Grupo 1076" transform="translate(194.118 -917.919)">
    <path id="Trazado_216" data-name="Trazado 216" d="M-191.6,926.709a.729.729,0,0,1,.16-.076c1.585-.229,3.17-.466,4.758-.678a1.171,1.171,0,0,0,1.044-.727c.225-.528.5-1.034.758-1.55.491-1,.983-1.993,1.506-3.053.106.2.179.337.247.474.688,1.394,1.36,2.8,2.078,4.176a1.227,1.227,0,0,0,.694.595,23.032,23.032,0,0,0,2.443.367.742.742,0,0,0,.9-.67.791.791,0,0,0-.729-.821c-.568-.092-1.135-.2-1.706-.252a.566.566,0,0,1-.512-.383c-.865-1.777-1.745-3.546-2.609-5.323-.166-.344-.364-.636-.775-.648-.438-.012-.649.293-.823.649-.827,1.69-1.684,3.366-2.484,5.069a1.121,1.121,0,0,1-1.006.709c-1.866.245-3.725.541-5.588.8-.383.054-.711.157-.833.556a.893.893,0,0,0,.363.941c1.39,1.344,2.763,2.706,4.161,4.041a.881.881,0,0,1,.285.9c-.344,1.9-.665,3.8-.987,5.7-.061.359-.092.726.264.975a.924.924,0,0,0,1.049-.062c1.747-.923,3.5-1.833,5.244-2.762a.584.584,0,0,1,.637,0c.611.342,1.235.66,1.858.981.519.267.953.178,1.17-.229s.056-.828-.455-1.107c-.778-.426-1.565-.836-2.343-1.262a1.023,1.023,0,0,0-1.059,0c-1.371.736-2.751,1.455-4.129,2.179-.14.074-.285.142-.488.242.3-1.787.58-3.488.882-5.186a.946.946,0,0,0-.3-.922c-.772-.749-1.544-1.5-2.309-2.255C-190.7,927.652-191.132,927.191-191.6,926.709Zm40.474-.03.069.132c-.155.128-.32.246-.464.386-1.075,1.042-2.139,2.095-3.222,3.128a1.021,1.021,0,0,0-.343,1c.188,1.025.357,2.053.531,3.08.112.665.221,1.33.343,2.065-.206-.1-.331-.158-.452-.222-1.378-.724-2.758-1.441-4.129-2.176a1.058,1.058,0,0,0-1.1-.008c-.791.435-1.6.837-2.4,1.262a.774.774,0,0,0-.4,1.087.762.762,0,0,0,1.091.262c.625-.315,1.251-.632,1.857-.981a.729.729,0,0,1,.807,0c1.741.935,3.494,1.847,5.242,2.769a.825.825,0,0,0,.922.029.812.812,0,0,0,.309-.87c-.011-.077-.018-.155-.031-.232q-.5-2.85-.993-5.7a.739.739,0,0,1,.254-.736c1.439-1.383,2.861-2.784,4.293-4.174.255-.248.444-.56.264-.868a1.142,1.142,0,0,0-.693-.511c-2.025-.334-4.059-.616-6.087-.937a.726.726,0,0,1-.463-.348c-.9-1.777-1.776-3.564-2.653-5.352a.832.832,0,0,0-.811-.582.839.839,0,0,0-.76.584c-.8,1.635-1.636,3.253-2.4,4.9a1.258,1.258,0,0,1-1.265.912,6.635,6.635,0,0,0-1.152.166.762.762,0,0,0-.723.863.727.727,0,0,0,.911.638c.694-.087,1.383-.228,2.08-.286a1.215,1.215,0,0,0,1.1-.781c.652-1.379,1.341-2.739,2.017-4.106.065-.132.141-.258.238-.434.783,1.589,1.545,3.12,2.291,4.659a1,1,0,0,0,.8.632c.709.1,1.418.2,2.126.3C-153.125,926.381-152.127,926.531-151.129,926.679Z" fill="#9f9f9f"/>
    <path id="Trazado_217" data-name="Trazado 217" d="M-180.763,945.227c.189-1.111.368-2.169.55-3.226.327-1.9.651-3.8.99-5.7a.73.73,0,0,0-.248-.732c-2.051-1.984-4.087-3.983-6.134-5.971-.3-.3-.592-.587-.434-1.049.151-.44.539-.488.943-.545,2.8-.4,5.6-.812,8.408-1.211a.879.879,0,0,0,.759-.549c1.24-2.562,2.514-5.108,3.767-7.664.176-.357.373-.657.813-.661s.645.292.82.65c1.261,2.57,2.538,5.133,3.792,7.706a.768.768,0,0,0,.644.5c2.448.346,4.9.705,7.343,1.059.447.065.892.135,1.34.188a.838.838,0,0,1,.78.569.8.8,0,0,1-.309.866q-3.132,3.054-6.266,6.1a.745.745,0,0,0-.248.769q.778,4.34,1.486,8.692a1.12,1.12,0,0,1-.29.815c-.256.275-.623.187-.951.013q-2.952-1.559-5.908-3.11c-.633-.333-1.275-.652-1.9-1a.623.623,0,0,0-.682.008q-3.878,2.052-7.768,4.078c-.521.273-.914.224-1.153-.159A1.847,1.847,0,0,1-180.763,945.227Zm9.409-24.832c-.127.239-.21.386-.285.537q-1.623,3.285-3.241,6.574a1.049,1.049,0,0,1-.812.688c-.893.123-1.787.252-2.68.381q-2.625.381-5.25.765l-.1.135a2.766,2.766,0,0,1,.422.281c1.747,1.693,3.48,3.4,5.238,5.083a1.261,1.261,0,0,1,.417,1.248c-.341,1.9-.665,3.8-.993,5.7-.114.662-.218,1.326-.338,2.062.222-.114.36-.184.5-.255,2.177-1.144,4.359-2.28,6.528-3.439a1.13,1.13,0,0,1,1.181,0c2.17,1.157,4.349,2.294,6.526,3.437.14.074.284.142.47.235-.008-.17,0-.264-.018-.355-.42-2.437-.835-4.875-1.269-7.309a1.329,1.329,0,0,1,.41-1.338c1.775-1.686,3.518-3.406,5.271-5.115.107-.1.205-.217.346-.367-2.681-.389-5.295-.773-7.911-1.143a.987.987,0,0,1-.837-.577c-.225-.479-.462-.952-.7-1.426C-169.424,924.292-170.369,922.384-171.354,920.4Z" fill="#9f9f9f"/>
    <path id="Trazado_218" data-name="Trazado 218" d="M-191.6,926.709c.471.482.908.943,1.36,1.391.765.757,1.537,1.506,2.309,2.255a.946.946,0,0,1,.3.922c-.3,1.7-.58,3.4-.882,5.186.2-.1.348-.168.488-.242,1.378-.724,2.758-1.443,4.129-2.179a1.023,1.023,0,0,1,1.059,0c.778.426,1.565.836,2.343,1.262.511.279.674.7.455,1.107s-.651.5-1.17.229c-.623-.321-1.247-.639-1.858-.981a.584.584,0,0,0-.637,0c-1.743.929-3.5,1.839-5.244,2.762a.924.924,0,0,1-1.049.062c-.356-.249-.325-.616-.264-.975.322-1.9.643-3.8.987-5.7a.881.881,0,0,0-.285-.9c-1.4-1.335-2.771-2.7-4.161-4.041a.893.893,0,0,1-.363-.941c.122-.4.45-.5.833-.556,1.863-.261,3.722-.557,5.588-.8a1.121,1.121,0,0,0,1.006-.709c.8-1.7,1.657-3.379,2.484-5.069.174-.356.385-.661.823-.649.411.012.609.3.775.648.864,1.777,1.744,3.546,2.609,5.323a.566.566,0,0,0,.512.383c.571.053,1.138.16,1.706.252a.791.791,0,0,1,.729.821.742.742,0,0,1-.9.67,23.032,23.032,0,0,1-2.443-.367,1.227,1.227,0,0,1-.694-.595c-.718-1.379-1.39-2.782-2.078-4.176-.068-.137-.141-.271-.247-.474-.523,1.06-1.015,2.056-1.506,3.053-.255.516-.533,1.022-.758,1.55a1.171,1.171,0,0,1-1.044.727c-1.588.212-3.173.449-4.758.678A.729.729,0,0,0-191.6,926.709Z" fill="#9f9f9f"/>
    <path id="Trazado_219" data-name="Trazado 219" d="M-151.129,926.679c-1-.148-2-.3-2.995-.443-.708-.1-1.417-.2-2.126-.3a1,1,0,0,1-.8-.632c-.746-1.539-1.508-3.07-2.291-4.659-.1.176-.173.3-.238.434-.676,1.367-1.365,2.727-2.017,4.106a1.215,1.215,0,0,1-1.1.781c-.7.058-1.386.2-2.08.286a.727.727,0,0,1-.911-.638.762.762,0,0,1,.723-.863,6.635,6.635,0,0,1,1.152-.166,1.258,1.258,0,0,0,1.265-.912c.764-1.651,1.6-3.269,2.4-4.9a.839.839,0,0,1,.76-.584.832.832,0,0,1,.811.582c.877,1.788,1.755,3.575,2.653,5.352a.726.726,0,0,0,.463.348c2.028.321,4.062.6,6.087.937a1.142,1.142,0,0,1,.693.511c.18.308-.009.62-.264.868-1.432,1.39-2.854,2.791-4.293,4.174a.739.739,0,0,0-.254.736q.5,2.849.993,5.7c.013.077.02.155.031.232a.812.812,0,0,1-.309.87.825.825,0,0,1-.922-.029c-1.748-.922-3.5-1.834-5.242-2.769a.729.729,0,0,0-.807,0c-.606.349-1.232.666-1.857.981a.762.762,0,0,1-1.091-.262.774.774,0,0,1,.4-1.087c.8-.425,1.6-.827,2.4-1.262a1.058,1.058,0,0,1,1.1.008c1.371.735,2.751,1.452,4.129,2.176.121.064.246.121.452.222-.122-.735-.231-1.4-.343-2.065-.174-1.027-.343-2.055-.531-3.08a1.021,1.021,0,0,1,.343-1c1.083-1.033,2.147-2.086,3.222-3.128.144-.14.309-.258.464-.386Z" fill="#9f9f9f"/>
  </g>
</svg>
