<svg xmlns="http://www.w3.org/2000/svg" width="31.652" height="23.37" viewBox="0 0 31.652 23.37">
  <g id="Grupo_1069" data-name="Grupo 1069" transform="translate(-6217.104 -5559.906)">
    <path id="Trazado_203" data-name="Trazado 203" d="M6217.1,5563.06a4.433,4.433,0,0,1,.767-1.688,3.661,3.661,0,0,1,2.932-1.458c1.782-.008,3.563-.011,5.345,0a3.709,3.709,0,0,1,3.688,3.7c0,.172,0,.345,0,.551h.393c2.945,0,5.891-.007,8.836.015a3.685,3.685,0,0,1,3.436,3.009,7.522,7.522,0,0,1,.063,1.044c.009.751,0,1.5,0,2.3h.345c1.05,0,2.1-.028,3.15.021a2.718,2.718,0,0,1,2.653,2.242,2.634,2.634,0,0,1-.492,2.078c-.825,1.092-1.695,2.149-2.556,3.214-.907,1.12-1.785,2.267-2.749,3.336a5.349,5.349,0,0,1-4.042,1.837c-6.044.029-12.09.018-18.135.007a3.733,3.733,0,0,1-3.574-2.98.983.983,0,0,0-.062-.164Zm12.742,18.062q4.433,0,8.867,0a3.468,3.468,0,0,0,2.783-1.3c1.578-1.914,3.129-3.851,4.689-5.781a3.377,3.377,0,0,0,.333-.481.542.542,0,0,0-.4-.857,2.957,2.957,0,0,0-.521-.05q-8.881,0-17.764,0a3.529,3.529,0,0,0-2.823,1.361q-2.311,2.837-4.607,5.688a3.1,3.1,0,0,0-.4.649.462.462,0,0,0,.287.671,2.5,2.5,0,0,0,.726.09Q6225.429,5581.127,6229.847,5581.122Zm10.556-10.593c0-1.02.015-2-.013-2.972a1.259,1.259,0,0,0-.268-.61,1.644,1.644,0,0,0-1.48-.661q-3.12.006-6.24,0c-1.061,0-2.121.011-3.182-.014a1.5,1.5,0,0,1-1.487-1.407,9.573,9.573,0,0,1-.027-1.11,1.625,1.625,0,0,0-1.722-1.708c-1.678.038-3.356.01-5.035.013a2.171,2.171,0,0,0-.52.044,1.567,1.567,0,0,0-1.19,1.688q0,6.783,0,13.564c0,.094.012.188.022.341.111-.125.175-.191.232-.261q1.871-2.3,3.739-4.6a5.9,5.9,0,0,1,4.823-2.31c3.985.012,7.97,0,11.955,0Z" transform="translate(-0.001)" fill="#9a9a9a"/>
  </g>
</svg>
