<svg id="Scan" xmlns="http://www.w3.org/2000/svg" width="30.563" height="25.006" viewBox="0 0 30.563 25.006">
  <path id="Combined_Shape" data-name="Combined Shape" d="M6.134,10.451a.388.388,0,0,1-.375-.374V8.347A3.152,3.152,0,0,1,8.912,5.2h7.673A3.14,3.14,0,0,1,19.74,8.347v1.73a.39.39,0,0,1-.38.374ZM23.382,8.006V5.426a3.39,3.39,0,0,0-3.418-3.352H17.75a1.047,1.047,0,0,1-1.058-1.035A1.049,1.049,0,0,1,17.75,0h2.213A5.485,5.485,0,0,1,25.5,5.426V8.006a1.057,1.057,0,0,1-2.114,0ZM0,8V5.421A5.481,5.481,0,0,1,5.521,0H7.786A1.048,1.048,0,0,1,8.842,1.038,1.046,1.046,0,0,1,7.786,2.074H5.523A3.384,3.384,0,0,0,2.115,5.421V8A1.049,1.049,0,0,1,1.058,9.042,1.048,1.048,0,0,1,0,8Z" transform="translate(2.534 0)" fill="#919394" opacity="0.4"/>
  <path id="Fill_7" data-name="Fill 7" d="M29.506,0H1.059A1.049,1.049,0,0,0,0,1.038,1.048,1.048,0,0,0,1.059,2.073H2.533v4.95a5.482,5.482,0,0,0,5.522,5.42h2.263a1.038,1.038,0,1,0,0-2.075H8.057A3.385,3.385,0,0,1,4.648,7.024V2.073H8.292V3.451A3.152,3.152,0,0,0,11.444,6.6h7.674a3.152,3.152,0,0,0,3.154-3.148V2.073h3.644V7.018A3.389,3.389,0,0,1,22.5,10.371H20.284a1.038,1.038,0,1,0,0,2.075H22.5A5.486,5.486,0,0,0,28.03,7.018V2.073h1.475a1.046,1.046,0,0,0,1.057-1.035A1.048,1.048,0,0,0,29.506,0" transform="translate(0 12.56)" fill="#919394"/>
</svg>
