<svg xmlns="http://www.w3.org/2000/svg" width="60.645" height="36.429" viewBox="0 0 60.645 36.429">
  <g id="Grupo_534" data-name="Grupo 534" transform="translate(-5031.794 -5127.524)">
    <path id="Trazado_153" data-name="Trazado 153" d="M5031.794,5155.647c.154-1.028.284-2.06.465-3.083a30.333,30.333,0,0,1,59.649-.379,44.282,44.282,0,0,1,.527,5.761,1.909,1.909,0,0,1-1.9,1.952q-6.16.029-12.321,0a2.045,2.045,0,0,1-1.972-2.106c-.036-.663-.082-1.325-.128-2.081-.8.461-1.512.875-2.226,1.282-2.26,1.289-4.524,2.57-6.775,3.873a1.967,1.967,0,0,0-.661.628,5.067,5.067,0,0,1-5.566,2.307,5.07,5.07,0,0,1,2.121-9.911,1.384,1.384,0,0,0,.676-.033q4.964-1.811,9.918-3.647c.072-.026.142-.057.314-.127-.376-.5-.692-.987-1.081-1.413-3.892-4.27-8.716-5.9-14.284-4.434-5.635,1.484-9.075,5.306-10.3,11.036a15.089,15.089,0,0,0-.239,2.406,2.105,2.105,0,0,1-2.283,2.228c-3.811,0-7.622-.025-11.432.016a2.357,2.357,0,0,1-2.5-1.552Zm14.122,2.194a16.3,16.3,0,0,1,4-10.579l-8.529-8.536c-4.105,3.4-8.355,14.185-7.493,19.115Zm15.139-28.214a27.586,27.586,0,0,0-18.017,7.473l8.527,8.531a16.285,16.285,0,0,1,4.393-2.706,16.713,16.713,0,0,1,5.1-1.2Zm11.684,16.033,8.569-8.566a28.158,28.158,0,0,0-18.074-7.481.949.949,0,0,0-.057.182c0,3.848,0,7.7-.017,11.543,0,.368.2.4.477.441.7.1,1.407.176,2.1.329A15.937,15.937,0,0,1,5072.739,5145.66Zm3.2,3.724c.1-.032.177-.053.25-.079q3.29-1.142,6.579-2.284a2.061,2.061,0,0,1,2.167.31,2.013,2.013,0,0,1-.354,3.34c-2.057,1.246-4.132,2.46-6.192,3.7-.16.1-.375.31-.362.45.093,1,.238,1.988.37,3.008h12.028a28.262,28.262,0,0,0-7.508-19.119l-8.548,8.548Zm-8.585,9.045,15.485-9.06-.1-.2-16.858,6Zm-2.231.448a3,3,0,0,0-6-.012,3,3,0,1,0,6,.012Z"/>
  </g>
</svg>
