<svg xmlns="http://www.w3.org/2000/svg" width="34.904" height="33.076" viewBox="0 0 34.904 33.076">
  <g id="Grupo_533" data-name="Grupo 533" transform="translate(-4851.645 -5602.255)">
    <path id="Trazado_150" data-name="Trazado 150" d="M4851.645,5622.622c.09-.383.173-.766.268-1.146a7.544,7.544,0,1,1,11.35,8.318,7.451,7.451,0,0,1-8.8-.47,7.322,7.322,0,0,1-2.751-4.812,1.877,1.877,0,0,0-.071-.254Zm4,.814a3.554,3.554,0,0,0,7.109.028,3.612,3.612,0,0,0-3.513-3.57A3.574,3.574,0,0,0,4855.641,5623.436Z" transform="translate(0 -11.388)"/>
    <path id="Trazado_151" data-name="Trazado 151" d="M4899.568,5633.313a9.337,9.337,0,0,1,.4-1.1q6.631-13.072,13.279-26.134c.447-.879.884-1.763,1.343-2.636a1.984,1.984,0,0,1,3.268-.546,1.866,1.866,0,0,1,.424,2.017,8.4,8.4,0,0,1-.445.954q-7.15,14.066-14.3,28.133a2.127,2.127,0,0,1-1.546,1.3A2.07,2.07,0,0,1,4899.568,5633.313Z" transform="translate(-39.967)"/>
    <path id="Trazado_152" data-name="Trazado 152" d="M4971.037,5704.555a7.541,7.541,0,1,1,7.547,7.561A7.561,7.561,0,0,1,4971.037,5704.555Zm11.088.025a3.554,3.554,0,0,0-7.109-.028,3.554,3.554,0,1,0,7.109.028Z" transform="translate(-99.57 -79.026)"/>
  </g>
</svg>
