<svg xmlns="http://www.w3.org/2000/svg" width="13.367" height="19.3" viewBox="0 0 13.367 19.3">
  <g id="Grupo_405" data-name="Grupo 405" transform="translate(233.451 622.043)">
    <path id="Trazado_140" data-name="Trazado 140" d="M-230.647-464.04a.779.779,0,0,1-.566-.81.743.743,0,0,1,.6-.659,2.038,2.038,0,0,1,.3-.021q1.271,0,2.542,0h.24v-1.488c-.452-.11-.908-.2-1.347-.332a6.456,6.456,0,0,1-3.1-2.162,6.215,6.215,0,0,1-1.36-2.951,11.765,11.765,0,0,1-.1-1.5c-.015-.4-.01-.8,0-1.2a.729.729,0,0,1,.741-.737.731.731,0,0,1,.737.741c.013.59.01,1.18.027,1.769a4.76,4.76,0,0,0,1.107,2.933,4.989,4.989,0,0,0,2.6,1.762,5.034,5.034,0,0,0,4.236-.607,4.912,4.912,0,0,0,2.338-3.62c.083-.713.059-1.439.071-2.16a.794.794,0,0,1,.306-.673.69.69,0,0,1,.728-.087.644.644,0,0,1,.439.566,11.994,11.994,0,0,1-.2,3.33,6.659,6.659,0,0,1-2.042,3.269,6.346,6.346,0,0,1-3.033,1.528c-.207.042-.417.072-.63.108v1.515h2.825a.859.859,0,0,1,.6.18.74.74,0,0,1-.152,1.238l-.149.073Z" transform="translate(0 -138.703)" fill="#ff7575"/>
    <path id="Trazado_141" data-name="Trazado 141" d="M-167.724-615.348q0,1.422,0,2.843a3.638,3.638,0,0,1-.755,2.35,3.606,3.606,0,0,1-3.565,1.427,3.706,3.706,0,0,1-3.038-2.9,4.661,4.661,0,0,1-.076-.879q-.01-2.843,0-5.686a3.655,3.655,0,0,1,2.125-3.471,3.655,3.655,0,0,1,4.254.769,3.7,3.7,0,0,1,1.057,2.69C-167.726-617.256-167.724-616.3-167.724-615.348Z" transform="translate(-55.326 0)" fill="#ff7575"/>
  </g>
</svg>
