<svg xmlns="http://www.w3.org/2000/svg" width="43.192" height="43.222" viewBox="0 0 43.192 43.222">
  <g id="Grupo_53" data-name="Grupo 53" transform="translate(262.941 -163.765)">
    <path id="Trazado_70" data-name="Trazado 70" d="M-262.941,206.69a16.006,16.006,0,0,1,1.244-1.6q11.554-11.589,23.135-23.152c.139-.139.278-.28.429-.4a1.915,1.915,0,0,1,2.675.046q2.478,2.411,4.889,4.892a1.909,1.909,0,0,1,.057,2.642,5.277,5.277,0,0,1-.373.4l-23.589,23.593a2.073,2.073,0,0,1-3.358,0c-1.3-1.3-2.621-2.588-3.9-3.915a17.3,17.3,0,0,1-1.212-1.573Zm25.28-13.808,4.826-4.836-4.186-4.2-4.839,4.831Z" transform="translate(0 -6.978)" fill="#fff"/>
    <path id="Trazado_71" data-name="Trazado 71" d="M-238.851,163.765c-.068.152-.126.31-.207.455-.807,1.446-1.609,2.894-2.434,4.33a.636.636,0,0,0,.008.727c.881,1.547,1.746,3.105,2.666,4.747-.185-.088-.292-.131-.392-.187-1.482-.827-2.967-1.65-4.442-2.489a.526.526,0,0,0-.6,0c-1.437.821-2.885,1.625-4.329,2.433-.132.074-.269.141-.483.251.092-.19.142-.31.2-.423.795-1.42,1.581-2.845,2.4-4.254a.76.76,0,0,0,.01-.878c-.822-1.421-1.615-2.859-2.415-4.292-.074-.133-.124-.279-.185-.419h.085c.023.031.039.074.07.092,1.586.893,3.171,1.787,4.765,2.663a.547.547,0,0,0,.441-.043c1.508-.83,3.009-1.673,4.51-2.516a2.148,2.148,0,0,0,.254-.2Z" transform="translate(-5.612 0)" fill="#fff"/>
    <path id="Trazado_72" data-name="Trazado 72" d="M-197.436,205.344c-.862,1.542-1.715,3.09-2.6,4.623a.683.683,0,0,0-.007.79c.817,1.424,1.611,2.862,2.412,4.3.066.117.123.239.235.458-.608-.338-1.118-.619-1.627-.9-1.053-.589-2.11-1.172-3.154-1.777a.6.6,0,0,0-.69,0c-1.425.815-2.863,1.609-4.3,2.41-.132.073-.265.143-.478.258.1-.208.16-.343.231-.47.809-1.445,1.615-2.892,2.435-4.33a.563.563,0,0,0,.005-.644c-.816-1.425-1.611-2.862-2.413-4.3-.079-.141-.154-.285-.291-.538.413.227.715.392,1.015.56,1.224.686,2.455,1.362,3.668,2.066a.789.789,0,0,0,.915.013c1.515-.879,3.05-1.723,4.577-2.579Z" transform="translate(-22.363 -16.772)" fill="#fff"/>
    <path id="Trazado_73" data-name="Trazado 73" d="M-207.561,163.872c.494.263.993.519,1.481.79,1.092.606,2.183,1.214,3.265,1.837a.564.564,0,0,0,.646,0c1.45-.828,2.91-1.638,4.368-2.452.121-.068.249-.125.375-.188a4.251,4.251,0,0,1-.179.417c-.806,1.446-1.609,2.893-2.43,4.33a.6.6,0,0,0,.006.683c.88,1.547,1.745,3.1,2.675,4.766-.205-.1-.311-.138-.408-.192-1.482-.827-2.966-1.651-4.442-2.489a.5.5,0,0,0-.569,0c-1.439.818-2.885,1.622-4.33,2.43-.132.073-.267.14-.487.255.088-.187.13-.295.186-.4.814-1.458,1.621-2.919,2.452-4.366a.628.628,0,0,0-.008-.72c-.822-1.437-1.624-2.884-2.431-4.33C-207.458,164.13-207.5,164-207.561,163.872Z" transform="translate(-22.395 -0.039)" fill="#fff"/>
  </g>
</svg>
