<svg xmlns="http://www.w3.org/2000/svg" width="41.889" height="41.89" viewBox="0 0 41.889 41.89">
  <g id="Grupo_55" data-name="Grupo 55" transform="translate(347.381 -238.734)">
    <path id="Trazado_76" data-name="Trazado 76" d="M-347.377,247.813c0-1.5-.005-3,0-4.493a4.608,4.608,0,0,1,4.579-4.58q4.494-.011,8.987,0a4.6,4.6,0,0,1,4.579,4.578q.013,4.494,0,8.987a4.6,4.6,0,0,1-4.577,4.58q-4.494.012-8.987,0a4.608,4.608,0,0,1-4.58-4.578C-347.382,250.808-347.377,249.31-347.377,247.813Zm9.03,6.283c1.44,0,2.879,0,4.319,0a1.865,1.865,0,0,0,2.007-2.019q0-4.252,0-8.505a1.867,1.867,0,0,0-2.03-2.039q-4.253,0-8.505,0a1.865,1.865,0,0,0-2.029,2.04q0,4.231,0,8.462a1.875,1.875,0,0,0,2.051,2.063Q-340.44,254.1-338.346,254.1Z" transform="translate(-0.001)" fill="#fff"/>
    <path id="Trazado_77" data-name="Trazado 77" d="M-305.741,256.887c-1.483,0-2.967,0-4.45,0a4.608,4.608,0,0,1-4.623-4.624q-.008-4.45,0-8.9a4.6,4.6,0,0,1,4.623-4.623q4.45-.009,8.9,0a4.6,4.6,0,0,1,4.623,4.623q.009,4.45,0,8.9a4.6,4.6,0,0,1-4.623,4.624C-302.775,256.891-304.258,256.887-305.741,256.887Zm-6.283-9.074c0,1.425,0,2.85,0,4.275a1.862,1.862,0,0,0,2.018,2.007q4.253.005,8.506,0a1.87,1.87,0,0,0,2.039-2.031q0-4.252,0-8.505a1.868,1.868,0,0,0-2.041-2.029q-4.23,0-8.462,0a1.873,1.873,0,0,0-2.061,2.051C-312.026,244.992-312.024,246.4-312.024,247.813Z" transform="translate(-8.828 0)" fill="#fff"/>
    <path id="Trazado_78" data-name="Trazado 78" d="M-329.229,280.364c0,1.5.006,3,0,4.494a4.605,4.605,0,0,1-4.57,4.588q-4.494.013-8.987,0a4.6,4.6,0,0,1-4.588-4.57q-.012-4.494,0-8.987a4.6,4.6,0,0,1,4.57-4.588q4.494-.012,8.987,0a4.6,4.6,0,0,1,4.588,4.569C-329.223,277.369-329.229,278.866-329.229,280.364Zm-2.791.053c0-1.44,0-2.878,0-4.318a1.864,1.864,0,0,0-2.018-2.007q-4.253,0-8.505,0a1.865,1.865,0,0,0-2.04,2.029q0,4.253,0,8.505a1.867,1.867,0,0,0,2.039,2.031q4.231,0,8.462,0a1.876,1.876,0,0,0,2.063-2.051C-332.018,283.209-332.02,281.813-332.02,280.417Z" transform="translate(0 -8.828)" fill="#fff"/>
    <path id="Trazado_79" data-name="Trazado 79" d="M-314.814,280.336a9.053,9.053,0,0,1,9.121-9.035,9.067,9.067,0,0,1,9.027,9.046,9.056,9.056,0,0,1-9.012,9.1A9.052,9.052,0,0,1-314.814,280.336Zm9.1-6.243a6.317,6.317,0,0,0-6.306,6.288,6.325,6.325,0,0,0,6.319,6.276,6.338,6.338,0,0,0,6.243-6.269A6.321,6.321,0,0,0-305.715,274.093Z" transform="translate(-8.829 -8.829)" fill="#fff"/>
  </g>
</svg>
