<svg xmlns="http://www.w3.org/2000/svg" width="26.671" height="24.095" viewBox="0 0 26.671 24.095">
  <g id="Grupo_1257" data-name="Grupo 1257" transform="translate(1161.818 464.498)">
    <path id="Trazado_247" data-name="Trazado 247" d="M-1157.084-446.67a1.852,1.852,0,0,0,.771.144c.454-.034.667.208.915.536a5.182,5.182,0,0,0,4.415,2.147c.321,0,.475.056.582.391a4.241,4.241,0,0,0,3.427,2.86,9.926,9.926,0,0,0,3.924-.018.924.924,0,0,0,.546-.526c.13-.319-.08-.584-.37-.751-.419-.242-.855-.458-1.262-.72a1.746,1.746,0,0,1-.932-1.366,5.237,5.237,0,0,0,3.672-.442,5.145,5.145,0,0,0,2.753-3.416.667.667,0,0,1,.412-.505,5.288,5.288,0,0,0,2.6-2.64c.009.016.1-.278.1-.262a11.678,11.678,0,0,0,.33-1.212,2.839,2.839,0,0,0,.052-.414c0-.089-.014-.182-.013-.281a5.263,5.263,0,0,0-4.358-5.257c-.3-.051-.458-.154-.5-.483a3.754,3.754,0,0,0-.267-.87,7.891,7.891,0,0,0-10.762-3.916,7.667,7.667,0,0,0-2.476,2c-.053,0-.07,0-.08,0-.109-.06-.218-.122-.327-.182a5.01,5.01,0,0,0-3.332-.6,5.368,5.368,0,0,0-3.615,8.292.787.787,0,0,1,.051.519,11.665,11.665,0,0,0-.293,1.54,5.084,5.084,0,0,0,2.264,4.653,1.536,1.536,0,0,0,.2.13l.006,0c.381.164.656.251,1.147.481C-1157.327-446.764-1157.317-446.759-1157.084-446.67Zm-2.345-6.776a1.043,1.043,0,0,0-.166-1.269,3.969,3.969,0,0,1,.326-5.265,3.925,3.925,0,0,1,5.193-.367c.7.522.888.479,1.417-.207a6.211,6.211,0,0,1,6.347-2.478,5.929,5.929,0,0,1,4.953,4.363c.092.3.124.623.189.934a.68.68,0,0,0,.7.582,3.888,3.888,0,0,1,3.938,3.724,3.822,3.822,0,0,1-2.57,3.986,1.085,1.085,0,0,0-.8.976,3.947,3.947,0,0,1-5.1,3.091c-.132-.043-.261-.094-.393-.135a.655.655,0,0,0-.9.476,2.885,2.885,0,0,0,.72,2.992c.067.065.128.136.191.2l-.048.141a15.894,15.894,0,0,1-1.932-.42,2.822,2.822,0,0,1-1.925-2.395c-.122-.748-.339-.887-1.068-.748a3.948,3.948,0,0,1-4.273-2.028.94.94,0,0,0-.992-.567A3.972,3.972,0,0,1-1159.429-453.446Z" transform="translate(0 0)"/>
    <path id="Trazado_248" data-name="Trazado 248" d="M-1108.209-434.577a3.162,3.162,0,0,0,1.053,3.194,4.254,4.254,0,0,0,4.065.986,6.569,6.569,0,0,0,3.985-3.188.655.655,0,0,0-.192-.915.675.675,0,0,0-.947.205c-.083.111-.151.233-.23.346a5.3,5.3,0,0,1-2.514,2.1,3.262,3.262,0,0,1-3.055-.32,7.424,7.424,0,0,0,1.312-.012,2.7,2.7,0,0,0,2.092-2.309,2.437,2.437,0,0,0-1.8-2.332,3.005,3.005,0,0,0-2.49.194,3.629,3.629,0,0,1,3.041-3.949c0,.1,0,.193.014.287a4.227,4.227,0,0,0,2.376,3.476,2.134,2.134,0,0,0,2.632-.581,2.18,2.18,0,0,0,.147-2.629,3.69,3.69,0,0,0-1.54-1.362c-.59-.279-1.219-.476-1.854-.718a3.075,3.075,0,0,1,1.422-1.276c.488-.221.657-.56.485-.938-.184-.4-.553-.507-1.056-.284a4.518,4.518,0,0,0-2.273,2.272.646.646,0,0,1-.4.324,5.291,5.291,0,0,0-4.384,5.8A4.625,4.625,0,0,1-1108.209-434.577Zm1.722-.629c.327-.207.679-.375.975-.532a5.745,5.745,0,0,1,.856.264.973.973,0,0,1,.625.946,1.154,1.154,0,0,1-.794.978.837.837,0,0,1-1.043-.275,7.166,7.166,0,0,1-.678-1.035A.361.361,0,0,1-1106.488-435.206Zm4.031-5.471a3.749,3.749,0,0,1,2.558,1.282.811.811,0,0,1,.039,1.038.844.844,0,0,1-.976.37A2.78,2.78,0,0,1-1102.457-440.677Z" transform="translate(-47.515 -17.579)"/>
    <path id="Trazado_249" data-name="Trazado 249" d="M-1020.668-382.891a3.891,3.891,0,0,0,3.379-2.136.762.762,0,0,1,.536-.434,3.771,3.771,0,0,0,1.756-6.077.745.745,0,0,0-1.1-.157c-.307.272-.284.634.066,1.059a2.568,2.568,0,0,1,.223,2.913,1.915,1.915,0,0,1-1.07.876,3.418,3.418,0,0,0-.909-2.36,1.9,1.9,0,0,0-2.652-.258,1.922,1.922,0,0,0-.308,2.713,3.507,3.507,0,0,0,2.115,1.347,3.668,3.668,0,0,1-.236.308,2.576,2.576,0,0,1-1.88.837c-.511.011-.822.308-.806.707C-1021.537-383.129-1021.188-382.856-1020.668-382.891Zm1.065-4.547a.644.644,0,0,1,.008-.958.6.6,0,0,1,.922.211,10.81,10.81,0,0,1,.528,1.353l-.137.086A2.159,2.159,0,0,1-1019.6-387.439Z" transform="translate(-124.663 -64.548)"/>
  </g>
</svg>
