<svg xmlns="http://www.w3.org/2000/svg" width="34.431" height="30.403" viewBox="0 0 34.431 30.403">
  <g id="Grupo_1256" data-name="Grupo 1256" transform="translate(752.016 54.713)">
    <g id="Grupo_1255" data-name="Grupo 1255" transform="translate(-746.688 -54.713)">
      <path id="Trazado_243" data-name="Trazado 243" d="M-671.077-40.26c.387,0,.737,0,1.086,0a1.67,1.67,0,0,1,1.713,1.7c.005.28-.016.561,0,.839a3.72,3.72,0,0,1-2.784,3.575.572.572,0,0,0-.454.422,13.949,13.949,0,0,1-9.578,9.166,7.263,7.263,0,0,1-5.177-.584A27.722,27.722,0,0,1-689-26.725c-.391-.241-.45-.573-.237-.859s.541-.29.9-.023a12.618,12.618,0,0,0,3.02,1.664,6.62,6.62,0,0,0,5.211-.082,13.076,13.076,0,0,0,7.686-8.568,5.631,5.631,0,0,0,.2-1.436c.029-1.056.009-2.113.009-3.134a13.689,13.689,0,0,1-1.273-.51,4.312,4.312,0,0,1-1.952-2.41c-.3-.766-.578-1.544-.874-2.313a1.567,1.567,0,0,0-1.688-1.1c-1.191.044-2.384.011-3.577.011a3.015,3.015,0,0,1-.328-.008.539.539,0,0,1-.54-.568.554.554,0,0,1,.572-.542c.279-.014.56,0,.839,0,1.071,0,2.141.008,3.212,0a2.349,2.349,0,0,1,2.309,1.362c.4.827.688,1.706,1.025,2.563A4.285,4.285,0,0,0-673.439-41a2.591,2.591,0,0,0,1.163.612c.032-.051.056-.07.055-.089-.027-1.75.06-3.512-.114-5.247a7.889,7.889,0,0,0-3-5.33,10.414,10.414,0,0,0-8.055-2.485,6.714,6.714,0,0,0-4.994,2.8,1.088,1.088,0,0,1-.561.34c-.545.161-1.117.237-1.653.422a3.818,3.818,0,0,0-2.646,3.23,14.356,14.356,0,0,0-.16,1.994c-.025,1.338-.009,2.676-.009,4.014,0,.107.01.215.017.359a2.294,2.294,0,0,0,1.561-1.02,13.3,13.3,0,0,0,.851-1.761c.261-.612.448-1.257.719-1.864a2.5,2.5,0,0,1,2.543-1.587c1.058.027,2.117.008,3.175,0a.614.614,0,0,1,.628.347.54.54,0,0,1-.51.765c-.461.025-.924.011-1.386.011-.657,0-1.315.025-1.971-.006a1.43,1.43,0,0,0-1.5.984c-.3.74-.555,1.5-.837,2.249a5.469,5.469,0,0,1-1.169,1.957,3.936,3.936,0,0,1-2.122,1.085v.344c0,.633.029,1.267-.005,1.9a9.448,9.448,0,0,0,1.766,5.82c.334.506.723.976,1.094,1.457.283.366.292.667.011.9s-.57.168-.875-.193a13.367,13.367,0,0,1-2.712-4.821c-.065-.217-.2-.263-.381-.318a3.692,3.692,0,0,1-2.76-2.816,6.243,6.243,0,0,1-.03-1.96,1.626,1.626,0,0,1,1.593-1.347c.374-.009.749,0,1.166,0,0-.175,0-.317,0-.459.019-1.715,0-3.431.07-5.143a5.629,5.629,0,0,1,1.664-4.075,6.348,6.348,0,0,1,3.3-1.5.7.7,0,0,0,.4-.2,7.816,7.816,0,0,1,5.614-3.016,11.477,11.477,0,0,1,9.3,3.122,9.409,9.409,0,0,1,3.087,7.182c0,1.216.02,2.433.03,3.649C-671.076-40.561-671.077-40.43-671.077-40.26Zm-23.454,1.114c-.432,0-.8-.019-1.157.005a.565.565,0,0,0-.553.606c-.01.377-.016.755,0,1.131a2.524,2.524,0,0,0,1.709,2.052Zm23.446,3.846a2.671,2.671,0,0,0,1.692-2.02,6.472,6.472,0,0,0,.009-1.275.524.524,0,0,0-.5-.536c-.383-.03-.77-.007-1.2-.007Z" transform="translate(697.368 54.713)"/>
      <path id="Trazado_244" data-name="Trazado 244" d="M-590.551,151.933c1.058,0,2.115,0,3.173,0a1.3,1.3,0,0,1,1.406,1.439,4.64,4.64,0,0,1-4.434,4.5,4.637,4.637,0,0,1-4.686-3.817,5.344,5.344,0,0,1-.071-.8,1.268,1.268,0,0,1,1.329-1.328C-592.739,151.929-591.645,151.933-590.551,151.933Zm0,1.114h-2.771c-.787,0-.787,0-.684.773a3.507,3.507,0,0,0,3.249,2.93,3.507,3.507,0,0,0,3.673-3.321c.024-.3-.088-.388-.368-.385C-588.482,153.053-589.515,153.048-590.548,153.047Z" transform="translate(605.127 -131.785)"/>
      <path id="Trazado_245" data-name="Trazado 245" d="M-532.007,97.882a2.9,2.9,0,0,1,2.08.812.547.547,0,0,1,.092.833.551.551,0,0,1-.812.01,1.906,1.906,0,0,0-2.694-.009.552.552,0,0,1-.837-.018.556.556,0,0,1,.12-.831A2.9,2.9,0,0,1-532.007,97.882Z" transform="translate(550.212 -83.004)"/>
      <path id="Trazado_246" data-name="Trazado 246" d="M-605.689,97.875a2.905,2.905,0,0,1,2.051.791.579.579,0,0,1,.132.833c-.226.271-.536.272-.861,0a1.911,1.911,0,0,0-2.641,0c-.326.271-.635.271-.861,0a.577.577,0,0,1,.13-.832A2.95,2.95,0,0,1-605.689,97.875Z" transform="translate(616.709 -82.998)"/>
    </g>
    <rect id="Rectángulo_783" data-name="Rectángulo 783" width="1.141" height="30.403" rx="0.57" transform="translate(-752.016 -54.713)"/>
  </g>
</svg>
