<svg xmlns="http://www.w3.org/2000/svg" width="33.776" height="29.825" viewBox="0 0 33.776 29.825">
  <g id="Grupo_1254" data-name="Grupo 1254" transform="translate(697.368 54.713)">
    <g id="Grupo_1253" data-name="Grupo 1253" transform="translate(-697.368 -54.713)">
      <path id="Trazado_239" data-name="Trazado 239" d="M-671.577-40.535c.38,0,.723,0,1.066,0a1.638,1.638,0,0,1,1.68,1.668c.005.274-.015.55,0,.823a3.65,3.65,0,0,1-2.731,3.507.561.561,0,0,0-.445.414,13.684,13.684,0,0,1-9.4,8.991,7.125,7.125,0,0,1-5.078-.573,27.2,27.2,0,0,1-2.683-1.553c-.383-.236-.441-.562-.233-.843s.53-.284.882-.022a12.379,12.379,0,0,0,2.963,1.632,6.494,6.494,0,0,0,5.112-.081,12.828,12.828,0,0,0,7.54-8.4,5.521,5.521,0,0,0,.2-1.409c.029-1.036.009-2.072.009-3.074a13.433,13.433,0,0,1-1.249-.5,4.23,4.23,0,0,1-1.914-2.364c-.3-.751-.567-1.514-.857-2.269a1.537,1.537,0,0,0-1.656-1.078c-1.168.043-2.339.011-3.509.011a2.958,2.958,0,0,1-.322-.008.529.529,0,0,1-.53-.557.543.543,0,0,1,.561-.531c.274-.014.549,0,.823,0,1.05,0,2.1.007,3.151,0a2.3,2.3,0,0,1,2.265,1.336c.39.812.675,1.674,1.006,2.514a4.2,4.2,0,0,0,1.026,1.656,2.541,2.541,0,0,0,1.141.6c.032-.05.055-.069.054-.088-.026-1.717.059-3.445-.112-5.147a7.739,7.739,0,0,0-2.944-5.228,10.216,10.216,0,0,0-7.9-2.438,6.586,6.586,0,0,0-4.9,2.742,1.068,1.068,0,0,1-.551.334c-.535.158-1.1.232-1.621.414a3.745,3.745,0,0,0-2.6,3.168,14.085,14.085,0,0,0-.157,1.956c-.024,1.312-.009,2.625-.008,3.938,0,.105.01.211.016.352a2.25,2.25,0,0,0,1.531-1,13.036,13.036,0,0,0,.835-1.727c.256-.6.44-1.233.706-1.828a2.451,2.451,0,0,1,2.495-1.557c1.038.026,2.077.008,3.115,0a.6.6,0,0,1,.616.34.529.529,0,0,1-.5.751c-.452.025-.907.01-1.36.011-.645,0-1.29.024-1.933-.006a1.4,1.4,0,0,0-1.472.965c-.3.726-.544,1.472-.821,2.206a5.365,5.365,0,0,1-1.147,1.92,3.861,3.861,0,0,1-2.081,1.064v.337c0,.621.028,1.243-.005,1.861a9.268,9.268,0,0,0,1.732,5.709c.328.5.709.958,1.073,1.429.277.359.286.655.011.878s-.559.165-.859-.189a13.113,13.113,0,0,1-2.66-4.73c-.064-.213-.2-.258-.374-.312a3.622,3.622,0,0,1-2.708-2.763,6.126,6.126,0,0,1-.029-1.922,1.6,1.6,0,0,1,1.563-1.321c.367-.009.735,0,1.144,0,0-.172,0-.311,0-.45.019-1.682,0-3.366.069-5.046a5.521,5.521,0,0,1,1.632-4,6.227,6.227,0,0,1,3.241-1.467.682.682,0,0,0,.392-.193,7.667,7.667,0,0,1,5.507-2.958,11.259,11.259,0,0,1,9.124,3.063,9.23,9.23,0,0,1,3.028,7.045c0,1.193.019,2.387.029,3.58C-671.576-40.83-671.577-40.7-671.577-40.535Zm-23.008,1.092c-.424,0-.781-.018-1.135.005a.554.554,0,0,0-.542.594c-.01.37-.015.74,0,1.109a2.476,2.476,0,0,0,1.676,2.013Zm23,3.773a2.621,2.621,0,0,0,1.66-1.982,6.349,6.349,0,0,0,.009-1.251.514.514,0,0,0-.491-.526c-.376-.03-.755-.007-1.178-.007Z" transform="translate(697.368 54.713)"/>
      <path id="Trazado_240" data-name="Trazado 240" d="M-590.638,151.933c1.038,0,2.075,0,3.113,0a1.272,1.272,0,0,1,1.379,1.412,4.551,4.551,0,0,1-4.35,4.417,4.549,4.549,0,0,1-4.6-3.744,5.248,5.248,0,0,1-.07-.781,1.244,1.244,0,0,1,1.3-1.3C-592.785,151.929-591.712,151.933-590.638,151.933Zm0,1.093h-2.719c-.772,0-.772,0-.671.759a3.441,3.441,0,0,0,3.187,2.874,3.44,3.44,0,0,0,3.6-3.258c.023-.292-.086-.38-.361-.378C-588.609,153.031-589.623,153.026-590.636,153.026Z" transform="translate(604.938 -132.168)"/>
      <path id="Trazado_241" data-name="Trazado 241" d="M-532.05,97.882a2.842,2.842,0,0,1,2.041.8.537.537,0,0,1,.09.817.54.54,0,0,1-.8.01,1.869,1.869,0,0,0-2.642-.009.542.542,0,0,1-.821-.018.545.545,0,0,1,.118-.816A2.844,2.844,0,0,1-532.05,97.882Z" transform="translate(549.91 -83.287)"/>
      <path id="Trazado_242" data-name="Trazado 242" d="M-605.733,97.875a2.85,2.85,0,0,1,2.012.776.568.568,0,0,1,.129.817c-.221.266-.526.267-.845,0a1.875,1.875,0,0,0-2.59,0c-.319.265-.623.265-.844,0a.566.566,0,0,1,.128-.816A2.894,2.894,0,0,1-605.733,97.875Z" transform="translate(616.543 -83.281)"/>
    </g>
    <rect id="Rect치ngulo_781" data-name="Rect치ngulo 781" width="1.119" height="1.328" transform="translate(-672.7 -42.752)"/>
    <rect id="Rect치ngulo_782" data-name="Rect치ngulo 782" width="1.119" height="29.825" rx="0.559" transform="translate(-664.711 -54.713)"/>
  </g>
</svg>
