<svg xmlns="http://www.w3.org/2000/svg" width="24.002" height="24" viewBox="0 0 24.002 24">
  <g id="Grupo_704" data-name="Grupo 704" transform="translate(-5465.912 -5924.773)">
    <path id="Trazado_205" data-name="Trazado 205" d="M5465.912,6060.343c.069-.309.122-.622.208-.926a5.3,5.3,0,0,1,1.333-2.331c1.719-1.727,3.42-3.474,5.178-5.16a5.612,5.612,0,0,1,8.513,1.094c.1.152.1.245-.042.37-.244.219-.463.464-.7.691a1.4,1.4,0,0,1-1.965.02,2.829,2.829,0,0,0-4.1.087q-2.371,2.368-4.738,4.74a2.7,2.7,0,0,0-.75,2.791,2.8,2.8,0,0,0,4.667,1.219c1.064-1.045,2.115-2.1,3.165-3.165a.314.314,0,0,1,.386-.085,6.787,6.787,0,0,0,3.134.338,1.219,1.219,0,0,1,.14-.006c.012,0,.024.012.053.028-.064.069-.125.137-.188.2-1.519,1.519-3.043,3.032-4.555,4.559a5.657,5.657,0,0,1-3.44,1.729.518.518,0,0,0-.108.04h-1.125a1.265,1.265,0,0,0-.155-.044,5.536,5.536,0,0,1-4.619-3.8,10.743,10.743,0,0,1-.289-1.168Z" transform="translate(0 -117.803)" fill="#168aff"/>
    <path id="Trazado_206" data-name="Trazado 206" d="M5604.476,5938.131c.314-.321.605-.649.929-.941a1.4,1.4,0,0,1,1.912.078,2.807,2.807,0,0,0,1.778.79,2.616,2.616,0,0,0,2.1-.723c1.691-1.667,3.38-3.335,5.033-5.04a2.6,2.6,0,0,0,.56-2.889,2.8,2.8,0,0,0-4.6-.985c-1.062,1.047-2.11,2.108-3.17,3.158a.333.333,0,0,1-.267.1,7.265,7.265,0,0,0-3.453-.338c.068-.079.108-.131.155-.178q2.335-2.336,4.671-4.672a5.627,5.627,0,0,1,9.573,2.841,5.488,5.488,0,0,1-1.515,5.011c-1.683,1.719-3.372,3.433-5.112,5.093a5.6,5.6,0,0,1-8.516-1.148C5604.529,5938.231,5604.5,5938.176,5604.476,5938.131Z" transform="translate(-129.888)" fill="#168aff"/>
  </g>
</svg>
