<svg xmlns="http://www.w3.org/2000/svg" width="47.25" height="42.89" viewBox="0 0 47.25 42.89">
  <g id="Grupo_47" data-name="Grupo 47" transform="translate(0.5 0.5)">
    <path id="Trazado_47" data-name="Trazado 47" d="M-136.676,418.883c-.865,0-1.649.028-2.434-.006a18.146,18.146,0,0,1-2.16-.209c-1.489-.252-2.028-.932-2.046-2.665-.018-1.936.012-3.871.062-5.8a20.329,20.329,0,0,1,.225-3.126,3.342,3.342,0,0,1,3.231-2.883c1.135-.1,2.283-.077,3.428-.108.188-.006.379,0,.622,0-.049-1.049-.092-2.043-.148-3.034q-.226-4.177-.465-8.355c-.111-1.963-.258-3.927-.329-5.89a12.432,12.432,0,0,1,.145-2.643,3.54,3.54,0,0,1,3.674-3.108c4.32-.117,8.644-.225,12.964-.292,1.819-.028,3.64,0,5.456.108,1.348.077,2.686.3,4.025.492a1.1,1.1,0,0,1,.56.345c1.48,1.511,2.939,3.037,4.422,4.545a1.485,1.485,0,0,1,.342,1.163c0,2.419-.022,4.84,0,7.259.034,3.142.1,6.287.16,9.506.228,0,.4,0,.566,0,.917.025,1.837.009,2.751.086a4.075,4.075,0,0,1,3.674,2.847,10.835,10.835,0,0,1,.662,2.853c.154,1.862.182,3.733.215,5.6a6.553,6.553,0,0,1-.219,1.671c-.363,1.455-1.043,1.963-2.64,2.028-1,.043-2,.059-3,.083-.222.006-.446,0-.726,0,.258.736.5,1.409.739,2.089.274.794-.018,1.2-.868,1.2q-16.479,0-32.957,0c-.849,0-1.135-.406-.852-1.215S-137.02,419.828-136.676,418.883Zm32.449-.886c.391-.028.757-.065,1.126-.077.917-.028,1.837-.025,2.754-.071,1.551-.077,1.5-.043,1.825-1.7a1.135,1.135,0,0,0,.015-.289c-.1-2.188-.049-4.394-.326-6.558-.385-3.028-1.723-3.711-4.148-3.7-7.435.015-14.872-.043-22.307-.068-3.551-.012-7.1-.009-10.653-.012-1.031,0-2.065-.018-3.1.009-1.862.052-2.708.911-2.751,2.757-.046,2.129-.1,4.256-.117,6.385-.009.659.071,1.317.1,1.976a.576.576,0,0,0,.615.6c1.64.1,3.277.194,4.917.268.12,0,.3-.163.366-.3.354-.649.668-1.32,1.025-1.966a.7.7,0,0,1,1.129-.243.752.752,0,0,1,.1.972c-.437.862-.889,1.714-1.292,2.594-.385.84-.714,1.708-1.086,2.613h31.517c-.092-.255-.16-.486-.258-.7q-1.034-2.257-2.086-4.505c-.215-.462-.154-.84.2-1.056a.7.7,0,0,1,1.043.357C-105.137,416.194-104.679,417.111-104.227,418Zm-2.373-29.9c-.172,0-.348,0-.52,0-1.354-.021-2.711-.04-4.065-.068-.859-.015-1.043-.209-1.043-1.068q0-2.008,0-4.016c0-.249-.018-.437-.342-.455-1.976-.117-3.951-.32-5.927-.342-2.517-.028-5.031.086-7.548.148-2.271.055-4.545.114-6.819.191a2.193,2.193,0,0,0-2.317,1.963,5.406,5.406,0,0,0-.114,1.2c.055,1.579.129,3.157.212,4.736q.272,4.971.557,9.945c.071,1.234.145,2.468.222,3.773h27.9Zm-.483-1.483-3.693-3.81v3.81Z" transform="translate(143.322 -380.75)" fill="#fff" stroke="#fff" stroke-width="1"/>
    <path id="Trazado_48" data-name="Trazado 48" d="M-128.415,392.382h-9.869a4.352,4.352,0,0,1-.529-.018.633.633,0,0,1-.619-.674.638.638,0,0,1,.591-.7,3.114,3.114,0,0,1,.48-.031h19.882c.742,0,1.108.234,1.12.7.012.486-.357.72-1.142.72Z" transform="translate(151.404 -359.548)" fill="#fff" stroke="#fff" stroke-width="1"/>
    <path id="Trazado_49" data-name="Trazado 49" d="M-131.551,392.446c1.806,0,3.613,0,5.416,0,.52,0,.794.212.825.622a.639.639,0,0,1-.523.751,2.35,2.35,0,0,1-.529.04h-10.4c-.754,0-1.1-.222-1.1-.7s.329-.708,1.089-.711Z" transform="translate(154.657 -356.454)" fill="#fff" stroke="#fff" stroke-width="1"/>
    <path id="Trazado_50" data-name="Trazado 50" d="M-129.124,388.1h-8.515c-.16,0-.323.006-.483-.009a.649.649,0,0,1-.625-.628.644.644,0,0,1,.5-.729,2.23,2.23,0,0,1,.572-.052q8.539,0,17.078,0a2.388,2.388,0,0,1,.575.052.627.627,0,0,1,.5.723.629.629,0,0,1-.606.634,3.587,3.587,0,0,1-.483.012Z" transform="translate(152.818 -368.442)" fill="#fff" stroke="#fff" stroke-width="1"/>
    <path id="Trazado_51" data-name="Trazado 51" d="M-129.827,386.594q-4.016,0-8.031,0c-.382,0-.717-.114-.782-.489a1.018,1.018,0,0,1,.234-.754,1.015,1.015,0,0,1,.671-.185c.966-.018,1.932-.006,2.9-.006h12.724a4.207,4.207,0,0,1,.483.009.756.756,0,0,1,.7.729.717.717,0,0,1-.775.689c-1.274.006-2.548,0-3.822,0Z" transform="translate(153.028 -371.592)" fill="#fff" stroke="#fff" stroke-width="1"/>
    <path id="Trazado_52" data-name="Trazado 52" d="M-129.76,385.083q-3.942,0-7.887,0c-.409,0-.742-.1-.871-.52a.7.7,0,0,1,.575-.9,2.813,2.813,0,0,1,.483-.018h15.386c.114,0,.228-.006.338,0a.725.725,0,0,1,.754.717.706.706,0,0,1-.8.711c-2.209.006-4.419,0-6.628,0Z" transform="translate(153.235 -374.731)" fill="#fff" stroke="#fff" stroke-width="1"/>
  </g>
</svg>
