<svg xmlns="http://www.w3.org/2000/svg" width="30.512" height="27.063" viewBox="0 0 30.512 27.063">
  <g id="Grupo_693" data-name="Grupo 693" transform="translate(-5938.573 -5383.186)">
    <path id="Trazado_202" data-name="Trazado 202" d="M5938.573,5396.347c.08-.507.146-1.019.242-1.523a12.845,12.845,0,0,1,10.191-10.136,12.709,12.709,0,0,1,12.318,4.376l.181.2a1.651,1.651,0,0,1,.2-.318q2.679-2.671,5.368-5.334a1.13,1.13,0,0,1,1.806,1.356,2.523,2.523,0,0,1-.276.311l-15.908,15.818a1.162,1.162,0,0,1-1.863.009q-2.562-2.578-5.12-5.161a1.121,1.121,0,0,1,.385-1.937,1.064,1.064,0,0,1,1.014.167,3.153,3.153,0,0,1,.308.281q2.046,2.061,4.09,4.125a2.3,2.3,0,0,1,.2.273l8.058-8.164c-.343-.356-.735-.816-1.18-1.218a10.246,10.246,0,0,0-6.027-2.7,10.444,10.444,0,0,0-8.381,2.834,10.015,10.015,0,0,0-3.023,5.125,10.378,10.378,0,0,0,1.789,8.934,10.125,10.125,0,0,0,5.908,3.957,10.682,10.682,0,0,0,13.123-8.835c.066-.45.062-.91.093-1.365a1.147,1.147,0,0,1,1.1-1.207,1.113,1.113,0,0,1,1.159,1.188,11.661,11.661,0,0,1-.554,3.658,12.586,12.586,0,0,1-9.228,8.762,12.211,12.211,0,0,1-9.574-1.37,12.616,12.616,0,0,1-5.9-7.613c-.21-.728-.29-1.494-.431-2.242-.018-.095-.041-.189-.062-.283Z" fill="#20c236"/>
  </g>
</svg>
