<svg xmlns="http://www.w3.org/2000/svg" width="25.939" height="26" viewBox="0 0 25.939 26">
  <g id="Grupo_694" data-name="Grupo 694" transform="translate(-5617.693 -5552.471)">
    <path id="Trazado_192" data-name="Trazado 192" d="M5798.374,5552.471c.44.065.885.11,1.321.2a12.661,12.661,0,0,1,10.05,8.7,12.964,12.964,0,0,1-8.569,16.561,12.565,12.565,0,0,1-3.7.544.764.764,0,1,1-.018-1.524,11.343,11.343,0,0,0,8.293-3.616,11.189,11.189,0,0,0,3.039-6.441,11.481,11.481,0,0,0-8.492-12.523,11.992,11.992,0,0,0-2.782-.37.768.768,0,0,1-.348-1.489c.014-.007.021-.024.032-.036Z" transform="translate(-166.812)" fill="#f93"/>
    <path id="Trazado_193" data-name="Trazado 193" d="M5798.167,5624.36c0,1.168,0,2.335,0,3.5a.534.534,0,0,0,.173.42q2.832,2.823,5.656,5.65a.779.779,0,0,1,.27.795.758.758,0,0,1-1.225.412,2.073,2.073,0,0,1-.185-.174q-2.925-2.925-5.854-5.848a1.175,1.175,0,0,1-.37-.9c.01-2.454,0-4.907.005-7.36a.794.794,0,0,1,.508-.8.752.752,0,0,1,1.018.7c.017.583.006,1.167.006,1.751Q5798.167,5623.434,5798.167,5624.36Z" transform="translate(-166.796 -62.958)" fill="#f93"/>
    <path id="Trazado_194" data-name="Trazado 194" d="M5618.442,5753.833a.771.771,0,0,1,.771.667c.075.44.147.881.224,1.321a.778.778,0,0,1-.566.893.744.744,0,0,1-.9-.507,12.761,12.761,0,0,1-.272-1.593A.723.723,0,0,1,5618.442,5753.833Z" transform="translate(0 -187.702)" fill="#f93"/>
    <path id="Trazado_195" data-name="Trazado 195" d="M5677.465,5587.607a.766.766,0,0,1-.752-.454.682.682,0,0,1,.13-.82,13.8,13.8,0,0,1,1.287-1.021.736.736,0,0,1,.99.213.75.75,0,0,1-.093.992c-.389.336-.8.652-1.209.958A1.175,1.175,0,0,1,5677.465,5587.607Z" transform="translate(-54.943 -30.508)" fill="#f93"/>
    <path id="Trazado_196" data-name="Trazado 196" d="M5636.8,5632.947a2.285,2.285,0,0,1,.142-.4c.231-.4.467-.8.721-1.191a.755.755,0,0,1,1.065-.233.777.777,0,0,1,.226,1.052c-.23.394-.467.783-.707,1.17a.75.75,0,0,1-.873.345A.817.817,0,0,1,5636.8,5632.947Z" transform="translate(-17.814 -73.199)" fill="#f93"/>
    <path id="Trazado_197" data-name="Trazado 197" d="M5636.348,5816a.766.766,0,0,1,.515-.782.73.73,0,0,1,.869.292c.271.428.529.864.768,1.311a.745.745,0,0,1-.283.974.721.721,0,0,1-.98-.158c-.31-.461-.572-.954-.847-1.438A.545.545,0,0,1,5636.348,5816Z" transform="translate(-17.389 -244.884)" fill="#f93"/>
    <path id="Trazado_198" data-name="Trazado 198" d="M5729.646,5901.112a.77.77,0,0,1,1-.732c.451.137.9.292,1.342.45a.761.761,0,0,1,.474.943.738.738,0,0,1-.915.514c-.485-.137-.966-.3-1.438-.479A.732.732,0,0,1,5729.646,5901.112Z" transform="translate(-104.358 -324.273)" fill="#f93"/>
    <path id="Trazado_199" data-name="Trazado 199" d="M5617.824,5691.528c.077-.367.167-.9.3-1.42a.733.733,0,0,1,.831-.511.719.719,0,0,1,.634.764,12.792,12.792,0,0,1-.3,1.638.713.713,0,0,1-.871.472C5618.063,5692.4,5617.816,5692.075,5617.824,5691.528Z" transform="translate(-0.122 -127.812)" fill="#f93"/>
    <path id="Trazado_200" data-name="Trazado 200" d="M5677.838,5867.722a.785.785,0,0,1-1.169.689,10.428,10.428,0,0,1-1.3-1.051.757.757,0,0,1,.989-1.127,14.989,14.989,0,0,1,1.214.994A1.658,1.658,0,0,1,5677.838,5867.722Z" transform="translate(-53.587 -292.352)" fill="#f93"/>
    <path id="Trazado_201" data-name="Trazado 201" d="M5734.336,5559.064a.725.725,0,0,1-.511.709c-.446.154-.894.3-1.346.437a.764.764,0,0,1-.5-1.443c.45-.166.907-.318,1.369-.446A.752.752,0,0,1,5734.336,5559.064Z" transform="translate(-106.073 -5.423)" fill="#f93"/>
  </g>
</svg>
