<svg id="Grupo_319" data-name="Grupo 319" xmlns="http://www.w3.org/2000/svg" width="36.666" height="23.37" viewBox="0 0 36.666 23.37">
  <path id="Trazado_138" data-name="Trazado 138" d="M-2660.343-1392.266a16.381,16.381,0,0,1-2.484,3.078,30.874,30.874,0,0,1-7.119,5.761,18.22,18.22,0,0,1-6.95,2.454,15.486,15.486,0,0,1-8.09-1.251,27.443,27.443,0,0,1-8.66-6.087c-1.046-1.058-2-2.207-2.97-3.339a1.24,1.24,0,0,1,0-1.808,32.82,32.82,0,0,1,9.242-8.225,17.962,17.962,0,0,1,6.951-2.448,15.826,15.826,0,0,1,8.965,1.657,30.764,30.764,0,0,1,9.961,8.059c.42.5.773,1.05,1.157,1.577Zm-33.947-.307c.74.8,1.391,1.547,2.085,2.25a25.967,25.967,0,0,0,8.109,5.818,13.805,13.805,0,0,0,4.751,1.186,14.133,14.133,0,0,0,7.337-1.763,27,27,0,0,0,6.757-5.113c.744-.751,1.439-1.55,2.183-2.356-.7-.76-1.343-1.5-2.026-2.191a26.019,26.019,0,0,0-8.13-5.849,13.8,13.8,0,0,0-4.785-1.194,14.206,14.206,0,0,0-7.366,1.788,25.578,25.578,0,0,0-5.979,4.377C-2692.356-1394.655-2693.289-1393.618-2694.291-1392.573Z" transform="translate(2697.01 1404.236)" fill="#41b3e2"/>
  <path id="Trazado_139" data-name="Trazado 139" d="M-2558.8-1347.523a7.254,7.254,0,0,1-7.257,7.244,7.253,7.253,0,0,1-7.244-7.257,7.253,7.253,0,0,1,7.257-7.244A7.255,7.255,0,0,1-2558.8-1347.523Zm-2.44,0a4.792,4.792,0,0,0-4.8-4.823,4.794,4.794,0,0,0-4.823,4.8,4.8,4.8,0,0,0,4.8,4.823A4.793,4.793,0,0,0-2561.238-1347.519Z" transform="translate(2584.39 1359.214)" fill="#41b3e2"/>
</svg>
