<svg xmlns="http://www.w3.org/2000/svg" width="17.835" height="22.277" viewBox="0 0 17.835 22.277">
  <g id="Grupo_59" data-name="Grupo 59" transform="translate(322.315 73.766)">
    <path id="Trazado_86" data-name="Trazado 86" d="M-317.858-67.093c0-.713,0-1.389,0-2.066a4.724,4.724,0,0,1,.309-1.784,4.474,4.474,0,0,1,4.7-2.8,4.388,4.388,0,0,1,3.823,3.684,21.178,21.178,0,0,1,.087,2.549c0,.128,0,.256,0,.44.506,0,.983-.024,1.456,0a3.327,3.327,0,0,1,2.949,2.792,6.772,6.772,0,0,1,.049.805q0,4.3,0,8.609a3.323,3.323,0,0,1-2.34,3.2,3.977,3.977,0,0,1-1.127.16q-5.452.018-10.9.006a3.336,3.336,0,0,1-3.385-2.674,3.382,3.382,0,0,1-.073-.724q-.008-4.4,0-8.792a3.35,3.35,0,0,1,2.8-3.363,4.546,4.546,0,0,1,.7-.046C-318.51-67.1-318.207-67.093-317.858-67.093Zm2.207-.023h4.457c0-.8.026-1.586-.007-2.365a2.162,2.162,0,0,0-1.9-2.027,2.114,2.114,0,0,0-2.421,1.648A22.706,22.706,0,0,0-315.651-67.116Zm2.271,6.723A1.088,1.088,0,0,0-314.5-59.3a1.09,1.09,0,0,0,1.07,1.112,1.091,1.091,0,0,0,1.131-1.076A1.089,1.089,0,0,0-313.38-60.393Z" fill="#25aae1"/>
  </g>
</svg>
