<?xml version="1.0" encoding="UTF-8" standalone="no"?><!DOCTYPE svg PUBLIC "-//W3C//DTD SVG 1.1//EN" "http://www.w3.org/Graphics/SVG/1.1/DTD/svg11.dtd"><svg width="100%" height="100%" viewBox="0 0 2138 2138" version="1.1" xmlns="http://www.w3.org/2000/svg" xmlns:xlink="http://www.w3.org/1999/xlink" xml:space="preserve" xmlns:serif="http://www.serif.com/" style="fill-rule:evenodd;clip-rule:evenodd;stroke-linejoin:round;stroke-miterlimit:2;"><rect id="Assignments" x="2.471" y="3.248" width="2133.33" height="2133.33" style="fill:none;"/><g><path d="M1069.14,319.414c0,0 -61.104,-60.657 -107.248,-95.471c-95.291,-71.874 -228.1,-141.109 -385.226,-141.109c-195.132,-0 -353.364,49.24 -451.535,90.605c-24.733,10.421 -40.939,41.166 -40.939,75.439l-0,1605.32c-0,54.267 39.507,93.321 79.469,80.612c109.613,-34.845 250.214,-64.213 413.005,-64.213c217.069,-0 379.131,97.416 492.474,190.494l0,-387.112" style="fill:none;stroke:#0d59a4;stroke-width:150px;"/><path d="M1069.14,445.493l0,-126.079c0,0 61.104,-60.657 107.249,-95.471c95.293,-71.874 228.101,-141.109 385.225,-141.109c195.131,-0 353.362,49.24 451.537,90.605c24.735,10.421 40.937,41.166 40.937,75.439l0,1605.32c0,54.267 -39.509,93.321 -79.473,80.612c-109.612,-34.845 -250.214,-64.213 -413.001,-64.213c-217.07,-0 -379.131,97.416 -492.474,190.494l0,-399.039" style="fill:none;stroke:#0d59a4;stroke-width:150px;"/><g><path d="M1534.7,350.653l-51.73,68.286" style="fill:none;fill-rule:nonzero;stroke:#fcb461;stroke-width:126.63px;stroke-linecap:round;stroke-miterlimit:4;"/><path d="M603.573,350.653l51.729,68.286" style="fill:none;fill-rule:nonzero;stroke:#fcb461;stroke-width:126.63px;stroke-linecap:round;stroke-miterlimit:4;"/><path d="M1534.7,1306.66l-51.73,-68.286" style="fill:none;fill-rule:nonzero;stroke:#fcb461;stroke-width:126.63px;stroke-linecap:round;stroke-miterlimit:4;"/><path d="M603.573,1306.66l51.729,-68.286" style="fill:none;fill-rule:nonzero;stroke:#fcb461;stroke-width:126.63px;stroke-linecap:round;stroke-miterlimit:4;"/><path d="M913.95,1443.23l310.377,0" style="fill:none;fill-rule:nonzero;stroke:#fcbe61;stroke-width:126.63px;stroke-linecap:round;stroke-miterlimit:4;"/><path d="M913.95,1443.23l310.377,0" style="fill:none;fill-rule:nonzero;stroke:#fcde61;stroke-width:25.79px;stroke-linecap:round;stroke-miterlimit:4;"/><path d="M965.679,1648.09l206.918,0" style="fill:none;fill-rule:nonzero;stroke:#fcbe61;stroke-width:126.63px;stroke-linecap:round;stroke-miterlimit:4;"/><path d="M987.911,1655.66l162.454,-0" style="fill:none;fill-rule:nonzero;stroke:#fcde61;stroke-width:22.11px;stroke-linecap:round;stroke-miterlimit:4;"/><path d="M1069.13,418.939c-206.923,0 -312.857,133.177 -310.375,341.43c1.21,101.533 25.857,170.714 77.595,239c51.737,68.286 77.602,102.429 77.594,239.001l310.374,-0c0.011,-136.565 25.875,-170.715 77.589,-238.994l0.005,-0.007c51.725,-68.286 76.389,-137.467 77.595,-239c2.483,-208.253 -103.449,-341.43 -310.377,-341.43Z" style="fill:none;fill-rule:nonzero;stroke:#fff;stroke-width:214.86px;"/><path d="M1069.13,418.939c-206.923,0 -312.857,133.177 -310.375,341.43c1.21,101.533 25.857,170.714 77.595,239c51.737,68.286 77.602,102.429 77.594,239.001l310.374,-0c0.011,-136.565 25.875,-170.715 77.589,-238.994l0.005,-0.007c51.725,-68.286 76.389,-137.467 77.595,-239c2.483,-208.253 -103.449,-341.43 -310.377,-341.43Z" style="fill:#fcde61;fill-rule:nonzero;"/><path d="M1069.13,418.939c-206.923,0 -312.857,133.177 -310.375,341.43c1.21,101.533 25.857,170.714 77.595,239c51.737,68.286 77.602,102.429 77.594,239.001l310.374,-0c0.011,-136.565 25.875,-170.715 77.589,-238.994l0.005,-0.007c51.725,-68.286 76.389,-137.467 77.595,-239c2.483,-208.253 -103.449,-341.43 -310.377,-341.43Z" style="fill:none;fill-rule:nonzero;stroke:#fcbe61;stroke-width:55.42px;stroke-linecap:round;stroke-miterlimit:4;"/></g></g></svg>