<?xml version="1.0" encoding="UTF-8" standalone="no"?><!DOCTYPE svg PUBLIC "-//W3C//DTD SVG 1.1//EN" "http://www.w3.org/Graphics/SVG/1.1/DTD/svg11.dtd"><svg width="100%" height="100%" viewBox="0 0 2138 2138" version="1.1" xmlns="http://www.w3.org/2000/svg" xmlns:xlink="http://www.w3.org/1999/xlink" xml:space="preserve" xmlns:serif="http://www.serif.com/" style="fill-rule:evenodd;clip-rule:evenodd;stroke-linejoin:round;stroke-miterlimit:2;"><rect id="Assignements" x="2.471" y="3.248" width="2133.33" height="2133.33" style="fill:none;"/><g><path d="M1069.14,433.838c0,-0 -51.813,-51.435 -90.942,-80.955c-80.801,-60.946 -193.417,-119.654 -326.652,-119.654c-165.463,-0 -299.636,41.753 -382.88,76.829c-20.972,8.836 -34.714,34.906 -34.714,63.968l-0,1361.23c-0,46.016 33.5,79.132 67.386,68.355c92.946,-29.547 212.169,-54.45 350.208,-54.45c184.064,0 321.485,82.605 417.594,161.53l0,-328.252" style="fill:none;stroke:#0d59a4;stroke-width:66.67px;"/><path d="M1069.14,540.746l0,-106.908c0,-0 51.813,-51.435 90.942,-80.955c80.804,-60.946 193.419,-119.654 326.652,-119.654c165.462,-0 299.635,41.753 382.882,76.829c20.974,8.836 34.713,34.906 34.713,63.968l-0,1361.23c-0,46.016 -33.502,79.132 -67.39,68.355c-92.946,-29.547 -212.169,-54.45 -350.205,-54.45c-184.065,0 -321.485,82.605 -417.594,161.53l0,-338.366" style="fill:none;stroke:#0d59a4;stroke-width:66.67px;"/><g><path d="M1463.91,460.327l-43.864,57.903" style="fill:none;fill-rule:nonzero;stroke:#fcb461;stroke-width:107.37px;stroke-linecap:round;stroke-miterlimit:4;"/><path d="M674.361,460.327l43.864,57.903" style="fill:none;fill-rule:nonzero;stroke:#fcb461;stroke-width:107.37px;stroke-linecap:round;stroke-miterlimit:4;"/><path d="M1463.91,1270.97l-43.864,-57.904" style="fill:none;fill-rule:nonzero;stroke:#fcb461;stroke-width:107.37px;stroke-linecap:round;stroke-miterlimit:4;"/><path d="M674.361,1270.97l43.864,-57.904" style="fill:none;fill-rule:nonzero;stroke:#fcb461;stroke-width:107.37px;stroke-linecap:round;stroke-miterlimit:4;"/><path d="M937.546,1386.78l263.184,-0" style="fill:none;fill-rule:nonzero;stroke:#fcbe61;stroke-width:107.37px;stroke-linecap:round;stroke-miterlimit:4;"/><path d="M937.546,1386.78l263.184,-0" style="fill:none;fill-rule:nonzero;stroke:#fcde61;stroke-width:21.87px;stroke-linecap:round;stroke-miterlimit:4;"/><path d="M981.41,1560.49l175.456,0" style="fill:none;fill-rule:nonzero;stroke:#fcbe61;stroke-width:107.37px;stroke-linecap:round;stroke-miterlimit:4;"/><path d="M1000.26,1566.91l137.752,0" style="fill:none;fill-rule:nonzero;stroke:#fcde61;stroke-width:18.75px;stroke-linecap:round;stroke-miterlimit:4;"/><path d="M1069.13,518.23c-175.461,-0 -265.287,112.928 -263.182,289.515c1.026,86.096 21.925,144.758 65.796,202.661c43.871,57.904 65.803,86.855 65.796,202.661l263.183,0c0.008,-115.8 21.94,-144.757 65.791,-202.655l0.005,-0.006c43.86,-57.903 64.774,-116.565 65.796,-202.661c2.105,-176.587 -87.719,-289.515 -263.185,-289.515Z" style="fill:none;fill-rule:nonzero;stroke:#fff;stroke-width:182.19px;"/><path d="M1069.13,518.23c-175.461,-0 -265.287,112.928 -263.182,289.515c1.026,86.096 21.925,144.758 65.796,202.661c43.871,57.904 65.803,86.855 65.796,202.661l263.183,0c0.008,-115.8 21.94,-144.757 65.791,-202.655l0.005,-0.006c43.86,-57.903 64.774,-116.565 65.796,-202.661c2.105,-176.587 -87.719,-289.515 -263.185,-289.515Z" style="fill:#fcde61;fill-rule:nonzero;"/><path d="M1069.13,518.23c-175.461,-0 -265.287,112.928 -263.182,289.515c1.026,86.096 21.925,144.758 65.796,202.661c43.871,57.904 65.803,86.855 65.796,202.661l263.183,0c0.008,-115.8 21.94,-144.757 65.791,-202.655l0.005,-0.006c43.86,-57.903 64.774,-116.565 65.796,-202.661c2.105,-176.587 -87.719,-289.515 -263.185,-289.515Z" style="fill:none;fill-rule:nonzero;stroke:#fcbe61;stroke-width:46.99px;stroke-linecap:round;stroke-miterlimit:4;"/></g></g></svg>