<?xml version="1.0" encoding="UTF-8" standalone="no"?><!DOCTYPE svg PUBLIC "-//W3C//DTD SVG 1.1//EN" "http://www.w3.org/Graphics/SVG/1.1/DTD/svg11.dtd"><svg width="100%" height="100%" viewBox="0 0 2138 2138" version="1.1" xmlns="http://www.w3.org/2000/svg" xmlns:xlink="http://www.w3.org/1999/xlink" xml:space="preserve" xmlns:serif="http://www.serif.com/" style="fill-rule:evenodd;clip-rule:evenodd;stroke-linejoin:round;stroke-miterlimit:2;"><rect id="Assignments" x="2.471" y="3.248" width="2133.33" height="2133.33" style="fill:none;"/><clipPath id="_clip1"><rect x="2.471" y="3.248" width="2133.33" height="2133.33"/></clipPath><g clip-path="url(#_clip1)"><g><path d="M1069.14,262.619c0,-0 -65.715,-65.235 -115.343,-102.677c-102.481,-77.299 -245.314,-151.759 -414.299,-151.759c-209.859,-0 -380.032,52.956 -485.613,97.443c-26.6,11.208 -44.029,44.273 -44.029,81.132l0,1726.47c0,58.362 42.489,100.364 85.467,86.695c117.885,-37.475 269.098,-69.059 444.175,-69.059c233.452,0 407.745,104.769 529.642,204.871l0,-416.328" style="fill:none;stroke:#0d59a4;stroke-width:66.67px;"/><path d="M1069.14,398.213l0,-135.594c0,-0 65.715,-65.235 115.343,-102.677c102.486,-77.299 245.317,-151.759 414.299,-151.759c209.857,-0 380.031,52.956 485.615,97.443c26.602,11.208 44.027,44.273 44.027,81.132l-0,1726.47c-0,58.362 -42.491,100.364 -85.471,86.695c-117.885,-37.475 -269.098,-69.059 -444.171,-69.059c-233.453,0 -407.745,104.769 -529.642,204.871l0,-429.155" style="fill:none;stroke:#0d59a4;stroke-width:66.67px;"/><g><path d="M1569.84,296.215l-55.634,73.439" style="fill:none;fill-rule:nonzero;stroke:#fcb461;stroke-width:136.18px;stroke-linecap:round;stroke-miterlimit:4;"/><path d="M568.435,296.215l55.634,73.439" style="fill:none;fill-rule:nonzero;stroke:#fcb461;stroke-width:136.18px;stroke-linecap:round;stroke-miterlimit:4;"/><path d="M1569.84,1324.37l-55.634,-73.44" style="fill:none;fill-rule:nonzero;stroke:#fcb461;stroke-width:136.18px;stroke-linecap:round;stroke-miterlimit:4;"/><path d="M568.435,1324.37l55.634,-73.44" style="fill:none;fill-rule:nonzero;stroke:#fcb461;stroke-width:136.18px;stroke-linecap:round;stroke-miterlimit:4;"/><path d="M902.237,1471.25l333.802,-0" style="fill:none;fill-rule:nonzero;stroke:#fcbe61;stroke-width:136.18px;stroke-linecap:round;stroke-miterlimit:4;"/><path d="M902.237,1471.25l333.802,-0" style="fill:none;fill-rule:nonzero;stroke:#fcde61;stroke-width:27.74px;stroke-linecap:round;stroke-miterlimit:4;"/><path d="M957.871,1691.57l222.534,0" style="fill:none;fill-rule:nonzero;stroke:#fcbe61;stroke-width:136.18px;stroke-linecap:round;stroke-miterlimit:4;"/><path d="M981.781,1699.72l174.714,-0" style="fill:none;fill-rule:nonzero;stroke:#fcde61;stroke-width:23.78px;stroke-linecap:round;stroke-miterlimit:4;"/><path d="M1069.13,369.654c-222.54,0 -336.469,143.229 -333.799,367.198c1.301,109.197 27.808,183.599 83.45,257.039c55.642,73.439 83.459,110.159 83.451,257.038l333.799,0c0.011,-146.872 27.828,-183.599 83.445,-257.031l0.005,-0.007c55.628,-73.44 82.154,-147.842 83.451,-257.039c2.67,-223.969 -111.257,-367.198 -333.802,-367.198Z" style="fill:none;fill-rule:nonzero;stroke:#fff;stroke-width:231.07px;"/><path d="M1069.13,369.654c-222.54,0 -336.469,143.229 -333.799,367.198c1.301,109.197 27.808,183.599 83.45,257.039c55.642,73.439 83.459,110.159 83.451,257.038l333.799,0c0.011,-146.872 27.828,-183.599 83.445,-257.031l0.005,-0.007c55.628,-73.44 82.154,-147.842 83.451,-257.039c2.67,-223.969 -111.257,-367.198 -333.802,-367.198Z" style="fill:#fcde61;fill-rule:nonzero;"/><path d="M1069.13,369.654c-222.54,0 -336.469,143.229 -333.799,367.198c1.301,109.197 27.808,183.599 83.45,257.039c55.642,73.439 83.459,110.159 83.451,257.038l333.799,0c0.011,-146.872 27.828,-183.599 83.445,-257.031l0.005,-0.007c55.628,-73.44 82.154,-147.842 83.451,-257.039c2.67,-223.969 -111.257,-367.198 -333.802,-367.198Z" style="fill:none;fill-rule:nonzero;stroke:#fcbe61;stroke-width:59.6px;stroke-linecap:round;stroke-miterlimit:4;"/></g></g></g></svg>