<?xml version="1.0" encoding="UTF-8" standalone="no"?><!DOCTYPE svg PUBLIC "-//W3C//DTD SVG 1.1//EN" "http://www.w3.org/Graphics/SVG/1.1/DTD/svg11.dtd"><svg width="100%" height="100%" viewBox="0 0 2138 2138" version="1.1" xmlns="http://www.w3.org/2000/svg" xmlns:xlink="http://www.w3.org/1999/xlink" xml:space="preserve" xmlns:serif="http://www.serif.com/" style="fill-rule:evenodd;clip-rule:evenodd;stroke-linecap:square;stroke-miterlimit:1.5;"><rect id="Attendance" x="2.951" y="0.495" width="2133.33" height="2133.33" style="fill:none;"/><g><g><g><path d="M495.886,871.943c50.746,166.401 181.152,339.292 356.994,339.292c175.842,0 306.543,-172.891 356.995,-339.292c43.37,-15.047 79.659,-58.417 93.824,-114.474c19.473,-77.005 -9.149,-148.404 -64.613,-169.941c5.016,-20.358 7.671,-41.305 7.671,-62.843c-0.006,-182.628 -182.04,-330.146 -406.566,-330.146c-224.523,-0 -407.151,147.813 -407.151,330.146c-0,25.963 4.131,51.336 10.916,75.529c-40.125,30.389 -58.417,91.757 -41.895,157.55c14.165,55.762 50.451,99.132 93.825,114.179Zm-27.147,-212.131c5.901,-9.736 13.572,-16.227 23.308,-18.883c1.771,-0.295 4.131,-0.59 6.196,-0.59c1.77,0 3.246,0 5.016,0.295l28.028,2.656l4.131,-27.734c8.556,-57.827 26.553,-109.753 51.926,-154.009c47.501,53.402 141.913,89.691 250.781,89.691c123.031,0 227.769,-46.321 266.419,-111.229c32.454,48.681 55.466,107.984 65.495,175.547l4.13,27.734l28.029,-2.656c4.13,-0.295 7.966,-0.295 11.211,0.295c2.065,0.295 3.248,1.771 5.311,2.361c25.376,11.211 38.355,55.762 27.441,100.017c-11.214,45.141 -40.718,71.694 -64.023,74.644l-19.475,2.656l-5.311,18.882c-42.482,155.189 -160.497,312.739 -305.068,312.739c-144.568,0 -262.582,-157.255 -304.478,-312.739l-5.31,-18.882l-19.473,-2.656c-23.308,-2.95 -52.811,-30.093 -64.023,-74.644c-7.37,-31.864 -2.944,-64.023 9.739,-83.495Z" style="fill:#04530e;fill-rule:nonzero;"/><path d="M1199.55,1077.88c-37.764,64.318 -81.43,118.9 -139.552,148.105c-119.49,61.073 -208.296,110.639 -208.296,110.639l-0.295,-0.295l0,-1.475l-1.475,0.59l-1.475,-0.59l-0,1.475l-0.295,0.295c-0,-0 -88.806,-49.268 -208.296,-110.639c-57.827,-29.798 -101.493,-84.085 -139.553,-148.105c-176.724,71.694 -300.347,237.209 -300.347,381.187l-0,299.167l1299.34,0l-0,-299.167c0.593,-143.978 -123.028,-309.198 -299.758,-381.187Z" style="fill:#04530e;fill-rule:nonzero;"/></g></g><path d="M1383.69,900.518c0,0 -751.433,-114.568 -656.013,636.561l-1.995,402.706l1218.54,0l-0,-1020.92l-560.531,-18.351Z" style="fill:#fff;"/><g><g><path d="M1754.26,1905.53l197.985,-99.742l-198.584,-98.543l0.599,198.285Z" style="fill:#04530e;"/><path d="M1793.61,1806.27c-220.04,0.665 -591.139,1.787 -591.139,1.787c-56.806,-0 -111.148,-10.636 -161.14,-30.024" style="fill:none;stroke:#04530e;stroke-width:66.1px;"/><path d="M1202.47,1775.01l33.048,0l0,66.096l-33.048,-0l-33.048,-0l0,-66.096l33.048,0Zm-127.71,-20.138l31.428,10.217l-20.434,62.858l-31.429,-10.218l-31.429,-10.217l20.435,-62.857l31.429,10.217Zm-115.122,-58.796l26.717,19.452l-38.903,53.433l-26.716,-19.451l-26.718,-19.452l38.903,-53.433l26.717,19.451Zm-91.477,-91.477l19.451,26.717l-53.433,38.903l-19.452,-26.717l-19.452,-26.718l53.434,-38.902l19.452,26.717Zm-58.796,-115.121l10.217,31.429l-62.857,20.434l-10.218,-31.429l-10.217,-31.429l62.857,-20.434l10.218,31.429Zm-20.139,-127.711l0,33.047l-66.095,0l-0,-33.047l-0,-33.049l66.095,0l0,33.049Zm20.138,-127.712l-10.217,31.429l-62.857,-20.434l10.217,-31.429l10.217,-31.429l62.857,20.434l-10.217,31.429Zm58.796,-115.121l-19.451,26.717l-53.434,-38.903l19.452,-26.717l19.451,-26.717l53.434,38.903l-19.452,26.717Zm91.477,-91.478l-26.716,19.452l-38.903,-53.434l26.716,-19.451l26.718,-19.452l38.903,53.434l-26.718,19.451Zm115.121,-58.796l-31.428,10.217l-20.434,-62.857l31.428,-10.217l31.429,-10.217l20.435,62.857l-31.43,10.217Zm127.712,-20.138l-33.048,-0l0,-66.096l33.048,0l33.048,0l0,66.096l-33.048,-0Z" style="fill:#04530e;"/><path d="M1202.47,915.47c246.316,-0 446.292,199.977 446.292,446.292" style="fill:none;stroke:#04530e;stroke-width:118.18px;"/><circle cx="1609.71" cy="1098.44" r="208.679" style="fill:#fff;"/><path d="M1609.71,826.67c149.996,-0 271.774,121.778 271.774,271.774c-0,149.996 -121.778,271.774 -271.774,271.774c-149.997,-0 -271.774,-121.778 -271.774,-271.774c-0,-149.996 121.777,-271.774 271.774,-271.774Zm-0,63.095c-115.173,-0 -208.679,93.506 -208.679,208.679c-0,115.173 93.506,208.679 208.679,208.679c115.173,-0 208.679,-93.506 208.679,-208.679c-0,-115.173 -93.506,-208.679 -208.679,-208.679Z" style="fill:#04530e;"/><path d="M1540.17,1074.46l67.575,99.846l268.14,-327.128" style="fill:none;stroke:#04530e;stroke-width:63.09px;stroke-linecap:round;stroke-linejoin:round;"/><path d="M1202.79,1390.74l-0.045,-369.012" style="fill:none;stroke:#04530e;stroke-width:33.05px;stroke-linecap:round;"/><path d="M1202.83,1394.74l-190.911,108.042" style="fill:none;stroke:#04530e;stroke-width:47.88px;stroke-linecap:round;"/><circle cx="1202.79" cy="1390.74" r="57.734" style="fill:#04530e;"/></g></g></g></svg>