<?xml version="1.0" encoding="UTF-8" standalone="no"?><!DOCTYPE svg PUBLIC "-//W3C//DTD SVG 1.1//EN" "http://www.w3.org/Graphics/SVG/1.1/DTD/svg11.dtd"><svg width="100%" height="100%" viewBox="0 0 2138 2138" version="1.1" xmlns="http://www.w3.org/2000/svg" xmlns:xlink="http://www.w3.org/1999/xlink" xml:space="preserve" xmlns:serif="http://www.serif.com/" style="fill-rule:evenodd;clip-rule:evenodd;stroke-miterlimit:10;"><rect id="Big-BraA.I.n" serif:id="Big BraA.I.n" x="3.626" y="2.806" width="2133.33" height="2133.33" style="fill:none;"/><g><g><path d="M668.085,1715.62l1.401,1.074c-0.039,-0.033 -0.039,-0.033 -0.077,-0.067l-1.324,-1.007Z" style="fill:#372413;fill-rule:nonzero;"/><path d="M1901.75,284.176c-152.889,-153.937 -382.83,-258.768 -677.463,-274.078c-23.966,-1.268 -47.817,-1.915 -71.442,-1.915c-247.797,-0 -475.745,69.282 -642.851,196.475c-167.222,126.866 -271.346,312.616 -270.97,535.089c-0,5.037 0.038,10.074 0.149,15.144l-0.26,26.839l-212.7,323.436c-11.434,17.449 -17.212,36.918 -17.212,56.386c0,16.242 4.006,32.56 12.114,47.766c17.173,32.27 50.947,55.473 90.951,63.466l-0.078,0.29l97.822,23.203l38.646,320.97l0.303,-0.033c2.72,46.763 26.947,90.665 68.086,121.472c36.571,27.427 83.253,42.31 131.258,42.31c4.863,0 9.658,-0.389 14.492,-0.68l110.839,7.57l5.551,-0.518l1.772,-0.066c4.261,-0 8.228,1.302 11.285,3.673l0.183,0.166c3.515,2.728 5.59,6.724 5.59,10.82l-0,328.801l1034.92,-0l0,-239.072c-0.115,-21.711 4.906,-64.635 14.795,-106.038c4.906,-20.762 10.977,-41.465 17.852,-59.366c6.793,-17.872 14.646,-33.082 21.208,-41.954c68.838,-95.541 166.168,-173.919 255.303,-284.766c89.03,-110.747 164.921,-254.415 185.715,-472.402c2.643,-27.328 3.967,-54.66 3.967,-81.856c0,-206.657 -76.685,-407.328 -229.83,-561.132Z" style="fill:#2aace2;fill-rule:nonzero;"/></g><g><circle cx="1160.4" cy="923.436" r="672.138" style="fill:#fafafa;"/><clipPath id="_clip1"><circle cx="1160.4" cy="923.436" r="672.138"/></clipPath><g clip-path="url(#_clip1)"><path d="M672.683,831.937c14.466,0 26.211,-11.744 26.211,-26.211c-0,-14.466 -11.745,-26.21 -26.211,-26.21c-14.466,-0 -26.211,11.744 -26.211,26.21c-0,14.467 11.745,26.211 26.211,26.211Z" style="fill:none;stroke:#2aace2;stroke-width:26.21px;"/><path d="M646.472,805.726l-293.676,0l0,-466.403" style="fill:none;stroke:#2aace2;stroke-width:26.21px;stroke-linejoin:round;stroke-miterlimit:1.5;"/><path d="M732.528,619.173c14.466,0 26.211,-11.744 26.211,-26.211c-0,-14.466 -11.745,-26.21 -26.211,-26.21c-14.466,-0 -26.211,11.744 -26.211,26.21c0,14.467 11.745,26.211 26.211,26.211Z" style="fill:none;stroke:#2aace2;stroke-width:26.21px;"/><path d="M706.317,592.962l-100.305,0l0,212.764" style="fill:none;stroke:#2aace2;stroke-width:26.21px;stroke-linejoin:round;stroke-miterlimit:1.5;"/><circle cx="868.53" cy="436.895" r="26.211" style="fill:none;stroke:#2aace2;stroke-width:26.21px;"/><path d="M894.741,436.895l551.188,0l-5.06,-369.438" style="fill:none;stroke:#2aace2;stroke-width:26.21px;stroke-linejoin:round;stroke-miterlimit:1.5;"/><path d="M1527.24,549.356c-14.467,-0.039 -26.243,11.674 -26.282,26.14c-0.039,14.466 11.674,26.243 26.141,26.282c14.466,0.038 26.242,-11.675 26.281,-26.141c0.039,-14.466 -11.674,-26.242 -26.14,-26.281Z" style="fill:none;stroke:#2aace2;stroke-width:26.21px;"/><path d="M1553.38,575.637c143.166,0.385 471.174,1.267 471.174,1.267l-0,-432.822" style="fill:none;stroke:#2aace2;stroke-width:26.21px;stroke-linejoin:round;stroke-miterlimit:1.5;"/><path d="M1647.29,979.057c0,14.466 11.745,26.211 26.211,26.211c14.466,-0 26.211,-11.745 26.211,-26.211c-0,-14.466 -11.745,-26.211 -26.211,-26.211c-14.466,0 -26.211,11.745 -26.211,26.211Z" style="fill:none;stroke:#2aace2;stroke-width:26.21px;"/><path d="M1673.5,952.846l0,-375.942" style="fill:none;stroke:#2aace2;stroke-width:26.21px;stroke-linejoin:round;stroke-miterlimit:1.5;"/><path d="M1373.67,1187.89c0,-14.466 -11.744,-26.211 -26.21,-26.211c-14.467,0 -26.211,11.745 -26.211,26.211c-0,14.466 11.744,26.211 26.211,26.211c14.466,-0 26.21,-11.745 26.21,-26.211Z" style="fill:none;stroke:#2aace2;stroke-width:26.21px;"/><path d="M1347.46,1214.1l-0,239.272l-815.064,0" style="fill:none;stroke:#2aace2;stroke-width:26.21px;stroke-linejoin:round;stroke-miterlimit:1.5;"/><path d="M886.789,1286.13c14.466,-0 26.211,-11.745 26.211,-26.211c-0,-14.466 -11.745,-26.211 -26.211,-26.211c-14.466,-0 -26.211,11.745 -26.211,26.211c0,14.466 11.745,26.211 26.211,26.211Z" style="fill:none;stroke:#2aace2;stroke-width:26.21px;"/><path d="M860.578,1259.92l-60.505,-0l-0,193.445" style="fill:none;stroke:#2aace2;stroke-width:26.21px;stroke-linejoin:round;stroke-miterlimit:1.5;"/><path d="M1281.62,720.934c14.467,0 26.211,-11.745 26.211,-26.211c0,-14.466 -11.744,-26.211 -26.211,-26.211c-14.466,0 -26.21,11.745 -26.21,26.211c-0,14.466 11.744,26.211 26.21,26.211Z" style="fill:none;stroke:#2aace2;stroke-width:26.21px;"/><path d="M1255.41,694.723l-133.99,0l-0,-257.828" style="fill:none;stroke:#2aace2;stroke-width:26.21px;stroke-linejoin:round;stroke-miterlimit:1.5;"/><circle cx="922.203" cy="1152.35" r="26.211" style="fill:none;stroke:#2aace2;stroke-width:26.21px;"/><path d="M948.414,1152.35l113.571,0l0,301.018" style="fill:none;stroke:#2aace2;stroke-width:26.21px;stroke-linejoin:round;stroke-miterlimit:1.5;"/><path d="M1565.9,1329.07c14.466,0 26.211,-11.744 26.211,-26.211c0,-14.466 -11.745,-26.211 -26.211,-26.211c-14.466,0 -26.211,11.745 -26.211,26.211c0,14.467 11.745,26.211 26.211,26.211Z" style="fill:none;stroke:#2aace2;stroke-width:26.21px;"/><path d="M1539.69,1302.86l-192.226,0" style="fill:none;stroke:#2aace2;stroke-width:26.21px;stroke-linejoin:round;stroke-miterlimit:1.5;"/><path d="M1729.99,869.116c0,14.466 11.745,26.21 26.211,26.21c14.467,0 26.211,-11.744 26.211,-26.21c0,-14.467 -11.744,-26.211 -26.211,-26.211c-14.466,-0 -26.211,11.744 -26.211,26.211Z" style="fill:none;stroke:#2aace2;stroke-width:26.21px;"/><path d="M1756.2,842.905l0,-45.266l-82.7,-0" style="fill:none;stroke:#2aace2;stroke-width:26.21px;stroke-linejoin:round;stroke-miterlimit:1.5;"/><path d="M672.683,1010.05c14.466,-0 26.211,-11.745 26.211,-26.211c-0,-14.467 -11.745,-26.211 -26.211,-26.211c-14.466,-0 -26.211,11.744 -26.211,26.211c-0,14.466 11.745,26.211 26.211,26.211Z" style="fill:none;stroke:#2aace2;stroke-width:26.21px;"/><path d="M646.472,983.843l-95.719,-0l-0,-179.364" style="fill:none;stroke:#2aace2;stroke-width:26.21px;stroke-linejoin:round;stroke-miterlimit:1.5;"/><path d="M1349.8,892.13c14.466,0 26.211,-11.744 26.211,-26.21c-0,-14.467 -11.745,-26.211 -26.211,-26.211c-14.466,-0 -26.211,11.744 -26.211,26.211c0,14.466 11.745,26.21 26.211,26.21Z" style="fill:none;stroke:#2aace2;stroke-width:26.21px;"/><path d="M1323.59,865.92l-146.738,-0l0,-172.466" style="fill:none;stroke:#2aace2;stroke-width:26.21px;stroke-linejoin:round;stroke-miterlimit:1.5;"/><path d="M1243.5,1004.38c0,14.466 11.745,26.211 26.211,26.211c14.466,-0 26.211,-11.745 26.211,-26.211c0,-14.466 -11.745,-26.211 -26.211,-26.211c-14.466,0 -26.211,11.745 -26.211,26.211Z" style="fill:none;stroke:#2aace2;stroke-width:26.21px;"/><path d="M1269.71,978.164l0,-112.244" style="fill:none;stroke:#2aace2;stroke-width:26.21px;stroke-linejoin:round;stroke-miterlimit:1.5;"/></g><g transform="matrix(661.835,0,0,661.835,1584.71,1121.53)"></g><text x="762.912px" y="1121.53px" style="font-family:'BerlinSansFBDemi-Bold', 'Berlin Sans FB Demi', sans-serif;font-weight:700;font-size:661.835px;fill:#0c435a;">A I</text></g></g></svg>