<?xml version="1.0" encoding="UTF-8" standalone="no"?><!DOCTYPE svg PUBLIC "-//W3C//DTD SVG 1.1//EN" "http://www.w3.org/Graphics/SVG/1.1/DTD/svg11.dtd"><svg width="100%" height="100%" viewBox="0 0 2138 2138" version="1.1" xmlns="http://www.w3.org/2000/svg" xmlns:xlink="http://www.w3.org/1999/xlink" xml:space="preserve" xmlns:serif="http://www.serif.com/" style="fill-rule:evenodd;clip-rule:evenodd;stroke-linecap:round;stroke-linejoin:round;stroke-miterlimit:2;"><rect id="Charactere" x="1.042" y="2.947" width="2133.33" height="2133.33" style="fill:none;"/><g><path d="M1036.26,334.263c-308.939,45.736 -432.213,161.713 -539.422,265.606c-109.86,106.449 -144.601,240.12 -100.478,386.558c0.874,2.924 0.31,5.997 -1.583,8.621l-199.688,277.062l111.277,42.84c6.053,2.33 9.505,7.419 8.532,12.575l-23.465,125.09l30.016,22.993c4.638,3.563 5.929,8.997 3.229,13.593l-15.701,26.783l31.39,18.425c5.345,3.132 7.518,8.572 5.382,13.475c-30.851,71.281 -32.603,113.882 -5.843,142.469c45.812,48.997 184.941,60.459 429.792,35.665c4.536,-0.522 9.028,0.615 12.441,2.913c3.409,2.301 5.367,5.628 5.367,9.119l-0,157.626l847.051,-0c-15.961,-67.42 -72.064,-344.448 47.671,-474.607c58.912,-64.036 163.954,-192.704 212.793,-341.549c28.138,-85.759 80.235,-364.346 10.725,-453.51" style="fill:none;fill-rule:nonzero;stroke:#0078ae;stroke-width:92.64px;"/><g><path d="M1175.53,319.061c-8.044,-0.041 -12.468,5.445 -13.707,11.87l-33.253,112.188c-79.167,8.872 -154.214,40.03 -216.386,89.837c-34.547,-18.757 -69.08,-37.609 -103.653,-56.257c-6.398,-3.444 -12.006,-3.185 -17.178,2.028c-5.186,5.213 -3.716,12.89 -0.79,18.417l55.386,102.02c-50.06,62.249 -81.385,137.479 -90.3,216.862c-37.759,11.202 -75.572,22.309 -113.29,33.58c-6.942,2.083 -10.713,6.234 -10.699,13.584c0.027,7.351 6.479,11.747 12.468,13.585l111.467,33.022c8.66,79.56 39.824,155.027 89.823,217.516c-18.852,34.737 -37.813,69.474 -56.57,104.238c-3.444,6.398 -3.185,11.979 2.042,17.165c5.2,5.172 12.877,3.729 18.403,0.816l102.592,-55.685c62.231,49.976 137.408,81.243 216.726,90.137c11.189,37.772 22.323,75.599 33.593,113.317c2.083,6.942 6.235,10.713 13.585,10.699c7.35,-0.027 11.747,-6.479 13.584,-12.468l33.023,-111.467c79.739,-8.69 155.351,-40.02 217.869,-90.273l103.014,55.945c7.472,3.811 12.522,4.478 18.239,-1.185c5.731,-5.662 4.982,-12.686 1.321,-18.103l-56.081,-103.354c49.892,-62.428 81.013,-137.777 89.715,-217.216l112.066,-33.213c7.976,-2.586 12.019,-5.676 12.06,-13.734c0.041,-8.045 -5.445,-12.469 -11.87,-13.707l-112.569,-33.363c-8.889,-79.232 -40.08,-154.34 -89.932,-216.562l55.672,-102.51c3.797,-7.487 4.464,-12.523 -1.198,-18.254c-2.367,-2.546 -5.658,-4.042 -9.134,-4.151c-3.212,0.01 -6.344,1.008 -8.97,2.858l-102.714,55.768c-62.428,-50.133 -137.898,-81.402 -217.488,-90.11l-33.131,-111.78c-2.587,-7.976 -5.677,-12.019 -13.735,-12.06Zm-0.013,56.843l-0,422.508c-11.007,0.11 -21.807,3.009 -31.389,8.426l-67.773,-85.863l70.972,-246.958l9.528,-33.226l18.662,-64.887Zm56.965,101.053c63.946,9.248 124.585,34.304 176.408,72.891l-133.354,72.387l-43.054,-145.278Zm-114.026,0.341l-42.795,144.379c-44.116,-23.983 -88.259,-47.872 -132.388,-71.842c51.508,-38.269 111.7,-63.192 175.183,-72.537Zm-287.384,41.175l212.37,211.935l-0.109,0.313c-27.046,8.017 -54.066,16.062 -81.126,24.066l-81.507,-146.912l-16.647,-30.014l-32.981,-59.388Zm689.407,0.245l-45.504,45.518l-22.772,22.759l-143.632,143.644l-1.02,-0.299l-23.875,-80.527l147.891,-81.875l17.804,-9.827l12.115,-6.725l58.993,-32.668Zm-31.008,111.453c38.471,51.618 63.521,111.995 72.891,175.687l-144.937,-42.959l72.046,-132.728Zm-626.67,0.109l72.006,132.633c-48.376,14.292 -96.698,28.693 -145.061,43.013c9.417,-63.695 34.524,-124.06 73.055,-175.646Zm454.523,133.109l248.305,71.326l32.845,9.446l65.269,18.757l-422.509,0c-0.109,-11.122 -3.066,-22.033 -8.589,-31.688l84.679,-67.841Zm-206.3,99.529l-0.027,0.613c0,10.862 2.722,21.547 7.908,31.089l-85.699,67.473l-84.951,-24.337l-161.707,-46.28l-0,-0.028l-33.186,-9.501l-65.513,-18.757l423.175,-0.272Zm451.692,56.952c-9.24,63.889 -34.262,124.479 -72.795,176.272l-72.32,-133.259l145.115,-43.013Zm-773.01,0.041l144.924,42.945c-24.161,44.442 -48.213,88.911 -72.36,133.354c-38.45,-51.826 -63.391,-112.423 -72.564,-176.299Zm417.839,0.639l67.514,84.543l-24.542,85.699l-46.484,162.307l-9.501,33.199l-18.757,65.513l-0.272,-423.189c11.461,0.027 23.358,-2.967 32.042,-8.072Zm182.438,50.5l81.807,147.823l16.579,29.933l32.954,59.537l-45.926,-45.939l-22.773,-22.759l-144.379,-144.38l81.738,-24.215Zm-346.759,24.937c8.058,27.223 16.157,54.392 24.202,81.616l-146.816,81.452l-30.041,16.661l-59.96,33.281l212.615,-213.01Zm232.407,108.431l133.667,72.591c-51.936,38.656 -112.717,63.729 -176.803,72.932l43.136,-145.523Zm-200.093,0.571c14.293,48.322 28.667,96.603 42.973,144.911c-63.638,-9.411 -123.953,-34.484 -175.51,-72.959l132.537,-71.952Z" style="fill:#0078ae;fill-rule:nonzero;stroke:#0078ae;stroke-width:1.49px;stroke-linecap:butt;"/><path d="M1121.68,291.838l0,-108.894l26.965,-0l56.176,72.714l-0,-72.714l25.753,-0l0,108.894l-27.809,-0l-55.331,-71.013l-0,71.013l-25.754,-0Z" style="fill:#0078ae;fill-rule:nonzero;"/><path d="M1121.68,1508.01l26.312,-2.001c1.579,6.933 4.777,12.028 9.596,15.286c4.864,3.258 11.411,4.886 19.642,4.886c8.711,0 15.254,-1.438 19.628,-4.315c4.446,-2.912 6.67,-6.311 6.67,-10.195c-0,-2.486 -0.944,-4.591 -2.832,-6.316c-1.824,-1.769 -5.05,-3.298 -9.678,-4.587c-3.167,-0.862 -10.381,-2.395 -21.642,-4.6c-14.501,-2.814 -24.674,-6.28 -30.518,-10.4c-8.221,-5.798 -12.332,-12.858 -12.332,-21.18c0,-5.354 1.919,-10.354 5.758,-15c3.902,-4.691 9.474,-8.258 16.715,-10.699c7.305,-2.441 16.107,-3.661 26.407,-3.661c16.806,-0 29.442,2.895 37.909,8.684c8.53,5.79 13.003,13.517 13.421,23.181l-27.033,0.939c-1.162,-5.408 -3.657,-9.283 -7.487,-11.624c-3.784,-2.396 -9.483,-3.594 -17.096,-3.594c-7.859,0 -14.011,1.271 -18.458,3.811c-2.858,1.625 -4.287,3.803 -4.287,6.534c-0,2.486 1.338,4.614 4.015,6.384c3.412,2.25 11.697,4.596 24.855,7.037c13.158,2.441 22.868,4.978 29.129,7.609c6.343,2.577 11.28,6.139 14.81,10.685c3.593,4.501 5.39,10.082 5.39,16.743c0,6.025 -2.132,11.67 -6.397,16.933c-4.265,5.263 -10.295,9.188 -18.09,11.774c-7.795,2.532 -17.505,3.798 -29.129,3.798c-16.933,-0 -29.937,-3.063 -39.012,-9.188c-9.074,-6.171 -14.496,-15.146 -16.266,-26.924Z" style="fill:#0078ae;fill-rule:nonzero;"/><path d="M1747.82,917.978l0,-108.894l106.172,-0l-0,18.416l-77.26,0l-0,24.148l71.87,-0l-0,18.348l-71.87,0l-0,29.633l79.982,0l0,18.349l-108.894,-0Z" style="fill:#0078ae;fill-rule:nonzero;"/><path d="M515.343,917.978l-19.805,-108.894l17.151,-0l12.509,74.796l15.164,-74.796l19.927,-0l14.538,76.062l12.74,-76.062l16.865,-0l-20.145,108.894l-17.777,-0l-16.525,-81.398l-16.47,81.398l-18.172,-0Z" style="fill:#0078ae;fill-rule:nonzero;"/></g></g></svg>