<?xml version="1.0" encoding="UTF-8" standalone="no"?><!DOCTYPE svg PUBLIC "-//W3C//DTD SVG 1.1//EN" "http://www.w3.org/Graphics/SVG/1.1/DTD/svg11.dtd"><svg width="100%" height="100%" viewBox="0 0 2138 2138" version="1.1" xmlns="http://www.w3.org/2000/svg" xmlns:xlink="http://www.w3.org/1999/xlink" xml:space="preserve" xmlns:serif="http://www.serif.com/" style="fill-rule:evenodd;clip-rule:evenodd;stroke-linecap:round;stroke-linejoin:round;stroke-miterlimit:2;"><rect id="Character" x="1.042" y="2.947" width="2133.33" height="2133.33" style="fill:none;"/><g><path d="M1031.78,233.824c-352.949,52.252 -493.785,184.751 -616.266,303.443c-125.51,121.614 -165.2,274.328 -114.792,441.626c0.999,3.341 0.354,6.852 -1.808,9.85l-228.136,316.531l127.13,48.943c6.915,2.662 10.859,8.476 9.747,14.366l-26.808,142.91l34.293,26.269c5.299,4.07 6.773,10.279 3.688,15.529l-17.938,30.599l35.862,21.049c6.107,3.578 8.589,9.793 6.149,15.395c-35.246,81.436 -37.247,130.106 -6.675,162.764c52.338,55.978 211.287,69.072 491.019,40.746c5.182,-0.596 10.314,0.703 14.213,3.328c3.895,2.63 6.132,6.43 6.131,10.418l0,180.081l967.721,0c-18.235,-77.024 -82.331,-393.517 54.461,-542.217c67.305,-73.159 187.311,-220.156 243.107,-390.206c32.147,-97.975 91.665,-416.249 12.253,-518.115" style="fill:none;fill-rule:nonzero;stroke:#0078ae;stroke-width:105.84px;"/><g><path d="M1190.89,216.457c-9.191,-0.047 -14.245,6.22 -15.66,13.56l-37.991,128.17c-90.444,10.137 -176.183,45.733 -247.211,102.635c-39.468,-21.429 -78.921,-42.967 -118.42,-64.271c-7.309,-3.935 -13.716,-3.639 -19.625,2.317c-5.925,5.956 -4.245,14.727 -0.902,21.04l63.277,116.554c-57.192,71.117 -92.98,157.064 -103.165,247.755c-43.138,12.799 -86.338,25.488 -129.429,38.364c-7.931,2.38 -12.239,7.123 -12.223,15.52c0.031,8.397 7.402,13.42 14.244,15.52l127.346,37.726c9.894,90.894 45.498,177.111 102.62,248.502c-21.538,39.686 -43.2,79.372 -64.629,119.089c-3.935,7.308 -3.639,13.684 2.332,19.609c5.941,5.909 14.711,4.261 21.025,0.933l117.207,-63.618c71.096,57.096 156.983,92.816 247.6,102.977c12.783,43.154 25.503,86.37 38.379,129.461c2.38,7.931 7.123,12.238 15.52,12.223c8.398,-0.031 13.421,-7.402 15.52,-14.245l37.726,-127.345c91.099,-9.929 177.482,-45.721 248.907,-103.133l117.688,63.913c8.538,4.355 14.307,5.117 20.839,-1.353c6.546,-6.469 5.691,-14.493 1.508,-20.682l-64.069,-118.078c56.998,-71.32 92.552,-157.404 102.495,-248.16l128.03,-37.944c9.113,-2.954 13.731,-6.484 13.778,-15.69c0.047,-9.191 -6.22,-14.245 -13.56,-15.66l-128.606,-38.115c-10.156,-90.52 -45.789,-176.328 -102.744,-247.414l63.603,-117.113c4.339,-8.553 5.101,-14.307 -1.369,-20.854c-2.704,-2.909 -6.464,-4.618 -10.434,-4.743c-3.67,0.011 -7.249,1.152 -10.248,3.266l-117.347,63.712c-71.321,-57.274 -157.542,-92.998 -248.471,-102.947l-37.851,-127.703c-2.954,-9.113 -6.484,-13.732 -15.69,-13.778Zm-0.016,64.94l0,482.698c-12.574,0.125 -24.913,3.437 -35.86,9.626l-77.428,-98.095l81.082,-282.139l10.886,-37.959l21.32,-74.131Zm65.08,115.449c73.056,10.565 142.334,39.191 201.539,83.275l-152.351,82.699l-49.188,-165.974Zm-130.269,0.389l-48.892,164.948c-50.4,-27.401 -100.831,-54.693 -151.247,-82.078c58.845,-43.72 127.612,-72.193 200.139,-82.87Zm-328.325,47.041l242.624,242.127l-0.124,0.357c-30.899,9.16 -61.768,18.35 -92.683,27.494l-93.118,-167.84l-19.019,-34.289l-37.68,-67.849Zm787.619,0.28l-51.987,52.002l-26.016,26.001l-164.093,164.108l-1.166,-0.342l-27.276,-91.999l168.96,-93.538l20.34,-11.228l13.84,-7.682l67.398,-37.322Zm-35.425,127.33c43.951,58.972 72.569,127.95 83.275,200.715l-165.586,-49.078l82.311,-151.637Zm-715.945,0.125l82.264,151.527c-55.267,16.328 -110.473,32.781 -165.725,49.141c10.758,-72.769 39.442,-141.734 83.461,-200.668Zm519.274,152.071l283.678,81.487l37.524,10.792l74.566,21.429l-482.697,-0c-0.125,-12.707 -3.504,-25.172 -9.813,-36.202l96.742,-77.506Zm-235.689,113.708l-0.031,0.7c0,12.409 3.11,24.617 9.035,35.518l-97.908,77.085l-97.052,-27.805l-184.744,-52.872l-0,-0.031l-37.913,-10.855l-74.846,-21.429l483.459,-0.311Zm516.039,65.065c-10.556,72.991 -39.143,142.212 -83.166,201.383l-82.621,-152.243l165.787,-49.14Zm-883.132,0.046l165.57,49.063c-27.603,50.774 -55.081,101.578 -82.668,152.352c-43.927,-59.21 -72.422,-128.439 -82.902,-201.415Zm477.364,0.731l77.132,96.586l-28.038,97.908l-53.106,185.428l-10.854,37.929l-21.429,74.846l-0.311,-483.475c13.093,0.031 26.685,-3.39 36.606,-9.222Zm208.428,57.694l93.46,168.882l18.941,34.196l37.649,68.019l-52.469,-52.484l-26.016,-26.001l-164.948,-164.947l93.383,-27.665Zm-396.157,28.489c9.206,31.102 18.458,62.141 27.649,93.243l-167.731,93.056l-34.321,19.034l-68.501,38.022l242.904,-243.355Zm265.514,123.878l152.71,82.932c-59.335,44.163 -128.775,72.808 -201.99,83.322l49.28,-166.254Zm-228.597,0.653c16.329,55.205 32.75,110.364 49.094,165.554c-72.704,-10.752 -141.611,-39.397 -200.512,-83.352l151.418,-82.202Z" style="fill:#0078ae;fill-rule:nonzero;stroke:#0078ae;stroke-width:1.7px;stroke-linecap:butt;"/><path d="M1129.37,185.355l-0,-124.407l30.806,0l64.178,83.073l0,-83.073l29.422,0l0,124.407l-31.77,0l-63.214,-81.129l-0,81.129l-29.422,0Z" style="fill:#0078ae;fill-rule:nonzero;"/><path d="M1129.37,1574.78l30.059,-2.286c1.804,7.92 5.459,13.742 10.964,17.463c5.557,3.722 13.036,5.583 22.44,5.583c9.952,0 17.427,-1.643 22.424,-4.929c5.08,-3.328 7.62,-7.211 7.62,-11.648c-0,-2.841 -1.078,-5.246 -3.235,-7.216c-2.084,-2.021 -5.769,-3.768 -11.056,-5.24c-3.619,-0.985 -11.861,-2.737 -24.726,-5.256c-16.567,-3.214 -28.189,-7.175 -34.865,-11.881c-9.393,-6.625 -14.089,-14.691 -14.089,-24.197c-0,-6.117 2.192,-11.829 6.578,-17.137c4.458,-5.36 10.823,-9.434 19.096,-12.223c8.346,-2.789 18.402,-4.183 30.169,-4.183c19.2,-0 33.636,3.307 43.309,9.921c9.745,6.614 14.856,15.442 15.333,26.483l-30.884,1.073c-1.327,-6.179 -4.178,-10.606 -8.553,-13.28c-4.323,-2.737 -10.834,-4.106 -19.532,-4.106c-8.978,0 -16.007,1.452 -21.087,4.354c-3.265,1.856 -4.898,4.344 -4.898,7.465c-0,2.84 1.529,5.272 4.587,7.293c3.898,2.571 13.364,5.251 28.396,8.04c15.033,2.789 26.125,5.686 33.279,8.693c7.247,2.944 12.886,7.013 16.919,12.207c4.106,5.142 6.158,11.518 6.158,19.128c0,6.884 -2.436,13.332 -7.309,19.345c-4.872,6.013 -11.761,10.497 -20.667,13.451c-8.905,2.893 -19.998,4.339 -33.278,4.339c-19.346,0 -34.202,-3.499 -44.569,-10.497c-10.367,-7.049 -16.562,-17.303 -18.583,-30.759Z" style="fill:#0078ae;fill-rule:nonzero;"/><path d="M1844.7,900.693l-0,-124.407l121.296,0l0,21.041l-88.266,-0l-0,27.587l82.108,-0l0,20.962l-82.108,0l-0,33.855l91.376,-0l0,20.962l-124.406,0Z" style="fill:#0078ae;fill-rule:nonzero;"/><path d="M436.655,900.693l-22.626,-124.407l19.594,0l14.291,85.452l17.323,-85.452l22.767,0l16.608,86.898l14.556,-86.898l19.267,0l-23.015,124.407l-20.309,0l-18.879,-92.994l-18.817,92.994l-20.76,0Z" style="fill:#0078ae;fill-rule:nonzero;"/></g></g></svg>