<?xml version="1.0" encoding="UTF-8" standalone="no"?><!DOCTYPE svg PUBLIC "-//W3C//DTD SVG 1.1//EN" "http://www.w3.org/Graphics/SVG/1.1/DTD/svg11.dtd"><svg width="100%" height="100%" viewBox="0 0 2138 2134" version="1.1" xmlns="http://www.w3.org/2000/svg" xmlns:xlink="http://www.w3.org/1999/xlink" xml:space="preserve" xmlns:serif="http://www.serif.com/" style="fill-rule:evenodd;clip-rule:evenodd;stroke-linejoin:round;stroke-miterlimit:2;"><rect id="Child-Study" serif:id="Child Study" x="2.335" y="0.02" width="2133.33" height="2133.33" style="fill:none;"/><g id="SVGRepo_iconCarrier"></g><g id="SVGRepo_iconCarrier1" serif:id="SVGRepo_iconCarrier"><g><g><g><circle cx="768.576" cy="765.013" r="610.309" style="fill:#85d7e0;"/><path d="M1300.27,233.297c-293.191,-293.192 -770.19,-293.192 -1063.38,0c-293.196,293.192 -293.196,770.24 -0,1063.43c293.191,293.192 770.19,293.192 1063.38,0c293.192,-293.191 293.192,-770.239 0,-1063.43Zm-104.402,959.029c-235.965,235.919 -618.612,235.919 -854.577,-0.046c-235.964,-235.964 -235.964,-618.611 0,-854.531c235.965,-235.964 618.567,-235.964 854.531,0c235.965,235.965 236.01,618.567 0.046,854.577Z" style="fill:none;fill-rule:nonzero;stroke:#8b8b8b;stroke-width:25px;"/><path d="M2067.5,1855.51l-545.721,-531.579c-29.85,-29.089 -77.515,-28.727 -107.007,0.716l-86.538,86.538c-29.443,29.442 -29.764,77.112 -0.63,106.916l531.539,545.717c59.025,71.278 146.234,75.499 213.607,8.081c67.46,-67.328 65.983,-157.363 -5.25,-216.389Z" style="fill:#8b8b8b;fill-rule:nonzero;"/></g></g><path d="M880.874,783.789l77.128,-0c112.874,-0 204.514,86.917 204.514,193.974l0,176.065c-111.63,108.571 -254.783,164.722 -427.464,163.921c-137.732,-15.328 -256.501,-58.438 -390.592,-190.824l0,-149.162c0,-107.057 91.64,-193.974 204.514,-193.974l77.128,-0c-98.41,-45.036 -166.376,-140.597 -166.376,-251.096c0,-153.776 131.631,-278.622 293.762,-278.622c162.132,-0 293.762,124.846 293.762,278.622c-0,110.499 -67.966,206.06 -166.376,251.096Z"/><path d="M512.22,749.072c-55.798,-56.627 -89.865,-132.807 -89.865,-216.379c0,-173.843 147.844,-315.994 331.133,-315.994c183.289,0 331.133,142.151 331.133,315.994c-0,83.572 -34.066,159.752 -89.865,216.379c116.459,16.987 205.131,113.424 205.131,228.691l0,176.065c0,10.091 -4.081,19.754 -11.315,26.789c-118.526,115.279 -270.347,175.353 -453.693,174.502c-1.323,-0.006 -2.645,-0.082 -3.96,-0.228c-145.497,-16.192 -271.065,-61.522 -412.715,-201.372c-7.112,-7.021 -11.115,-16.599 -11.115,-26.594l0,-149.162c0,-115.267 88.672,-211.704 205.131,-228.691Zm368.654,34.717c98.41,-45.036 166.376,-140.597 166.376,-251.096c-0,-153.776 -131.63,-278.622 -293.762,-278.622c-162.131,-0 -293.762,124.846 -293.762,278.622c0,110.499 67.966,206.06 166.376,251.096l-77.128,-0c-112.874,-0 -204.514,86.917 -204.514,193.974l0,149.162c134.091,132.386 252.86,175.496 390.592,190.824c172.681,0.801 315.834,-55.35 427.464,-163.921l0,-176.065c0,-107.057 -91.64,-193.974 -204.514,-193.974l-77.128,-0Z" style="fill:#fff;"/><path d="M532.049,1043.03l0,225.922" style="fill:none;stroke:#fff;stroke-width:53.73px;stroke-linecap:round;stroke-miterlimit:1.5;"/><path d="M1001.97,1043.03l0,225.922" style="fill:none;stroke:#fff;stroke-width:53.73px;stroke-linecap:round;stroke-miterlimit:1.5;"/></g></g></svg>