<?xml version="1.0" encoding="UTF-8" standalone="no"?><!DOCTYPE svg PUBLIC "-//W3C//DTD SVG 1.1//EN" "http://www.w3.org/Graphics/SVG/1.1/DTD/svg11.dtd"><svg width="100%" height="100%" viewBox="0 0 2138 2134" version="1.1" xmlns="http://www.w3.org/2000/svg" xmlns:xlink="http://www.w3.org/1999/xlink" xml:space="preserve" xmlns:serif="http://www.serif.com/" style="fill-rule:evenodd;clip-rule:evenodd;stroke-linejoin:round;stroke-miterlimit:2;"><rect id="Child-study" serif:id="Child study" x="2.335" y="0.02" width="2133.33" height="2133.33" style="fill:none;"/><g id="SVGRepo_iconCarrier"></g><g id="SVGRepo_iconCarrier1" serif:id="SVGRepo_iconCarrier"><g><g><g><circle cx="820.204" cy="816.756" r="505.628" style="fill:#85d7e0;"/><path d="M1260.7,376.241c-242.903,-242.903 -638.086,-242.903 -880.99,-0c-242.906,242.903 -242.906,638.127 0,881.03c242.904,242.904 638.087,242.904 880.99,0c242.903,-242.903 242.903,-638.127 0,-881.03Zm-86.495,794.535c-195.492,195.454 -512.507,195.454 -707.999,-0.038c-195.492,-195.491 -195.492,-512.506 -0,-707.961c195.492,-195.492 512.469,-195.492 707.961,0c195.492,195.492 195.529,512.47 0.038,707.999Z" style="fill:none;fill-rule:nonzero;stroke:#8b8b8b;stroke-width:25px;"/><path d="M1896.34,1720.21l-452.119,-440.403c-24.73,-24.099 -64.22,-23.799 -88.653,0.593l-71.695,71.695c-24.393,24.393 -24.658,63.886 -0.522,88.579l440.369,452.115c48.901,59.052 121.152,62.549 176.969,6.694c55.889,-55.78 54.665,-130.372 -4.349,-179.273Z" style="fill:#8b8b8b;fill-rule:nonzero;"/></g></g><path d="M913.241,832.312l63.899,-0c93.514,-0 169.435,72.009 169.435,160.704l0,145.865c-92.483,89.95 -211.083,136.469 -354.144,135.805c-114.109,-12.698 -212.507,-48.414 -323.598,-158.093l-0,-123.577c-0,-88.695 75.921,-160.704 169.435,-160.704l63.9,-0c-81.531,-37.312 -137.839,-116.482 -137.839,-208.028c-0,-127.4 109.052,-230.833 243.375,-230.833c134.323,0 243.376,103.433 243.376,230.833c-0,91.546 -56.309,170.716 -137.839,208.028Z"/><path d="M607.818,803.549c-46.227,-46.914 -74.451,-110.027 -74.451,-179.265c0,-144.025 122.486,-261.794 274.337,-261.794c151.851,-0 274.337,117.769 274.337,261.794c-0,69.238 -28.224,132.351 -74.451,179.265c96.483,14.074 169.946,93.97 169.946,189.467l0,145.865c0,8.361 -3.381,16.366 -9.374,22.195c-98.196,95.506 -223.976,145.276 -375.875,144.571c-1.096,-0.005 -2.191,-0.068 -3.281,-0.189c-120.542,-13.415 -224.572,-50.97 -341.925,-166.832c-5.893,-5.818 -9.209,-13.753 -9.209,-22.033l-0,-123.577c-0,-95.497 73.463,-175.393 169.946,-189.467Zm305.423,28.763c81.53,-37.312 137.839,-116.482 137.839,-208.028c-0,-127.4 -109.053,-230.833 -243.376,-230.833c-134.323,0 -243.375,103.433 -243.375,230.833c-0,91.546 56.308,170.716 137.839,208.028l-63.9,-0c-93.514,-0 -169.435,72.009 -169.435,160.704l-0,123.577c111.091,109.679 209.489,145.395 323.598,158.093c143.061,0.664 261.661,-45.855 354.144,-135.805l0,-145.865c0,-88.695 -75.921,-160.704 -169.435,-160.704l-63.899,-0Z" style="fill:#fff;"/><path d="M624.246,1047.09l0,187.172" style="fill:none;stroke:#fff;stroke-width:44.51px;stroke-linecap:round;stroke-miterlimit:1.5;"/><path d="M1013.57,1047.09l-0,187.172" style="fill:none;stroke:#fff;stroke-width:44.51px;stroke-linecap:round;stroke-miterlimit:1.5;"/></g></g></svg>