<?xml version="1.0" encoding="UTF-8" standalone="no"?><!DOCTYPE svg PUBLIC "-//W3C//DTD SVG 1.1//EN" "http://www.w3.org/Graphics/SVG/1.1/DTD/svg11.dtd"><svg width="100%" height="100%" viewBox="0 0 2138 2134" version="1.1" xmlns="http://www.w3.org/2000/svg" xmlns:xlink="http://www.w3.org/1999/xlink" xml:space="preserve" xmlns:serif="http://www.serif.com/" style="fill-rule:evenodd;clip-rule:evenodd;stroke-linejoin:round;stroke-miterlimit:2;"><rect id="Child-Study" serif:id="Child Study" x="2.335" y="0.02" width="2133.33" height="2133.33" style="fill:none;"/><g id="SVGRepo_iconCarrier"></g><g id="SVGRepo_iconCarrier1" serif:id="SVGRepo_iconCarrier"><g><g><g><circle cx="781.347" cy="777.813" r="584.414" style="fill:#85d7e0;"/><path d="M1290.48,268.657c-280.751,-280.752 -737.511,-280.752 -1018.26,0c-280.756,280.752 -280.756,737.559 0,1018.31c280.752,280.752 737.512,280.752 1018.26,-0c280.752,-280.752 280.752,-737.559 0,-1018.31Zm-99.973,918.338c-225.952,225.909 -592.364,225.909 -818.317,-0.044c-225.953,-225.952 -225.953,-592.364 0,-818.273c225.953,-225.953 592.321,-225.953 818.274,-0c225.953,225.952 225.996,592.321 0.043,818.317Z" style="fill:none;fill-rule:nonzero;stroke:#8b8b8b;stroke-width:83.33px;"/><path d="M2025.16,1822.04l-522.566,-509.025c-28.584,-27.855 -74.227,-27.508 -102.467,0.686l-82.867,82.866c-28.193,28.193 -28.5,73.84 -0.602,102.38l508.985,522.563c56.521,68.253 140.03,72.295 204.544,7.737c64.598,-64.471 63.183,-150.686 -5.027,-207.207Z" style="fill:#8b8b8b;fill-rule:nonzero;"/></g></g><path d="M888.881,795.792l73.855,0c108.085,0 195.837,83.229 195.837,185.744l-0,168.594c-106.894,103.965 -243.973,157.734 -409.327,156.966c-131.889,-14.677 -245.619,-55.957 -374.02,-182.726l0,-142.834c0,-102.515 87.752,-185.744 195.837,-185.744l73.856,0c-94.235,-43.125 -159.317,-134.632 -159.317,-240.442c-0,-147.251 126.045,-266.801 281.298,-266.801c155.252,0 281.297,119.55 281.297,266.801c0,105.81 -65.082,197.317 -159.316,240.442Z"/><path d="M535.868,762.548c-53.431,-54.224 -86.052,-127.172 -86.052,-207.198c0,-166.467 141.572,-302.586 317.084,-302.586c175.512,-0 317.083,136.119 317.083,302.586c-0,80.026 -32.621,152.974 -86.052,207.198c111.517,16.266 196.427,108.611 196.427,218.988l0,168.594c0,9.664 -3.908,18.916 -10.835,25.653c-113.497,110.387 -258.876,167.913 -434.443,167.098c-1.267,-0.005 -2.533,-0.079 -3.792,-0.219c-139.324,-15.504 -259.564,-58.911 -395.203,-192.827c-6.811,-6.724 -10.644,-15.895 -10.644,-25.465l-0,-142.834c-0,-110.377 84.91,-202.722 196.427,-218.988Zm353.013,33.244c94.234,-43.125 159.316,-134.632 159.316,-240.442c0,-147.251 -126.045,-266.801 -281.297,-266.801c-155.253,0 -281.298,119.55 -281.298,266.801c-0,105.81 65.082,197.317 159.317,240.442l-73.856,0c-108.085,0 -195.837,83.229 -195.837,185.744l0,142.834c128.401,126.769 242.131,168.049 374.02,182.726c165.354,0.768 302.433,-53.001 409.327,-156.966l-0,-168.594c-0,-102.515 -87.752,-185.744 -195.837,-185.744l-73.855,0Z" style="fill:#fff;"/><path d="M554.856,1044.04l0,216.336" style="fill:none;stroke:#fff;stroke-width:51.45px;stroke-linecap:round;stroke-miterlimit:1.5;"/><path d="M1004.84,1044.04l-0,216.336" style="fill:none;stroke:#fff;stroke-width:51.45px;stroke-linecap:round;stroke-miterlimit:1.5;"/></g></g></svg>