<?xml version="1.0" encoding="UTF-8" standalone="no"?><!DOCTYPE svg PUBLIC "-//W3C//DTD SVG 1.1//EN" "http://www.w3.org/Graphics/SVG/1.1/DTD/svg11.dtd"><svg width="100%" height="100%" viewBox="0 0 2134 2134" version="1.1" xmlns="http://www.w3.org/2000/svg" xmlns:xlink="http://www.w3.org/1999/xlink" xml:space="preserve" xmlns:serif="http://www.serif.com/" style="fill-rule:evenodd;clip-rule:evenodd;stroke-linejoin:round;stroke-miterlimit:2;"><rect id="Classes" x="0" y="0" width="2133.33" height="2133.33" style="fill:none;"/><clipPath id="_clip1"><rect x="0" y="0" width="2133.33" height="2133.33"/></clipPath><g clip-path="url(#_clip1)"><g><rect x="0" y="1.307" width="2133.33" height="1208.07" style="fill:#fff;"/><path d="M2133.33,1.307l0,1208.07l-2133.33,-0l-0,-1208.07l2133.33,-0Zm-151.667,151.667l-1830,-0c0,-0 0,904.738 0,904.738l1830,-0l0,-904.738Z" style="fill:#ff8c00;"/><g><g><path d="M747.324,1163.93l77.139,-0c112.891,-0 204.545,91.653 204.545,204.544l-0,473.798l-818.177,-0l-0,-473.798c-0,-112.891 91.653,-204.544 204.544,-204.544l77.139,-0c-98.424,-47.49 -166.4,-148.259 -166.4,-264.778c-0,-162.156 131.65,-293.805 293.805,-293.805c162.156,-0 293.805,131.649 293.805,293.805c0,116.519 -67.975,217.288 -166.4,264.778Z" style="fill:#00007c;"/><path d="M379.468,1128.21c-56.812,-59.612 -91.706,-140.298 -91.706,-229.067c0,-183.323 148.835,-332.157 332.157,-332.157c183.323,-0 332.157,148.834 332.157,332.157c0,88.769 -34.894,169.455 -91.706,229.067c117.058,17.376 206.989,118.396 206.989,240.255l0,473.798c0,21.181 -17.17,38.351 -38.351,38.351l-818.177,0c-21.181,0 -38.352,-17.17 -38.352,-38.351l-0,-473.798c-0,-121.859 89.932,-222.879 206.989,-240.255Zm367.856,35.711c98.425,-47.49 166.4,-148.259 166.4,-264.778c0,-162.156 -131.649,-293.805 -293.805,-293.805c-162.155,-0 -293.805,131.649 -293.805,293.805c-0,116.519 67.976,217.288 166.4,264.778l-77.139,-0c-112.891,-0 -204.544,91.653 -204.544,204.544l-0,473.798l818.177,-0l-0,-473.798c-0,-112.891 -91.654,-204.544 -204.545,-204.544l-77.139,-0Z" style="fill:#fff;"/></g><g><path d="M1640.82,1163.93l77.139,-0c112.891,-0 204.545,91.653 204.545,204.544l-0,473.798l-818.177,-0l-0,-473.798c-0,-112.891 91.653,-204.544 204.544,-204.544l77.139,-0c-98.424,-47.49 -166.4,-148.259 -166.4,-264.778c-0,-162.156 131.65,-293.805 293.805,-293.805c162.156,-0 293.805,131.649 293.805,293.805c0,116.519 -67.975,217.288 -166.4,264.778Z" style="fill:#00007c;"/><path d="M1272.96,1128.21c-56.812,-59.612 -91.706,-140.298 -91.706,-229.067c0,-183.323 148.835,-332.157 332.157,-332.157c183.323,-0 332.157,148.834 332.157,332.157c0,88.769 -34.894,169.455 -91.706,229.067c117.058,17.376 206.989,118.396 206.989,240.255l0,473.798c0,21.181 -17.17,38.351 -38.351,38.351l-818.177,0c-21.181,0 -38.352,-17.17 -38.352,-38.351l-0,-473.798c-0,-121.859 89.932,-222.879 206.989,-240.255Zm367.856,35.711c98.425,-47.49 166.4,-148.259 166.4,-264.778c0,-162.156 -131.649,-293.805 -293.805,-293.805c-162.155,-0 -293.805,131.649 -293.805,293.805c-0,116.519 67.976,217.288 166.4,264.778l-77.139,-0c-112.891,-0 -204.544,91.653 -204.544,204.544l-0,473.798l818.177,-0l-0,-473.798c-0,-112.891 -91.654,-204.544 -204.545,-204.544l-77.139,-0Z" style="fill:#fff;"/></g><g><path d="M1199.6,1441.93l77.14,-0c112.891,-0 204.544,91.653 204.544,204.544l-0,473.797l-818.177,0l-0,-473.797c-0,-112.891 91.653,-204.544 204.544,-204.544l77.14,-0c-98.425,-47.49 -166.401,-148.259 -166.401,-264.778c0,-162.156 131.65,-293.805 293.805,-293.805c162.156,-0 293.806,131.649 293.806,293.805c-0,116.519 -67.976,217.288 -166.401,264.778Z" style="fill:#00007c;"/><path d="M742.299,1377.51c-35.575,-58.419 -56.071,-127.014 -56.071,-200.355c-0,-213.023 172.947,-385.971 385.97,-385.971c213.023,0 385.971,172.948 385.971,385.971c-0,73.341 -20.496,141.936 -56.071,200.355c101.18,47.282 171.354,149.994 171.354,268.967l0,473.797c0,50.902 -41.264,92.166 -92.165,92.166l-818.177,-0c-50.902,-0 -92.165,-41.264 -92.165,-92.166l-0,-473.797c-0,-118.973 70.174,-221.685 171.354,-268.967Zm457.304,64.423c98.425,-47.49 166.401,-148.259 166.401,-264.778c-0,-162.156 -131.65,-293.805 -293.806,-293.805c-162.155,-0 -293.805,131.649 -293.805,293.805c0,116.519 67.976,217.288 166.401,264.778l-77.14,-0c-112.891,-0 -204.544,91.653 -204.544,204.544l-0,473.797l818.177,0l-0,-473.797c-0,-112.891 -91.653,-204.544 -204.544,-204.544l-77.14,-0Z" style="fill:#fff;"/></g></g></g></g></svg>