<?xml version="1.0" encoding="UTF-8" standalone="no"?><!DOCTYPE svg PUBLIC "-//W3C//DTD SVG 1.1//EN" "http://www.w3.org/Graphics/SVG/1.1/DTD/svg11.dtd"><svg width="100%" height="100%" viewBox="0 0 2134 2134" version="1.1" xmlns="http://www.w3.org/2000/svg" xmlns:xlink="http://www.w3.org/1999/xlink" xml:space="preserve" xmlns:serif="http://www.serif.com/" style="fill-rule:evenodd;clip-rule:evenodd;stroke-linejoin:round;stroke-miterlimit:2;"><rect id="Classe" x="0" y="0" width="2133.33" height="2133.33" style="fill:none;"/><g><rect x="194.043" y="194.043" width="1745.25" height="988.305" style="fill:#fff;"/><path d="M1939.29,194.043l-0,988.305l-1745.25,0l0,-988.305l1745.25,0Zm-124.077,124.077l-1497.09,-0l-0,740.152c379.191,-0 1497.09,-0 1497.09,0l0,-740.152Z" style="fill:#ff8c00;"/><g><g><path d="M805.417,1145.16l63.107,0c92.354,0 167.334,74.98 167.334,167.334l0,387.607l-669.337,-0l-0,-387.607c-0,-92.354 74.98,-167.334 167.334,-167.334l63.107,0c-80.52,-38.851 -136.13,-121.288 -136.13,-216.611c0,-132.657 107.701,-240.357 240.358,-240.357c132.656,-0 240.357,107.7 240.357,240.357c-0,95.323 -55.61,177.76 -136.13,216.611Z" style="fill:#00007c;"/><path d="M504.48,1115.95c-46.477,-48.767 -75.023,-114.775 -75.023,-187.396c0,-149.973 121.759,-271.732 271.733,-271.732c149.973,-0 271.732,121.759 271.732,271.732c-0,72.621 -28.546,138.629 -75.023,187.396c95.763,14.215 169.334,96.858 169.334,196.549l0,387.607c0,17.328 -14.047,31.375 -31.375,31.375l-669.337,-0c-17.328,-0 -31.375,-14.047 -31.375,-31.375l-0,-387.607c-0,-99.691 73.571,-182.334 169.334,-196.549Zm300.937,29.215c80.52,-38.851 136.13,-121.288 136.13,-216.611c-0,-132.657 -107.701,-240.357 -240.357,-240.357c-132.657,-0 -240.358,107.7 -240.358,240.357c0,95.323 55.61,177.76 136.13,216.611l-63.107,0c-92.354,0 -167.334,74.98 -167.334,167.334l-0,387.607l669.337,-0l0,-387.607c0,-92.354 -74.98,-167.334 -167.334,-167.334l-63.107,0Z" style="fill:#fff;"/></g><g><path d="M1536.37,1145.16l63.106,0c92.355,0 167.335,74.98 167.335,167.334l-0,387.607l-669.338,-0l-0,-387.607c-0,-92.354 74.98,-167.334 167.334,-167.334l63.107,0c-80.52,-38.851 -136.13,-121.288 -136.13,-216.611c0,-132.657 107.701,-240.357 240.358,-240.357c132.657,-0 240.357,107.7 240.357,240.357c0,95.323 -55.61,177.76 -136.129,216.611Z" style="fill:#00007c;"/><path d="M1235.43,1115.95c-46.478,-48.767 -75.024,-114.775 -75.024,-187.396c0,-149.973 121.76,-271.732 271.733,-271.732c149.973,-0 271.732,121.759 271.732,271.732c0,72.621 -28.546,138.629 -75.023,187.396c95.763,14.215 169.335,96.858 169.335,196.549l-0,387.607c-0,17.328 -14.047,31.375 -31.375,31.375l-669.338,-0c-17.328,-0 -31.375,-14.047 -31.375,-31.375l-0,-387.607c-0,-99.691 73.572,-182.334 169.335,-196.549Zm300.937,29.215c80.519,-38.851 136.129,-121.288 136.129,-216.611c0,-132.657 -107.7,-240.357 -240.357,-240.357c-132.657,-0 -240.358,107.7 -240.358,240.357c0,95.323 55.61,177.76 136.13,216.611l-63.107,0c-92.354,0 -167.334,74.98 -167.334,167.334l-0,387.607l669.338,-0l-0,-387.607c-0,-92.354 -74.98,-167.334 -167.335,-167.334l-63.106,0Z" style="fill:#fff;"/></g><g><path d="M1175.42,1372.6l63.106,-0c92.355,-0 167.335,74.98 167.335,167.334l-0,387.607l-669.338,-0l0,-387.607c0,-92.354 74.98,-167.334 167.335,-167.334l63.106,-0c-80.519,-38.851 -136.129,-121.288 -136.129,-216.611c-0,-132.657 107.7,-240.357 240.357,-240.357c132.657,-0 240.357,107.7 240.357,240.357c0,95.323 -55.609,177.76 -136.129,216.611Z" style="fill:#00007c;"/><path d="M801.306,1319.89c-29.103,-47.792 -45.87,-103.909 -45.87,-163.908c-0,-174.271 141.485,-315.756 315.756,-315.756c174.271,-0 315.757,141.485 315.757,315.756c-0,59.999 -16.768,116.116 -45.871,163.908c82.773,38.681 140.182,122.708 140.182,220.037l-0,387.607c-0,41.641 -33.757,75.399 -75.399,75.399l-669.338,-0c-41.642,-0 -75.399,-33.758 -75.399,-75.399l0,-387.607c0,-97.329 57.409,-181.356 140.182,-220.037Zm374.114,52.703c80.52,-38.851 136.129,-121.288 136.129,-216.611c0,-132.657 -107.7,-240.357 -240.357,-240.357c-132.657,-0 -240.357,107.7 -240.357,240.357c-0,95.323 55.61,177.76 136.129,216.611l-63.106,-0c-92.355,-0 -167.335,74.98 -167.335,167.334l0,387.607l669.338,-0l-0,-387.607c-0,-92.354 -74.98,-167.334 -167.335,-167.334l-63.106,-0Z" style="fill:#fff;"/></g></g></g></svg>