<?xml version="1.0" encoding="UTF-8" standalone="no"?><!DOCTYPE svg PUBLIC "-//W3C//DTD SVG 1.1//EN" "http://www.w3.org/Graphics/SVG/1.1/DTD/svg11.dtd"><svg width="100%" height="100%" viewBox="0 0 2138 2138" version="1.1" xmlns="http://www.w3.org/2000/svg" xmlns:xlink="http://www.w3.org/1999/xlink" xml:space="preserve" xmlns:serif="http://www.serif.com/" style="fill-rule:evenodd;clip-rule:evenodd;stroke-linejoin:round;stroke-miterlimit:2;"><rect id="Communication" x="1.399" y="4.071" width="2133.33" height="2133.33" style="fill:none;"/><g><path d="M1255.49,408.017l0,419.806c0,115.849 -94.054,209.903 -209.903,209.903l-306.031,0l-345.507,359.834l87.705,-359.834l-76.407,0c-115.849,0 -209.903,-94.054 -209.903,-209.903l-0,-419.806c-0,-115.848 94.054,-209.903 209.903,-209.903l640.24,0c115.849,0 209.903,94.055 209.903,209.903Z" style="fill:#2aace2;"/><clipPath id="_clip1"><path d="M1255.49,408.017l0,419.806c0,115.849 -94.054,209.903 -209.903,209.903l-306.031,0l-345.507,359.834l87.705,-359.834l-76.407,0c-115.849,0 -209.903,-94.054 -209.903,-209.903l-0,-419.806c-0,-115.848 94.054,-209.903 209.903,-209.903l640.24,0c115.849,0 209.903,94.055 209.903,209.903Z"/></clipPath><g clip-path="url(#_clip1)"><ellipse cx="497.538" cy="610.214" rx="76.841" ry="78.913" style="fill:#fff;"/><ellipse cx="725.466" cy="610.214" rx="76.841" ry="78.913" style="fill:#fff;"/><ellipse cx="953.394" cy="610.214" rx="76.841" ry="78.913" style="fill:#fff;"/></g><path d="M377.766,1118.37c-148.155,-13.914 -264.256,-138.779 -264.256,-290.547l-0,-419.806c-0,-161.068 130.767,-291.835 291.836,-291.835l640.24,-0c161.069,-0 291.836,130.767 291.836,291.835l-0,419.806c-0,161.069 -130.767,291.836 -291.836,291.836l-271.115,-0l-321.323,334.648c-25.659,26.722 -66.056,32.903 -98.53,15.074c-32.475,-17.829 -48.945,-55.23 -40.172,-91.223l63.32,-259.788Zm877.723,-710.353c0,-115.848 -94.054,-209.903 -209.903,-209.903l-640.24,0c-115.849,0 -209.903,94.055 -209.903,209.903l-0,419.806c-0,115.849 94.054,209.903 209.903,209.903l76.407,0l-87.705,359.834l345.507,-359.834l306.031,0c115.849,0 209.903,-94.054 209.903,-209.903l0,-419.806Z" style="fill:#fff;"/><path d="M880.642,953.818l0,419.806c0,115.849 94.055,209.903 209.903,209.903l306.032,-0l345.507,359.834l-87.706,-359.834l76.408,-0c115.849,-0 209.903,-94.054 209.903,-209.903l0,-419.806c0,-115.849 -94.054,-209.903 -209.903,-209.903l-640.241,-0c-115.848,-0 -209.903,94.054 -209.903,209.903Z" style="fill:#33cc45;"/><clipPath id="_clip2"><path d="M880.642,953.818l0,419.806c0,115.849 94.055,209.903 209.903,209.903l306.032,-0l345.507,359.834l-87.706,-359.834l76.408,-0c115.849,-0 209.903,-94.054 209.903,-209.903l0,-419.806c0,-115.849 -94.054,-209.903 -209.903,-209.903l-640.241,-0c-115.848,-0 -209.903,94.054 -209.903,209.903Z"/></clipPath><g clip-path="url(#_clip2)"><ellipse cx="1638.59" cy="1156.01" rx="76.841" ry="78.913" style="fill:#fff;"/><ellipse cx="1410.67" cy="1156.01" rx="76.841" ry="78.913" style="fill:#fff;"/><ellipse cx="1182.74" cy="1156.01" rx="76.841" ry="78.913" style="fill:#fff;"/></g><path d="M1758.37,1664.17l63.321,259.788c8.773,35.992 -7.698,73.394 -40.172,91.222c-32.474,17.829 -72.872,11.649 -98.53,-15.074l-321.324,-334.647l-271.115,-0c-161.068,-0 -291.835,-130.768 -291.835,-291.836l-0,-419.806c-0,-161.069 130.767,-291.836 291.835,-291.836l640.241,0c161.068,0 291.836,130.767 291.836,291.836l-0,419.806c-0,151.768 -116.102,276.633 -264.257,290.547Zm-877.723,-710.353l0,419.806c0,115.849 94.055,209.903 209.903,209.903l306.032,-0l345.507,359.834l-87.706,-359.834l76.408,-0c115.849,-0 209.903,-94.054 209.903,-209.903l0,-419.806c0,-115.849 -94.054,-209.903 -209.903,-209.903l-640.241,-0c-115.848,-0 -209.903,94.054 -209.903,209.903Z" style="fill:#fff;"/></g></svg>