<?xml version="1.0" encoding="UTF-8" standalone="no"?><!DOCTYPE svg PUBLIC "-//W3C//DTD SVG 1.1//EN" "http://www.w3.org/Graphics/SVG/1.1/DTD/svg11.dtd"><svg width="100%" height="100%" viewBox="0 0 2138 2138" version="1.1" xmlns="http://www.w3.org/2000/svg" xmlns:xlink="http://www.w3.org/1999/xlink" xml:space="preserve" xmlns:serif="http://www.serif.com/" style="fill-rule:evenodd;clip-rule:evenodd;stroke-linejoin:round;stroke-miterlimit:2;"><rect id="Communicate" x="1.399" y="4.071" width="2133.33" height="2133.33" style="fill:none;"/><clipPath id="_clip1"><rect x="1.399" y="4.071" width="2133.33" height="2133.33"/></clipPath><g clip-path="url(#_clip1)"><g><path d="M1296.01,264.733l0,510.571c0,140.896 -114.389,255.285 -255.285,255.285l-372.197,0l-420.208,437.632l106.668,-437.632l-92.927,0c-140.896,0 -255.286,-114.389 -255.286,-255.285l0,-510.571c0,-140.895 114.39,-255.285 255.286,-255.285l778.664,0c140.896,0 255.285,114.39 255.285,255.285Z" style="fill:#2aace2;"/><clipPath id="_clip2"><path d="M1296.01,264.733l0,510.571c0,140.896 -114.389,255.285 -255.285,255.285l-372.197,0l-420.208,437.632l106.668,-437.632l-92.927,0c-140.896,0 -255.286,-114.389 -255.286,-255.285l0,-510.571c0,-140.895 114.39,-255.285 255.286,-255.285l778.664,0c140.896,0 255.285,114.39 255.285,255.285Z"/></clipPath><g clip-path="url(#_clip2)"><ellipse cx="374.186" cy="510.646" rx="93.455" ry="95.975" style="fill:#fff;"/><ellipse cx="651.394" cy="510.646" rx="93.455" ry="95.975" style="fill:#fff;"/><ellipse cx="928.601" cy="510.646" rx="93.455" ry="95.975" style="fill:#fff;"/></g><path d="M228.519,1128.67c-180.186,-16.923 -321.389,-168.784 -321.389,-353.365l-0,-510.571c-0,-195.892 159.039,-354.932 354.932,-354.932l778.664,0c195.892,0 354.932,159.04 354.932,354.932l0,510.571c0,195.892 -159.04,354.932 -354.932,354.932l-329.732,0l-390.795,407.001c-31.206,32.5 -80.338,40.016 -119.833,18.333c-39.495,-21.684 -59.527,-67.171 -48.857,-110.946l77.01,-315.955Zm1067.49,-863.936c0,-140.895 -114.389,-255.285 -255.285,-255.285l-778.664,0c-140.896,0 -255.286,114.39 -255.286,255.285l0,510.571c0,140.896 114.39,255.285 255.286,255.285l92.927,0l-106.668,437.632l420.208,-437.632l372.197,0c140.896,0 255.285,-114.389 255.285,-255.285l0,-510.571Z" style="fill:#fff;"/><path d="M840.12,928.539l0,510.571c0,140.895 114.39,255.285 255.286,255.285l372.197,-0l420.207,437.632l-106.668,-437.632l92.928,-0c140.896,-0 255.285,-114.39 255.285,-255.285l0,-510.571c0,-140.896 -114.389,-255.285 -255.285,-255.285l-778.664,-0c-140.896,-0 -255.286,114.389 -255.286,255.285Z" style="fill:#33cc45;"/><clipPath id="_clip3"><path d="M840.12,928.539l0,510.571c0,140.895 114.39,255.285 255.286,255.285l372.197,-0l420.207,437.632l-106.668,-437.632l92.928,-0c140.896,-0 255.285,-114.39 255.285,-255.285l0,-510.571c0,-140.896 -114.389,-255.285 -255.285,-255.285l-778.664,-0c-140.896,-0 -255.286,114.389 -255.286,255.285Z"/></clipPath><g clip-path="url(#_clip3)"><ellipse cx="1761.94" cy="1174.45" rx="93.455" ry="95.975" style="fill:#fff;"/><ellipse cx="1484.74" cy="1174.45" rx="93.455" ry="95.975" style="fill:#fff;"/><ellipse cx="1207.53" cy="1174.45" rx="93.455" ry="95.975" style="fill:#fff;"/></g><path d="M1907.61,1792.48l77.011,315.955c10.669,43.774 -9.362,89.262 -48.858,110.946c-39.495,21.683 -88.626,14.166 -119.832,-18.334l-390.796,-407l-329.731,-0c-195.893,-0 -354.933,-159.04 -354.933,-354.932l0,-510.571c0,-195.892 159.04,-354.932 354.933,-354.932l778.664,0c195.892,0 354.932,159.04 354.932,354.932l0,510.571c0,184.581 -141.203,336.442 -321.39,353.365Zm-1067.49,-863.936l0,510.571c0,140.895 114.39,255.285 255.286,255.285l372.197,-0l420.207,437.632l-106.668,-437.632l92.928,-0c140.896,-0 255.285,-114.39 255.285,-255.285l0,-510.571c0,-140.896 -114.389,-255.285 -255.285,-255.285l-778.664,-0c-140.896,-0 -255.286,114.389 -255.286,255.285Z" style="fill:#fff;"/></g></g></svg>