<svg width="24" height="24" viewBox="0 0 24 24" fill="none" xmlns="http://www.w3.org/2000/svg">
  <path d="M12 6C16.42 6 20 7.79 20 10V14C20 16.21 16.42 18 12 18C7.58 18 4 16.21 4 14V10C4 7.79 7.58 6 12 6Z" fill="#8B5CF6"/>
  <path d="M20 10C20 12.21 16.42 14 12 14C7.58 14 4 12.21 4 10" stroke="#C4B5FD" stroke-width="2"/>
  <path d="M20 14C20 16.21 16.42 18 12 18C7.58 18 4 16.21 4 14" stroke="#C4B5FD" stroke-width="2"/>
  <path d="M4 10V14" stroke="#8B5CF6" stroke-width="2"/>
  <path d="M20 10V14" stroke="#8B5CF6" stroke-width="2"/>
  <path d="M12 6C16.42 6 20 7.79 20 10" stroke="#8B5CF6" stroke-width="2"/>
</svg>