<?xml version="1.0" encoding="UTF-8" standalone="no"?><!DOCTYPE svg PUBLIC "-//W3C//DTD SVG 1.1//EN" "http://www.w3.org/Graphics/SVG/1.1/DTD/svg11.dtd"><svg width="100%" height="100%" viewBox="0 0 2138 2138" version="1.1" xmlns="http://www.w3.org/2000/svg" xmlns:xlink="http://www.w3.org/1999/xlink" xml:space="preserve" xmlns:serif="http://www.serif.com/" style="fill-rule:evenodd;clip-rule:evenodd;stroke-linecap:square;stroke-miterlimit:1.5;"><rect id="Digital-Library" serif:id="Digital Library" x="0.182" y="0.983" width="2133.33" height="2133.33" style="fill:none;"/><g><g><path id="Livre-1" serif:id="Livre 1" d="M575.179,310.886l-0,1387.75c-0,3.828 -3.109,6.937 -6.937,6.937l-332.959,-0c-3.829,-0 -6.937,-3.109 -6.937,-6.937l0,-1387.75c0,-3.829 3.108,-6.937 6.937,-6.937l332.959,0c3.828,0 6.937,3.108 6.937,6.937Z" style="fill:#fcde61;"/><clipPath id="_clip1"><path d="M575.179,310.886l-0,1387.75c-0,3.828 -3.109,6.937 -6.937,6.937l-332.959,-0c-3.829,-0 -6.937,-3.109 -6.937,-6.937l0,-1387.75c0,-3.829 3.108,-6.937 6.937,-6.937l332.959,0c3.828,0 6.937,3.108 6.937,6.937Z"/></clipPath><g clip-path="url(#_clip1)"><rect x="254.305" y="397.15" width="294.914" height="182.306" style="fill:#fff;"/><g id="Shadow"></g><rect x="197.396" y="1528.95" width="408.733" height="65.851"/></g><path d="M575.179,310.886l-0,1387.75c-0,3.828 -3.109,6.937 -6.937,6.937l-332.959,-0c-3.829,-0 -6.937,-3.109 -6.937,-6.937l0,-1387.75c0,-3.829 3.108,-6.937 6.937,-6.937l332.959,0c3.828,0 6.937,3.108 6.937,6.937Z" style="fill:none;stroke:#000;stroke-width:22.9px;"/><path id="Livre-11" serif:id="Livre 1" d="M1325.8,533.616l-0,1165.02c-0,3.828 -3.109,6.937 -6.937,6.937l-332.959,-0c-3.829,-0 -6.937,-3.109 -6.937,-6.937l-0,-1165.02c-0,-3.829 3.108,-6.937 6.937,-6.937l332.959,-0c3.828,-0 6.937,3.108 6.937,6.937Z" style="fill:#ff705e;"/><clipPath id="_clip2"><path d="M1325.8,533.616l-0,1165.02c-0,3.828 -3.109,6.937 -6.937,6.937l-332.959,-0c-3.829,-0 -6.937,-3.109 -6.937,-6.937l-0,-1165.02c-0,-3.829 3.108,-6.937 6.937,-6.937l332.959,-0c3.828,-0 6.937,3.108 6.937,6.937Z"/></clipPath><g clip-path="url(#_clip2)"><g id="Shadow1" serif:id="Shadow"></g><path d="M1408.41,1551.1l2.186,223.155l-514.256,2.355l-2.186,-223.155l514.256,-2.355Z" style="fill:none;stroke:#000;stroke-width:63.3px;"/></g><path d="M1325.8,533.616l-0,1165.02c-0,3.828 -3.109,6.937 -6.937,6.937l-332.959,-0c-3.829,-0 -6.937,-3.109 -6.937,-6.937l-0,-1165.02c-0,-3.829 3.108,-6.937 6.937,-6.937l332.959,-0c3.828,-0 6.937,3.108 6.937,6.937Z" style="fill:none;stroke:#000;stroke-width:22.9px;"/><ellipse cx="1152.38" cy="1088.27" rx="56.996" ry="137.966"/><path id="Livre-12" serif:id="Livre 1" d="M1560.84,210.527l377.036,1410.48c0.884,3.305 -1.083,6.707 -4.389,7.591l-287.508,76.853c-3.306,0.884 -6.707,-1.082 -7.591,-4.388l-377.036,-1410.48c-0.883,-3.306 1.083,-6.707 4.389,-7.591l287.508,-76.854c3.306,-0.884 6.708,1.083 7.591,4.389Z" style="fill:#33cc45;"/><clipPath id="_clip3"><path d="M1560.84,210.527l377.036,1410.48c0.884,3.305 -1.083,6.707 -4.389,7.591l-287.508,76.853c-3.306,0.884 -6.707,-1.082 -7.591,-4.388l-377.036,-1410.48c-0.883,-3.306 1.083,-6.707 4.389,-7.591l287.508,-76.854c3.306,-0.884 6.708,1.083 7.591,4.389Z"/></clipPath><g clip-path="url(#_clip3)"><path d="M1940.32,1401.89l71.978,269.267l-444.067,118.704l-71.978,-269.267l444.067,-118.704Z" style="fill:none;stroke:#000;stroke-width:65.43px;"/><g id="Shadow2" serif:id="Shadow"></g><path d="M1511.45,318.654l141.633,529.847l-154.031,41.174l-141.634,-529.847l154.032,-41.174Z" style="fill:#fff;"/></g><path d="M1560.84,210.527l377.036,1410.48c0.884,3.305 -1.083,6.707 -4.389,7.591l-287.508,76.853c-3.306,0.884 -6.707,-1.082 -7.591,-4.388l-377.036,-1410.48c-0.883,-3.306 1.083,-6.707 4.389,-7.591l287.508,-76.854c3.306,-0.884 6.708,1.083 7.591,4.389Z" style="fill:none;stroke:#000;stroke-width:22.54px;"/><path id="Livre-2" serif:id="Livre 2" d="M978.962,203.102l-0,1494.39c-0,4.457 -3.619,8.076 -8.076,8.076l-387.632,-0c-4.457,-0 -8.075,-3.619 -8.075,-8.076l-0,-1494.39c-0,-4.457 3.618,-8.076 8.075,-8.076l387.632,-0c4.457,-0 8.076,3.619 8.076,8.076Z" style="fill:#6fbdf8;"/><clipPath id="_clip4"><path d="M978.962,203.102l-0,1494.39c-0,4.457 -3.619,8.076 -8.076,8.076l-387.632,-0c-4.457,-0 -8.075,-3.619 -8.075,-8.076l-0,-1494.39c-0,-4.457 3.618,-8.076 8.075,-8.076l387.632,-0c4.457,-0 8.076,3.619 8.076,8.076Z"/></clipPath><g clip-path="url(#_clip4)"><g id="Shadow3" serif:id="Shadow"></g><rect x="514.983" y="1491.65" width="524.175" height="57.407"/><rect x="514.983" y="1360.12" width="524.175" height="57.407"/><path d="M992.121,342.06l0.769,163.207l-430.844,-1.418l-0.769,-163.207l430.844,1.418Z"/></g><path d="M978.962,203.102l-0,1494.39c-0,4.457 -3.619,8.076 -8.076,8.076l-387.632,-0c-4.457,-0 -8.075,-3.619 -8.075,-8.076l-0,-1494.39c-0,-4.457 3.618,-8.076 8.075,-8.076l387.632,-0c4.457,-0 8.076,3.619 8.076,8.076Z" style="fill:none;stroke:#000;stroke-width:22.9px;"/></g><rect x="194.226" y="1714.21" width="1745.25" height="113.031"/><rect x="268.254" y="1827.24" width="96.771" height="113.031"/><rect x="1740.38" y="1827.24" width="96.771" height="113.031"/></g></svg>