<?xml version="1.0" encoding="UTF-8" standalone="no"?><!DOCTYPE svg PUBLIC "-//W3C//DTD SVG 1.1//EN" "http://www.w3.org/Graphics/SVG/1.1/DTD/svg11.dtd"><svg width="100%" height="100%" viewBox="0 0 2138 2138" version="1.1" xmlns="http://www.w3.org/2000/svg" xmlns:xlink="http://www.w3.org/1999/xlink" xml:space="preserve" xmlns:serif="http://www.serif.com/" style="fill-rule:evenodd;clip-rule:evenodd;stroke-linecap:square;stroke-miterlimit:1.5;"><rect id="Digital-Library" serif:id="Digital Library" x="0.182" y="0.983" width="2133.33" height="2133.33" style="fill:none;"/><clipPath id="_clip1"><rect x="0.182" y="0.983" width="2133.33" height="2133.33"/></clipPath><g clip-path="url(#_clip1)"><g><g><path id="Livre-1" serif:id="Livre 1" d="M478.798,162.54l-0,1659.78c-0,4.579 -3.718,8.296 -8.297,8.296l-398.228,0c-4.579,0 -8.296,-3.717 -8.296,-8.296l-0,-1659.78c-0,-4.579 3.717,-8.297 8.296,-8.297l398.228,0c4.579,0 8.297,3.718 8.297,8.297Z" style="fill:#fcde61;"/><clipPath id="_clip2"><path d="M478.798,162.54l-0,1659.78c-0,4.579 -3.718,8.296 -8.297,8.296l-398.228,0c-4.579,0 -8.296,-3.717 -8.296,-8.296l-0,-1659.78c-0,-4.579 3.717,-8.297 8.296,-8.297l398.228,0c4.579,0 8.297,3.718 8.297,8.297Z"/></clipPath><g clip-path="url(#_clip2)"><rect x="95.025" y="265.714" width="352.725" height="218.043" style="fill:#fff;"/><g id="Shadow"></g><rect x="26.959" y="1619.38" width="488.856" height="78.76"/></g><path d="M478.798,162.54l-0,1659.78c-0,4.579 -3.718,8.296 -8.297,8.296l-398.228,0c-4.579,0 -8.296,-3.717 -8.296,-8.296l-0,-1659.78c-0,-4.579 3.717,-8.297 8.296,-8.297l398.228,0c4.579,0 8.297,3.718 8.297,8.297Z" style="fill:none;stroke:#000;stroke-width:27.38px;"/><path id="Livre-11" serif:id="Livre 1" d="M1376.56,428.931l-0,1393.39c-0,4.579 -3.718,8.296 -8.297,8.296l-398.228,0c-4.579,0 -8.296,-3.717 -8.296,-8.296l-0,-1393.39c-0,-4.579 3.717,-8.297 8.296,-8.297l398.228,0c4.579,0 8.297,3.718 8.297,8.297Z" style="fill:#ff705e;"/><clipPath id="_clip3"><path d="M1376.56,428.931l-0,1393.39c-0,4.579 -3.718,8.296 -8.297,8.296l-398.228,0c-4.579,0 -8.296,-3.717 -8.296,-8.296l-0,-1393.39c-0,-4.579 3.717,-8.297 8.296,-8.297l398.228,0c4.579,0 8.297,3.718 8.297,8.297Z"/></clipPath><g clip-path="url(#_clip3)"><g id="Shadow1" serif:id="Shadow"></g><path d="M1475.37,1645.87l2.615,266.9l-615.064,2.816l-2.615,-266.899l615.064,-2.817Z" style="fill:none;stroke:#000;stroke-width:75.71px;"/></g><path d="M1376.56,428.931l-0,1393.39c-0,4.579 -3.718,8.296 -8.297,8.296l-398.228,0c-4.579,0 -8.296,-3.717 -8.296,-8.296l-0,-1393.39c-0,-4.579 3.717,-8.297 8.296,-8.297l398.228,0c4.579,0 8.297,3.718 8.297,8.297Z" style="fill:none;stroke:#000;stroke-width:27.38px;"/><ellipse cx="1169.14" cy="1092.31" rx="68.169" ry="165.011"/><path id="Livre-12" serif:id="Livre 1" d="M1657.67,42.507l450.945,1686.98c1.057,3.954 -1.295,8.022 -5.249,9.079l-343.868,91.919c-3.954,1.057 -8.022,-1.295 -9.079,-5.249l-450.945,-1686.98c-1.057,-3.954 1.295,-8.022 5.249,-9.079l343.868,-91.919c3.954,-1.057 8.022,1.295 9.079,5.248Z" style="fill:#33cc45;"/><clipPath id="_clip4"><path d="M1657.67,42.507l450.945,1686.98c1.057,3.954 -1.295,8.022 -5.249,9.079l-343.868,91.919c-3.954,1.057 -8.022,-1.295 -9.079,-5.249l-450.945,-1686.98c-1.057,-3.954 1.295,-8.022 5.249,-9.079l343.868,-91.919c3.954,-1.057 8.022,1.295 9.079,5.248Z"/></clipPath><g clip-path="url(#_clip4)"><path d="M2111.54,1467.41l86.088,322.051l-531.117,141.972l-86.087,-322.05l531.116,-141.973Z" style="fill:none;stroke:#000;stroke-width:78.26px;"/><g id="Shadow2" serif:id="Shadow"></g><path d="M1598.61,171.831l169.397,633.711l-184.226,49.246l-169.397,-633.712l184.226,-49.245Z" style="fill:#fff;"/></g><path d="M1657.67,42.507l450.945,1686.98c1.057,3.954 -1.295,8.022 -5.249,9.079l-343.868,91.919c-3.954,1.057 -8.022,-1.295 -9.079,-5.249l-450.945,-1686.98c-1.057,-3.954 1.295,-8.022 5.249,-9.079l343.868,-91.919c3.954,-1.057 8.022,1.295 9.079,5.248Z" style="fill:none;stroke:#000;stroke-width:26.96px;"/><path id="Livre-2" serif:id="Livre 2" d="M961.734,33.627l-0,1787.34c-0,5.331 -4.328,9.658 -9.659,9.658l-463.618,0c-5.331,0 -9.659,-4.327 -9.659,-9.658l-0,-1787.34c-0,-5.331 4.328,-9.659 9.659,-9.659l463.618,0c5.331,0 9.659,4.328 9.659,9.659Z" style="fill:#6fbdf8;"/><clipPath id="_clip5"><path d="M961.734,33.627l-0,1787.34c-0,5.331 -4.328,9.658 -9.659,9.658l-463.618,0c-5.331,0 -9.659,-4.327 -9.659,-9.658l-0,-1787.34c-0,-5.331 4.328,-9.659 9.659,-9.659l463.618,0c5.331,0 9.659,4.328 9.659,9.659Z"/></clipPath><g clip-path="url(#_clip5)"><g id="Shadow3" serif:id="Shadow"></g><rect x="406.802" y="1574.77" width="626.927" height="68.661"/><rect x="406.802" y="1417.45" width="626.927" height="68.661"/><path d="M977.472,199.825l0.92,195.2l-515.302,-1.696l-0.919,-195.2l515.301,1.696Z"/></g><path d="M961.734,33.627l-0,1787.34c-0,5.331 -4.328,9.658 -9.659,9.658l-463.618,0c-5.331,0 -9.659,-4.327 -9.659,-9.658l-0,-1787.34c-0,-5.331 4.328,-9.659 9.659,-9.659l463.618,0c5.331,0 9.659,4.328 9.659,9.659Z" style="fill:none;stroke:#000;stroke-width:27.38px;"/></g><rect x="23.168" y="1840.95" width="2087.36" height="135.189"/><rect x="111.708" y="1976.14" width="115.741" height="135.189"/><rect x="1872.4" y="1976.14" width="115.741" height="135.189"/></g></g></svg>