<?xml version="1.0" encoding="UTF-8" standalone="no"?><!DOCTYPE svg PUBLIC "-//W3C//DTD SVG 1.1//EN" "http://www.w3.org/Graphics/SVG/1.1/DTD/svg11.dtd"><svg width="100%" height="100%" viewBox="0 0 2138 2134" version="1.1" xmlns="http://www.w3.org/2000/svg" xmlns:xlink="http://www.w3.org/1999/xlink" xml:space="preserve" xmlns:serif="http://www.serif.com/" style="fill-rule:evenodd;clip-rule:evenodd;stroke-linecap:round;stroke-miterlimit:1.5;"><rect id="Dream-arcade" serif:id="Dream arcade" x="3.601" y="0.02" width="2133.33" height="2133.33" style="fill:none;"/><g><path d="M788.048,1589.07c-133.262,54.157 -181.104,304.514 -277.731,339.618c-96.627,35.104 -276.981,-19.103 -302.032,-128.993c-33.559,-147.213 15.592,-570.702 100.678,-754.289c76.42,-164.89 233.431,-347.327 409.834,-347.234c349.404,0.185 354.352,9.091 745.081,-5.94c169.32,-6.514 305.486,195.959 374.502,356.442c77.968,181.296 128.017,584.667 93.301,731.336c-26.537,112.113 -205.044,180.932 -301.598,148.678c-96.555,-32.254 -143.744,-288.16 -277.731,-342.201c-140.339,-56.603 -423.965,-54.45 -564.304,2.583Z" style="fill:#32526a;"/><g><rect x="476.635" y="1030.4" width="341.295" height="113.695" style="fill:#fff;"/><path d="M702.097,1264.23l-109.628,0l-0,-353.957l109.628,0l-0,353.957Z" style="fill:#fff;"/></g><ellipse cx="1574.46" cy="997.04" rx="83.663" ry="86.767" style="fill:#fd2424;"/><path d="M1574.46,910.272c46.175,0 83.663,38.88 83.663,86.768c0,47.888 -37.488,86.767 -83.663,86.767c-46.175,-0 -83.664,-38.879 -83.664,-86.767c0,-47.888 37.489,-86.768 83.664,-86.768Zm-0,8.499c-41.572,-0 -75.165,35.155 -75.165,78.269c-0,43.114 33.593,78.269 75.165,78.269c41.571,-0 75.165,-35.155 75.165,-78.269c-0,-43.114 -33.594,-78.269 -75.165,-78.269Z"/><ellipse cx="1445.65" cy="1161.19" rx="83.663" ry="86.767" style="fill:#fbff03;"/><path d="M1445.65,1074.43c46.175,0 83.664,38.88 83.664,86.768c-0,47.888 -37.489,86.767 -83.664,86.767c-46.175,-0 -83.663,-38.879 -83.663,-86.767c-0,-47.888 37.488,-86.768 83.663,-86.768Zm0,8.499c-41.571,-0 -75.165,35.155 -75.165,78.269c0,43.114 33.594,78.269 75.165,78.269c41.572,-0 75.165,-35.155 75.165,-78.269c0,-43.114 -33.593,-78.269 -75.165,-78.269Z"/><path d="M1034.78,194.063c-39.424,81.774 79.008,110.047 79.008,200.297c0,72.698 -134.53,170.029 -52.672,254.924" style="fill:none;stroke:#32526a;stroke-width:53.77px;"/></g></svg>