<?xml version="1.0" encoding="UTF-8" standalone="no"?><!DOCTYPE svg PUBLIC "-//W3C//DTD SVG 1.1//EN" "http://www.w3.org/Graphics/SVG/1.1/DTD/svg11.dtd"><svg width="100%" height="100%" viewBox="0 0 2138 2134" version="1.1" xmlns="http://www.w3.org/2000/svg" xmlns:xlink="http://www.w3.org/1999/xlink" xml:space="preserve" xmlns:serif="http://www.serif.com/" style="fill-rule:evenodd;clip-rule:evenodd;stroke-linecap:round;stroke-miterlimit:1.5;"><rect id="Dream-Arcade" serif:id="Dream Arcade" x="3.601" y="0.02" width="2133.33" height="2133.33" style="fill:none;"/><clipPath id="_clip1"><rect x="3.601" y="0.02" width="2133.33" height="2133.33"/></clipPath><g clip-path="url(#_clip1)"><g><path d="M725.291,1705.24c-162.895,66.2 -221.375,372.228 -339.489,415.138c-118.114,42.91 -338.573,-23.351 -369.194,-157.676c-41.021,-179.95 19.059,-697.608 123.065,-922.019c93.413,-201.556 285.339,-424.562 500.969,-424.448c427.099,0.226 433.148,11.113 910.763,-7.262c206.97,-7.962 373.416,239.534 457.779,435.704c95.305,221.611 156.483,714.678 114.047,893.962c-32.438,137.043 -250.638,221.165 -368.663,181.739c-118.026,-39.426 -175.709,-352.238 -339.489,-418.295c-171.546,-69.19 -518.242,-66.558 -689.788,3.157Z" style="fill:#32526a;"/><g><rect x="344.631" y="1022.34" width="417.188" height="138.977" style="fill:#fff;"/><path d="M620.227,1308.16l-134.005,0l-0,-432.665l134.005,-0l0,432.665Z" style="fill:#fff;"/></g><ellipse cx="1686.57" cy="981.552" rx="102.267" ry="106.062" style="fill:#fd2424;"/><path d="M1686.57,875.491c56.443,-0 102.267,47.525 102.267,106.061c0,58.537 -45.824,106.062 -102.267,106.062c-56.443,-0 -102.267,-47.525 -102.267,-106.062c-0,-58.536 45.824,-106.061 102.267,-106.061Zm-0,10.388c-50.816,0 -91.879,42.972 -91.879,95.673c-0,52.702 41.063,95.674 91.879,95.674c50.816,-0 91.879,-42.972 91.879,-95.674c0,-52.701 -41.063,-95.673 -91.879,-95.673Z"/><ellipse cx="1529.12" cy="1182.21" rx="102.267" ry="106.062" style="fill:#fbff03;"/><path d="M1529.12,1076.15c56.443,-0 102.268,47.524 102.268,106.061c-0,58.537 -45.825,106.062 -102.268,106.062c-56.443,-0 -102.267,-47.525 -102.267,-106.062c-0,-58.537 45.824,-106.061 102.267,-106.061Zm0,10.388c-50.816,-0 -91.879,42.972 -91.879,95.673c-0,52.701 41.063,95.674 91.879,95.674c50.816,-0 91.879,-42.973 91.879,-95.674c0,-52.701 -41.063,-95.673 -91.879,-95.673Z"/><path d="M1026.89,0.02c-48.191,99.957 96.577,134.517 96.577,244.837c0,88.863 -164.446,207.837 -64.385,311.61" style="fill:none;stroke:#32526a;stroke-width:65.72px;"/></g></g></svg>