<?xml version="1.0" encoding="UTF-8" standalone="no"?><!DOCTYPE svg PUBLIC "-//W3C//DTD SVG 1.1//EN" "http://www.w3.org/Graphics/SVG/1.1/DTD/svg11.dtd"><svg width="100%" height="100%" viewBox="0 0 2138 2138" version="1.1" xmlns="http://www.w3.org/2000/svg" xmlns:xlink="http://www.w3.org/1999/xlink" xml:space="preserve" xmlns:serif="http://www.serif.com/" style="fill-rule:evenodd;clip-rule:evenodd;stroke-linecap:square;stroke-miterlimit:1.5;"><rect id="Attendance" x="2.951" y="0.495" width="2133.33" height="2133.33" style="fill:none;"/><g><g><g><path d="M375.834,831.551c61.246,200.83 218.635,409.494 430.86,409.494c212.225,0 369.97,-208.664 430.86,-409.494c52.344,-18.161 96.142,-70.505 113.237,-138.16c23.502,-92.938 -11.042,-179.11 -77.982,-205.104c6.054,-24.57 9.259,-49.852 9.259,-75.846c-0.008,-220.415 -219.707,-398.456 -490.689,-398.456c-270.979,0 -491.394,178.397 -491.394,398.456c-0,31.336 4.985,61.959 13.175,91.158c-48.427,36.676 -70.505,110.741 -50.564,190.148c17.096,67.299 60.89,119.643 113.238,137.804Zm-32.763,-256.024c7.121,-11.751 16.38,-19.584 28.13,-22.789c2.137,-0.356 4.985,-0.712 7.478,-0.712c2.136,-0 3.917,-0 6.053,0.356l33.828,3.205l4.985,-33.472c10.327,-69.792 32.048,-132.463 62.671,-185.875c57.329,64.451 171.276,108.249 302.67,108.249c148.486,-0 274.896,-55.905 321.543,-134.243c39.169,58.753 66.943,130.326 79.046,211.869l4.986,33.472l33.827,-3.205c4.986,-0.356 9.615,-0.356 13.532,0.356c2.492,0.356 3.92,2.136 6.409,2.849c30.627,13.531 46.291,67.299 33.119,120.712c-13.534,54.48 -49.143,86.528 -77.27,90.088l-23.505,3.205l-6.409,22.789c-51.273,187.3 -193.706,377.448 -368.19,377.448c-174.48,-0 -316.913,-189.792 -367.477,-377.448l-6.409,-22.789l-23.502,-3.205c-28.13,-3.56 -63.738,-36.32 -77.27,-90.088c-8.894,-38.457 -3.553,-77.27 11.755,-100.772Z" style="fill:#04530e;fill-rule:nonzero;"/><path d="M1225.09,1080.1c-45.578,77.626 -98.279,143.501 -168.427,178.75c-144.213,73.709 -251.394,133.531 -251.394,133.531l-0.356,-0.356l-0,-1.781l-1.781,0.713l-1.78,-0.713l-0,1.781l-0.356,0.356c-0,-0 -107.181,-59.462 -251.394,-133.531c-69.793,-35.964 -122.493,-101.484 -168.427,-178.75c-213.29,86.528 -362.492,286.291 -362.492,460.059l-0,361.067l1568.19,0l0,-361.067c0.716,-173.768 -148.483,-373.175 -361.78,-460.059Z" style="fill:#04530e;fill-rule:nonzero;"/></g></g><path d="M1447.34,866.038c-0,-0 -906.912,-138.274 -791.748,768.271l-2.409,486.03l1470.67,0l0,-1232.15l-676.509,-22.148Z" style="fill:#fff;"/><g><g><path d="M1894.57,2078.99l238.95,-120.379l-239.674,-118.933l0.724,239.312Z" style="fill:#04530e;"/><path d="M1942.07,1959.19c-265.569,0.802 -713.451,2.156 -713.451,2.156c-68.56,0 -134.146,-12.837 -194.482,-36.236" style="fill:none;stroke:#04530e;stroke-width:79.77px;"/><path d="M1228.62,1921.47l39.886,-0l-0,79.771l-39.886,-0l-39.886,-0l-0,-79.771l39.886,-0Zm-154.135,-24.305l37.931,12.331l-24.662,75.863l-37.931,-12.331l-37.933,-12.331l24.663,-75.863l37.932,12.331Zm-138.941,-70.961l32.245,23.476l-46.952,64.489l-32.245,-23.476l-32.245,-23.476l46.952,-64.49l32.245,23.477Zm-110.405,-110.405l23.476,32.245l-64.489,46.952l-23.477,-32.245l-23.476,-32.245l64.489,-46.953l23.477,32.246Zm-70.962,-138.941l12.331,37.932l-75.863,24.662l-12.331,-37.931l-12.331,-37.933l75.863,-24.662l12.331,37.932Zm-24.305,-154.136l-0,39.886l-79.771,-0l-0,-39.886l-0,-39.886l79.771,-0l-0,39.886Zm24.305,-154.136l-12.331,37.932l-75.863,-24.663l12.331,-37.931l12.331,-37.932l75.863,24.662l-12.331,37.932Zm70.961,-138.941l-23.476,32.245l-64.49,-46.952l23.476,-32.245l23.477,-32.245l64.489,46.952l-23.476,32.245Zm110.405,-110.405l-32.245,23.476l-46.952,-64.489l32.244,-23.476l32.246,-23.477l46.952,64.49l-32.245,23.476Zm138.94,-70.962l-37.931,12.332l-24.662,-75.863l37.931,-12.332l37.932,-12.331l24.663,75.863l-37.933,12.331Zm154.136,-24.305l-39.885,0l-0,-79.771l39.885,-0l39.887,-0l-0,79.771l-39.887,-0Z" style="fill:#04530e;"/><path d="M1228.62,884.083c297.28,0 538.634,241.354 538.634,538.634" style="fill:none;stroke:#04530e;stroke-width:142.64px;"/><circle cx="1720.12" cy="1104.92" r="251.857" style="fill:#fff;"/><path d="M1720.12,776.91c181.031,-0 328.006,146.975 328.006,328.006c0,181.032 -146.975,328.007 -328.006,328.007c-181.032,0 -328.007,-146.975 -328.007,-328.007c0,-181.031 146.975,-328.006 328.007,-328.006Zm-0,76.15c-139.004,-0 -251.857,112.853 -251.857,251.856c0,139.004 112.853,251.857 251.857,251.857c139.003,0 251.856,-112.853 251.856,-251.857c0,-139.003 -112.853,-251.856 -251.856,-251.856Z" style="fill:#04530e;"/><path d="M1636.19,1075.97l81.556,120.506l323.621,-394.814" style="fill:none;stroke:#04530e;stroke-width:76.15px;stroke-linecap:round;stroke-linejoin:round;"/><path d="M1229,1457.69l-0.054,-445.364" style="fill:none;stroke:#04530e;stroke-width:39.89px;stroke-linecap:round;"/><path d="M1229.05,1462.52l-230.413,130.397" style="fill:none;stroke:#04530e;stroke-width:57.79px;stroke-linecap:round;"/><circle cx="1229" cy="1457.69" r="69.68" style="fill:#04530e;"/></g></g></g></svg>