<svg width="24" height="24" viewBox="0 0 24 24" fill="none" xmlns="http://www.w3.org/2000/svg">
  <path d="M12 15C13.6569 15 15 13.6569 15 12C15 10.3431 13.6569 9 12 9C10.3431 9 9 10.3431 9 12C9 13.6569 10.3431 15 12 15Z" fill="#3B82F6"/>
  <path d="M19.4 15C19.2669 15.3016 19.227 15.6362 19.285 15.96L19.995 20.28C20.055 20.62 19.905 20.96 19.605 21.14L16.655 22.86C16.355 23.04 15.985 23.04 15.685 22.86L12.475 21C12.165 20.82 11.835 20.82 11.525 21L8.315 22.86C8.015 23.04 7.645 23.04 7.345 22.86L4.395 21.14C4.095 20.96 3.945 20.62 4.005 20.28L4.715 15.96C4.773 15.6362 4.7331 15.3016 4.6 15L2.345 12.28C2.145 12.02 2.145 11.66 2.345 11.4L4.6 8.68C4.7331 8.37845 4.773 8.04385 4.715 7.72L4.005 3.4C3.945 3.06 4.095 2.72 4.395 2.54L7.345 0.82C7.645 0.64 8.015 0.64 8.315 0.82L11.525 2.68C11.835 2.86 12.165 2.86 12.475 2.68L15.685 0.82C15.985 0.64 16.355 0.64 16.655 0.82L19.605 2.54C19.905 2.72 20.055 3.06 19.995 3.4L19.285 7.72C19.227 8.04385 19.2669 8.37845 19.4 8.68L21.655 11.4C21.855 11.66 21.855 12.02 21.655 12.28L19.4 15Z" stroke="#3B82F6" stroke-width="2"/>
  <path d="M22 12H24M0 12H2M12 0V2M12 22V24" stroke="#3B82F6" stroke-width="2" stroke-linecap="round"/>
</svg>