<svg xmlns="http://www.w3.org/2000/svg" viewBox="0 0 24 24">
  <linearGradient id="goldGradient" x1="0%" y1="0%" x2="100%" y2="100%">
    <stop offset="0%" stop-color="#FFD700" />
    <stop offset="50%" stop-color="#FFEC8B" />
    <stop offset="100%" stop-color="#FFD700" />
  </linearGradient>
  <path fill="#CD7F32" d="M17 4V2H7V4H2V11C2 12.1 2.9 13 4 13H7.1C7.5 14.96 9.04 16.5 11 16.9V19.08C8 19.54 8 22 8 22H16C16 22 16 19.54 13 19.08V16.9C14.96 16.5 16.5 14.96 16.9 13H20C21.1 13 22 12.1 22 11V4H17ZM4 11V6H7V11H4ZM20 11H17V6H20V11Z"/>
</svg>