<?xml version="1.0" encoding="UTF-8" standalone="no"?><!DOCTYPE svg PUBLIC "-//W3C//DTD SVG 1.1//EN" "http://www.w3.org/Graphics/SVG/1.1/DTD/svg11.dtd"><svg width="100%" height="100%" viewBox="0 0 2138 2134" version="1.1" xmlns="http://www.w3.org/2000/svg" xmlns:xlink="http://www.w3.org/1999/xlink" xml:space="preserve" xmlns:serif="http://www.serif.com/" style="fill-rule:evenodd;clip-rule:evenodd;stroke-linecap:round;stroke-linejoin:round;stroke-miterlimit:1.5;"><rect id="Gradebook" x="2.333" y="0" width="2133.33" height="2133.33" style="fill:none;"/><clipPath id="_clip1"><rect x="2.333" y="0" width="2133.33" height="2133.33"/></clipPath><g clip-path="url(#_clip1)"><g><g id="Book-open" serif:id="Book open"><rect x="2.333" y="236.763" width="1139.34" height="1659.81" style="fill:#f4f4f4;"/><path d="M1141.67,236.763l-0,1659.81l-1139.34,-0l-0,-1659.81l1139.34,0Zm-129.245,129.246l-880.85,-0l-0,1401.32l880.85,-0l-0,-1401.32Z" style="fill:#ab008b;"/><rect x="1015.7" y="236.763" width="1119.96" height="1659.81" style="fill:#f4f4f4;"/><path d="M2135.67,236.763l0,1659.81l-1119.96,-0l-0,-1659.81l1119.96,0Zm-128.265,128.266c-0,0 -863.434,0 -863.434,0l-0,1403.28c-0,0 863.434,0 863.434,0l-0,-1403.28Z" style="fill:#ab008b;"/><g><path d="M896.268,1667.33c-1.863,-224.219 371.381,-189.603 361.917,-0" style="fill:none;stroke:#ab008b;stroke-width:50.87px;"/><path d="M896.268,1129.86c-1.863,-224.218 371.381,-189.602 361.917,0" style="fill:none;stroke:#ab008b;stroke-width:50.87px;"/><path d="M896.268,599.663c-1.863,-224.218 371.381,-189.603 361.917,-0" style="fill:none;stroke:#ab008b;stroke-width:50.87px;"/></g></g><path d="M1537.8,617.28l97.041,112.708l148.302,-286.441" style="fill:none;stroke:#17920c;stroke-width:76.4px;"/><path d="M1537.8,1025.7l97.041,112.707l148.302,-286.44" style="fill:none;stroke:#17920c;stroke-width:76.4px;"/><g><path d="M1556.22,1598.31l186.451,-245.519" style="fill:none;stroke:#fd2424;stroke-width:76.4px;"/><path d="M1749.55,1590.89l-200.223,-230.676" style="fill:none;stroke:#fd2424;stroke-width:76.4px;"/></g><g><path d="M239.145,548.042c15.072,-0 33.671,-47.423 47.379,-47.423c0.718,0 1.646,-0.798 2.154,0c4.666,7.339 -4.666,36.696 -0,44.035c5.67,8.919 28.337,9.378 36.611,6.775c23.202,-7.299 60.301,-4.347 60.301,-54.197c-0,-12.586 2.755,-28.32 -4.307,-33.874c-13.223,-10.398 -34.323,27.523 -27.997,47.423c9.94,31.267 50.297,38.754 68.915,33.873c10.139,-2.657 27.997,-20.324 27.997,-20.324c-0,0 -1.073,23.724 2.154,33.874c4.282,13.472 13.67,10.162 21.536,10.162c34.672,-0 26.2,-52.785 36.611,-60.972c24.777,-19.486 35.149,36.11 49.533,47.422c23.265,18.297 43.258,-43.889 64.608,-27.098c13.945,10.966 16.44,31.985 38.764,16.936c0.869,-0.585 29.774,-21.51 30.151,-20.324c7.788,24.5 -0.485,40.648 19.382,40.648" style="fill:none;stroke:#8f8f8f;stroke-width:27.82px;"/><path d="M712.937,811.789c-15.072,0 -33.671,47.423 -47.379,47.423c-0.718,-0 -1.646,0.798 -2.154,-0c-4.666,-7.339 4.667,-36.696 0,-44.036c-5.67,-8.918 -28.337,-9.377 -36.611,-6.774c-23.202,7.299 -60.301,4.347 -60.301,54.197c0,12.586 -2.754,28.32 4.308,33.873c13.222,10.399 34.322,-27.522 27.996,-47.422c-9.939,-31.268 -50.296,-38.754 -68.915,-33.874c-10.138,2.658 -27.997,20.324 -27.997,20.324c0,0 1.073,-23.723 -2.153,-33.873c-4.283,-13.473 -13.671,-10.162 -21.536,-10.162c-34.673,0 -26.2,52.784 -36.611,60.972c-24.778,19.486 -35.149,-36.11 -49.533,-47.422c-23.266,-18.297 -43.258,43.888 -64.608,27.098c-13.945,-10.967 -16.44,-31.985 -38.765,-16.937c-0.868,0.586 -29.773,21.511 -30.15,20.324c-7.789,-24.499 0.484,-40.647 -19.383,-40.647" style="fill:none;stroke:#8f8f8f;stroke-width:27.82px;"/><path d="M712.937,1217.49c-15.072,-0 -33.671,-47.423 -47.379,-47.423c-0.718,-0 -1.646,-0.798 -2.154,-0c-4.666,7.339 4.667,36.696 0,44.035c-5.67,8.918 -28.337,9.378 -36.611,6.775c-23.202,-7.299 -60.301,-4.347 -60.301,-54.197c0,-12.587 -2.754,-28.32 4.308,-33.874c13.222,-10.398 34.322,27.523 27.996,47.423c-9.939,31.267 -50.296,38.754 -68.915,33.873c-10.138,-2.658 -27.997,-20.324 -27.997,-20.324c0,0 1.073,23.724 -2.153,33.874c-4.283,13.472 -13.671,10.162 -21.536,10.162c-34.673,-0 -26.2,-52.785 -36.611,-60.972c-24.778,-19.486 -35.149,36.11 -49.533,47.422c-23.266,18.297 -43.258,-43.889 -64.608,-27.098c-13.945,10.966 -16.44,31.985 -38.765,16.936c-0.868,-0.585 -29.773,-21.51 -30.15,-20.324c-7.789,24.5 0.484,40.648 -19.383,40.648" style="fill:none;stroke:#8f8f8f;stroke-width:27.82px;"/><path d="M239.145,1651.06c15.072,0 33.671,-47.422 47.379,-47.422c0.718,-0 1.646,-0.799 2.154,-0c4.666,7.339 -4.666,36.696 -0,44.035c5.67,8.918 28.337,9.377 36.611,6.775c23.202,-7.299 60.301,-4.347 60.301,-54.198c-0,-12.586 2.755,-28.319 -4.307,-33.873c-13.223,-10.399 -34.323,27.523 -27.997,47.423c9.94,31.267 50.297,38.754 68.915,33.873c10.139,-2.658 27.997,-20.324 27.997,-20.324c-0,-0 -1.073,23.724 2.154,33.873c4.282,13.473 13.67,10.162 21.536,10.162c34.672,0 26.2,-52.784 36.611,-60.972c24.777,-19.485 35.149,36.111 49.533,47.423c23.265,18.297 43.258,-43.889 64.608,-27.099c13.945,10.967 16.44,31.986 38.764,16.937c0.869,-0.585 29.774,-21.511 30.151,-20.324c7.788,24.499 -0.485,40.648 19.382,40.648" style="fill:none;stroke:#8f8f8f;stroke-width:27.82px;"/></g></g></g></svg>