<?xml version="1.0" encoding="UTF-8" standalone="no"?><!DOCTYPE svg PUBLIC "-//W3C//DTD SVG 1.1//EN" "http://www.w3.org/Graphics/SVG/1.1/DTD/svg11.dtd"><svg width="100%" height="100%" viewBox="0 0 2138 2134" version="1.1" xmlns="http://www.w3.org/2000/svg" xmlns:xlink="http://www.w3.org/1999/xlink" xml:space="preserve" xmlns:serif="http://www.serif.com/" style="fill-rule:evenodd;clip-rule:evenodd;stroke-linecap:round;stroke-linejoin:round;stroke-miterlimit:1.5;"><rect id="GradeBook" x="2.333" y="0" width="2133.33" height="2133.33" style="fill:none;"/><g><g id="Book-open" serif:id="Book open"><rect x="196.376" y="387.736" width="932.076" height="1357.86" style="fill:#f4f4f4;"/><path d="M1128.45,387.736l0,1357.86l-932.076,0l0,-1357.86l932.076,-0Zm-105.733,105.733l-720.609,0l-0,1146.39l720.609,0l-0,-1146.39Z" style="fill:#ab008b;"/><rect x="1025.4" y="387.736" width="916.226" height="1357.86" style="fill:#f4f4f4;"/><path d="M1941.62,387.736l-0,1357.86l-916.226,0l-0,-1357.86l916.226,-0Zm-104.932,104.932c-0,-0 -706.362,-0 -706.362,-0l-0,1148c219.373,0 706.362,0 706.362,0l-0,-1148Z" style="fill:#ab008b;"/><g><path d="M927.691,1558.06c-1.524,-183.429 303.82,-155.111 296.078,-0" style="fill:none;stroke:#ab008b;stroke-width:41.62px;"/><path d="M927.691,1118.37c-1.524,-183.429 303.82,-155.111 296.078,0" style="fill:none;stroke:#ab008b;stroke-width:41.62px;"/><path d="M927.691,684.618c-1.524,-183.429 303.82,-155.111 296.078,0" style="fill:none;stroke:#ab008b;stroke-width:41.62px;"/></g></g><path d="M1452.52,699.031l79.388,92.204l121.324,-234.332" style="fill:none;stroke:#17920c;stroke-width:62.5px;"/><path d="M1452.52,1033.16l79.388,92.205l121.324,-234.333" style="fill:none;stroke:#17920c;stroke-width:62.5px;"/><g><path d="M1467.58,1501.6l152.532,-200.855" style="fill:none;stroke:#fd2424;stroke-width:62.5px;"/><path d="M1625.75,1495.53l-163.798,-188.713" style="fill:none;stroke:#fd2424;stroke-width:62.5px;"/></g><g><path d="M390.109,642.388c12.33,-0 27.546,-38.796 38.76,-38.796c0.587,0 1.346,-0.653 1.762,0c3.817,6.004 -3.818,30.02 -0,36.025c4.638,7.295 23.182,7.671 29.951,5.542c18.981,-5.971 49.331,-3.556 49.331,-44.338c-0,-10.297 2.253,-23.168 -3.524,-27.711c-10.817,-8.507 -28.079,22.516 -22.903,38.795c8.131,25.58 41.147,31.704 56.378,27.712c8.294,-2.175 22.904,-16.627 22.904,-16.627c-0,-0 -0.878,19.408 1.762,27.711c3.503,11.022 11.183,8.313 17.618,8.313c28.365,0 21.434,-43.182 29.951,-49.88c20.27,-15.941 28.755,29.542 40.522,38.796c19.033,14.968 35.389,-35.905 52.855,-22.169c11.408,8.972 13.449,26.167 31.713,13.856c0.71,-0.479 24.357,-17.598 24.665,-16.627c6.371,20.042 -0.396,33.253 15.857,33.253" style="fill:none;stroke:#8f8f8f;stroke-width:22.76px;"/><path d="M777.711,858.155c-12.331,0 -27.546,38.796 -38.761,38.796c-0.587,0 -1.346,0.653 -1.761,0c-3.818,-6.004 3.817,-30.02 -0,-36.024c-4.639,-7.296 -23.183,-7.672 -29.952,-5.543c-18.981,5.971 -49.331,3.556 -49.331,44.338c0,10.297 -2.253,23.168 3.524,27.711c10.817,8.507 28.079,-22.516 22.904,-38.795c-8.132,-25.58 -41.147,-31.704 -56.379,-27.711c-8.294,2.174 -22.903,16.626 -22.903,16.626c-0,0 0.877,-19.408 -1.762,-27.711c-3.504,-11.022 -11.184,-8.313 -17.619,-8.313c-28.365,-0 -21.433,43.182 -29.951,49.88c-20.269,15.941 -28.754,-29.542 -40.522,-38.796c-19.033,-14.968 -35.388,35.905 -52.854,22.169c-11.409,-8.972 -13.45,-26.167 -31.713,-13.855c-0.711,0.478 -24.357,17.597 -24.666,16.626c-6.371,-20.042 0.397,-33.253 -15.856,-33.253" style="fill:none;stroke:#8f8f8f;stroke-width:22.76px;"/><path d="M777.711,1190.05c-12.331,0 -27.546,-38.795 -38.761,-38.795c-0.587,-0 -1.346,-0.654 -1.761,-0c-3.818,6.004 3.817,30.02 -0,36.024c-4.639,7.296 -23.183,7.672 -29.952,5.542c-18.981,-5.971 -49.331,-3.556 -49.331,-44.338c0,-10.296 -2.253,-23.167 3.524,-27.711c10.817,-8.507 28.079,22.516 22.904,38.796c-8.132,25.579 -41.147,31.704 -56.379,27.711c-8.294,-2.174 -22.903,-16.627 -22.903,-16.627c-0,0 0.877,19.408 -1.762,27.712c-3.504,11.021 -11.184,8.313 -17.619,8.313c-28.365,-0 -21.433,-43.182 -29.951,-49.88c-20.269,-15.941 -28.754,29.541 -40.522,38.795c-19.033,14.969 -35.388,-35.904 -52.854,-22.168c-11.409,8.971 -13.45,26.166 -31.713,13.855c-0.711,-0.479 -24.357,-17.597 -24.666,-16.627c-6.371,20.043 0.397,33.254 -15.856,33.254" style="fill:none;stroke:#8f8f8f;stroke-width:22.76px;"/><path d="M390.109,1544.75c12.33,0 27.546,-38.795 38.76,-38.795c0.587,-0 1.346,-0.654 1.762,-0c3.817,6.004 -3.818,30.02 -0,36.024c4.638,7.296 23.182,7.672 29.951,5.542c18.981,-5.971 49.331,-3.556 49.331,-44.338c-0,-10.296 2.253,-23.167 -3.524,-27.711c-10.817,-8.507 -28.079,22.516 -22.903,38.796c8.131,25.579 41.147,31.704 56.378,27.711c8.294,-2.174 22.904,-16.627 22.904,-16.627c-0,0 -0.878,19.409 1.762,27.712c3.503,11.021 11.183,8.313 17.618,8.313c28.365,-0 21.434,-43.182 29.951,-49.88c20.27,-15.941 28.755,29.541 40.522,38.796c19.033,14.968 35.389,-35.905 52.855,-22.169c11.408,8.971 13.449,26.166 31.713,13.855c0.71,-0.479 24.357,-17.597 24.665,-16.627c6.371,20.043 -0.396,33.254 15.857,33.254" style="fill:none;stroke:#8f8f8f;stroke-width:22.76px;"/></g></g></svg>