<svg width="24" height="24" viewBox="0 0 24 24" fill="none" xmlns="http://www.w3.org/2000/svg">
  <path d="M18 8C18 6.4087 17.3679 4.88258 16.2426 3.75736C15.1174 2.63214 13.5913 2 12 2C10.4087 2 8.88258 2.63214 7.75736 3.75736C6.63214 4.88258 6 6.4087 6 8C6 15 3 17 3 17H21C21 17 18 15 18 8Z" fill="#EC4899"/>
  <path d="M14.83 20C14.6413 20.3031 14.3587 20.5547 14.0178 20.7215C13.6768 20.8884 13.2925 20.963 12.9114 20.9367C12.5303 20.9104 12.1697 20.7845 11.8707 20.5757C11.5717 20.3669 11.3481 20.0849 11.23 19.77" stroke="#FBCFE8" stroke-width="2" stroke-linecap="round"/>
  <circle cx="18" cy="6" r="3" fill="#FCD34D" stroke="#92400E" stroke-width="2"/>
</svg>