<?xml version="1.0" encoding="UTF-8" standalone="no"?><!DOCTYPE svg PUBLIC "-//W3C//DTD SVG 1.1//EN" "http://www.w3.org/Graphics/SVG/1.1/DTD/svg11.dtd"><svg width="100%" height="100%" viewBox="0 0 2138 2138" version="1.1" xmlns="http://www.w3.org/2000/svg" xmlns:xlink="http://www.w3.org/1999/xlink" xml:space="preserve" xmlns:serif="http://www.serif.com/" style="fill-rule:evenodd;clip-rule:evenodd;stroke-miterlimit:1.5;"><rect id="Plan" x="3.628" y="4.071" width="2133.33" height="2133.33" style="fill:none;"/><g><g><g><g><g><path d="M347.668,1845.57l1340.71,-0l0,-1147l-1208.6,-0" style="fill:#2980ba;"/><path d="M202.842,1700.74c-11.634,-536.037 -0,-922.236 -0,-1002.17c-0,-79.932 64.894,-144.827 144.826,-144.827c79.932,0 144.827,64.895 144.827,144.827l-0,1002.17" style="fill:#3b97d3;"/><path d="M347.668,1845.57c-79.932,-0 -144.826,-64.895 -144.826,-144.827c-0,-79.932 64.894,-144.826 144.826,-144.826c79.932,-0 144.827,64.894 144.827,144.826" style="fill:#2980ba;"/></g></g><clipPath id="_clip1"><rect x="492.495" y="868.548" width="1169.04" height="894.121"/></clipPath><g clip-path="url(#_clip1)"><path d="M478.25,1762.67l0,-894.121l-133.167,-0l1316.45,-0" style="fill:none;stroke:#fff;stroke-width:131.04px;"/></g><path d="M1315.3,1077.81l-0,540.278l-684.859,-0l266.334,-0l-0,-342.43l418.525,0l-814.221,0" style="fill:none;stroke:#fff;stroke-width:60.19px;"/></g><g><path d="M924.498,255.67l942.101,1109.68l-223.579,189.815l-942.101,-1109.68l223.579,-189.815Z" style="fill:#fff;"/><path d="M924.498,255.67l942.101,1109.68l-223.579,189.815l-942.101,-1109.68l223.579,-189.815Zm-4.529,55.452l-163.598,138.892l891.178,1049.7l163.598,-138.892l-891.178,-1049.7Z" style="fill:#d38900;"/><path d="M748.556,423.182l928.582,1086.31" style="fill:none;"/><path d="M731.173,438.042l34.766,-29.719l15.477,18.105l-34.767,29.719l-15.476,-18.105Zm77.381,90.525l34.767,-29.719l30.952,36.211l-34.766,29.718l-30.953,-36.21Zm92.858,108.63l34.767,-29.718l30.951,36.209l-34.766,29.719l-30.952,-36.21Zm92.859,108.632l34.767,-29.718l30.951,36.209l-34.766,29.718l-30.952,-36.209Zm92.857,108.63l34.767,-29.719l30.952,36.21l-34.766,29.719l-30.953,-36.21Zm92.859,108.631l34.767,-29.718l30.952,36.21l-34.767,29.718l-30.952,-36.21Zm92.859,108.632l34.766,-29.719l30.952,36.21l-34.766,29.719l-30.952,-36.21Zm92.857,108.629l34.766,-29.718l30.953,36.21l-34.766,29.719l-30.953,-36.211Zm92.859,108.633l34.767,-29.719l30.953,36.211l-34.767,29.718l-30.953,-36.21Zm92.858,108.63l34.766,-29.718l30.953,36.21l-34.766,29.718l-30.953,-36.21Zm92.858,108.631l34.767,-29.718l15.476,18.105l-34.766,29.718l-15.477,-18.105Z" style="fill:#d38900;"/></g></g><g><path d="M1870.35,421.879l-687.29,946.714l-176.056,-123.804l687.29,-946.714l176.056,123.804Z" style="fill:#d38900;"/><path d="M1870.35,421.879l-687.29,946.714l-176.056,-123.804l687.29,-946.714l176.056,123.804Zm-32.519,5.415l-138.203,-97.186l-660.105,909.267c0,-0 138.204,97.185 138.204,97.185l660.104,-909.266Z" style="fill:#fff;"/><path d="M1942.92,321.918l-63.608,87.617l-176.056,-123.804l63.607,-87.617l176.057,123.804Z" style="fill:#d38900;"/><path d="M1942.92,321.918l-63.608,87.617l-176.056,-123.804l63.607,-87.617l176.057,123.804Zm-32.519,5.414l-138.204,-97.185l-36.422,50.17l138.204,97.185l36.422,-50.17Z" style="fill:#fff;"/><path d="M953.839,1501.18l220.906,-121.133l-176.056,-123.803l-44.85,244.936Z" style="fill:#d38900;"/><path d="M953.839,1501.18l44.85,-244.936l176.056,123.803l-220.906,121.133Zm31.514,-43.666l145.713,-79.9l-116.129,-81.662l-29.584,161.562Z" style="fill:#fff;"/></g></g></svg>