<?xml version="1.0" encoding="UTF-8" standalone="no"?><!DOCTYPE svg PUBLIC "-//W3C//DTD SVG 1.1//EN" "http://www.w3.org/Graphics/SVG/1.1/DTD/svg11.dtd"><svg width="100%" height="100%" viewBox="0 0 2138 2138" version="1.1" xmlns="http://www.w3.org/2000/svg" xmlns:xlink="http://www.w3.org/1999/xlink" xml:space="preserve" xmlns:serif="http://www.serif.com/" style="fill-rule:evenodd;clip-rule:evenodd;stroke-miterlimit:1.5;"><rect id="Plan" x="3.628" y="4.071" width="2133.33" height="2133.33" style="fill:none;"/><clipPath id="_clip1"><rect x="3.628" y="4.071" width="2133.33" height="2133.33"/></clipPath><g clip-path="url(#_clip1)"><g><g><g><g><g><path d="M186.979,2028.74l1638.84,-0l0,-1402.05l-1477.35,-0" style="fill:#2980ba;"/><path d="M9.948,1851.71c-14.221,-655.235 0,-1127.31 0,-1225.02c0,-97.707 79.325,-177.032 177.031,-177.032c97.707,0 177.032,79.325 177.032,177.032l-0,1225.02" style="fill:#3b97d3;"/><path d="M186.979,2028.74c-97.706,-0 -177.031,-79.325 -177.031,-177.032c0,-97.706 79.325,-177.031 177.031,-177.031c97.707,0 177.032,79.325 177.032,177.031" style="fill:#2980ba;"/></g></g><clipPath id="_clip2"><rect x="364.011" y="834.46" width="1429" height="1092.94"/></clipPath><g clip-path="url(#_clip2)"><path d="M346.598,1927.4l0,-1092.94l-162.779,-0l1609.19,-0" style="fill:none;stroke:#fff;stroke-width:160.17px;"/></g><path d="M1369.78,1090.26l-0,660.417l-837.149,0l325.558,0l-0,-418.574l511.591,-0l-995.278,-0" style="fill:none;stroke:#fff;stroke-width:73.58px;"/></g><g><path d="M892.077,85.297l1151.6,1356.44l-273.296,232.024l-1151.59,-1356.44l273.295,-232.024Z" style="fill:#fff;"/><path d="M892.077,85.297l1151.6,1356.44l-273.296,232.024l-1151.59,-1356.44l273.295,-232.024Zm-5.536,67.784l-199.976,169.777l1089.35,1283.12l199.976,-169.776l-1089.35,-1283.12Z" style="fill:#d38900;"/><path d="M677.012,290.059l1135.07,1327.87" style="fill:none;"/><path d="M655.763,308.223l42.498,-36.327l18.917,22.131l-42.497,36.327l-18.918,-22.131Zm94.589,110.655l42.497,-36.327l37.836,44.262l-42.498,36.327l-37.835,-44.262Zm113.506,132.786l42.497,-36.327l37.835,44.262l-42.497,36.327l-37.835,-44.262Zm113.508,132.789l42.497,-36.327l37.835,44.261l-42.497,36.327l-37.835,-44.261Zm113.505,132.785l42.498,-36.327l37.835,44.262l-42.497,36.327l-37.836,-44.262Zm113.508,132.788l42.498,-36.327l37.835,44.262l-42.498,36.327l-37.835,-44.262Zm113.508,132.787l42.497,-36.327l37.835,44.262l-42.497,36.327l-37.835,-44.262Zm113.505,132.786l42.497,-36.327l37.836,44.262l-42.497,36.327l-37.836,-44.262Zm113.509,132.789l42.497,-36.327l37.836,44.262l-42.498,36.327l-37.835,-44.262Zm113.506,132.786l42.497,-36.327l37.836,44.262l-42.497,36.327l-37.836,-44.262Zm113.507,132.787l42.497,-36.327l18.918,22.131l-42.497,36.327l-18.918,-22.131Z" style="fill:#d38900;"/></g></g><g><path d="M2048.26,288.466l-840.121,1157.23l-215.206,-151.334l840.121,-1157.23l215.206,151.333Z" style="fill:#d38900;"/><path d="M2048.26,288.466l-840.121,1157.23l-215.206,-151.334l840.121,-1157.23l215.206,151.333Zm-39.751,6.619l-168.935,-118.797l-806.891,1111.46l168.936,118.796l806.89,-1111.46Z" style="fill:#fff;"/><path d="M2136.96,166.277l-77.752,107.1l-215.205,-151.334l77.751,-107.1l215.206,151.334Z" style="fill:#d38900;"/><path d="M2136.96,166.277l-77.752,107.1l-215.205,-151.334l77.751,-107.1l215.206,151.334Zm-39.75,6.619l-168.936,-118.797l-44.521,61.326l168.936,118.796l44.521,-61.325Z" style="fill:#fff;"/><path d="M927.942,1607.77l270.029,-148.068l-215.205,-151.334l-54.824,299.402Z" style="fill:#d38900;"/><path d="M927.942,1607.77l54.824,-299.402l215.205,151.334l-270.029,148.068Zm38.523,-53.375l178.114,-97.668l-141.952,-99.821l-36.162,197.489Z" style="fill:#fff;"/></g></g></g></svg>