<?xml version="1.0" encoding="UTF-8" standalone="no"?><!DOCTYPE svg PUBLIC "-//W3C//DTD SVG 1.1//EN" "http://www.w3.org/Graphics/SVG/1.1/DTD/svg11.dtd"><svg width="100%" height="100%" viewBox="0 0 2138 2138" version="1.1" xmlns="http://www.w3.org/2000/svg" xmlns:xlink="http://www.w3.org/1999/xlink" xml:space="preserve" xmlns:serif="http://www.serif.com/" style="fill-rule:evenodd;clip-rule:evenodd;stroke-linejoin:round;stroke-miterlimit:2;"><rect id="Polls" x="1.21" y="2.806" width="2133.33" height="2133.33" style="fill:none;"/><g><path d="M2121.03,227.05l-0,1836.94c-0,32.357 -26.269,58.626 -58.626,58.626l-1997.19,-0c-32.357,-0 -58.626,-26.269 -58.626,-58.626l-0,-1836.94c-0,-32.356 26.269,-58.626 58.626,-58.626l1997.19,0c32.357,0 58.626,26.27 58.626,58.626Z" style="fill:#7d0c71;"/><path d="M2036.67,264.863l-0,1623.94l2.277,153.882l-381.142,1.526l-1570.55,-0l0,-1779.35l1949.41,-0Z" style="fill:#fafafa;"/><path d="M1277.1,8.183c3.895,-0 7.271,2.699 8.129,6.498c9.063,40.157 57.423,254.411 68.574,303.817c0.558,2.47 -0.038,5.06 -1.62,7.038c-1.581,1.978 -3.976,3.13 -6.509,3.13c-69.421,-0 -464.235,-0 -534.687,-0c-2.577,-0 -5.01,-1.193 -6.588,-3.23c-1.578,-2.037 -2.125,-4.69 -1.481,-7.186c12.896,-49.972 68.221,-264.367 78.401,-303.816c0.95,-3.68 4.269,-6.251 8.069,-6.251c47.289,-0 339.717,-0 387.712,-0Z" style="fill:#7d0c71;"/><g><rect x="278.462" y="972.683" width="373.307" height="938.22" style="fill:#0fd107;"/><rect x="688.333" y="465.469" width="373.307" height="1445.43" style="fill:#2aace2;"/><rect x="1098.34" y="813.615" width="373.307" height="1101.85" style="fill:#c18cbc;"/><rect x="1509.2" y="1507.99" width="373.307" height="407.474" style="fill:#e32525;"/></g><ellipse cx="1079.08" cy="168.424" rx="73.494" ry="66.017" style="fill:#fff;"/></g></svg>