<?xml version="1.0" encoding="UTF-8" standalone="no"?><!DOCTYPE svg PUBLIC "-//W3C//DTD SVG 1.1//EN" "http://www.w3.org/Graphics/SVG/1.1/DTD/svg11.dtd"><svg width="100%" height="100%" viewBox="0 0 2138 2138" version="1.1" xmlns="http://www.w3.org/2000/svg" xmlns:xlink="http://www.w3.org/1999/xlink" xml:space="preserve" xmlns:serif="http://www.serif.com/" style="fill-rule:evenodd;clip-rule:evenodd;stroke-miterlimit:10;"><rect id="Polls" x="3.626" y="2.806" width="2133.33" height="2133.33" style="fill:none;"/><g><g><path d="M739.585,1600.75l1.152,0.883c-0.031,-0.028 -0.031,-0.028 -0.063,-0.055l-1.089,-0.828Z" style="fill:#372413;fill-rule:nonzero;"/><path d="M1753.94,423.779c-125.71,-126.571 -314.774,-212.767 -557.03,-225.355c-19.706,-1.043 -39.317,-1.575 -58.742,-1.575c-203.746,0 -391.171,56.966 -528.571,161.548c-137.495,104.312 -223.108,257.042 -222.799,439.966c-0,4.141 0.031,8.283 0.123,12.451l-0.214,22.068l-174.888,265.939c-9.402,14.347 -14.152,30.354 -14.152,46.362c-0,13.355 3.293,26.771 9.96,39.274c14.12,26.534 41.89,45.612 74.782,52.184l-0.063,0.239l80.431,19.078l31.776,263.911l0.249,-0.028c2.237,38.45 22.157,74.548 55.983,99.878c30.07,22.552 68.453,34.789 107.924,34.789c3.998,0 7.941,-0.32 11.915,-0.559l91.136,6.224l4.564,-0.426l1.457,-0.054c3.503,-0 6.765,1.07 9.279,3.02l0.15,0.136c2.89,2.243 4.596,5.529 4.596,8.897l0,270.349l850.946,0l0,-196.572c-0.095,-17.851 4.034,-53.144 12.165,-87.187c4.034,-17.071 9.026,-34.094 14.679,-48.812c5.585,-14.695 12.042,-27.202 17.437,-34.496c56.601,-78.557 136.628,-143.001 209.918,-234.143c73.203,-91.059 135.603,-209.187 152.7,-388.423c2.173,-22.47 3.262,-44.943 3.262,-67.304c0,-169.92 -63.053,-334.917 -188.973,-461.379Z" style="fill:#2aace2;fill-rule:nonzero;"/></g><g><circle cx="1144.38" cy="949.397" r="552.651" style="fill:#fafafa;"/><clipPath id="_clip1"><circle cx="1144.38" cy="949.397" r="552.651"/></clipPath><g clip-path="url(#_clip1)"><path d="M743.366,874.164c11.895,0 21.551,-9.657 21.551,-21.551c0,-11.895 -9.656,-21.552 -21.551,-21.552c-11.894,0 -21.551,9.657 -21.551,21.552c-0,11.894 9.657,21.551 21.551,21.551Z" style="fill:none;stroke:#2aace2;stroke-width:21.55px;"/><path d="M721.815,852.613l-241.469,-0l0,-383.491" style="fill:none;stroke:#2aace2;stroke-width:21.55px;stroke-linejoin:round;stroke-miterlimit:1.5;"/><path d="M792.573,699.223c11.894,0 21.551,-9.657 21.551,-21.551c-0,-11.895 -9.657,-21.551 -21.551,-21.551c-11.895,-0 -21.552,9.656 -21.552,21.551c0,11.894 9.657,21.551 21.552,21.551Z" style="fill:none;stroke:#2aace2;stroke-width:21.55px;"/><path d="M771.021,677.672l-82.473,-0l-0,174.941" style="fill:none;stroke:#2aace2;stroke-width:21.55px;stroke-linejoin:round;stroke-miterlimit:1.5;"/><circle cx="904.398" cy="549.349" r="21.551" style="fill:none;stroke:#2aace2;stroke-width:21.55px;"/><path d="M925.949,549.349l453.203,-0l-4.161,-303.763" style="fill:none;stroke:#2aace2;stroke-width:21.55px;stroke-linejoin:round;stroke-miterlimit:1.5;"/><path d="M1446.01,641.817c-11.895,-0.032 -21.578,9.599 -21.61,21.494c-0.032,11.894 9.599,21.577 21.494,21.609c11.894,0.032 21.577,-9.599 21.609,-21.493c0.032,-11.895 -9.599,-21.578 -21.493,-21.61Z" style="fill:none;stroke:#2aace2;stroke-width:21.55px;"/><path d="M1467.5,663.427c117.715,0.316 387.413,1.041 387.413,1.041l-0,-355.879" style="fill:none;stroke:#2aace2;stroke-width:21.55px;stroke-linejoin:round;stroke-miterlimit:1.5;"/><path d="M1544.72,995.13c0,11.895 9.657,21.552 21.552,21.552c11.894,-0 21.551,-9.657 21.551,-21.552c0,-11.894 -9.657,-21.551 -21.551,-21.551c-11.895,-0 -21.552,9.657 -21.552,21.551Z" style="fill:none;stroke:#2aace2;stroke-width:21.55px;"/><path d="M1566.27,973.579l-0,-309.111" style="fill:none;stroke:#2aace2;stroke-width:21.55px;stroke-linejoin:round;stroke-miterlimit:1.5;"/><path d="M1319.74,1166.84c0,-11.895 -9.656,-21.552 -21.551,-21.552c-11.894,0 -21.551,9.657 -21.551,21.552c-0,11.894 9.657,21.551 21.551,21.551c11.895,-0 21.551,-9.657 21.551,-21.551Z" style="fill:none;stroke:#2aace2;stroke-width:21.55px;"/><path d="M1298.19,1188.39l0,196.737l-670.169,-0" style="fill:none;stroke:#2aace2;stroke-width:21.55px;stroke-linejoin:round;stroke-miterlimit:1.5;"/><path d="M919.411,1247.62c11.894,-0 21.551,-9.657 21.551,-21.552c-0,-11.894 -9.657,-21.551 -21.551,-21.551c-11.895,-0 -21.552,9.657 -21.552,21.551c0,11.895 9.657,21.552 21.552,21.552Z" style="fill:none;stroke:#2aace2;stroke-width:21.55px;"/><path d="M897.859,1226.07l-49.749,0l0,159.057" style="fill:none;stroke:#2aace2;stroke-width:21.55px;stroke-linejoin:round;stroke-miterlimit:1.5;"/><path d="M1244.05,782.894c11.894,-0 21.551,-9.657 21.551,-21.551c0,-11.895 -9.657,-21.552 -21.551,-21.552c-11.895,0 -21.552,9.657 -21.552,21.552c0,11.894 9.657,21.551 21.552,21.551Z" style="fill:none;stroke:#2aace2;stroke-width:21.55px;"/><path d="M1222.5,761.343l-110.17,-0l0,-211.994" style="fill:none;stroke:#2aace2;stroke-width:21.55px;stroke-linejoin:round;stroke-miterlimit:1.5;"/><circle cx="948.529" cy="1137.62" r="21.551" style="fill:none;stroke:#2aace2;stroke-width:21.55px;"/><path d="M970.08,1137.62l93.382,-0l0,247.506" style="fill:none;stroke:#2aace2;stroke-width:21.55px;stroke-linejoin:round;stroke-miterlimit:1.5;"/><path d="M1477.8,1282.92c11.894,0 21.551,-9.657 21.551,-21.551c0,-11.895 -9.657,-21.552 -21.551,-21.552c-11.895,0 -21.551,9.657 -21.551,21.552c-0,11.894 9.656,21.551 21.551,21.551Z" style="fill:none;stroke:#2aace2;stroke-width:21.55px;"/><path d="M1456.24,1261.37l-158.055,-0" style="fill:none;stroke:#2aace2;stroke-width:21.55px;stroke-linejoin:round;stroke-miterlimit:1.5;"/><path d="M1612.72,904.733c0,11.895 9.657,21.552 21.551,21.552c11.895,-0 21.552,-9.657 21.552,-21.552c-0,-11.894 -9.657,-21.551 -21.552,-21.551c-11.894,-0 -21.551,9.657 -21.551,21.551Z" style="fill:none;stroke:#2aace2;stroke-width:21.55px;"/><path d="M1634.27,883.182l0,-37.219l-67.998,-0" style="fill:none;stroke:#2aace2;stroke-width:21.55px;stroke-linejoin:round;stroke-miterlimit:1.5;"/><path d="M743.366,1020.62c11.895,0 21.551,-9.656 21.551,-21.551c0,-11.894 -9.656,-21.551 -21.551,-21.551c-11.894,-0 -21.551,9.657 -21.551,21.551c-0,11.895 9.657,21.551 21.551,21.551Z" style="fill:none;stroke:#2aace2;stroke-width:21.55px;"/><path d="M721.815,999.065l-78.703,0l-0,-147.478" style="fill:none;stroke:#2aace2;stroke-width:21.55px;stroke-linejoin:round;stroke-miterlimit:1.5;"/><path d="M1300.11,923.657c11.895,-0 21.552,-9.657 21.552,-21.552c-0,-11.894 -9.657,-21.551 -21.552,-21.551c-11.894,-0 -21.551,9.657 -21.551,21.551c0,11.895 9.657,21.552 21.551,21.552Z" style="fill:none;stroke:#2aace2;stroke-width:21.55px;"/><path d="M1278.56,902.105l-120.652,0l0,-141.806" style="fill:none;stroke:#2aace2;stroke-width:21.55px;stroke-linejoin:round;stroke-miterlimit:1.5;"/><path d="M1212.71,1015.95c-0,11.895 9.657,21.552 21.551,21.552c11.895,-0 21.552,-9.657 21.552,-21.552c-0,-11.894 -9.657,-21.551 -21.552,-21.551c-11.894,0 -21.551,9.657 -21.551,21.551Z" style="fill:none;stroke:#2aace2;stroke-width:21.55px;"/><path d="M1234.26,994.396l0,-92.291" style="fill:none;stroke:#2aace2;stroke-width:21.55px;stroke-linejoin:round;stroke-miterlimit:1.5;"/></g><g transform="matrix(544.18,0,0,544.18,1493.26,1112.28)"></g><text x="817.556px" y="1112.28px" style="font-family:'BerlinSansFBDemi-Bold', 'Berlin Sans FB Demi', sans-serif;font-weight:700;font-size:544.18px;fill:#0c435a;">A I</text></g></g></svg>