<?xml version="1.0" encoding="UTF-8" standalone="no"?><!DOCTYPE svg PUBLIC "-//W3C//DTD SVG 1.1//EN" "http://www.w3.org/Graphics/SVG/1.1/DTD/svg11.dtd"><svg width="100%" height="100%" viewBox="0 0 2138 2138" version="1.1" xmlns="http://www.w3.org/2000/svg" xmlns:xlink="http://www.w3.org/1999/xlink" xml:space="preserve" xmlns:serif="http://www.serif.com/" style="fill-rule:evenodd;clip-rule:evenodd;stroke-linejoin:round;stroke-miterlimit:2;"><rect id="Polls" x="1.21" y="2.806" width="2133.33" height="2133.33" style="fill:none;"/><g><path d="M1932.36,376.658l-0,1509.13c-0,26.582 -21.582,48.164 -48.164,48.164l-1640.78,-0c-26.583,-0 -48.164,-21.582 -48.164,-48.164l0,-1509.13c0,-26.582 21.581,-48.163 48.164,-48.163l1640.78,-0c26.582,-0 48.164,21.581 48.164,48.163Z" style="fill:#7d0c71;"/><path d="M1863.06,407.723l-0,1334.14l1.87,126.421l-313.125,1.254l-1290.28,-0l-0,-1461.81l1601.53,0Z" style="fill:#fafafa;"/><path d="M1237.85,196.849c3.896,0 7.272,2.699 8.129,6.499c7.953,35.234 45.902,203.364 55.666,246.624c0.558,2.47 -0.038,5.06 -1.62,7.038c-1.581,1.979 -3.976,3.13 -6.509,3.13c-61.213,0 -373.376,0 -435.49,0c-2.577,0 -5.009,-1.192 -6.588,-3.23c-1.578,-2.037 -2.125,-4.69 -1.481,-7.185c11.291,-43.753 54.708,-212.004 63.643,-246.625c0.949,-3.68 4.268,-6.251 8.069,-6.251c41.801,0 273.76,0 316.181,0Z" style="fill:#7d0c71;"/><g><rect x="418.61" y="989.229" width="306.689" height="770.79" style="fill:#0fd107;"/><rect x="755.338" y="572.53" width="306.689" height="1187.49" style="fill:#2aace2;"/><rect x="1092.18" y="858.547" width="306.689" height="905.216" style="fill:#c18cbc;"/><rect x="1429.71" y="1429.01" width="306.689" height="334.758" style="fill:#e32525;"/></g><ellipse cx="1076.35" cy="328.495" rx="60.379" ry="54.236" style="fill:#fff;"/></g></svg>