<?xml version="1.0" encoding="UTF-8" standalone="no"?><!DOCTYPE svg PUBLIC "-//W3C//DTD SVG 1.1//EN" "http://www.w3.org/Graphics/SVG/1.1/DTD/svg11.dtd"><svg width="100%" height="100%" viewBox="0 0 2138 2138" version="1.1" xmlns="http://www.w3.org/2000/svg" xmlns:xlink="http://www.w3.org/1999/xlink" xml:space="preserve" xmlns:serif="http://www.serif.com/" style="fill-rule:evenodd;clip-rule:evenodd;stroke-linecap:round;stroke-linejoin:round;stroke-miterlimit:1.5;"><rect id="Reports" x="3.286" y="4.071" width="2133.33" height="2133.33" style="fill:none;"/><clipPath id="_clip1"><rect x="3.286" y="4.071" width="2133.33" height="2133.33"/></clipPath><g clip-path="url(#_clip1)"><g><rect x="8.664" y="9.448" width="1839.07" height="1997.31" style="fill:#ba4609;"/><g><path d="M1880.8,134.719l250.438,189.896l0,1807.41l-1839.07,-0l0,-1997.31l1588.63,-0Z" style="fill:#fff;"/><clipPath id="_clip2"><path d="M1880.8,134.719l250.438,189.896l0,1807.41l-1839.07,-0l0,-1997.31l1588.63,-0Z"/></clipPath><g clip-path="url(#_clip2)"><path d="M1887.57,321.034l-5.859,-218.944l301.799,223.215l-295.94,-4.271Z"/></g><path d="M1885.43,128.623l250.438,189.897c1.907,1.446 3.028,3.702 3.028,6.095l-0,1807.41c-0,4.225 -3.425,7.649 -7.65,7.649l-1839.07,0c-4.224,0 -7.649,-3.424 -7.649,-7.649l-0,-1997.31c-0,-4.225 3.425,-7.65 7.649,-7.65l1588.63,0c1.669,0 3.292,0.546 4.622,1.554Zm-4.622,6.096l-1588.63,-0l0,1997.31l1839.07,-0l0,-1807.41l-250.438,-189.896Z"/><g><ellipse cx="788.366" cy="591.15" rx="362.968" ry="266.535" style="fill:#fff;"/><path d="M788.366,286.543c224.033,-0 401.041,140.095 401.041,304.607c-0,164.512 -177.008,304.607 -401.041,304.607c-224.033,0 -401.04,-140.095 -401.04,-304.607c-0,-164.512 177.007,-304.607 401.04,-304.607Zm0,38.072c-200.327,0 -362.967,119.431 -362.967,266.535c-0,147.105 162.64,266.535 362.967,266.535c200.327,-0 362.968,-119.43 362.968,-266.535c-0,-147.104 -162.641,-266.535 -362.968,-266.535Z" style="fill:#ba4609;"/><path d="M788.366,324.615l0,266.535l362.968,0c-0,147.203 -162.506,266.535 -362.968,266.535c-200.327,-0 -362.967,-119.43 -362.967,-266.535c-0,-147.203 162.506,-266.535 362.967,-266.535Z" style="fill:#ba4609;"/></g><path d="M1317.59,496.804l654.167,-0" style="fill:none;stroke:#ba4609;stroke-width:45.9px;"/><path d="M1317.59,589.8l438.251,1.35" style="fill:none;stroke:#ba4609;stroke-width:45.9px;"/><path d="M1317.59,675.174l654.167,2.015" style="fill:none;stroke:#ba4609;stroke-width:45.9px;"/><path d="M1317.59,760.548l654.167,1.35" style="fill:none;stroke:#ba4609;stroke-width:45.9px;"/><path d="M1301.3,1698.49l654.167,1.35" style="fill:none;stroke:#ba4609;stroke-width:45.9px;"/><path d="M1301.3,1786.92l654.167,1.35" style="fill:none;stroke:#ba4609;stroke-width:45.9px;"/><path d="M1301.3,1875.34l378.427,0.781" style="fill:none;stroke:#ba4609;stroke-width:45.9px;"/><rect x="467.955" y="1002.36" width="186.779" height="538.22" style="fill:#ba4609;"/><rect x="707.194" y="1097.64" width="186.779" height="442.937" style="fill:#ba4609;"/><rect x="958.598" y="1002.36" width="186.779" height="538.22" style="fill:#ba4609;"/><rect x="1210" y="1271.47" width="186.779" height="269.11" style="fill:#ba4609;"/><rect x="467.955" y="1647.84" width="677.423" height="269.11" style="fill:#ba4609;"/></g></g></g></svg>