<?xml version="1.0" encoding="UTF-8" standalone="no"?><!DOCTYPE svg PUBLIC "-//W3C//DTD SVG 1.1//EN" "http://www.w3.org/Graphics/SVG/1.1/DTD/svg11.dtd"><svg width="100%" height="100%" viewBox="0 0 2138 2138" version="1.1" xmlns="http://www.w3.org/2000/svg" xmlns:xlink="http://www.w3.org/1999/xlink" xml:space="preserve" xmlns:serif="http://www.serif.com/" style="fill-rule:evenodd;clip-rule:evenodd;stroke-linecap:round;stroke-linejoin:round;stroke-miterlimit:1.5;"><rect id="Reports" x="3.286" y="4.071" width="2133.33" height="2133.33" style="fill:none;"/><g><rect x="197.33" y="198.114" width="1512.13" height="1642.25" style="fill:#ba4609;"/><g><path d="M1736.66,301.116l205.917,156.138l0,1486.11l-1512.13,-0l0,-1642.25l1306.22,-0Z" style="fill:#fff;"/><clipPath id="_clip1"><path d="M1736.66,301.116l205.917,156.138l0,1486.11l-1512.13,-0l0,-1642.25l1306.22,-0Z"/></clipPath><g clip-path="url(#_clip1)"><path d="M1742.22,454.31l-4.818,-180.023l248.148,183.534l-243.33,-3.511Z"/></g><path d="M1740.46,296.104l205.917,156.138c1.569,1.189 2.49,3.044 2.49,5.012l-0,1486.11c-0,3.473 -2.816,6.289 -6.29,6.289l-1512.13,0c-3.473,0 -6.289,-2.816 -6.289,-6.289l-0,-1642.25c-0,-3.474 2.816,-6.29 6.289,-6.29l1306.22,-0c1.372,-0 2.707,0.449 3.8,1.278Zm-3.8,5.012l-1306.22,-0l0,1642.25l1512.13,-0l0,-1486.11l-205.917,-156.138Z"/><g><ellipse cx="838.424" cy="676.407" rx="298.443" ry="219.153" style="fill:#fff;"/><path d="M838.424,425.949c184.206,0 329.747,115.191 329.747,250.458c0,135.266 -145.541,250.457 -329.747,250.457c-184.206,-0 -329.747,-115.191 -329.747,-250.457c-0,-135.267 145.541,-250.458 329.747,-250.458Zm0,31.305c-164.715,-0 -298.443,98.199 -298.443,219.153c0,120.953 133.728,219.152 298.443,219.152c164.715,0 298.443,-98.199 298.443,-219.152c-0,-120.954 -133.728,-219.153 -298.443,-219.153Z" style="fill:#ba4609;"/><path d="M838.424,457.254l0,219.153l298.443,-0c-0,121.034 -133.618,219.152 -298.443,219.152c-164.715,0 -298.443,-98.199 -298.443,-219.152c0,-121.035 133.618,-219.153 298.443,-219.153Z" style="fill:#ba4609;"/></g><path d="M1273.57,598.832l537.875,0" style="fill:none;stroke:#ba4609;stroke-width:37.74px;"/><path d="M1273.57,675.297l360.343,1.11" style="fill:none;stroke:#ba4609;stroke-width:37.74px;"/><path d="M1273.57,745.494l537.875,1.656" style="fill:none;stroke:#ba4609;stroke-width:37.74px;"/><path d="M1273.57,815.69l537.875,1.11" style="fill:none;stroke:#ba4609;stroke-width:37.74px;"/><path d="M1260.17,1586.9l537.875,1.11" style="fill:none;stroke:#ba4609;stroke-width:37.74px;"/><path d="M1260.17,1659.6l537.875,1.11" style="fill:none;stroke:#ba4609;stroke-width:37.74px;"/><path d="M1260.17,1732.3l311.153,0.642" style="fill:none;stroke:#ba4609;stroke-width:37.74px;"/><rect x="574.972" y="1014.51" width="153.575" height="442.541" style="fill:#ba4609;"/><rect x="771.682" y="1092.86" width="153.575" height="364.196" style="fill:#ba4609;"/><rect x="978.394" y="1014.51" width="153.575" height="442.541" style="fill:#ba4609;"/><rect x="1185.11" y="1235.78" width="153.575" height="221.27" style="fill:#ba4609;"/><rect x="574.972" y="1545.25" width="556.997" height="221.27" style="fill:#ba4609;"/></g></g></svg>