<?xml version="1.0" encoding="UTF-8" standalone="no"?><!DOCTYPE svg PUBLIC "-//W3C//DTD SVG 1.1//EN" "http://www.w3.org/Graphics/SVG/1.1/DTD/svg11.dtd"><svg width="100%" height="100%" viewBox="0 0 2138 2134" version="1.1" xmlns="http://www.w3.org/2000/svg" xmlns:xlink="http://www.w3.org/1999/xlink" xml:space="preserve" xmlns:serif="http://www.serif.com/" style="fill-rule:evenodd;clip-rule:evenodd;stroke-linecap:round;stroke-linejoin:round;stroke-miterlimit:1.5;"><rect id="Report-Card" serif:id="Report Card" x="2.471" y="0.02" width="2133.33" height="2133.33" style="fill:none;"/><clipPath id="_clip1"><rect x="2.471" y="0.02" width="2133.33" height="2133.33"/></clipPath><g clip-path="url(#_clip1)"><g><g><path d="M1897.96,74.845l180.984,186.884l0,1778.74l-1329.04,0l-0,-1965.62l1148.06,0Z" style="fill:#fff;"/><clipPath id="_clip2"><path d="M1897.96,74.845l180.984,186.884l0,1778.74l-1329.04,0l-0,-1965.62l1148.06,0Z"/></clipPath><g clip-path="url(#_clip2)"><path d="M1902.84,258.205l-4.235,-215.471l218.102,219.674l-213.867,-4.203Z"/></g><path d="M1944.05,30.206l180.984,186.884c11.592,11.969 18.073,27.978 18.073,44.639l-0,1778.74c-0,35.438 -28.729,64.167 -64.167,64.167l-1329.04,-0c-35.438,-0 -64.167,-28.729 -64.167,-64.167l0,-1965.62c0,-35.438 28.729,-64.166 64.167,-64.166l1148.06,-0c17.375,-0 34.007,7.046 46.094,19.527Zm-46.094,44.639l-1148.06,0l-0,1965.62l1329.04,0l0,-1778.74l-180.984,-186.884Z"/><path d="M1002.16,460.274l575.983,0" style="fill:none;stroke:#000;stroke-width:35.79px;"/><path d="M1002.16,714.097l575.983,0" style="fill:none;stroke:#000;stroke-width:35.79px;"/><path d="M1002.16,967.92l575.983,0" style="fill:none;stroke:#000;stroke-width:35.79px;"/><path d="M1002.16,1221.74l575.983,0" style="fill:none;stroke:#000;stroke-width:35.79px;"/><path d="M1002.16,1475.57l575.983,0" style="fill:none;stroke:#000;stroke-width:35.79px;"/><path d="M1002.16,1729.39l575.983,0" style="fill:none;stroke:#000;stroke-width:35.79px;"/><g transform="matrix(773.001,0,0,773.001,2071.06,860.563)"></g><text x="1550.06px" y="860.563px" style="font-family:'Poppins-Regular', 'Poppins';font-size:773.001px;stroke:#000;stroke-width:5.13px;stroke-linecap:butt;stroke-miterlimit:2;">A</text></g><g><path d="M733.804,637.515l756.138,-269.514l-732.029,-325.94l-748.059,299.223l723.95,296.231Z"/><path d="M710.279,695.009l-723.95,-296.232c-23.427,-9.586 -38.694,-32.426 -38.594,-57.738c0.1,-25.312 15.547,-48.031 39.048,-57.432l748.059,-299.223c15.577,-6.231 33.012,-5.896 48.339,0.928l732.029,325.94c23.201,10.33 37.778,33.745 36.806,59.124c-0.971,25.38 -17.294,47.611 -41.218,56.139l-756.137,269.515c-14.415,5.138 -30.219,4.774 -44.382,-1.021Zm23.525,-57.494l756.138,-269.514l-732.029,-325.94l-748.059,299.223l723.95,296.231Z" style="fill:#fff;"/><path d="M409.942,589.043l-0,279.047l339.956,144.995l349.455,-139.524l-19.151,-284.518l-330.304,128.58l-339.956,-128.58Z"/><path d="M431.918,530.94l317.66,120.147l308.09,-119.933c18.427,-7.173 39.168,-5.145 55.856,5.462c16.689,10.607 27.33,28.526 28.658,48.255l19.151,284.519c1.809,26.885 -13.921,51.872 -38.946,61.863l-349.455,139.524c-15.253,6.09 -32.297,5.891 -47.405,-0.552l-339.956,-144.995c-22.894,-9.765 -37.749,-32.251 -37.749,-57.14l-0,-279.047c-0,-20.405 10.021,-39.509 26.809,-51.108c16.788,-11.599 38.201,-14.214 57.287,-6.995Zm-21.976,58.103l-0,279.047l339.956,144.995l349.455,-139.524l-19.151,-284.518l-330.304,128.58l-339.956,-128.58Z" style="fill:#fff;"/></g></g></g></svg>