<?xml version="1.0" encoding="UTF-8" standalone="no"?><!DOCTYPE svg PUBLIC "-//W3C//DTD SVG 1.1//EN" "http://www.w3.org/Graphics/SVG/1.1/DTD/svg11.dtd"><svg width="100%" height="100%" viewBox="0 0 2138 2134" version="1.1" xmlns="http://www.w3.org/2000/svg" xmlns:xlink="http://www.w3.org/1999/xlink" xml:space="preserve" xmlns:serif="http://www.serif.com/" style="fill-rule:evenodd;clip-rule:evenodd;stroke-linecap:round;stroke-linejoin:round;stroke-miterlimit:1.5;"><rect id="Report-card" serif:id="Report card" x="2.471" y="0.02" width="2133.33" height="2133.33" style="fill:none;"/><g><g><path d="M1746.79,245.998l148.932,153.787l0,1463.73l-1093.67,-0l-0,-1617.51l944.736,0Z" style="fill:#fff;"/><clipPath id="_clip1"><path d="M1746.79,245.998l148.932,153.787l0,1463.73l-1093.67,-0l-0,-1617.51l944.736,0Z"/></clipPath><g clip-path="url(#_clip1)"><path d="M1750.81,396.885l-3.484,-177.311l179.475,180.77l-175.991,-3.459Z"/></g><path d="M1784.72,209.265l148.933,153.787c9.538,9.849 14.871,23.022 14.871,36.733l0,1463.73c0,29.162 -23.64,52.803 -52.803,52.803l-1093.67,-0c-29.162,-0 -52.803,-23.641 -52.803,-52.803l0,-1617.51c0,-29.162 23.641,-52.802 52.803,-52.802l944.736,-0c14.298,-0 27.985,5.798 37.931,16.069Zm-37.931,36.733l-944.736,0l-0,1617.51l1093.67,-0l0,-1463.73l-148.932,-153.787Z"/><path d="M1009.64,563.168l473.976,-0" style="fill:none;stroke:#000;stroke-width:29.46px;"/><path d="M1009.64,772.039l473.976,-0" style="fill:none;stroke:#000;stroke-width:29.46px;"/><path d="M1009.64,980.91l473.976,-0" style="fill:none;stroke:#000;stroke-width:29.46px;"/><path d="M1009.64,1189.78l473.976,-0" style="fill:none;stroke:#000;stroke-width:29.46px;"/><path d="M1009.64,1398.65l473.976,-0" style="fill:none;stroke:#000;stroke-width:29.46px;"/><path d="M1009.64,1607.52l473.976,-0" style="fill:none;stroke:#000;stroke-width:29.46px;"/><g transform="matrix(636.102,0,0,636.102,1889.24,892.566)"></g><text x="1460.51px" y="892.566px" style="font-family:'Poppins-Regular', 'Poppins';font-size:636.102px;stroke:#000;stroke-width:4.22px;stroke-linecap:butt;stroke-miterlimit:2;">A</text></g><g><path d="M788.81,709.019l622.226,-221.783l-602.387,-268.216l-615.577,246.231l595.738,243.768Z"/><path d="M769.451,756.331l-595.738,-243.769c-19.278,-7.888 -31.842,-26.684 -31.759,-47.513c0.082,-20.829 12.794,-39.525 32.133,-47.261l615.577,-246.231c12.819,-5.127 27.166,-4.851 39.778,0.764l602.387,268.216c19.093,8.501 31.087,27.769 30.288,48.654c-0.799,20.884 -14.232,39.179 -33.918,46.196l-622.226,221.784c-11.862,4.228 -24.867,3.929 -36.522,-0.84Zm19.359,-47.312l622.226,-221.783l-602.387,-268.216l-615.577,246.231l595.738,243.768Z" style="fill:#fff;"/><path d="M522.304,669.131l0,229.628l279.75,119.317l287.566,-114.814l-15.759,-234.131l-271.807,105.809l-279.75,-105.809Z"/><path d="M540.388,621.318l261.402,98.87l253.527,-98.693c15.164,-5.903 32.232,-4.234 45.965,4.494c13.733,8.729 22.49,23.474 23.583,39.709l15.758,234.131c1.489,22.124 -11.455,42.685 -32.048,50.907l-287.566,114.814c-12.552,5.012 -26.578,4.848 -39.01,-0.454l-279.75,-119.316c-18.839,-8.036 -31.064,-26.54 -31.064,-47.021l0,-229.628c0,-16.791 8.247,-32.512 22.062,-42.057c13.814,-9.544 31.436,-11.696 47.141,-5.756Zm-18.084,47.813l0,229.628l279.75,119.317l287.566,-114.814l-15.759,-234.131l-271.807,105.809l-279.75,-105.809Z" style="fill:#fff;"/></g></g></svg>