<?xml version="1.0" encoding="UTF-8" standalone="no"?><!DOCTYPE svg PUBLIC "-//W3C//DTD SVG 1.1//EN" "http://www.w3.org/Graphics/SVG/1.1/DTD/svg11.dtd"><svg width="100%" height="100%" viewBox="0 0 2134 2138" version="1.1" xmlns="http://www.w3.org/2000/svg" xmlns:xlink="http://www.w3.org/1999/xlink" xml:space="preserve" xmlns:serif="http://www.serif.com/" style="fill-rule:evenodd;clip-rule:evenodd;stroke-linejoin:round;stroke-miterlimit:2;"><rect id="Reward" x="0" y="2.982" width="2133.33" height="2133.33" style="fill:none;"/><clipPath id="_clip1"><rect x="0" y="2.982" width="2133.33" height="2133.33"/></clipPath><g clip-path="url(#_clip1)"><g id="SVGRepo_iconCarrier"></g><g id="SVGRepo_iconCarrier1" serif:id="SVGRepo_iconCarrier"></g><g id="SVGRepo_iconCarrier2" serif:id="SVGRepo_iconCarrier"></g><g id="SVGRepo_iconCarrier3" serif:id="SVGRepo_iconCarrier"></g><g><g><path d="M1271.09,711.809c50.768,166.473 181.231,339.44 357.149,339.44c175.918,-0 306.676,-172.967 357.149,-339.44c43.389,-15.053 79.694,-58.442 93.865,-114.523c19.481,-77.038 -9.153,-148.468 -64.641,-170.015c5.018,-20.366 7.674,-41.323 7.674,-62.87c-0.006,-182.707 -182.119,-330.289 -406.742,-330.289c-224.62,-0 -407.327,147.877 -407.327,330.289c-0,25.974 4.132,51.358 10.921,75.562c-40.143,30.402 -58.443,91.796 -41.914,157.618c14.171,55.786 50.474,99.175 93.866,114.228Zm-27.158,-212.223c5.903,-9.74 13.577,-16.234 23.318,-18.89c1.771,-0.296 4.132,-0.591 6.198,-0.591c1.771,0 3.247,0 5.018,0.295l28.04,2.657l4.133,-27.746c8.56,-57.852 26.565,-109.801 51.949,-154.075c47.521,53.424 141.974,89.73 250.89,89.73c123.083,-0 227.866,-46.341 266.533,-111.277c32.468,48.702 55.491,108.03 65.524,175.622l4.132,27.746l28.041,-2.657c4.132,-0.295 7.969,-0.295 11.216,0.296c2.066,0.295 3.25,1.771 5.313,2.361c25.387,11.216 38.371,55.786 27.453,100.061c-11.219,45.16 -40.736,71.725 -64.051,74.676l-19.484,2.657l-5.312,18.89c-42.501,155.257 -160.567,312.875 -305.201,312.875c-144.63,-0 -262.696,-157.323 -304.609,-312.875l-5.313,-18.89l-19.481,-2.657c-23.318,-2.951 -52.835,-30.106 -64.051,-74.676c-7.373,-31.878 -2.946,-64.051 9.744,-83.532Z" style="fill-rule:nonzero;"/><path d="M1975.06,917.834c-37.781,64.346 -81.465,118.951 -139.613,148.17c-119.541,61.099 -208.386,110.686 -208.386,110.686l-0.295,-0.295l-0,-1.475l-1.476,0.59l-1.476,-0.59l0,1.475l-0.295,0.295c0,0 -88.844,-49.289 -208.386,-110.686c-57.852,-29.812 -101.537,-84.122 -139.613,-148.17c-176.8,71.725 -300.477,237.312 -300.477,381.353l-0,299.296l1299.9,0l0,-299.296c0.593,-144.041 -123.081,-309.333 -299.887,-381.353Z" style="fill-rule:nonzero;"/></g></g><g><path d="M307.936,673.551l-0,390.078c-0,319.865 282.693,444.688 436.889,444.688c154.196,-0 436.889,-124.823 436.889,-444.688l0,-390.078l-873.778,-0Zm437.711,143.868l-193.994,84.72l-0,280.257l-0.14,55.582c-1.497,-0.319 -134.542,-28.779 -134.542,-223.101l0,-198.081l171.856,-0l156.82,0.623Z" style="fill:#f0ef00;fill-rule:nonzero;stroke:#0f0f00;stroke-width:16.67px;"/><path d="M914.085,1813.99l-67.712,-94.587l-33.839,-139.385l-67.709,9.955l-67.709,-9.955l-33.853,139.385l-42.596,59.516l-25.102,34.385l0.489,0l-0.489,0.686l338.52,0Z" style="fill:#f0ef00;fill-rule:nonzero;stroke:#0f0f00;stroke-width:16.67px;"/><rect x="429.118" y="1903.02" width="631.413" height="227.68" style="fill:#f0ef00;fill-rule:nonzero;stroke:#0f0f00;stroke-width:16.67px;"/><path d="M1472.37,948.668c-0.094,-3.609 -0.194,-6.648 -0.194,-9.033l0,-137.73l-210.288,0l-0,110.243l100.043,0l-0,27.487c-0,3.207 0.105,7.277 0.244,12.118c1.107,39.776 3.709,132.928 -61.317,199.798c-14.574,14.987 -31.935,27.853 -51.851,38.742c-11.051,50.189 -28.77,95.523 -51.524,136.079c75.593,-18.232 136.682,-50.938 182.417,-97.965c97.49,-100.253 93.844,-230.646 92.47,-279.739Z" style="fill:#f0ef00;fill-rule:nonzero;stroke:#0f0f00;stroke-width:16.67px;"/><path d="M188.788,1151.55c-65.026,-66.87 -62.424,-160.022 -61.306,-199.798c0.134,-4.841 0.233,-8.911 0.233,-12.118l0,-27.487l100.043,0l0,-110.243l-210.285,0l-0,137.73c-0,2.385 -0.091,5.424 -0.194,9.033c-1.371,49.093 -5.009,179.486 92.478,279.742c45.73,47.027 106.813,79.728 182.406,97.965c-22.757,-40.556 -40.47,-85.898 -51.521,-136.085c-19.919,-10.891 -37.28,-23.752 -51.854,-38.739Z" style="fill:#f0ef00;fill-rule:nonzero;stroke:#0f0f00;stroke-width:16.67px;"/></g></g></svg>