<?xml version="1.0" encoding="UTF-8" standalone="no"?><!DOCTYPE svg PUBLIC "-//W3C//DTD SVG 1.1//EN" "http://www.w3.org/Graphics/SVG/1.1/DTD/svg11.dtd"><svg width="100%" height="100%" viewBox="0 0 2138 2138" version="1.1" xmlns="http://www.w3.org/2000/svg" xmlns:xlink="http://www.w3.org/1999/xlink" xml:space="preserve" xmlns:serif="http://www.serif.com/" style="fill-rule:evenodd;clip-rule:evenodd;stroke-linecap:round;stroke-linejoin:round;stroke-miterlimit:1.5;"><rect id="Seating" x="2.465" y="2.947" width="2133.33" height="2133.33" style="fill:none;"/><g opacity="0.73"><g id="Chair"><path d="M466.76,356.041c51.678,0 100.967,22.309 135.783,61.458c34.815,39.149 51.939,91.518 47.173,144.268c-13.255,146.686 -28.739,318.038 -28.739,318.038l-324.381,-2.098c-0,0 -11.492,-173.579 -21.218,-320.484c-3.447,-52.07 14.327,-103.272 49.086,-141.404c34.759,-38.132 83.389,-59.778 134.299,-59.778c2.665,0 5.331,0 7.997,0Z" style="fill:#6a6f78;"/><path d="M466.76,294.619c69.122,0 135.112,29.699 181.68,82.063c46.009,51.735 68.747,120.904 62.448,190.613l-28.738,318.038c-2.874,31.803 -29.638,56.1 -61.57,55.893l-324.382,-2.098c-32.193,-0.208 -58.763,-25.239 -60.89,-57.363l-21.218,-320.485c-4.556,-68.814 19.044,-136.444 64.981,-186.839c46.492,-51.004 111.597,-79.822 179.692,-79.822l7.997,0Zm0,61.422l-7.997,0c-50.91,0 -99.54,21.646 -134.299,59.778c-34.759,38.132 -52.533,89.334 -49.086,141.404l21.218,320.484l324.381,2.098l28.739,-318.038c4.766,-52.75 -12.358,-105.119 -47.173,-144.268c-34.816,-39.149 -84.105,-61.458 -135.783,-61.458Z" style="fill:#fff;"/><path d="M262.059,1000.99l0,189.483" style="fill:none;stroke:#6a6f78;stroke-width:62.02px;"/><path d="M217.289,653.508l0,189.483" style="fill:none;stroke:#6a6f78;stroke-width:62.02px;"/><path d="M701.826,653.508l0,189.483" style="fill:none;stroke:#6a6f78;stroke-width:62.02px;"/><path d="M668.305,1000.99l0,189.483" style="fill:none;stroke:#6a6f78;stroke-width:62.02px;"/><path d="M675.452,921.596c15.437,0 29.225,9.898 34.505,24.768c4.092,11.528 9.165,25.815 14.21,40.025c5.068,14.276 3.024,30.19 -5.476,42.634c-8.501,12.445 -22.389,19.856 -37.209,19.856c-109.384,0 -329.027,0 -436.045,0c-14.899,0 -28.987,-6.959 -38.271,-18.907c-9.283,-11.947 -12.75,-27.579 -9.418,-42.466c2.878,-12.857 5.783,-25.837 8.246,-36.839c3.807,-17.012 18.576,-29.071 35.602,-29.071c88.015,0 350.496,0 433.856,0Z" style="fill:#2aace2;"/></g><g id="Chair1" serif:id="Chair"><path d="M1681.61,356.041c51.678,0 100.967,22.309 135.783,61.458c34.815,39.149 51.939,91.518 47.173,144.268c-13.255,146.686 -28.739,318.038 -28.739,318.038l-324.381,-2.098c-0,0 -11.492,-173.579 -21.218,-320.484c-3.447,-52.07 14.327,-103.272 49.086,-141.404c34.759,-38.132 83.389,-59.778 134.299,-59.778c2.665,0 5.331,0 7.997,0Z" style="fill:#6a6f78;"/><path d="M1681.61,294.619c69.122,0 135.112,29.699 181.68,82.063c46.009,51.735 68.747,120.904 62.448,190.613l-28.738,318.038c-2.874,31.803 -29.638,56.1 -61.57,55.893l-324.381,-2.098c-32.194,-0.208 -58.764,-25.239 -60.891,-57.363l-21.218,-320.485c-4.556,-68.814 19.044,-136.444 64.981,-186.839c46.492,-51.004 111.597,-79.822 179.692,-79.822l7.997,0Zm0,61.422l-7.997,0c-50.91,0 -99.54,21.646 -134.299,59.778c-34.759,38.132 -52.533,89.334 -49.086,141.404l21.218,320.484l324.381,2.098l28.739,-318.038c4.766,-52.75 -12.358,-105.119 -47.173,-144.268c-34.816,-39.149 -84.105,-61.458 -135.783,-61.458Z" style="fill:#fff;"/><path d="M1476.91,1000.99l0,189.483" style="fill:none;stroke:#6a6f78;stroke-width:62.02px;"/><path d="M1432.14,653.508l0,189.483" style="fill:none;stroke:#6a6f78;stroke-width:62.02px;"/><path d="M1916.67,653.508l0,189.483" style="fill:none;stroke:#6a6f78;stroke-width:62.02px;"/><path d="M1883.15,1000.99l0,189.483" style="fill:none;stroke:#6a6f78;stroke-width:62.02px;"/><path d="M1890.3,921.596c15.437,0 29.225,9.898 34.505,24.768c4.093,11.528 9.165,25.815 14.21,40.025c5.068,14.276 3.024,30.19 -5.476,42.634c-8.501,12.445 -22.389,19.856 -37.209,19.856c-109.384,0 -329.027,0 -436.045,0c-14.899,0 -28.987,-6.959 -38.27,-18.907c-9.284,-11.947 -12.751,-27.579 -9.419,-42.466c2.878,-12.857 5.783,-25.837 8.246,-36.839c3.807,-17.012 18.576,-29.071 35.602,-29.071c88.015,0 350.496,0 433.856,0Z" style="fill:#2aace2;"/></g><g id="Chair2" serif:id="Chair"><path d="M1074.18,356.041c51.678,0 100.966,22.309 135.782,61.458c34.816,39.149 51.94,91.518 47.173,144.268c-13.255,146.686 -28.738,318.038 -28.738,318.038l-324.382,-2.098c0,0 -11.492,-173.579 -21.217,-320.484c-3.448,-52.07 14.326,-103.272 49.085,-141.404c34.759,-38.132 83.389,-59.778 134.3,-59.778c2.664,0 5.331,0 7.997,0Z" style="fill:#6a6f78;"/><path d="M1074.18,294.619c69.122,0 135.112,29.699 181.68,82.063c46.009,51.735 68.747,120.904 62.448,190.613l-28.738,318.038c-2.874,31.803 -29.638,56.1 -61.571,55.893l-324.381,-2.098c-32.194,-0.208 -58.764,-25.239 -60.891,-57.363l-21.217,-320.485c-4.556,-68.814 19.043,-136.444 64.98,-186.839c46.492,-51.004 111.597,-79.822 179.693,-79.822l7.997,0Zm-0,61.422l-7.997,0c-50.911,0 -99.541,21.646 -134.3,59.778c-34.759,38.132 -52.533,89.334 -49.085,141.404l21.217,320.484l324.382,2.098l28.738,-318.038c4.767,-52.75 -12.357,-105.119 -47.173,-144.268c-34.816,-39.149 -84.104,-61.458 -135.782,-61.458Z" style="fill:#fff;"/><path d="M869.484,1000.99l-0,189.483" style="fill:none;stroke:#6a6f78;stroke-width:62.02px;"/><path d="M824.714,653.508l-0,189.483" style="fill:none;stroke:#6a6f78;stroke-width:62.02px;"/><path d="M1309.25,653.508l-0,189.483" style="fill:none;stroke:#6a6f78;stroke-width:62.02px;"/><path d="M1275.73,1000.99l-0,189.483" style="fill:none;stroke:#6a6f78;stroke-width:62.02px;"/><path d="M1282.88,921.596c15.437,0 29.225,9.898 34.504,24.768c4.093,11.528 9.165,25.815 14.21,40.025c5.069,14.276 3.025,30.19 -5.476,42.634c-8.5,12.445 -22.389,19.856 -37.209,19.856c-109.383,0 -329.026,0 -436.044,0c-14.9,0 -28.988,-6.959 -38.271,-18.907c-9.283,-11.947 -12.75,-27.579 -9.418,-42.466c2.878,-12.857 5.783,-25.837 8.245,-36.839c3.808,-17.012 18.576,-29.071 35.603,-29.071c88.015,0 350.496,0 433.856,0Z" style="fill:#2aace2;"/></g><g id="Chair3" serif:id="Chair"><path d="M1413.36,945.59c51.678,0 100.966,22.309 135.782,61.458c34.816,39.149 51.94,91.518 47.173,144.268c-13.255,146.687 -28.738,318.039 -28.738,318.039l-324.382,-2.099c0,0 -11.491,-173.579 -21.217,-320.484c-3.447,-52.069 14.327,-103.272 49.085,-141.404c34.759,-38.132 83.389,-59.778 134.3,-59.778c2.665,0 5.331,0 7.997,0Z" style="fill:#6a6f78;"/><path d="M1413.36,884.168c69.122,0 135.112,29.699 181.68,82.063c46.009,51.735 68.747,120.904 62.448,190.613l-28.738,318.038c-2.874,31.804 -29.638,56.1 -61.57,55.893l-324.382,-2.098c-32.194,-0.208 -58.764,-25.239 -60.891,-57.363l-21.217,-320.485c-4.556,-68.814 19.043,-136.444 64.98,-186.839c46.492,-51.004 111.597,-79.822 179.693,-79.822l7.997,0Zm-0,61.422l-7.997,0c-50.911,0 -99.541,21.646 -134.3,59.778c-34.758,38.132 -52.532,89.335 -49.085,141.404l21.217,320.484l324.382,2.099l28.738,-318.039c4.767,-52.75 -12.357,-105.119 -47.173,-144.268c-34.816,-39.149 -84.104,-61.458 -135.782,-61.458Z" style="fill:#fff;"/><path d="M1208.65,1590.54l-0,189.483" style="fill:none;stroke:#6a6f78;stroke-width:62.02px;"/><path d="M1163.88,1243.06l-0,189.483" style="fill:none;stroke:#6a6f78;stroke-width:62.02px;"/><path d="M1648.42,1243.06l-0,189.483" style="fill:none;stroke:#6a6f78;stroke-width:62.02px;"/><path d="M1614.9,1590.54l-0,189.483" style="fill:none;stroke:#6a6f78;stroke-width:62.02px;"/><path d="M1622.05,1511.14c15.437,0 29.225,9.898 34.504,24.768c4.093,11.528 9.165,25.815 14.21,40.025c5.069,14.277 3.025,30.19 -5.476,42.635c-8.5,12.444 -22.389,19.855 -37.209,19.855c-109.383,0 -329.026,0 -436.044,0c-14.9,0 -28.988,-6.959 -38.271,-18.906c-9.283,-11.947 -12.75,-27.58 -9.418,-42.467c2.878,-12.857 5.783,-25.837 8.245,-36.839c3.808,-17.012 18.576,-29.071 35.603,-29.071c88.015,0 350.496,0 433.856,0Z" style="fill:#2aace2;"/></g><g id="Chair4" serif:id="Chair"><path d="M796.681,955.073c51.678,-0 100.967,22.309 135.783,61.458c34.815,39.149 51.939,91.518 47.172,144.268c-13.254,146.686 -28.738,318.038 -28.738,318.038l-324.381,-2.098c-0,-0 -11.492,-173.58 -21.218,-320.485c-3.447,-52.069 14.327,-103.272 49.086,-141.404c34.759,-38.132 83.389,-59.777 134.299,-59.777c2.665,-0 5.331,-0 7.997,-0Z" style="fill:#6a6f78;"/><path d="M796.681,893.651c69.122,-0 135.112,29.698 181.68,82.062c46.009,51.735 68.747,120.905 62.448,190.614l-28.738,318.038c-2.874,31.803 -29.638,56.099 -61.57,55.893l-324.382,-2.098c-32.193,-0.209 -58.764,-25.239 -60.89,-57.364l-21.218,-320.484c-4.556,-68.814 19.044,-136.445 64.981,-186.84c46.492,-51.003 111.597,-79.821 179.692,-79.821l7.997,-0Zm-0,61.422l-7.997,-0c-50.91,-0 -99.54,21.645 -134.299,59.777c-34.759,38.132 -52.533,89.335 -49.086,141.404l21.218,320.485l324.381,2.098l28.738,-318.038c4.767,-52.75 -12.357,-105.119 -47.172,-144.268c-34.816,-39.149 -84.105,-61.458 -135.783,-61.458Z" style="fill:#fff;"/><path d="M591.98,1600.02l-0,189.483" style="fill:none;stroke:#6a6f78;stroke-width:62.02px;"/><path d="M547.21,1252.54l0,189.483" style="fill:none;stroke:#6a6f78;stroke-width:62.02px;"/><path d="M1031.75,1252.54l0,189.483" style="fill:none;stroke:#6a6f78;stroke-width:62.02px;"/><path d="M998.226,1600.02l0,189.483" style="fill:none;stroke:#6a6f78;stroke-width:62.02px;"/><path d="M1005.37,1520.63c15.437,-0 29.225,9.897 34.505,24.767c4.092,11.529 9.165,25.815 14.21,40.026c5.068,14.276 3.024,30.189 -5.476,42.634c-8.501,12.445 -22.389,19.856 -37.209,19.856c-109.384,-0 -329.027,-0 -436.045,-0c-14.899,-0 -28.987,-6.96 -38.271,-18.907c-9.283,-11.947 -12.75,-27.579 -9.418,-42.467c2.878,-12.856 5.783,-25.837 8.246,-36.838c3.807,-17.012 18.576,-29.071 35.602,-29.071c88.015,-0 350.496,-0 433.856,-0Z" style="fill:#2aace2;"/></g></g></svg>