<?xml version="1.0" encoding="UTF-8" standalone="no"?><!DOCTYPE svg PUBLIC "-//W3C//DTD SVG 1.1//EN" "http://www.w3.org/Graphics/SVG/1.1/DTD/svg11.dtd"><svg width="100%" height="100%" viewBox="0 0 2138 2138" version="1.1" xmlns="http://www.w3.org/2000/svg" xmlns:xlink="http://www.w3.org/1999/xlink" xml:space="preserve" xmlns:serif="http://www.serif.com/" style="fill-rule:evenodd;clip-rule:evenodd;stroke-linecap:round;stroke-linejoin:round;stroke-miterlimit:1.5;"><rect id="Seating" x="2.465" y="2.947" width="2133.33" height="2133.33" style="fill:none;"/><g opacity="0.73"><g id="Chair"><path d="M344.408,210.461c62.175,-0 121.475,26.84 163.363,73.941c41.887,47.101 62.489,110.107 56.754,173.571c-15.947,176.481 -34.576,382.637 -34.576,382.637l-390.268,-2.524c-0,0 -13.826,-208.837 -25.527,-385.581c-4.148,-62.645 17.236,-124.248 59.055,-170.125c41.819,-45.877 100.327,-71.919 161.578,-71.919c3.206,-0 6.414,-0 9.621,-0Z" style="fill:#6a6f78;"/><path d="M344.408,136.563c83.162,-0 162.556,35.731 218.583,98.731c55.354,62.243 82.711,145.462 75.132,229.33l-34.575,382.637c-3.458,38.263 -35.658,67.494 -74.076,67.246l-390.269,-2.525c-38.733,-0.25 -70.7,-30.365 -73.259,-69.014l-25.527,-385.581c-5.481,-82.791 22.912,-164.158 78.179,-224.789c55.935,-61.364 134.264,-96.035 216.191,-96.035l9.621,-0Zm0,73.898l-9.621,-0c-61.251,-0 -119.759,26.042 -161.578,71.919c-41.819,45.877 -63.203,107.48 -59.055,170.125l25.527,385.581l390.268,2.524l34.576,-382.637c5.735,-63.464 -14.867,-126.47 -56.754,-173.571c-41.888,-47.101 -101.188,-73.941 -163.363,-73.941Z" style="fill:#fff;"/><path d="M98.129,986.413l0,227.97" style="fill:none;stroke:#6a6f78;stroke-width:74.61px;"/><path d="M44.266,568.349l-0,227.97" style="fill:none;stroke:#6a6f78;stroke-width:74.61px;"/><path d="M627.22,568.349l0,227.97" style="fill:none;stroke:#6a6f78;stroke-width:74.61px;"/><path d="M586.891,986.413l-0,227.97" style="fill:none;stroke:#6a6f78;stroke-width:74.61px;"/><path d="M595.49,890.889c18.572,0 35.16,11.908 41.512,29.799c4.924,13.87 11.027,31.058 17.097,48.155c6.098,17.176 3.638,36.321 -6.589,51.294c-10.227,14.972 -26.936,23.889 -44.766,23.889c-131.601,-0 -395.858,-0 -524.613,-0c-17.926,-0 -34.875,-8.374 -46.044,-22.747c-11.169,-14.374 -15.34,-33.181 -11.331,-51.092c3.462,-15.469 6.957,-31.086 9.92,-44.322c4.581,-20.467 22.349,-34.976 42.834,-34.976c105.892,0 421.687,0 521.98,0Z" style="fill:#2aace2;"/></g><g id="Chair1" serif:id="Chair"><path d="M1806.01,210.461c62.175,-0 121.475,26.84 163.363,73.941c41.887,47.101 62.489,110.107 56.754,173.571c-15.947,176.481 -34.575,382.637 -34.575,382.637l-390.269,-2.524c-0,0 -13.826,-208.837 -25.527,-385.581c-4.148,-62.645 17.236,-124.248 59.056,-170.125c41.819,-45.877 100.326,-71.919 161.577,-71.919c3.206,-0 6.414,-0 9.621,-0Z" style="fill:#6a6f78;"/><path d="M1806.01,136.563c83.162,-0 162.556,35.731 218.583,98.731c55.354,62.243 82.711,145.462 75.132,229.33l-34.575,382.637c-3.458,38.263 -35.658,67.494 -74.076,67.246l-390.269,-2.525c-38.733,-0.25 -70.7,-30.365 -73.259,-69.014l-25.527,-385.581c-5.481,-82.791 22.912,-164.158 78.179,-224.789c55.935,-61.364 134.264,-96.035 216.191,-96.035l9.621,-0Zm0,73.898l-9.621,-0c-61.251,-0 -119.758,26.042 -161.577,71.919c-41.82,45.877 -63.204,107.48 -59.056,170.125l25.527,385.581l390.269,2.524l34.575,-382.637c5.735,-63.464 -14.867,-126.47 -56.754,-173.571c-41.888,-47.101 -101.188,-73.941 -163.363,-73.941Z" style="fill:#fff;"/><path d="M1559.73,986.413l0,227.97" style="fill:none;stroke:#6a6f78;stroke-width:74.61px;"/><path d="M1505.87,568.349l-0,227.97" style="fill:none;stroke:#6a6f78;stroke-width:74.61px;"/><path d="M2088.82,568.349l0,227.97" style="fill:none;stroke:#6a6f78;stroke-width:74.61px;"/><path d="M2048.5,986.413l-0,227.97" style="fill:none;stroke:#6a6f78;stroke-width:74.61px;"/><path d="M2057.1,890.889c18.572,0 35.161,11.908 41.512,29.799c4.924,13.87 11.027,31.058 17.097,48.155c6.098,17.176 3.639,36.321 -6.589,51.294c-10.227,14.972 -26.936,23.889 -44.766,23.889c-131.601,-0 -395.858,-0 -524.613,-0c-17.926,-0 -34.875,-8.374 -46.044,-22.747c-11.169,-14.374 -15.34,-33.181 -11.331,-51.092c3.462,-15.469 6.958,-31.086 9.92,-44.322c4.581,-20.467 22.349,-34.976 42.834,-34.976c105.893,0 421.687,0 521.98,0Z" style="fill:#2aace2;"/></g><g id="Chair2" serif:id="Chair"><path d="M1075.21,210.461c62.174,-0 121.475,26.84 163.362,73.941c41.888,47.101 62.489,110.107 56.755,173.571c-15.947,176.481 -34.576,382.637 -34.576,382.637l-390.269,-2.524c0,0 -13.826,-208.837 -25.527,-385.581c-4.147,-62.645 17.237,-124.248 59.056,-170.125c41.819,-45.877 100.327,-71.919 161.578,-71.919c3.206,-0 6.413,-0 9.621,-0Z" style="fill:#6a6f78;"/><path d="M1075.21,136.563c83.162,-0 162.556,35.731 218.582,98.731c55.354,62.243 82.711,145.462 75.133,229.33l-34.576,382.637c-3.457,38.263 -35.658,67.494 -74.076,67.246l-390.269,-2.525c-38.732,-0.25 -70.699,-30.365 -73.258,-69.014l-25.527,-385.581c-5.482,-82.791 22.911,-164.158 78.179,-224.789c55.935,-61.364 134.264,-96.035 216.191,-96.035l9.621,-0Zm-0,73.898l-9.621,-0c-61.251,-0 -119.759,26.042 -161.578,71.919c-41.819,45.877 -63.203,107.48 -59.056,170.125l25.527,385.581l390.269,2.524l34.576,-382.637c5.734,-63.464 -14.867,-126.47 -56.755,-173.571c-41.887,-47.101 -101.188,-73.941 -163.362,-73.941Z" style="fill:#fff;"/><path d="M828.932,986.413l-0,227.97" style="fill:none;stroke:#6a6f78;stroke-width:74.61px;"/><path d="M775.068,568.349l0,227.97" style="fill:none;stroke:#6a6f78;stroke-width:74.61px;"/><path d="M1358.02,568.349l-0,227.97" style="fill:none;stroke:#6a6f78;stroke-width:74.61px;"/><path d="M1317.69,986.413l0,227.97" style="fill:none;stroke:#6a6f78;stroke-width:74.61px;"/><path d="M1326.29,890.889c18.572,0 35.161,11.908 41.513,29.799c4.924,13.87 11.026,31.058 17.096,48.155c6.098,17.176 3.639,36.321 -6.588,51.294c-10.227,14.972 -26.937,23.889 -44.767,23.889c-131.601,-0 -395.857,-0 -524.612,-0c-17.926,-0 -34.876,-8.374 -46.044,-22.747c-11.169,-14.374 -15.34,-33.181 -11.332,-51.092c3.463,-15.469 6.958,-31.086 9.921,-44.322c4.581,-20.467 22.349,-34.976 42.833,-34.976c105.893,0 421.688,0 521.98,0Z" style="fill:#2aace2;"/></g><g id="Chair3" serif:id="Chair"><path d="M1483.27,919.757c62.175,0 121.475,26.841 163.362,73.941c41.888,47.101 62.49,110.107 56.755,173.572c-15.947,176.48 -34.576,382.637 -34.576,382.637l-390.268,-2.525c-0,0 -13.826,-208.836 -25.528,-385.58c-4.147,-62.645 17.237,-124.248 59.056,-170.125c41.819,-45.878 100.327,-71.92 161.578,-71.92c3.206,0 6.414,0 9.621,0Z" style="fill:#6a6f78;"/><path d="M1483.27,845.859c83.162,0 162.556,35.731 218.583,98.731c55.354,62.244 82.71,145.462 75.132,229.33l-34.576,382.637c-3.457,38.263 -35.657,67.494 -74.076,67.246l-390.268,-2.524c-38.733,-0.251 -70.7,-30.366 -73.259,-69.015l-25.527,-385.581c-5.481,-82.791 22.911,-164.158 78.179,-224.789c55.935,-61.363 134.264,-96.035 216.191,-96.035l9.621,0Zm0,73.898l-9.621,0c-61.251,0 -119.759,26.042 -161.578,71.92c-41.819,45.877 -63.203,107.48 -59.056,170.125l25.528,385.58l390.268,2.525l34.576,-382.637c5.735,-63.465 -14.867,-126.471 -56.755,-173.572c-41.887,-47.1 -101.187,-73.941 -163.362,-73.941Z" style="fill:#fff;"/><path d="M1236.99,1695.71l-0,227.97" style="fill:none;stroke:#6a6f78;stroke-width:74.61px;"/><path d="M1183.13,1277.64l-0,227.97" style="fill:none;stroke:#6a6f78;stroke-width:74.61px;"/><path d="M1766.09,1277.64l0,227.97" style="fill:none;stroke:#6a6f78;stroke-width:74.61px;"/><path d="M1725.76,1695.71l-0,227.97" style="fill:none;stroke:#6a6f78;stroke-width:74.61px;"/><path d="M1734.35,1600.19c18.573,-0 35.161,11.908 41.513,29.798c4.924,13.87 11.027,31.059 17.097,48.155c6.098,17.176 3.638,36.322 -6.589,51.294c-10.227,14.973 -26.936,23.889 -44.767,23.889c-131.601,0 -395.857,0 -524.612,0c-17.926,0 -34.875,-8.373 -46.044,-22.747c-11.169,-14.374 -15.34,-33.181 -11.331,-51.092c3.462,-15.468 6.957,-31.085 9.92,-44.322c4.581,-20.467 22.349,-34.975 42.834,-34.975c105.892,-0 421.687,-0 521.979,-0Z" style="fill:#2aace2;"/></g><g id="Chair4" serif:id="Chair"><path d="M741.342,931.166c62.174,-0 121.474,26.84 163.362,73.941c41.887,47.101 62.489,110.107 56.754,173.571c-15.947,176.481 -34.575,382.637 -34.575,382.637l-390.269,-2.524c0,-0 -13.826,-208.837 -25.527,-385.581c-4.148,-62.645 17.237,-124.248 59.056,-170.125c41.819,-45.877 100.326,-71.92 161.577,-71.919c3.207,-0 6.414,-0 9.622,-0Z" style="fill:#6a6f78;"/><path d="M741.342,857.268c83.162,-0 162.555,35.731 218.582,98.731c55.354,62.243 82.711,145.462 75.133,229.33l-34.576,382.636c-3.458,38.264 -35.658,67.495 -74.076,67.246l-390.269,-2.524c-38.733,-0.25 -70.7,-30.365 -73.258,-69.014l-25.528,-385.581c-5.481,-82.791 22.912,-164.159 78.179,-224.789c55.936,-61.364 134.265,-96.035 216.191,-96.035l9.622,-0Zm-0,73.898l-9.622,-0c-61.251,-0.001 -119.758,26.042 -161.577,71.919c-41.819,45.877 -63.204,107.48 -59.056,170.125l25.527,385.581l390.269,2.524l34.575,-382.637c5.735,-63.464 -14.867,-126.47 -56.754,-173.571c-41.888,-47.101 -101.188,-73.941 -163.362,-73.941Z" style="fill:#fff;"/><path d="M495.062,1707.12l0,227.971" style="fill:none;stroke:#6a6f78;stroke-width:74.61px;"/><path d="M441.199,1289.05l0,227.971" style="fill:none;stroke:#6a6f78;stroke-width:74.61px;"/><path d="M1024.15,1289.05l-0,227.971" style="fill:none;stroke:#6a6f78;stroke-width:74.61px;"/><path d="M983.824,1707.12l0,227.971" style="fill:none;stroke:#6a6f78;stroke-width:74.61px;"/><path d="M992.423,1611.59c18.572,0 35.161,11.908 41.512,29.799c4.925,13.869 11.027,31.058 17.097,48.155c6.098,17.176 3.639,36.321 -6.588,51.294c-10.228,14.972 -26.937,23.889 -44.767,23.889c-131.601,-0 -395.857,-0 -524.612,-0c-17.927,-0 -34.876,-8.374 -46.045,-22.747c-11.169,-14.374 -15.34,-33.182 -11.331,-51.093c3.462,-15.468 6.958,-31.085 9.92,-44.321c4.581,-20.468 22.349,-34.976 42.834,-34.976c105.893,0 421.688,0 521.98,0Z" style="fill:#2aace2;"/></g></g></svg>