<?xml version="1.0" encoding="UTF-8" standalone="no"?><!DOCTYPE svg PUBLIC "-//W3C//DTD SVG 1.1//EN" "http://www.w3.org/Graphics/SVG/1.1/DTD/svg11.dtd"><svg width="100%" height="100%" viewBox="0 0 2138 2138" version="1.1" xmlns="http://www.w3.org/2000/svg" xmlns:xlink="http://www.w3.org/1999/xlink" xml:space="preserve" xmlns:serif="http://www.serif.com/" style="fill-rule:evenodd;clip-rule:evenodd;stroke-linejoin:round;stroke-miterlimit:2;"><rect id="Teach" x="1.399" y="2.806" width="2133.33" height="2133.33" style="fill:none;"/><clipPath id="_clip1"><rect x="1.399" y="2.806" width="2133.33" height="2133.33"/></clipPath><g clip-path="url(#_clip1)"><g><rect x="143.686" y="8.183" width="1985.67" height="1117.06" style="fill:#fff;"/><path d="M2129.36,8.183l0,1117.06l-1985.67,0l0,-1117.06l1985.67,-0Zm-150,150l-1685.67,-0l0,817.062l1685.67,0l0,-817.062Z" style="fill:#00007c;"/><g><path d="M377.14,643.392l21.916,-0c58.998,-0 100.594,40.642 132.72,92.724l109.693,177.587l131.669,-63.785l-0,107.118l-182.996,126.783l-96.491,-110.748l0,939.885l-114.054,-0l-70.457,-508.861l-70.464,508.861l-114.054,-0l-0,-558.539l-117.846,-0l0,-527.561c0,-101.318 78.038,-183.464 174.319,-183.464l12.027,-0c-40.785,-31.144 -51.071,-82.127 -51.071,-115.08l-0,-48.556c-0,-50.202 23.872,-142.221 143.079,-142.221c119.208,0 143.083,92.019 143.083,142.221l0,48.556c0,32.953 -10.287,83.936 -51.073,115.08Z" style="fill:#00007c;"/><path d="M123.48,614.182c-14.121,-30.017 -18.929,-61.688 -18.929,-85.87l-0,-48.556c-0,-37.867 11.734,-94.294 52.747,-133.669c27.387,-26.293 67.79,-46.052 127.832,-46.052c60.043,0 100.446,19.759 127.834,46.052c41.014,39.374 52.749,95.802 52.749,133.669l0,48.556c0,23.956 -4.719,55.264 -18.538,85.031c48.46,15.614 86.472,54.378 116.506,103.066l91.903,148.788l101.205,-49.027c11.621,-5.63 25.321,-4.885 36.263,1.973c10.942,6.857 17.586,18.862 17.586,31.775l-0,107.118c-0,12.3 -6.033,23.819 -16.144,30.824l-182.996,126.784c-15.705,10.88 -37.079,8.214 -49.63,-6.191l-30.717,-35.255l0,839.758c0,20.711 -16.789,37.5 -37.5,37.5l-114.054,-0c-18.723,-0 -34.577,-13.811 -37.145,-32.357l-33.314,-240.599l-33.317,240.6c-2.568,18.546 -18.422,32.356 -37.145,32.356l-114.054,-0c-20.711,-0 -37.5,-16.789 -37.5,-37.5l-0,-521.039l-80.346,-0c-20.71,-0 -37.5,-16.789 -37.5,-37.5l0,-527.561c0,-101.552 65.493,-186.538 154.204,-212.674Zm253.66,29.21c40.786,-31.144 51.073,-82.127 51.073,-115.08l0,-48.556c0,-50.202 -23.875,-142.221 -143.083,-142.221c-119.207,0 -143.079,92.019 -143.079,142.221l-0,48.556c-0,32.953 10.286,83.936 51.071,115.08l-12.027,-0c-96.281,-0 -174.319,82.146 -174.319,183.464l0,527.561l117.846,-0l-0,558.539l114.054,-0l70.464,-508.861l70.457,508.861l114.054,-0l0,-939.885l96.491,110.748l182.996,-126.783l-0,-107.118l-131.669,63.785l-109.693,-177.587c-32.126,-52.082 -73.722,-92.724 -132.72,-92.724l-21.916,-0Z" style="fill:#fff;"/></g><path d="M710.484,941.274l-33.417,-44.177l620.913,-434.95l-587.496,479.127Z" style="fill:#00007c;"/><g><g><path d="M1183.28,1365.92l62.101,-0c90.882,-0 164.667,73.3 164.667,163.585l0,378.922l-658.67,0l0,-378.922c0,-90.285 73.785,-163.585 164.668,-163.585l62.101,-0c-79.237,-37.981 -133.961,-118.571 -133.961,-211.758c0,-129.685 105.985,-234.972 236.527,-234.972c130.543,-0 236.527,105.287 236.527,234.972c0,93.187 -54.724,173.777 -133.96,211.758Z" style="fill:#00007c;"/><path d="M887.062,1337.27c-45.638,-47.685 -73.647,-112.179 -73.647,-183.11c-0,-146.613 119.717,-265.746 267.3,-265.746c147.583,0 267.301,119.133 267.301,265.746c-0,70.931 -28.01,135.425 -73.647,183.11c94.181,13.947 166.455,94.804 166.455,192.233l0,378.922c0,16.996 -13.778,30.774 -30.774,30.774l-658.67,-0c-16.996,-0 -30.774,-13.778 -30.774,-30.774l0,-378.922c0,-97.429 72.274,-178.286 166.456,-192.233Zm296.22,28.648c79.236,-37.981 133.96,-118.571 133.96,-211.758c0,-129.685 -105.984,-234.972 -236.527,-234.972c-130.542,-0 -236.527,105.287 -236.527,234.972c0,93.187 54.724,173.777 133.961,211.758l-62.101,-0c-90.883,-0 -164.668,73.3 -164.668,163.585l0,378.922l658.67,0l0,-378.922c0,-90.285 -73.785,-163.585 -164.667,-163.585l-62.101,-0Z" style="fill:#fff;"/></g><g><path d="M1902.59,1365.92l62.101,-0c90.882,-0 164.667,73.3 164.667,163.585l0,378.922l-658.67,0l-0,-378.922c-0,-90.285 73.785,-163.585 164.667,-163.585l62.101,-0c-79.236,-37.981 -133.96,-118.571 -133.96,-211.758c0,-129.685 105.984,-234.972 236.527,-234.972c130.543,-0 236.527,105.287 236.527,234.972c-0,93.187 -54.724,173.777 -133.96,211.758Z" style="fill:#00007c;"/><path d="M1606.37,1337.27c-45.638,-47.685 -73.647,-112.179 -73.647,-183.11c-0,-146.613 119.717,-265.746 267.3,-265.746c147.583,0 267.3,119.133 267.3,265.746c0,70.931 -28.009,135.425 -73.646,183.11c94.181,13.947 166.455,94.804 166.455,192.233l-0,378.922c-0,16.996 -13.778,30.774 -30.774,30.774l-658.67,-0c-16.996,-0 -30.774,-13.778 -30.774,-30.774l0,-378.922c0,-97.429 72.274,-178.286 166.456,-192.233Zm296.22,28.648c79.236,-37.981 133.96,-118.571 133.96,-211.758c-0,-129.685 -105.984,-234.972 -236.527,-234.972c-130.543,-0 -236.527,105.287 -236.527,234.972c0,93.187 54.724,173.777 133.96,211.758l-62.101,-0c-90.882,-0 -164.667,73.3 -164.667,163.585l-0,378.922l658.67,0l0,-378.922c0,-90.285 -73.785,-163.585 -164.667,-163.585l-62.101,-0Z" style="fill:#fff;"/></g><g><path d="M1547.39,1588.25l62.1,0c90.883,0 164.668,73.3 164.668,163.585l0,378.923l-658.67,-0l-0,-378.923c-0,-90.285 73.785,-163.585 164.667,-163.585l62.101,0c-79.236,-37.98 -133.96,-118.57 -133.96,-211.758c0,-129.684 105.984,-234.972 236.527,-234.972c130.543,0 236.527,105.288 236.527,234.972c-0,93.188 -54.724,173.778 -133.96,211.758Z" style="fill:#00007c;"/><path d="M1179.25,1536.55c-28.504,-46.701 -44.91,-101.494 -44.91,-160.051c0,-170.366 138.988,-308.926 310.481,-308.926c171.493,0 310.481,138.56 310.481,308.926c-0,58.557 -16.406,113.35 -44.91,160.051c81.367,37.891 137.718,120.156 137.718,215.292l-0,378.923c-0,40.843 -33.11,73.954 -73.954,73.954l-658.67,-0c-40.844,-0 -73.954,-33.111 -73.954,-73.954l-0,-378.923c-0,-95.136 56.351,-177.401 137.718,-215.292Zm368.138,51.707c79.236,-37.98 133.96,-118.57 133.96,-211.758c-0,-129.684 -105.984,-234.972 -236.527,-234.972c-130.543,0 -236.527,105.288 -236.527,234.972c0,93.188 54.724,173.778 133.96,211.758l-62.101,0c-90.882,0 -164.667,73.3 -164.667,163.585l-0,378.923l658.67,-0l0,-378.923c0,-90.285 -73.785,-163.585 -164.668,-163.585l-62.1,0Z" style="fill:#fff;"/></g></g></g><g id="SVGRepo_iconCarrier"></g></g></svg>