<?xml version="1.0" encoding="UTF-8" standalone="no"?><!DOCTYPE svg PUBLIC "-//W3C//DTD SVG 1.1//EN" "http://www.w3.org/Graphics/SVG/1.1/DTD/svg11.dtd"><svg width="100%" height="100%" viewBox="0 0 2138 2138" version="1.1" xmlns="http://www.w3.org/2000/svg" xmlns:xlink="http://www.w3.org/1999/xlink" xml:space="preserve" xmlns:serif="http://www.serif.com/" style="fill-rule:evenodd;clip-rule:evenodd;stroke-linejoin:round;stroke-miterlimit:2;"><rect id="Teach" x="1.399" y="2.806" width="2133.33" height="2133.33" style="fill:none;"/><g><rect x="308.014" y="196.849" width="1632.67" height="918.482" style="fill:#fff;"/><path d="M1940.69,196.849l0,918.482l-1632.67,-0l-0,-918.482l1632.67,0Zm-44.692,44.692l-1543.29,-0c0,-0 0,829.098 0,829.098l1543.29,-0l0,-829.098Z" style="fill:#00007c;"/><g><path d="M499.966,719.136l18.02,0c48.51,0 82.711,33.418 109.127,76.241l90.192,146.017l108.262,-52.446l0,88.076l-150.464,104.245l-79.338,-91.06l0,772.8l-93.778,0l-57.932,-418.4l-57.938,418.4l-93.779,0l0,-459.247l-96.895,0l-0,-433.776c-0,-83.306 64.164,-150.85 143.33,-150.85l9.888,0c-33.534,-25.607 -41.992,-67.526 -41.992,-94.622l0,-39.924c0,-41.278 19.629,-116.938 117.644,-116.938c98.016,0 117.647,75.66 117.647,116.938l0,39.924c0,27.096 -8.458,69.015 -41.994,94.622Z" style="fill:#00007c;"/><path d="M282.34,691.011c-9.725,-23.545 -13.171,-47.655 -13.171,-66.497l0,-39.924c0,-32.512 10.207,-80.908 45.42,-114.715c23.521,-22.581 58.158,-39.723 109.724,-39.723c51.567,0 86.204,17.142 109.725,39.723c35.215,33.806 45.422,82.203 45.422,114.715l0,39.924c0,18.709 -3.397,42.614 -12.968,66.002c38.052,14.603 68.381,46.013 92.525,85.154l72.403,117.218l77.798,-37.688c11.622,-5.63 25.322,-4.884 36.264,1.973c10.941,6.858 17.585,18.862 17.585,31.775l0,88.076c0,12.3 -6.032,23.819 -16.144,30.824l-150.464,104.245c-15.705,10.881 -37.079,8.215 -49.63,-6.19l-13.564,-15.568l0,672.674c0,20.711 -16.789,37.5 -37.5,37.5l-93.778,0c-18.723,0 -34.578,-13.81 -37.146,-32.357l-20.788,-150.139l-20.791,150.14c-2.568,18.546 -18.422,32.356 -37.145,32.356l-93.779,0c-20.71,0 -37.5,-16.789 -37.5,-37.5l0,-421.747l-59.395,0c-20.711,0 -37.5,-16.789 -37.5,-37.5l-0,-433.776c-0,-83.828 52.407,-154.333 124.397,-178.975Zm217.626,28.125c33.536,-25.607 41.994,-67.526 41.994,-94.622l0,-39.924c0,-41.278 -19.631,-116.938 -117.647,-116.938c-98.015,0 -117.644,75.66 -117.644,116.938l0,39.924c0,27.096 8.458,69.015 41.992,94.622l-9.888,0c-79.166,0 -143.33,67.544 -143.33,150.85l-0,433.776l96.895,0l0,459.247l93.779,0l57.938,-418.4l57.932,418.4l93.778,0l0,-772.8l79.338,91.06l150.464,-104.245l0,-88.076l-108.262,52.446l-90.192,-146.017c-26.416,-42.823 -60.617,-76.241 -109.127,-76.241l-18.02,0Z" style="fill:#fff;"/></g><path d="M774.052,964.064l-27.477,-36.324l510.533,-357.628l-483.056,393.952Z" style="fill:#00007c;"/><g><g><path d="M1162.8,1313.22l51.061,-0c74.726,-0 135.395,60.269 135.395,134.505l-0,311.56l-541.578,0l-0,-311.56c-0,-74.236 60.668,-134.505 135.394,-134.505l51.061,-0c-65.15,-31.229 -110.146,-97.492 -110.146,-174.114c0,-106.63 87.144,-193.201 194.48,-193.201c107.336,0 194.479,86.571 194.479,193.201c-0,76.622 -44.996,142.885 -110.146,174.114Z" style="fill:#00007c;"/><path d="M919.239,1289.66c-37.524,-39.208 -60.555,-92.237 -60.555,-150.559c0,-120.549 98.436,-218.504 219.783,-218.504c121.347,0 219.782,97.955 219.782,218.504c-0,58.322 -23.03,111.351 -60.555,150.559c77.439,11.467 136.865,77.95 136.865,158.06l-0,311.56c-0,13.975 -11.329,25.303 -25.303,25.303l-541.578,0c-13.975,0 -25.303,-11.328 -25.303,-25.303l-0,-311.56c-0,-80.11 59.425,-146.593 136.864,-158.06Zm243.561,23.555c65.15,-31.229 110.146,-97.492 110.146,-174.114c-0,-106.63 -87.143,-193.201 -194.479,-193.201c-107.336,0 -194.48,86.571 -194.48,193.201c0,76.622 44.996,142.885 110.146,174.114l-51.061,-0c-74.726,-0 -135.394,60.269 -135.394,134.505l-0,311.56l541.578,0l-0,-311.56c-0,-74.236 -60.669,-134.505 -135.395,-134.505l-51.061,-0Z" style="fill:#fff;"/></g><g><path d="M1754.23,1313.22l51.062,-0c74.726,-0 135.394,60.269 135.394,134.505l0,311.56l-541.578,0l0,-311.56c0,-74.236 60.668,-134.505 135.395,-134.505l51.061,-0c-65.151,-31.229 -110.146,-97.492 -110.146,-174.114c-0,-106.63 87.143,-193.201 194.479,-193.201c107.336,0 194.479,86.571 194.479,193.201c0,76.622 -44.995,142.885 -110.146,174.114Z" style="fill:#00007c;"/><path d="M1510.67,1289.66c-37.524,-39.208 -60.554,-92.237 -60.554,-150.559c-0,-120.549 98.435,-218.504 219.782,-218.504c121.347,0 219.782,97.955 219.782,218.504c0,58.322 -23.03,111.351 -60.554,150.559c77.439,11.467 136.864,77.95 136.864,158.06l0,311.56c0,13.975 -11.329,25.303 -25.303,25.303l-541.578,0c-13.974,0 -25.303,-11.328 -25.303,-25.303l-0,-311.56c-0,-80.11 59.426,-146.593 136.864,-158.06Zm243.561,23.555c65.151,-31.229 110.146,-97.492 110.146,-174.114c0,-106.63 -87.143,-193.201 -194.479,-193.201c-107.336,0 -194.479,86.571 -194.479,193.201c-0,76.622 44.995,142.885 110.146,174.114l-51.061,-0c-74.727,-0 -135.395,60.269 -135.395,134.505l0,311.56l541.578,0l0,-311.56c0,-74.236 -60.668,-134.505 -135.394,-134.505l-51.062,-0Z" style="fill:#fff;"/></g><g><path d="M1462.18,1496.03l51.061,-0c74.727,-0 135.395,60.269 135.395,134.505l-0,311.56l-541.578,0l-0,-311.56c-0,-74.236 60.668,-134.505 135.394,-134.505l51.062,-0c-65.151,-31.229 -110.146,-97.492 -110.146,-174.113c-0,-106.631 87.143,-193.202 194.479,-193.202c107.336,0 194.479,86.571 194.479,193.202c0,76.621 -44.995,142.884 -110.146,174.113Z" style="fill:#00007c;"/><path d="M1159.49,1453.52c-23.437,-38.399 -36.926,-83.451 -36.926,-131.598c-0,-140.08 114.279,-254.009 255.286,-254.009c141.007,0 255.286,113.929 255.286,254.009c0,48.147 -13.489,93.199 -36.926,131.598c66.903,31.155 113.236,98.795 113.236,177.02l-0,311.56c-0,33.583 -27.224,60.808 -60.807,60.808l-541.578,-0c-33.583,-0 -60.807,-27.225 -60.807,-60.808l-0,-311.56c-0,-78.225 46.333,-145.865 113.236,-177.02Zm302.693,42.515c65.151,-31.229 110.146,-97.492 110.146,-174.113c0,-106.631 -87.143,-193.202 -194.479,-193.202c-107.336,0 -194.479,86.571 -194.479,193.202c-0,76.621 44.995,142.884 110.146,174.113l-51.062,-0c-74.726,-0 -135.394,60.269 -135.394,134.505l-0,311.56l541.578,0l-0,-311.56c-0,-74.236 -60.668,-134.505 -135.395,-134.505l-51.061,-0Z" style="fill:#fff;"/></g></g></g><g id="SVGRepo_iconCarrier"></g></svg>