<?xml version="1.0" encoding="UTF-8" standalone="no"?><!DOCTYPE svg PUBLIC "-//W3C//DTD SVG 1.1//EN" "http://www.w3.org/Graphics/SVG/1.1/DTD/svg11.dtd"><svg width="100%" height="100%" viewBox="0 0 2138 2134" version="1.1" xmlns="http://www.w3.org/2000/svg" xmlns:xlink="http://www.w3.org/1999/xlink" xml:space="preserve" xmlns:serif="http://www.serif.com/" style="fill-rule:evenodd;clip-rule:evenodd;stroke-linecap:round;stroke-linejoin:round;stroke-miterlimit:1.5;"><rect id="Test-Prep" serif:id="Test Prep" x="1.399" y="0.02" width="2133.33" height="2133.33" style="fill:none;"/><g><path d="M2000.2,18.013l-0,1914.16l-284.136,183.182l-1177.86,0l-0,-2097.35l1461.99,0Z" style="fill:#fafafa;"/><clipPath id="_clip1"><path d="M2000.2,18.013l-0,1914.16l-284.136,183.182l-1177.86,0l-0,-2097.35l1461.99,0Z"/></clipPath><g clip-path="url(#_clip1)"><rect x="1609.2" y="1760.99" width="401.484" height="380.467" style="fill:#e80000;"/></g><path d="M2000.2,18.013l-0,1914.16l-284.136,183.182l-1177.86,0l-0,-2097.35l1461.99,0Zm-150,150l-1161.99,0l-0,1797.35l983.697,-0l178.297,-114.948l-0,-1682.4Z" style="fill:#e80000;"/><path d="M1628.79,231.919l-0,431.043l-427.339,-0l-0,-431.043l427.339,-0Zm-74.787,74.787l-277.765,0c0,0 0,281.469 0,281.469l277.765,-0l-0,-281.469Z" style="fill:#ea1515;"/><path d="M1628.79,743.225l-0,431.043l-427.339,-0l-0,-431.043l427.339,-0Zm-74.787,74.787l-277.765,0c0,0 0,281.469 0,281.469l277.765,-0l-0,-281.469Z" style="fill:#ea1515;"/><path d="M1628.79,1254.53l-0,431.043l-427.339,-0l-0,-431.043l427.339,-0Zm-74.787,74.787l-277.765,0c0,0 0,281.469 0,281.469l277.765,-0l-0,-281.469Z" style="fill:#ea1515;"/><g><ellipse cx="558.018" cy="1565.28" rx="471.022" ry="475.105" style="fill:#fff;"/><path d="M558.018,1027.67c294.31,0 533.523,240.745 533.523,537.606c-0,296.86 -239.213,537.605 -533.523,537.605c-294.309,-0 -533.522,-240.745 -533.522,-537.605c0,-296.861 239.213,-537.606 533.522,-537.606Zm0,62.5c-259.964,0 -471.022,212.888 -471.022,475.106c0,262.217 211.058,475.105 471.022,475.105c259.965,-0 471.023,-212.888 471.023,-475.105c-0,-262.218 -211.058,-475.106 -471.023,-475.106Z" style="fill:#15b79f;"/><path d="M377.635,976.586l360.767,-0" style="fill:none;stroke:#15b79f;stroke-width:62.5px;"/><path d="M510.926,1031.12l94.185,0" style="fill:none;stroke:#15b79f;stroke-width:62.5px;"/><path d="M872.382,1161.85l35.055,-37.732" style="fill:none;stroke:#15b79f;stroke-width:62.5px;"/><ellipse cx="556.787" cy="1185.74" rx="18.578" ry="18.739" style="fill:#15b79f;"/><ellipse cx="181.67" cy="1562.3" rx="18.578" ry="18.739" style="fill:#15b79f;"/><ellipse cx="922.061" cy="1562.3" rx="18.578" ry="18.739" style="fill:#15b79f;"/><ellipse cx="556.787" cy="1935.7" rx="18.578" ry="18.739" style="fill:#15b79f;"/><ellipse cx="556.787" cy="1562.3" rx="60.71" ry="61.236" style="fill:#15b79f;"/><path d="M556.787,1501.06c33.507,0 60.71,27.439 60.71,61.236c0,33.798 -27.203,61.237 -60.71,61.237c-33.506,-0 -60.71,-27.439 -60.71,-61.237c0,-33.797 27.204,-61.236 60.71,-61.236Zm0,62.5c0.852,0 1.79,-0.405 1.79,-1.264c0,-0.858 -0.938,-1.263 -1.79,-1.263c-0.851,-0 -1.79,0.405 -1.79,1.263c0,0.859 0.939,1.264 1.79,1.264Z" style="fill:#15b79f;"/><path d="M556.787,1251.67l0,310.628" style="fill:none;stroke:#15b79f;stroke-width:62.5px;"/><path d="M727.212,1562.3l-170.425,0" style="fill:none;stroke:#15b79f;stroke-width:62.5px;"/></g><g><path d="M1442.58,953.385l67.486,56.159l311.272,-290.84l-78.742,-77.819l-300.016,312.5Z" style="fill:#ea1515;"/><path d="M1442.58,953.385l300.016,-312.5l78.742,77.819l-311.272,290.84l-67.486,-56.159Z" style="fill:#15b79f;"/><path d="M1752.46,629.921l287.116,-262.512c4.998,-4.57 12.736,-4.296 17.397,0.617l45.226,47.665c4.644,4.895 4.549,12.596 -0.215,17.374l-269.891,270.713l-79.633,-73.857Z" style="fill:#15b79f;"/><path d="M1439.02,959.185l66.474,56.561l-100.269,50.941l33.795,-107.502Z" style="fill:#ea1515;"/><path d="M1439.02,959.185l66.474,56.561l-100.269,50.941l33.795,-107.502Z" style="fill:#15b79f;"/><path d="M2054.28,456.262l42.111,47.922l-141.446,142.672" style="fill:none;stroke:#15b79f;stroke-width:34.53px;"/></g></g></svg>