<svg width="24" height="24" viewBox="0 0 24 24" fill="none" xmlns="http://www.w3.org/2000/svg">
  <path d="M16 17V19H2V17C2 14.79 5.58 13 10 13C14.42 13 18 14.79 18 17Z" fill="#8B5CF6"/>
  <path d="M10 12C12.2091 12 14 10.2091 14 8C14 5.79086 12.2091 4 10 4C7.79086 4 6 5.79086 6 8C6 10.2091 7.79086 12 10 12Z" fill="#C4B5FD"/>
  <path d="M20 17V19H22V17C22 15.34 18.67 14 16 14C15.71 14 15.43 14.02 15.16 14.05C16.19 14.89 17 16.12 17 17.5V19H19V17.5C19 16.46 18.39 15.53 17.47 15H17.5C19.43 15 20 16.07 20 17Z" fill="#8B5CF6"/>
  <path d="M16 11C17.6569 11 19 9.65685 19 8C19 6.34315 17.6569 5 16 5C14.3431 5 13 6.34315 13 8C13 9.65685 14.3431 11 16 11Z" fill="#C4B5FD"/>
</svg>