<svg xmlns="http://www.w3.org/2000/svg" width="23.743" height="26.538" viewBox="0 0 23.743 26.538">
  <g id="Grupo_658" data-name="Grupo 658" transform="translate(3732.062 -2439.538) rotate(180)">
    <path id="Trazado_142" data-name="Trazado 142" d="M3730.6-2452.078a2.578,2.578,0,0,1,.141,4.576,2.488,2.488,0,0,1,.424,2.42,2.55,2.55,0,0,1-1.867,1.661,2.85,2.85,0,0,1,.327,1.829,2.493,2.493,0,0,1-2.368,2.032c-2.785.011-5.572.058-8.354-.031a7.185,7.185,0,0,1-2.363-.731c-.792-.326-1.527-.786-2.309-1.139a3.318,3.318,0,0,0-1.184-.306c-1-.043-2-.022-3-.01a.855.855,0,0,1-.834-.473,6.872,6.872,0,0,1-.785-2.748,30.833,30.833,0,0,1,.518-8.454c.09-.507.263-.66.746-.68,1.265-.054,2.529-.112,3.794-.149a.631.631,0,0,0,.536-.273,57,57,0,0,1,5.357-6,4.888,4.888,0,0,0,1.361-2.324c.228-.866.472-1.728.718-2.589.177-.618.525-.768,1.08-.433a4.473,4.473,0,0,1,2.5,3.931,4.947,4.947,0,0,1-.357,1.571c-.473,1.356-.989,2.7-1.485,4.045a1.37,1.37,0,0,0-.034.23h.422c1.558,0,3.121.085,4.67-.021A2.579,2.579,0,0,1,3730.6-2452.078Zm-20.557-.838a34.871,34.871,0,0,0-.535,6.436,9.329,9.329,0,0,0,.5,3.206.4.4,0,0,0,.443.306c.886-.016,1.773.006,2.659-.01a3.216,3.216,0,0,1,1.595.408c.747.4,1.487.815,2.264,1.144a6.206,6.206,0,0,0,2.111.659c2.669.078,5.342.04,8.014.026a1.314,1.314,0,0,0,1.369-1.287,1.337,1.337,0,0,0-1.268-1.347c-.433-.057-.682-.294-.666-.636s.275-.56.714-.563c.494,0,.988.01,1.481,0a1.318,1.318,0,0,0,1.361-1.37,1.3,1.3,0,0,0-1.392-1.287c-.379,0-.759,0-1.139,0-.433-.007-.681-.226-.687-.592-.006-.383.247-.609.7-.612.671,0,1.342.009,2.013-.005a1.277,1.277,0,0,0,1.269-1.326,1.289,1.289,0,0,0-1.312-1.291c-.543-.021-1.089,0-1.632-.028a.558.558,0,0,1-.541-.612.562.562,0,0,1,.568-.552c.215-.01.431,0,.646-.013a1.32,1.32,0,0,0,1.3-1.394,1.3,1.3,0,0,0-1.388-1.252c-1,0-2,0-3,0q-2.127,0-4.254,0c-.5,0-.8-.241-.8-.617s.287-.583.775-.585h.7c.034-.167.055-.279.081-.389a21.957,21.957,0,0,1,1.592-4.366,2.858,2.858,0,0,0-1.174-3.593c-.132.478-.276.948-.392,1.425a6.312,6.312,0,0,1-1.656,3.185,62.128,62.128,0,0,0-5.736,6.426.99.99,0,0,1-.635.328c-.794.064-1.593.066-2.389.1C3711.083-2452.982,3710.568-2452.946,3710.042-2452.916Z" fill="#3a3a3c"/>
  </g>
</svg>
