<svg xmlns="http://www.w3.org/2000/svg" width="23.111" height="16.979" viewBox="0 0 23.111 16.979">
  <g id="Grupo_62" data-name="Grupo 62" transform="translate(0 0)">
    <path id="Trazado_89" data-name="Trazado 89" d="M-2216.265-331.32a2.3,2.3,0,0,1-.62.866q-7.136,7.13-14.266,14.266a1.178,1.178,0,0,1-1.279.383,1.482,1.482,0,0,1-.542-.349c-2.006-1.994-4-4-6.007-5.993a1.168,1.168,0,0,1,.48-2.015,1.11,1.11,0,0,1,.979.205,2.764,2.764,0,0,1,.249.229q2.5,2.5,5,4.994c.058.058.111.123.221.247a1.587,1.587,0,0,1,.162-.245q6.764-6.768,13.53-13.534a1.217,1.217,0,0,1,1.256-.408,1.147,1.147,0,0,1,.78.722c.019.046.042.091.063.136Z" transform="translate(2239.376 332.72)" fill="#16de0f"/>
  </g>
</svg>
