<svg xmlns="http://www.w3.org/2000/svg" width="23.085" height="22.077" viewBox="0 0 23.085 22.077">
  <g id="Grupo_1238" data-name="Grupo 1238" transform="translate(915.353 825.825)">
    <path id="Trazado_130" data-name="Trazado 130" d="M-892.268-811.755c-.075.411-.12.831-.231,1.232a7.59,7.59,0,0,1-5.427,5.55.443.443,0,0,1-.065.012.229.229,0,0,1-.044-.008c0-.631,0-1.267.007-1.9,0-.051.092-.121.156-.146a5.688,5.688,0,0,0,3.2-3.062,5.75,5.75,0,0,0-4.138-7.943c-.265-.05-.532-.091-.8-.127-.329-.044-.327-.04-.361-.372a5.748,5.748,0,0,0-.43-1.783,5.6,5.6,0,0,0-4.781-3.529,5.724,5.724,0,0,0-6.231,4.786,5.622,5.622,0,0,0,1.085,4.352l.825,1.115c-.446.117-.867.231-1.29.336a3.372,3.372,0,0,0-2.6,2.882,3.364,3.364,0,0,0,2.591,3.653,4.388,4.388,0,0,0,.87.089c1.945.008,3.89,0,5.835,0h.281v1.932h-.232q-2.962,0-5.925,0a5.3,5.3,0,0,1-5.306-4.464,5.3,5.3,0,0,1,2.414-5.3c.094-.059.19-.115.29-.176-.128-.307-.263-.6-.373-.9a7.678,7.678,0,0,1,5.5-10.109,7.682,7.682,0,0,1,9.153,5.528.338.338,0,0,0,.26.282,7.566,7.566,0,0,1,5.681,6.3c.031.168.057.337.085.506Z" transform="translate(0)" fill="#3a3a3c"/>
    <path id="Trazado_131" data-name="Trazado 131" d="M-747.289-641.115-749.4-639l-1.392-1.388c.093-.079.209-.163.31-.263q1.38-1.375,2.756-2.754a1.93,1.93,0,0,1,2.924,0q1.459,1.455,2.914,2.914c.047.047.091.1.123.133l-1.344,1.343-2.118-2.119-.059.029v8.165h-1.941V-641.1Z" transform="translate(-154.652 -170.809)" fill="#3a3a3c"/>
  </g>
</svg>
