<svg id="Grupo_633" data-name="Grupo 633" xmlns="http://www.w3.org/2000/svg" width="19.213" height="24" viewBox="0 0 19.213 24">
  <path id="Trazado_132" data-name="Trazado 132" d="M-3083.023-1345.193q0-3.33,0-6.659a1.211,1.211,0,0,1,.976-1.317,1.192,1.192,0,0,1,1.409.964,3.472,3.472,0,0,1,.028.5c0,4.233,0,8.467.01,12.7a1.894,1.894,0,0,0,.217.876,1.126,1.126,0,0,0,1.083.518c1.143-.005,2.286,0,3.429,0,1.967,0,3.934,0,5.9,0a1.159,1.159,0,0,0,1.156-.589,1.938,1.938,0,0,0,.174-.834c.01-4.233.007-8.467.01-12.7a2.334,2.334,0,0,1,.057-.612,1.208,1.208,0,0,1,1.241-.855,1.2,1.2,0,0,1,1.1,1.064,2.916,2.916,0,0,1,.018.336q0,6.42,0,12.841a3.591,3.591,0,0,1-2.71,3.639,4.242,4.242,0,0,1-1.027.117q-4.665.013-9.33,0a3.588,3.588,0,0,1-3.677-2.978,4.365,4.365,0,0,1-.058-.838Q-3083.027-1342.1-3083.023-1345.193Z" transform="translate(3084.225 1359.191)" fill="#ff7575"/>
  <path id="Trazado_133" data-name="Trazado 133" d="M-3085.411-1430.6h.3c1.348,0,2.7,0,4.045,0a1.224,1.224,0,0,1,1.24,1.106,1.218,1.218,0,0,1-.925,1.272,1.4,1.4,0,0,1-.333.029h-16.686a1.2,1.2,0,0,1-1.262-1.189,1.225,1.225,0,0,1,1.27-1.22c1.339,0,2.678,0,4.017,0h.3a1.345,1.345,0,0,1-.775-1.06,1.18,1.18,0,0,1,1.054-1.315,3.177,3.177,0,0,1,.364-.017q3.371,0,6.742,0a1.979,1.979,0,0,1,.583.06,1.121,1.121,0,0,1,.828.963,1.151,1.151,0,0,1-.546,1.2c-.07.046-.146.081-.219.121Z" transform="translate(3099.032 1432.996)" fill="#ff7575"/>
  <path id="Trazado_134" data-name="Trazado 134" d="M-3019.006-1331.132q0-2.359,0-4.718a1.2,1.2,0,0,1,1.189-1.256,1.207,1.207,0,0,1,1.219,1.237q.008,4.76,0,9.521a1.2,1.2,0,0,1-1.242,1.237,1.187,1.187,0,0,1-1.166-1.246Q-3019.008-1328.745-3019.006-1331.132Z" transform="translate(3025.014 1344.305)" fill="#ff7575"/>
  <path id="Trazado_135" data-name="Trazado 135" d="M-2952.877-1331.027q0,2.359,0,4.718a1.189,1.189,0,0,1-1.195,1.274,1.2,1.2,0,0,1-1.214-1.265q0-4.732,0-9.464a1.2,1.2,0,0,1,1.024-1.246,1.18,1.18,0,0,1,1.346.877,1.513,1.513,0,0,1,.038.388Q-2952.875-1333.386-2952.877-1331.027Z" transform="translate(2966.08 1344.228)" fill="#ff7575"/>
</svg>
