<svg xmlns="http://www.w3.org/2000/svg" width="16.308" height="13.565" viewBox="0 0 16.308 13.565">
  <g id="Grupo_720" data-name="Grupo 720" transform="translate(-466.186 -218.721)">
    <path id="Trazado_212" data-name="Trazado 212" d="M482.493,225.7a1.768,1.768,0,0,1-.5.683q-2.788,2.782-5.57,5.57a.932.932,0,0,1-.976.3,2.767,2.767,0,0,1-1.122-1.122.845.845,0,0,1,.165-.819,2.231,2.231,0,0,1,.162-.175l3.213-3.2c.04-.04.078-.082.142-.149H467.15a.845.845,0,0,1-.924-.721,4.1,4.1,0,0,1,0-1.139.821.821,0,0,1,.9-.687H477.97c-.058-.063-.094-.106-.133-.145l-3.2-3.21a.92.92,0,0,1,0-1.445c.142-.143.282-.288.428-.427a.891.891,0,0,1,1.3-.008c.039.036.076.075.113.112q2.757,2.757,5.515,5.513a1.792,1.792,0,0,1,.506.694Z" fill="#fff"/>
  </g>
</svg>
