<svg xmlns="http://www.w3.org/2000/svg" width="16.977" height="18.828" viewBox="0 0 16.977 18.828">
  <g id="Grupo_746" data-name="Grupo 746" transform="translate(-858.869 -782.218)">
    <path id="Trazado_213" data-name="Trazado 213" d="M860.3,782.218h.552a8.477,8.477,0,0,1,1.168.458q6.247,3.561,12.476,7.153a4.062,4.062,0,0,1,.8.6,1.556,1.556,0,0,1,.084,2.293,3.691,3.691,0,0,1-.886.7q-6.229,3.592-12.474,7.157a4.213,4.213,0,0,1-.926.385,1.6,1.6,0,0,1-2.037-1.028,3.371,3.371,0,0,1-.188-1.226q0-7.056,0-14.113a5.259,5.259,0,0,1,.038-.678,1.9,1.9,0,0,1,.623-1.309A4.274,4.274,0,0,1,860.3,782.218Z" fill="#fff"/>
  </g>
</svg>
