<svg xmlns="http://www.w3.org/2000/svg" width="22.857" height="19.054" viewBox="0 0 22.857 19.054">
  <g id="Grupo_1258" data-name="Grupo 1258" transform="translate(1414.429 -104.934)">
    <path id="Trazado_250" data-name="Trazado 250" d="M-1414.429,113.3c.156-.185.3-.384.47-.552q3.872-3.766,7.755-7.521a1.061,1.061,0,0,1,.49-.274.674.674,0,0,1,.8.609,2.334,2.334,0,0,1,.014.289q0,1.775,0,3.549v.274c.4.033.773.06,1.148.1a12.816,12.816,0,0,1,5.4,1.751,13.4,13.4,0,0,1,6.536,9.19,19.725,19.725,0,0,1,.241,2.479.7.7,0,0,1-.506.772.731.731,0,0,1-.87-.412,12.07,12.07,0,0,0-3.008-3.554,11.661,11.661,0,0,0-5.941-2.544c-.978-.119-1.97-.127-3-.187v.317q0,1.83,0,3.661a.729.729,0,0,1-.565.821.734.734,0,0,1-.722-.245q-1.208-1.175-2.417-2.349-2.715-2.635-5.429-5.271a4.948,4.948,0,0,1-.4-.5Z" fill="#1fb5eb"/>
  </g>
</svg>
