<svg xmlns="http://www.w3.org/2000/svg" width="49.228" height="42.946" viewBox="0 0 49.228 42.946">
  <g id="Grupo_43" data-name="Grupo 43" transform="translate(-16.334 -434.534)">
    <path id="Trazado_39" data-name="Trazado 39" d="M32.027,468.077c-.682,0-1.276,0-1.871,0-2.093-.005-4.188.022-6.281-.022a7.9,7.9,0,0,1-7.533-7.667q-.021-8.908,0-17.813a7.76,7.76,0,0,1,7.538-7.963c6.278-.123,12.562-.088,18.841.025,3.528.063,6.8,3.416,7.073,6.944.06.764.082,1.529.126,2.378h.7c2.306,0,4.613-.005,6.922,0a7.893,7.893,0,0,1,8.026,8.023q0,8.715,0,17.43a7.877,7.877,0,0,1-7.884,8.04q-8.875.058-17.753,0a7.914,7.914,0,0,1-7.895-7.988C32.021,469.035,32.027,468.611,32.027,468.077Zm15.734-16.709c0-2.9.011-5.81,0-8.714a5.8,5.8,0,0,0-6.021-6q-8.616,0-17.235,0a5.873,5.873,0,0,0-6.111,6.073q-.016,8.588,0,17.172a5.9,5.9,0,0,0,6.15,6.117q8.555.008,17.107,0a5.849,5.849,0,0,0,6.114-6.122C47.767,457.048,47.761,454.208,47.761,451.367ZM34.139,468.077c0,.482,0,.9,0,1.323a5.816,5.816,0,0,0,5.988,5.974q8.678.008,17.361,0a5.848,5.848,0,0,0,6.015-5.969q.041-8.711,0-17.424a5.878,5.878,0,0,0-6.035-5.966q-3.46-.008-6.919,0h-.677v.835c0,2.989.008,5.977,0,8.968-.008,1.728.027,3.46-.088,5.183a7.848,7.848,0,0,1-7.448,7.054c-2.476.047-4.953.019-7.432.025Z" transform="translate(0 0)" fill="#fff"/>
    <path id="Trazado_40" data-name="Trazado 40" d="M26.061,446.375H21.344c-1.068,0-1.581-.353-1.567-1.074.014-.7.515-1.038,1.539-1.038h4.744V441.02c0-.575-.008-1.153,0-1.729.014-.835.43-1.334,1.074-1.307.625.027,1.014.518,1.016,1.309.005,1.622,0,3.24,0,4.969h4.8c.945,0,1.468.37,1.482,1.038.016.69-.515,1.071-1.507,1.074-1.559,0-3.117,0-4.772,0v.712c0,1.43,0,2.86,0,4.29-.005.775-.422,1.276-1.046,1.279s-1.035-.471-1.041-1.271c-.014-1.411-.005-2.819-.005-4.227Z" transform="translate(5.988 6)" fill="#fff"/>
  </g>
</svg>
