<svg xmlns="http://www.w3.org/2000/svg" width="18.327" height="18.32" viewBox="0 0 18.327 18.32">
  <g id="Grupo_587" data-name="Grupo 587" transform="translate(247.502 -475.692)">
    <path id="Trazado_54" data-name="Trazado 54" d="M-233.727,475.692h.322a.7.7,0,0,1,.414.754c-.016.248,0,.5,0,.768h.212c.477,0,.954.005,1.431,0a2.147,2.147,0,0,1,2.176,2.181c-.02,4.174-.008,8.348-.009,12.522a2.089,2.089,0,0,1-2.086,2.094q-7.075,0-14.151,0a2.044,2.044,0,0,1-1.661-.835,2.57,2.57,0,0,1-.421-.952V478.984a.365.365,0,0,0,.036-.075,2.1,2.1,0,0,1,2.1-1.694c.488-.006.977,0,1.466,0h.21c0-.272.012-.522,0-.769a.7.7,0,0,1,.414-.752h.322a.687.687,0,0,1,.428.743c-.015.253,0,.508,0,.763h8.38c0-.265.012-.515,0-.764A.68.68,0,0,1-233.727,475.692Zm-12.63,7.266v.195q0,4.319,0,8.639a.977.977,0,0,0,1.075,1.075H-231.4a.978.978,0,0,0,1.076-1.074v-8.835Zm2.666-4.586h-1.646a.954.954,0,0,0-1.02,1.014c0,.745,0,1.49,0,2.236,0,.052.006.1.009.159h16.017c0-.846.017-1.681-.006-2.515a.922.922,0,0,0-.971-.894c-.483,0-.966,0-1.449,0h-.238v.239c0,.37.009.74-.007,1.109a.558.558,0,0,1-.6.552.577.577,0,0,1-.552-.588c-.005-.256,0-.513,0-.769v-.531h-8.38v.169c0,.376,0,.751,0,1.127a.575.575,0,0,1-.565.593.569.569,0,0,1-.589-.566c-.009-.143,0-.286,0-.429C-243.691,478.98-243.691,478.683-243.691,478.372Z" transform="translate(0 0)" fill="#3a4141"/>
  </g>
</svg>
