<svg xmlns="http://www.w3.org/2000/svg" width="47.162" height="39.416" viewBox="0 0 47.162 39.416">
  <g id="Grupo_653" data-name="Grupo 653" transform="translate(-5617.01 -5234.988)">
    <path id="Trazado_190" data-name="Trazado 190" d="M5622.077,5400.757c-.277-.075-.557-.145-.832-.227a5.916,5.916,0,0,1-4.233-5.675q0-4.915,0-9.828a5.916,5.916,0,0,1,5.884-5.947c.982-.009,1.965-.014,2.947,0a1.981,1.981,0,0,1,.467,3.905,3.283,3.283,0,0,1-.731.047c-.844,0-1.688,0-2.533,0a1.959,1.959,0,0,0-2.083,2.072q-.006,4.822,0,9.644a1.919,1.919,0,0,0,2.046,2.044q17.591,0,35.181,0a1.916,1.916,0,0,0,2.029-2.014q.009-4.845,0-9.689a1.957,1.957,0,0,0-2.055-2.055c-.921-.009-1.842,0-2.763,0a1.948,1.948,0,0,1-2.036-1.831,1.876,1.876,0,0,1,1.715-2.082,19.594,19.594,0,0,1,4.487.161,5.567,5.567,0,0,1,4.515,4.659,1.048,1.048,0,0,0,.089.2v11.537a1.859,1.859,0,0,0-.091.251,5.877,5.877,0,0,1-3.885,4.513c-.352.134-.726.21-1.089.312Z" transform="translate(0 -126.354)" fill="#fff"/>
    <path id="Trazado_191" data-name="Trazado 191" d="M5719.59,5248.794v-.624c0-3.43.041-6.861-.016-10.29a2.643,2.643,0,0,1,2.867-2.889c1.44.064,2.886.012,4.329.015a2.493,2.493,0,0,1,2.669,2.684c.01,3.492,0,6.983,0,10.475v.6c.189.01.351.025.513.025,1.565,0,3.132-.007,4.7,0,1.063.008,1.729.642,1.634,1.6a1.7,1.7,0,0,1-.421.934q-5.1,5.4-10.233,10.753a1.438,1.438,0,0,1-2.229,0q-5.128-5.366-10.244-10.743a1.495,1.495,0,0,1,1.121-2.548c1.566,0,3.132,0,4.7,0Z" transform="translate(-83.925)" fill="#fff"/>
  </g>
</svg>
