<svg xmlns="http://www.w3.org/2000/svg" width="43.235" height="30.36" viewBox="0 0 43.235 30.36">
  <g id="Grupo_627" data-name="Grupo 627" transform="translate(0 0)">
    <path id="Trazado_176" data-name="Trazado 176" d="M5888.889,5920.72a1.2,1.2,0,0,1-1.229.684q-20.393-.018-40.785-.009c-.91,0-1.227-.313-1.221-1.205a7.28,7.28,0,0,1,5.914-6.894c.249-.041.5-.078.755-.117a3.693,3.693,0,0,1,.833-7.329,3.685,3.685,0,0,1,.362,7.31,6.631,6.631,0,0,0,13.178,0,3.746,3.746,0,0,1-2.456-1.564,3.539,3.539,0,0,1-.576-2.811,3.678,3.678,0,1,1,4.193,4.376,6.639,6.639,0,0,0,13.191,0,3.759,3.759,0,0,1-2.448-1.559,3.6,3.6,0,0,1-.584-2.811,3.685,3.685,0,0,1,7.237.108c.286,2.074-.755,3.546-3.022,4.278a7.226,7.226,0,0,1,6.036,4.327,15.029,15.029,0,0,1,.623,2.036Z" transform="translate(-5845.654 -5891.044)" fill="#f853c7"/>
    <path id="Trazado_177" data-name="Trazado 177" d="M5937.642,5660.471a5.344,5.344,0,0,1,.442.366,6.992,6.992,0,0,0,4.141,2.113.565.565,0,0,1,.534.643,10.582,10.582,0,0,1-2.05,5.255,5.841,5.841,0,0,1-2.989,2.1.838.838,0,0,1-.455,0,6.051,6.051,0,0,1-3.226-2.411,10.719,10.719,0,0,1-1.727-4.328c-.036-.2-.062-.395-.085-.593a.562.562,0,0,1,.494-.657,7.012,7.012,0,0,0,4.321-2.268,1.9,1.9,0,0,1,.3-.217Zm-.5,5.6c-.223-.228-.426-.44-.635-.646a.561.561,0,0,0-.818-.028.566.566,0,0,0,.033.82q.494.5,1,.995a.559.559,0,0,0,.872-.005c.223-.219.444-.44.665-.662.345-.345.693-.687,1.033-1.037a.556.556,0,0,0,.1-.673.52.52,0,0,0-.587-.267.8.8,0,0,0-.347.2C5938.017,5665.188,5937.592,5665.621,5937.142,5666.069Z" transform="translate(-5915.874 -5660.471)" fill="#f853c7"/>
  </g>
</svg>
