<svg xmlns="http://www.w3.org/2000/svg" width="69.188" height="50.021" viewBox="0 0 69.188 50.021">
  <g id="Componente_29_1" data-name="Componente 29 – 1" transform="translate(0.996 0.999)">
    <g id="Grupo_718" data-name="Grupo 718" transform="translate(-312.555 -366.855)">
      <g id="Grupo_715" data-name="Grupo 715" transform="translate(312.555 378.923)">
        <path id="Trazado_207" data-name="Trazado 207" d="M340.485,436.384a16.466,16.466,0,0,1-6.749-1.9,41.3,41.3,0,0,1-12.417-9.569,38.531,38.531,0,0,1-7.313-11.128,17.588,17.588,0,0,1-1.425-5.493,4.712,4.712,0,0,1,1.478-4.31c.878-.739,1.67-1.594,2.605-2.249a3.137,3.137,0,0,1,4.025.139,11.945,11.945,0,0,1,3.784,5.239,3.113,3.113,0,0,1-.636,3.328,14.279,14.279,0,0,1-1.513,1.514,1.694,1.694,0,0,0-.545,2.177,18.475,18.475,0,0,0,1.763,3.144,43.665,43.665,0,0,0,7.71,7.991,8.488,8.488,0,0,0,3.083,1.742,1.719,1.719,0,0,0,1.791-.477c.506-.5,1.026-1,1.573-1.453a3.327,3.327,0,0,1,3.671-.548,11.96,11.96,0,0,1,4.78,3.635,3.269,3.269,0,0,1,.065,4.421,25.325,25.325,0,0,1-3.074,3.134A3.675,3.675,0,0,1,340.485,436.384Z" transform="translate(-312.555 -401.072)" fill="none" stroke="#fff" stroke-width="2"/>
      </g>
      <g id="Grupo_717" data-name="Grupo 717" transform="translate(329.8 366.855)">
        <path id="Trazado_210" data-name="Trazado 210" d="M382.82,369.731c3.665,0,7.331-.028,11,.013a4.017,4.017,0,0,1,3.67,2.2,3.226,3.226,0,0,1,.376,1.582c0,4.607-.033,9.214.013,13.821a3.869,3.869,0,0,1-2.753,3.749,6.421,6.421,0,0,1-1.816.254c-3.9.022-7.8.015-11.7.006a1.719,1.719,0,0,0-1.113.37q-3.329,2.56-6.681,5.093a3.62,3.62,0,0,1-.733.333,4.2,4.2,0,0,1-.145-.757c-.013-1.524-.006-3.049-.007-4.573,0-.421-.039-.466-.463-.458a4.938,4.938,0,0,1-3.15-.844,3.614,3.614,0,0,1-1.589-3.058c.009-4.584.035-9.169-.012-13.753a3.934,3.934,0,0,1,3.054-3.83,5.213,5.213,0,0,1,1.261-.143c3.6-.011,7.2-.006,10.794-.006Z" transform="translate(-367.71 -369.722)" fill="none" stroke="#fff" stroke-width="2"/>
      </g>
    </g>
    <g id="Grupo_719" data-name="Grupo 719" transform="translate(-305.445 -615.445)">
      <path id="Trazado_211" data-name="Trazado 211" d="M373.637,661.758a7.35,7.35,0,0,1-.393,1.034,3.086,3.086,0,0,1-2.739,1.662c-.748.027-1.5.006-2.245.006q-10.407,0-20.815,0a3.186,3.186,0,0,1-3.2-2.425,2.96,2.96,0,0,1-.089-.709q-.007-7.917,0-15.834a3.18,3.18,0,0,1,3.029-3.13c.038,0,.077,0,.115,0q11.588,0,23.175,0a3.159,3.159,0,0,1,3,2.187c.057.169.106.341.158.511Zm-1.727-14.12c-.162.1-.274.176-.385.25q-5.023,3.349-10.047,6.7a4.574,4.574,0,0,1-5.162,0l-10.1-6.732c-.1-.066-.2-.129-.336-.214v.3q0,6.578,0,13.156a1.473,1.473,0,0,0,1.627,1.619q11.385,0,22.77,0a2.189,2.189,0,0,0,.6-.07,1.452,1.452,0,0,0,1.033-1.516q0-6.592,0-13.184ZM358.888,644.1H347.6a3.843,3.843,0,0,0-.459.024,1.425,1.425,0,0,0-1.219,1.1.365.365,0,0,0,.183.467q5.568,3.7,11.126,7.411a2.842,2.842,0,0,0,3.332,0l10.983-7.322c.409-.272.439-.357.227-.809a1.75,1.75,0,0,0-.289-.424,1.541,1.541,0,0,0-1.229-.446Q364.574,644.1,358.888,644.1Z" fill="#fff"/>
    </g>
  </g>
</svg>
