<svg xmlns="http://www.w3.org/2000/svg" width="39.358" height="30.36" viewBox="0 0 39.358 30.36">
  <g id="Grupo_629" data-name="Grupo 629" transform="translate(0 0)">
    <path id="Trazado_178" data-name="Trazado 178" d="M5781.985,5924.9c-12.748-.056-21.973-.09-23.831,0a1.965,1.965,0,0,1-2.383-2.352,14.208,14.208,0,0,1,11.542-13.456c.485-.08.972-.151,1.473-.228-5.078-1.264-6.512-5.424-5.9-8.518a7.18,7.18,0,1,1,8.229,8.48c6.587.967,10.946,6.894,12.689,10.99.127.3.2.62.32.923.3.769.831,2.383.292,3.134A2.876,2.876,0,0,1,5781.985,5924.9Z" transform="translate(-5755.771 -5894.549)" fill="#874be2"/>
    <path id="Trazado_179" data-name="Trazado 179" d="M5881.009,5904.354a6.509,6.509,0,0,1,.557.462,8.821,8.821,0,0,0,5.222,2.664.713.713,0,0,1,.673.812,13.34,13.34,0,0,1-2.585,6.626,7.367,7.367,0,0,1-3.768,2.644,1.065,1.065,0,0,1-.574,0,7.626,7.626,0,0,1-4.068-3.041,13.518,13.518,0,0,1-2.177-5.458c-.045-.247-.079-.5-.108-.747a.71.71,0,0,1,.623-.829,8.844,8.844,0,0,0,5.449-2.859,2.386,2.386,0,0,1,.378-.273Zm-.631,7.059c-.281-.287-.537-.555-.8-.815a.707.707,0,0,0-1.032-.036.715.715,0,0,0,.042,1.034q.623.631,1.255,1.254a.706.706,0,0,0,1.1-.006c.281-.276.559-.556.837-.834.436-.435.874-.867,1.3-1.308a.7.7,0,0,0,.127-.848.657.657,0,0,0-.741-.336,1.008,1.008,0,0,0-.437.254C5881.48,5910.3,5880.945,5910.847,5880.378,5911.412Z" transform="translate(-5848.109 -5902.195)" fill="#874be2"/>
  </g>
</svg>
