<svg xmlns="http://www.w3.org/2000/svg" width="22.061" height="30.359" viewBox="0 0 22.061 30.359">
  <g id="Grupo_632" data-name="Grupo 632" transform="translate(0 0)">
    <path id="Trazado_181" data-name="Trazado 181" d="M6146.087,6044.1c0,1.122-.028,2.245.013,3.366a.764.764,0,0,1-.547.83,18.844,18.844,0,0,1-6.167,1.573,46.806,46.806,0,0,1-6.181.114,33.75,33.75,0,0,1-8.047-1.5c-1.114-.34-1.116-.332-1.116-1.512,0-1.852-.005-3.7,0-5.557a8.281,8.281,0,0,1,6.666-8.207,6.042,6.042,0,0,1,1.215-.149c2.1-.015,4.2-.055,6.3,0a8.233,8.233,0,0,1,7.823,7.784c.035,1.085.005,2.172.005,3.258Z" transform="translate(-6124.041 -6019.68)" fill="#25aae1"/>
    <path id="Trazado_185" data-name="Trazado 185" d="M6159.721,5935.147a6.474,6.474,0,1,1,6.546,6.444A6.463,6.463,0,0,1,6159.721,5935.147Z" transform="translate(-6155.157 -5928.665)" fill="#25aae1"/>
  </g>
</svg>
