<svg xmlns="http://www.w3.org/2000/svg" width="47.171" height="47.072" viewBox="0 0 47.171 47.072">
  <g id="Grupo_1239" data-name="Grupo 1239" transform="translate(-387.637 -446.417)">
    <path id="Trazado_236" data-name="Trazado 236" d="M434.808,466.675c-.1.186-.183.38-.3.557a1.862,1.862,0,0,1-2.51.568,21.923,21.923,0,0,0-3.132-1.619,13.535,13.535,0,0,0-14.246,2.767,1.072,1.072,0,0,0-.331.615,9.327,9.327,0,0,1-2.766,5.573,1.311,1.311,0,0,0-.122.149c1.167.665,2.334,1.295,3.464,1.987a1.763,1.763,0,0,1,.789,2.112,1.829,1.829,0,0,1-2.677,1.048,25.8,25.8,0,0,0-2.41-1.33,13.9,13.9,0,0,0-14.22,1.636,13.14,13.14,0,0,0-4.8,6.419,1.876,1.876,0,0,0,1.894,2.727q7.8.007,15.61,0a1.814,1.814,0,0,1,1.917,1.326,1.725,1.725,0,0,1-1.662,2.27c-5.449,0-10.9-.011-16.347.005a5.073,5.073,0,0,1-4.671-2.878,5.8,5.8,0,0,1,.006-5.352,17.728,17.728,0,0,1,9.781-9.728l.5-.21a9.322,9.322,0,0,1-2.874-8.428,9.163,9.163,0,0,1,3.99-6.258,9.447,9.447,0,0,1,14,4.151l3.887-2.117a9.324,9.324,0,0,1-2.713-8.924,9.158,9.158,0,0,1,3.808-5.666,9.417,9.417,0,0,1,11.765,14.647c.808.415,1.621.82,2.422,1.25a4.863,4.863,0,0,1,1.04.672,10.04,10.04,0,0,1,.905,1.106Zm-5.068-10.851a5.707,5.707,0,1,0-5.74,5.687A5.754,5.754,0,0,0,429.74,455.824Zm-24.779,6.887a5.7,5.7,0,1,0,5.714,5.7A5.737,5.737,0,0,0,404.961,462.712Z" fill="#28abe1"/>
    <path id="Trazado_237" data-name="Trazado 237" d="M726.079,776.4a2.019,2.019,0,0,1-1.359,1.305,3.016,3.016,0,0,1-.634.072c-1.458.006-2.916,0-4.375,0h-.541c0,.5,0,.954,0,1.41,0,1.228.008,2.457,0,3.685a1.662,1.662,0,0,1-1.738,1.723,1.713,1.713,0,0,1-1.942-1.938q0-2.188,0-4.375v-.5h-.526c-1.489,0-2.978,0-4.467,0a1.843,1.843,0,1,1-.017-3.684c1.489-.01,2.978,0,4.467,0h.544v-.536c0-1.5-.006-3.009,0-4.514a1.84,1.84,0,1,1,3.679,0c.007,1.657,0,3.315,0,5.047h.5c1.351,0,2.7.044,4.052-.013a2.146,2.146,0,0,1,2.357,1.4Z" transform="translate(-291.271 -291.119)" fill="#28abe1"/>
  </g>
</svg>
