<svg xmlns="http://www.w3.org/2000/svg" width="16.766" height="18.828" viewBox="0 0 16.766 18.828">
  <g id="Grupo_753" data-name="Grupo 753" transform="translate(-942.012 -531.335)">
    <path id="Trazado_214" data-name="Trazado 214" d="M1108.786,540.746c0,2.25,0,4.5,0,6.751a2.564,2.564,0,0,1-.729,1.907,2.255,2.255,0,0,1-1.558.71,22.464,22.464,0,0,1-2.558-.037,2.384,2.384,0,0,1-2.056-2.291q-.011-7.04,0-14.081a2.372,2.372,0,0,1,2.19-2.313,13.282,13.282,0,0,1,2.488,0,2.409,2.409,0,0,1,2.216,2.578Q1108.792,537.359,1108.786,540.746Z" transform="translate(-150.011)" fill="#fff"/>
    <path id="Trazado_215" data-name="Trazado 215" d="M942.014,541.12c0-2.25,0-4.5,0-6.751a2.523,2.523,0,0,1,.874-2.027,2.213,2.213,0,0,1,1.4-.577,22.976,22.976,0,0,1,2.557.037,2.382,2.382,0,0,1,2.068,2.327q.008,7.006,0,14.011a2.4,2.4,0,0,1-2.23,2.35,12.347,12.347,0,0,1-2.442,0,2.412,2.412,0,0,1-2.226-2.57C942.01,545.651,942.014,543.385,942.014,541.12Z" transform="translate(0 -0.387)" fill="#fff"/>
  </g>
</svg>
