<svg xmlns="http://www.w3.org/2000/svg" width="19.668" height="19.66" viewBox="0 0 19.668 19.66">
  <g id="Grupo_733" data-name="Grupo 733" transform="translate(-1721.837 -256.84)">
    <g id="Grupo_587" data-name="Grupo 587" transform="translate(1721.837 256.84)">
      <path id="Trazado_54" data-name="Trazado 54" d="M-232.719,475.692h.346a.756.756,0,0,1,.444.809c-.017.266,0,.534,0,.824h.228c.512,0,1.024.005,1.536,0a2.3,2.3,0,0,1,2.335,2.341c-.022,4.479-.008,8.959-.009,13.438a2.241,2.241,0,0,1-2.239,2.248q-7.593,0-15.186,0a2.194,2.194,0,0,1-1.783-.9,2.758,2.758,0,0,1-.452-1.022V479.225a.394.394,0,0,0,.039-.081,2.257,2.257,0,0,1,2.253-1.818c.524-.007,1.049,0,1.573,0h.225c0-.292.013-.56,0-.826a.748.748,0,0,1,.444-.807h.346a.737.737,0,0,1,.46.8c-.016.272,0,.545,0,.819h8.993c0-.284.013-.553,0-.82A.73.73,0,0,1-232.719,475.692Zm-13.554,7.8v.209q0,4.635,0,9.271a1.049,1.049,0,0,0,1.153,1.154h14.894a1.049,1.049,0,0,0,1.155-1.152v-9.481Zm2.861-4.922c-.6,0-1.185,0-1.767,0a1.024,1.024,0,0,0-1.094,1.089c0,.8,0,1.6,0,2.4,0,.055.006.111.01.171h17.189c0-.908.018-1.8-.007-2.7a.989.989,0,0,0-1.042-.959c-.518,0-1.036,0-1.555,0h-.255v.256c0,.4.01.794-.008,1.19a.6.6,0,0,1-.642.593.619.619,0,0,1-.592-.631c-.005-.275,0-.55,0-.825v-.57h-8.993v.181c0,.4,0,.806,0,1.209a.618.618,0,0,1-.606.636.61.61,0,0,1-.632-.607c-.01-.153,0-.307,0-.461C-243.412,479.22-243.412,478.9-243.412,478.568Z" transform="translate(247.502 -475.692)" fill="#3a3a3c"/>
    </g>
  </g>
</svg>
