<svg xmlns="http://www.w3.org/2000/svg" width="38.602" height="32.425" viewBox="0 0 38.602 32.425">
  <g id="Grupo_631" data-name="Grupo 631" transform="translate(0 0)">
    <path id="Trazado_180" data-name="Trazado 180" d="M6035.469,5987.434c.047-.21.1-.42.143-.631a7.229,7.229,0,0,1,6.825-5.74c1.714-.028,3.429-.016,5.143-.017a4.511,4.511,0,0,1,.482.052,7.038,7.038,0,0,0,2.117,4.776c-4.623,1.774-6.467,5.218-6.085,10.033a34.745,34.745,0,0,1-8.625-1.642Z" transform="translate(-6035.469 -5969.335)" fill="#e0a954"/>
    <path id="Trazado_181" data-name="Trazado 181" d="M6143.345,6042.725c0,.982-.024,1.965.012,2.946a.67.67,0,0,1-.479.727,16.484,16.484,0,0,1-5.4,1.377,40.951,40.951,0,0,1-5.412.1,29.52,29.52,0,0,1-7.046-1.317c-.975-.3-.978-.291-.978-1.324,0-1.622,0-3.244,0-4.866a7.251,7.251,0,0,1,5.836-7.186,5.288,5.288,0,0,1,1.064-.13c1.84-.013,3.681-.048,5.52,0a7.208,7.208,0,0,1,6.85,6.816c.031.95,0,1.9,0,2.853Z" transform="translate(-6114.122 -6015.498)" fill="#e0a954"/>
    <path id="Trazado_183" data-name="Trazado 183" d="M6260.555,5995.907c0-.8.03-1.51,0-2.221a8.508,8.508,0,0,0-5.778-7.735c-.087-.031-.173-.069-.211-.084a18.35,18.35,0,0,0,1.4-2.261,19.669,19.669,0,0,0,.765-2.644c.363,0,.812,0,1.26,0,1.293.01,2.587,0,3.879.038a7.155,7.155,0,0,1,6.6,5.858,30.677,30.677,0,0,1,.152,3.588c.022,1.059-.011,2.12.013,3.179a.616.616,0,0,1-.429.667,18.212,18.212,0,0,1-5.252,1.387C6262.18,5995.773,6261.408,5995.827,6260.555,5995.907Z" transform="translate(-6230.026 -5969.261)" fill="#e0a954"/>
    <path id="Trazado_185" data-name="Trazado 185" d="M6159.721,5934.341a5.669,5.669,0,1,1,5.732,5.642A5.66,5.66,0,0,1,6159.721,5934.341Z" transform="translate(-6145.807 -5922.822)" fill="#e0a954"/>
    <path id="Trazado_186" data-name="Trazado 186" d="M6076.8,5876.488a5.675,5.675,0,0,1,5.676,5.629.771.771,0,0,1-.223.519,7.158,7.158,0,0,0-2.385,4.074.686.686,0,0,1-.34.389,5.64,5.64,0,0,1-8.353-5.337A5.615,5.615,0,0,1,6076.8,5876.488Z" transform="translate(-6067.167 -5876.488)" fill="#e0a954"/>
    <path id="Trazado_188" data-name="Trazado 188" d="M6249.114,5876.488a5.668,5.668,0,0,1,1.055,11.239,5.3,5.3,0,0,1-3.153-.337.655.655,0,0,1-.338-.416,6.941,6.941,0,0,0-2.9-4.662.63.63,0,0,1-.3-.61,5.69,5.69,0,0,1,4.986-5.174C6248.679,5876.513,6248.9,5876.5,6249.114,5876.488Z" transform="translate(-6220.181 -5876.488)" fill="#e0a954"/>
  </g>
</svg>
