<svg xmlns="http://www.w3.org/2000/svg" width="12.86" height="14.442" viewBox="0 0 12.86 14.442">
  <g id="Grupo_990" data-name="Grupo 990" transform="translate(-942.012 -531.335)">
    <path id="Trazado_214" data-name="Trazado 214" d="M1107.178,538.554c0,1.726,0,3.453,0,5.179a1.967,1.967,0,0,1-.559,1.463,1.73,1.73,0,0,1-1.195.545,17.224,17.224,0,0,1-1.962-.029,1.829,1.829,0,0,1-1.577-1.758q-.008-5.4,0-10.8a1.819,1.819,0,0,1,1.68-1.774,10.188,10.188,0,0,1,1.909,0,1.848,1.848,0,0,1,1.7,1.977Q1107.182,535.956,1107.178,538.554Z" transform="translate(-152.307)" fill="#fff"/>
    <path id="Trazado_215" data-name="Trazado 215" d="M942.013,538.937c0-1.726,0-3.453,0-5.179a1.935,1.935,0,0,1,.671-1.555,1.7,1.7,0,0,1,1.076-.443,17.623,17.623,0,0,1,1.962.028,1.827,1.827,0,0,1,1.586,1.785q.006,5.374,0,10.748a1.838,1.838,0,0,1-1.711,1.8,9.467,9.467,0,0,1-1.874,0,1.85,1.85,0,0,1-1.707-1.972C942.01,542.413,942.013,540.675,942.013,538.937Z" transform="translate(0 -0.393)" fill="#fff"/>
  </g>
</svg>
