<svg xmlns="http://www.w3.org/2000/svg" width="12.197" height="13.529" viewBox="0 0 12.197 13.529">
  <g id="Grupo_965" data-name="Grupo 965" transform="translate(-858.87 -782.218)">
    <path id="Trazado_213" data-name="Trazado 213" d="M859.9,782.218h.4a6.1,6.1,0,0,1,.839.329q4.489,2.559,8.965,5.14a2.923,2.923,0,0,1,.576.435,1.118,1.118,0,0,1,.06,1.648,2.652,2.652,0,0,1-.637.5q-4.476,2.581-8.963,5.143a3.03,3.03,0,0,1-.665.277,1.15,1.15,0,0,1-1.464-.738,2.422,2.422,0,0,1-.135-.881q0-5.07,0-10.141a3.784,3.784,0,0,1,.027-.487,1.364,1.364,0,0,1,.448-.94A3.072,3.072,0,0,1,859.9,782.218Z" fill="#fff"/>
  </g>
</svg>
