<svg id="Grupo_1053" data-name="Grupo 1053" xmlns="http://www.w3.org/2000/svg" width="13.499" height="19.49" viewBox="0 0 13.499 19.49">
  <path id="Trazado_140" data-name="Trazado 140" d="M-230.62-463.922a.786.786,0,0,1-.571-.818.75.75,0,0,1,.605-.665,2.057,2.057,0,0,1,.3-.021q1.284,0,2.567,0h.242v-1.5c-.457-.111-.916-.2-1.36-.336a6.519,6.519,0,0,1-3.131-2.183,6.276,6.276,0,0,1-1.373-2.98,11.88,11.88,0,0,1-.1-1.513c-.015-.4-.01-.811,0-1.217a.736.736,0,0,1,.748-.744.739.739,0,0,1,.744.748c.014.6.01,1.191.027,1.786a4.807,4.807,0,0,0,1.118,2.962,5.038,5.038,0,0,0,2.63,1.779,5.084,5.084,0,0,0,4.278-.613,4.96,4.96,0,0,0,2.361-3.656c.084-.72.06-1.454.072-2.181a.8.8,0,0,1,.309-.679.7.7,0,0,1,.735-.088.651.651,0,0,1,.443.572,12.113,12.113,0,0,1-.2,3.362,6.725,6.725,0,0,1-2.062,3.3,6.408,6.408,0,0,1-3.063,1.544c-.209.043-.421.072-.636.109v1.53h2.853a.868.868,0,0,1,.6.182.747.747,0,0,1-.153,1.25l-.151.073Z" transform="translate(233.451 483.413)" fill="#fff"/>
  <path id="Trazado_141" data-name="Trazado 141" d="M-167.651-615.282q0,1.436,0,2.871a3.674,3.674,0,0,1-.762,2.373,3.642,3.642,0,0,1-3.6,1.441,3.742,3.742,0,0,1-3.068-2.933,4.706,4.706,0,0,1-.077-.888q-.01-2.871,0-5.742a3.691,3.691,0,0,1,2.146-3.5,3.692,3.692,0,0,1,4.3.776,3.738,3.738,0,0,1,1.068,2.716C-167.653-617.208-167.651-616.245-167.651-615.282Z" transform="translate(178.154 622.043)" fill="#fff"/>
</svg>
