<svg xmlns="http://www.w3.org/2000/svg" width="32" height="26.744" viewBox="0 0 32 26.744">
  <g id="Grupo_555" data-name="Grupo 555" transform="translate(-5617.01 -5234.988)">
    <path id="Trazado_168" data-name="Trazado 168" d="M5620.447,5393.786c-.188-.051-.377-.1-.564-.154a4.015,4.015,0,0,1-2.872-3.852q0-3.333,0-6.668a4.015,4.015,0,0,1,3.993-4.035c.667-.006,1.333-.009,2,0a1.344,1.344,0,0,1,.316,2.65,2.234,2.234,0,0,1-.5.031c-.573,0-1.146,0-1.718,0a1.33,1.33,0,0,0-1.414,1.406q0,3.271,0,6.543a1.3,1.3,0,0,0,1.388,1.387q11.936,0,23.871,0a1.3,1.3,0,0,0,1.377-1.367q.005-3.287,0-6.574a1.328,1.328,0,0,0-1.394-1.394c-.625-.006-1.25,0-1.875,0a1.322,1.322,0,0,1-1.381-1.243,1.272,1.272,0,0,1,1.163-1.413,13.273,13.273,0,0,1,3.044.109,3.778,3.778,0,0,1,3.063,3.161.721.721,0,0,0,.061.137v7.828a1.23,1.23,0,0,0-.062.17,3.987,3.987,0,0,1-2.636,3.062c-.239.091-.493.143-.739.212Z" transform="translate(0 -132.054)" fill="#fff"/>
    <path id="Trazado_169" data-name="Trazado 169" d="M5717.378,5244.355v-.423c0-2.328.028-4.655-.01-6.982a1.793,1.793,0,0,1,1.945-1.96c.977.043,1.958.008,2.937.01a1.691,1.691,0,0,1,1.811,1.821c.007,2.369,0,4.738,0,7.107v.409c.128.006.238.017.348.017,1.063,0,2.125,0,3.188,0,.721.006,1.173.436,1.108,1.087a1.153,1.153,0,0,1-.286.634q-3.458,3.66-6.943,7.3a.976.976,0,0,1-1.512,0q-3.479-3.641-6.95-7.289a1.014,1.014,0,0,1,.76-1.729q1.594,0,3.188,0Z" transform="translate(-87.711 0)" fill="#fff"/>
  </g>
</svg>
