<svg xmlns="http://www.w3.org/2000/svg" width="43.437" height="43.444" viewBox="0 0 43.437 43.444">
  <g id="Grupo_44" data-name="Grupo 44" transform="translate(0.501 0.501)">
    <path id="Trazado_41" data-name="Trazado 41" d="M-66.586,459.2c.389-.992.766-1.924,1.108-2.867a.555.555,0,0,0-.159-.446c-.733-.762-1.509-1.484-2.22-2.264a3.977,3.977,0,0,1,1.831-6.5,3.953,3.953,0,0,1,4.036.979c.707.676,1.379,1.389,2.028,2.045.986-.432,1.924-.833,2.845-1.267a.573.573,0,0,0,.2-.434c.018-1.041,0-2.083.016-3.124a4.043,4.043,0,0,1,3.84-3.849,4.046,4.046,0,0,1,4.14,3.305,18.668,18.668,0,0,1,.092,2.152c.014.5,0,1.01,0,1.48.99.387,1.949.77,2.916,1.128.094.035.279-.063.371-.151.747-.725,1.456-1.491,2.224-2.193a4.033,4.033,0,0,1,6.657,2.018,3.879,3.879,0,0,1-1.071,3.8c-.678.707-1.385,1.385-2.038,2.036.43.977.831,1.914,1.263,2.837a.509.509,0,0,0,.395.193c1.041.018,2.083,0,3.124.018a4.032,4.032,0,0,1,3.885,3.847,4.047,4.047,0,0,1-3.356,4.142,10.686,10.686,0,0,1-1.326.081c-.764.012-1.529,0-2.254,0-.383.984-.762,1.928-1.112,2.883a.518.518,0,0,0,.147.413c.713.737,1.464,1.438,2.161,2.191a4.01,4.01,0,0,1-1.977,6.681,3.869,3.869,0,0,1-3.8-1.053c-.707-.676-1.381-1.389-2.04-2.053-.988.432-1.937.837-2.873,1.273-.1.047-.169.267-.171.411-.016,1.01,0,2.022-.014,3.032a4.034,4.034,0,0,1-3.871,3.957,4.039,4.039,0,0,1-4.126-3.429,9.226,9.226,0,0,1-.075-1.234c-.012-.78,0-1.558,0-2.275-.986-.385-1.916-.762-2.859-1.1A.554.554,0,0,0-59.1,476c-.774.743-1.5,1.541-2.3,2.25a4.039,4.039,0,0,1-6.474-1.778,3.887,3.887,0,0,1,.943-4.073c.682-.723,1.413-1.4,2.083-2.061-.436-1-.843-1.951-1.279-2.887-.045-.1-.271-.163-.415-.165-1.026-.016-2.053,0-3.079-.014a4.035,4.035,0,0,1-3.9-3.834,4.038,4.038,0,0,1,3.388-4.16,9.93,9.93,0,0,1,1.279-.077C-68.074,459.192-67.294,459.2-66.586,459.2Zm17.808,18.911-.037,0c0-.613.014-1.226,0-1.839-.012-.4.181-.582.538-.737,1.063-.458,2.118-.941,3.15-1.466a.74.74,0,0,1,1.016.118q1.088,1.12,2.207,2.211a2.968,2.968,0,0,0,4.207.067,2.9,2.9,0,0,0-.086-4.189c-.784-.8-1.568-1.594-2.376-2.368a.824.824,0,0,1-.175-1.059c.428-1.041.821-2.1,1.159-3.175.145-.462.364-.666.833-.66q1.518.012,3.034,0a3.745,3.745,0,0,0,.865-.081,2.887,2.887,0,0,0,2.181-3.262,2.933,2.933,0,0,0-2.873-2.478c-1.165-.014-2.328-.016-3.494,0a.789.789,0,0,1-.841-.593c-.432-1.039-.922-2.059-1.427-3.065-.265-.531-.287-.654.138-1.081.735-.739,1.476-1.472,2.207-2.212a2.8,2.8,0,0,0,.8-2.776,2.908,2.908,0,0,0-4.867-1.391q-1.244,1.194-2.435,2.438a.857.857,0,0,1-1.1.189c-1.039-.428-2.1-.811-3.173-1.155-.438-.14-.646-.344-.643-.8.008-1,.01-1.992,0-2.987a4.07,4.07,0,0,0-.092-.955,2.881,2.881,0,0,0-3.27-2.167,2.941,2.941,0,0,0-2.462,2.888c-.012,1.165-.018,2.33,0,3.494.008.462-.193.656-.607.831-1.037.436-2.061.916-3.063,1.432a.763.763,0,0,1-1.053-.122c-.733-.76-1.48-1.511-2.242-2.244a2.961,2.961,0,0,0-4.172,0,2.9,2.9,0,0,0,.086,4.156c.8.808,1.594,1.613,2.409,2.4a.808.808,0,0,1,.167,1.024c-.428,1.057-.823,2.13-1.175,3.217a.752.752,0,0,1-.806.638c-1.01-.006-2.022-.008-3.032,0a3.684,3.684,0,0,0-.908.088,2.885,2.885,0,0,0-2.159,3.276,2.938,2.938,0,0,0,2.849,2.454c1.165.018,2.328.02,3.494,0a.808.808,0,0,1,.872.615c.424,1.028.9,2.034,1.4,3.026.283.56.308.666-.14,1.118-.735.739-1.478,1.47-2.209,2.211a2.8,2.8,0,0,0-.792,2.739A2.91,2.91,0,0,0-62.01,477.3c.841-.8,1.66-1.631,2.468-2.468a.825.825,0,0,1,1.059-.183q1.518.631,3.083,1.149c.666.22.751.263.755.979,0,1.1-.024,2.207.026,3.307a2.825,2.825,0,0,0,2.584,2.649,2.822,2.822,0,0,0,3.124-2.291A20.844,20.844,0,0,0-48.778,478.11Z" transform="translate(73.528 -441.46)" fill="#fff" stroke="#fff" stroke-width="1"/>
    <path id="Trazado_42" data-name="Trazado 42" d="M-58.22,465.954a9.218,9.218,0,0,1-9.184-9.208,9.216,9.216,0,0,1,9.186-9.162,9.214,9.214,0,0,1,9.184,9.208A9.215,9.215,0,0,1-58.22,465.954Zm8.058-9.163a8.078,8.078,0,0,0-8.044-8.08,8.081,8.081,0,0,0-8.07,8.011,8.082,8.082,0,0,0,8.023,8.1A8.079,8.079,0,0,0-50.162,456.792Z" transform="translate(79.437 -435.551)" fill="#fff" stroke="#fff" stroke-width="1"/>
  </g>
</svg>
