<svg xmlns="http://www.w3.org/2000/svg" width="16.983" height="16.979" viewBox="0 0 16.983 16.979">
  <g id="Grupo_61" data-name="Grupo 61" transform="translate(0 0)">
    <path id="Trazado_88" data-name="Trazado 88" d="M-1525.856-358.03a1.277,1.277,0,0,1-.395.593,1,1,0,0,1-1.227-.017c-.068-.056-.132-.118-.194-.18q-3.259-3.258-6.517-6.517c-.047-.047-.086-.1-.139-.165-.065.062-.112.105-.158.151q-3.283,3.281-6.564,6.564a1.015,1.015,0,0,1-1.125.306.994.994,0,0,1-.437-1.564c.056-.068.118-.131.181-.194q3.264-3.265,6.529-6.529a1.411,1.411,0,0,1,.156-.116c-.071-.075-.114-.123-.16-.168l-6.563-6.565a1,1,0,0,1-.233-1.274.97.97,0,0,1,.517-.442c.05-.019.1-.042.147-.064h.4a1.838,1.838,0,0,1,.759.534q3.192,3.2,6.387,6.391a1.575,1.575,0,0,1,.137.2c.077-.1.115-.15.161-.2q3.194-3.2,6.388-6.391a1.839,1.839,0,0,1,.759-.534h.4c.126.062.258.115.376.189a1.149,1.149,0,0,1,.42.607v.4a1.836,1.836,0,0,1-.534.759q-3.2,3.191-6.391,6.387a1.12,1.12,0,0,1-.162.114v.07a1.116,1.116,0,0,1,.162.114q3.2,3.193,6.391,6.387a1.839,1.839,0,0,1,.534.759Z" transform="translate(1542.839 374.212)" fill="#f20000"/>
  </g>
</svg>
