<?xml version="1.0" encoding="UTF-8" standalone="no"?><!DOCTYPE svg PUBLIC "-//W3C//DTD SVG 1.1//EN" "http://www.w3.org/Graphics/SVG/1.1/DTD/svg11.dtd"><svg width="100%" height="100%" viewBox="0 0 2138 2138" version="1.1" xmlns="http://www.w3.org/2000/svg" xmlns:xlink="http://www.w3.org/1999/xlink" xml:space="preserve" xmlns:serif="http://www.serif.com/" style="fill-rule:evenodd;clip-rule:evenodd;stroke-linejoin:round;stroke-miterlimit:2;"><rect id="Draft" x="0.802" y="2.402" width="2133.33" height="2133.33" style="fill:none;"/><clipPath id="_clip1"><rect x="0.802" y="2.402" width="2133.33" height="2133.33"/></clipPath><g clip-path="url(#_clip1)"><g id="SVGRepo_iconCarrier"><g><rect x="0.802" y="53.164" width="2031.81" height="2031.81" style="fill:none;fill-rule:nonzero;"/><path d="M1687.35,95.916c53.513,0 96.945,43.432 96.945,96.945l-0,364.224l-193.891,193.89l0,-461.168l-1357.23,-0l0,1551.12l1357.23,0l0,-267.375l193.891,-193.89l-0,558.21c-0,53.514 -43.432,96.946 -96.945,96.946l-1551.12,-0c-53.514,-0 -96.945,-43.432 -96.945,-96.946l-0,-1745.01c-0,-53.513 43.431,-96.945 96.945,-96.945l1551.12,0Zm-678.617,969.452l0,193.891l-484.726,-0l-0,-193.891l484.726,0Zm290.836,-387.78l-0,193.89l-775.562,-0l-0,-193.89l775.562,-0Z" style="fill:#f56161;fill-rule:nonzero;"/></g><g><path d="M2055.97,647.467l-740.248,795.443l-195.712,-176.703l740.247,-795.443l195.713,176.703Z" style="fill:#f20d0d;"/><path d="M2055.97,647.467l-740.248,795.443l-195.712,-176.703l740.247,-795.443l195.713,176.703Zm-37.334,1.623l-156.779,-141.551c-0,-0 -704.514,757.045 -704.514,757.045l156.78,141.551l704.513,-757.045Z" style="fill:#fff;"/><path d="M2134.14,563.478l-68.509,73.617l-195.712,-176.703l68.508,-73.617l195.713,176.703Z" style="fill:#f20d0d;"/><path d="M2134.14,563.478l-68.509,73.617l-195.712,-176.703l68.508,-73.617l195.713,176.703Zm-40.322,1.753c-0,0 -153.663,-138.737 -153.663,-138.737l-29.915,32.144c0,0 153.664,138.738 153.664,138.738l29.914,-32.145Z" style="fill:#fff;"/><path d="M1065.8,1517.97l240.973,-65.436l-195.712,-176.703l-45.261,242.139Z" style="fill:#f20d0d;"/><path d="M1065.8,1517.97l45.261,-242.139l195.712,176.703l-240.973,65.436Zm31.604,-34.252l159.093,-43.202c-0,0 -129.211,-116.66 -129.211,-116.66l-29.882,159.862Z" style="fill:#fff;"/></g></g></g></svg>