<svg xmlns="http://www.w3.org/2000/svg" width="23.686" height="24" viewBox="0 0 23.686 24">
  <g id="Grupo_318" data-name="Grupo 318" transform="translate(0 0)">
    <path id="Trazado_136" data-name="Trazado 136" d="M-2164.318-1452.706a7.469,7.469,0,0,1,1.047.379,3.076,3.076,0,0,1,.765,4.817c-.253.266-.517.521-.776.781q-6.792,6.793-13.59,13.58a1.622,1.622,0,0,1-.625.38c-1.407.454-2.822.883-4.231,1.327a.771.771,0,0,1-.826-.157.775.775,0,0,1-.191-.819c.387-1.5.76-3,1.155-4.5a1.236,1.236,0,0,1,.309-.533q7.148-7.165,14.309-14.318a3.078,3.078,0,0,1,1.685-.9.287.287,0,0,0,.079-.042Zm-3.249,3.622a2.477,2.477,0,0,1-.178.223q-6.013,6.016-12.031,12.026a1.748,1.748,0,0,0-.513.883c-.2.885-.441,1.761-.673,2.669.085-.02.143-.03.2-.048.87-.269,1.741-.535,2.608-.814a.96.96,0,0,0,.37-.222q6.16-6.15,12.313-12.308c.058-.058.112-.119.149-.159Zm3.327,1.1a8.161,8.161,0,0,0,.717-.669,1.557,1.557,0,0,0-.077-2.054,1.545,1.545,0,0,0-2.063-.2,10.4,10.4,0,0,0-.776.725Z" transform="translate(2185.35 1452.706)" fill="#6ee5bd"/>
    <path id="Trazado_137" data-name="Trazado 137" d="M-2215.28-1091.9q-3.855,0-7.71,0a.746.746,0,0,1-.76-.654.749.749,0,0,1,.526-.812.781.781,0,0,1,.229-.031q7.722,0,15.445,0a.749.749,0,0,1,.768.747.75.75,0,0,1-.787.752Z" transform="translate(2223.76 1115.903)" fill="#6ee5bd"/>
  </g>
</svg>
