<svg id="Grupo_45" data-name="Grupo 45" xmlns="http://www.w3.org/2000/svg" width="30.485" height="20.219" viewBox="0 0 30.485 20.219">
  <path id="Trazado_43" data-name="Trazado 43" d="M-75.945,491.192c0,.494,0,.941,0,1.388a2.117,2.117,0,0,1-2.229,2.228c-1.27,0-2.539-.011-3.808,0a2.143,2.143,0,0,1-2.219-2.206c.044-1.3.007-2.6.012-3.9a2.048,2.048,0,0,1,2.156-2.139q1.967,0,3.936,0a2.083,2.083,0,0,1,2.151,2.128c.008.469,0,.938,0,1.459h14.011c.424,0,.643.161.665.481a.486.486,0,0,1-.427.542,2.989,2.989,0,0,1-.414.018H-75.945ZM-77,490.679c0-.651.005-1.3,0-1.951a1.049,1.049,0,0,0-1.161-1.14q-1.9,0-3.808,0a1.078,1.078,0,0,0-1.194,1.183q0,1.9,0,3.807a1.051,1.051,0,0,0,1.157,1.175q1.936.008,3.873,0A1.026,1.026,0,0,0-77,492.6C-77,491.959-77,491.319-77,490.679Z" transform="translate(89.704 -486.563)" fill="#3a3a3c"/>
  <path id="Trazado_44" data-name="Trazado 44" d="M-72.051,499.977h-.433q-6.783,0-13.567,0c-.453,0-.688-.185-.677-.533a.466.466,0,0,1,.417-.487,2.616,2.616,0,0,1,.414-.019h13.845c0-.473,0-.909,0-1.344a2.121,2.121,0,0,1,2.282-2.271c1.247,0,2.5.015,3.743,0a2.146,2.146,0,0,1,2.232,2.226c-.045,1.277-.007,2.558-.011,3.838a2.055,2.055,0,0,1-2.177,2.184q-1.967,0-3.936,0a2.08,2.08,0,0,1-2.131-2.085C-72.061,500.992-72.051,500.5-72.051,499.977Zm4.164-3.6c-.66,0-1.321,0-1.981,0a1.02,1.02,0,0,0-1.125,1.128q-.008,1.949,0,3.9a1.048,1.048,0,0,0,1.16,1.139q1.916,0,3.834,0a1.074,1.074,0,0,0,1.169-1.172q0-1.916,0-3.833a1.048,1.048,0,0,0-1.139-1.16C-66.609,496.371-67.248,496.375-67.887,496.375Z" transform="translate(88.776 -483.347)" fill="#3a3a3c"/>
  <path id="Trazado_45" data-name="Trazado 45" d="M-85.967,489.187c.543,0,1.086,0,1.629,0,.376,0,.6.2.6.51s-.2.522-.585.525q-1.659.012-3.32,0c-.382,0-.589-.2-.585-.522s.223-.51.6-.513C-87.073,489.185-86.519,489.187-85.967,489.187Z" transform="translate(88.226 -485.599)" fill="#3a3a3c"/>
  <path id="Trazado_46" data-name="Trazado 46" d="M-67,499c-.532,0-1.064,0-1.6,0-.4,0-.621-.2-.617-.529s.216-.506.6-.507q1.645-.01,3.289,0c.388,0,.6.193.6.51s-.222.524-.618.526C-65.9,499.008-66.451,499-67,499Z" transform="translate(95.211 -482.374)" fill="#3a3a3c"/>
</svg>
