<svg xmlns="http://www.w3.org/2000/svg" width="43.408" height="43.408" viewBox="0 0 43.408 43.408">
  <g id="Grupo_549" data-name="Grupo 549" transform="translate(-4444.862 -5071.421)">
    <path id="Trazado_154" data-name="Trazado 154" d="M4472.6,5071.671a2.639,2.639,0,0,1,.521.513.848.848,0,0,1-.622,1.24c-.658.089-1.324.134-1.987.167a.839.839,0,0,1-.835-.627.866.866,0,0,1,.435-1.028,6.738,6.738,0,0,1,.729-.265Z" transform="translate(-21.962)" fill="#fff" stroke="#fff" stroke-width="0.5"/>
    <path id="Trazado_155" data-name="Trazado 155" d="M4445.112,5251.872c.067-.084.133-.169.2-.252a.844.844,0,0,1,.935-.3.769.769,0,0,1,.619.7c.03.665.047,1.333.02,2a.835.835,0,0,1-.729.839.876.876,0,0,1-.944-.464c-.036-.059-.069-.119-.1-.179Z" transform="translate(0 -160.758)" fill="#fff" stroke="#fff" stroke-width="0.5"/>
    <path id="Trazado_156" data-name="Trazado 156" d="M4627.451,5071.671c.186.18.433.328.544.545a.834.834,0,0,1-.671,1.208,17.18,17.18,0,0,1-1.956.031.829.829,0,0,1-.846-.667.874.874,0,0,1,.452-1.02c.045-.029.087-.064.13-.1Z" transform="translate(-160.55)" fill="#fff" stroke="#fff" stroke-width="0.5"/>
    <path id="Trazado_157" data-name="Trazado 157" d="M4445.112,5148.579a2.636,2.636,0,0,1,.513-.521.837.837,0,0,1,1.234.622,16.592,16.592,0,0,1,.034,2,.822.822,0,0,1-.674.838.867.867,0,0,1-1.013-.457c-.029-.045-.063-.088-.094-.133Z" transform="translate(0 -68.276)" fill="#fff" stroke="#fff" stroke-width="0.5"/>
    <path id="Trazado_158" data-name="Trazado 158" d="M4524.122,5071.671c.551.428.714.784.538,1.213a.954.954,0,0,1-.966.588q-.709.01-1.418,0c-.664-.007-.991-.217-1.121-.71-.115-.433.069-.757.621-1.092Z" transform="translate(-68.032)" fill="#fff" stroke="#fff" stroke-width="0.5"/>
    <path id="Trazado_159" data-name="Trazado 159" d="M4575.744,5071.671c.772.464.889,1.19.26,1.626a5.184,5.184,0,0,1-2.805,0,.879.879,0,0,1-.089-1.4c.091-.081.191-.151.287-.227Z" transform="translate(-114.29)" fill="#fff" stroke="#fff" stroke-width="0.5"/>
    <path id="Trazado_160" data-name="Trazado 160" d="M4445.112,5200.266c.367-.585.7-.755,1.175-.59a.758.758,0,0,1,.582.686c.028.665.034,1.332.021,2a.814.814,0,0,1-.648.818.856.856,0,0,1-1-.408,1.734,1.734,0,0,0-.125-.156Z" transform="translate(0 -114.516)" fill="#fff" stroke="#fff" stroke-width="0.5"/>
    <path id="Trazado_161" data-name="Trazado 161" d="M4445.112,5097.568c.054-.166.107-.333.164-.5a.9.9,0,0,1,1.061-.652.959.959,0,0,1,.688,1.089c-.052.439-.089.882-.105,1.325-.025.66-.226.994-.715,1.122-.436.114-.747-.064-1.091-.624Z" transform="translate(0 -22.127)" fill="#fff" stroke="#fff" stroke-width="0.5"/>
    <path id="Trazado_162" data-name="Trazado 162" d="M4558.6,5197.138c-.641.739-1.386.549-2.082.44a.777.777,0,0,1-.567-.907.8.8,0,0,1,.7-.768c.654-.067,1.343-.226,1.928.468,0-.526.165-.963-.284-1.351a3.286,3.286,0,0,1-1.266-2.051,2.792,2.792,0,0,1,2.072-3.106c.093-.023.184-.057.271-.084a2.87,2.87,0,0,1,3.173-2.958,2.9,2.9,0,0,1,3.674-2.125,6.848,6.848,0,0,1,.354-.64,2.735,2.735,0,0,1,2.537-1.248,1.088,1.088,0,0,0,.6-.179.879.879,0,0,1,1.4.686,1.3,1.3,0,0,0,.461,1c.818.8,1.607,1.631,2.427,2.431a.8.8,0,0,0,.514.175c2.709.011,5.418.006,8.128.008a4.442,4.442,0,0,1,4.578,4.567q0,8.84,0,17.68a4.441,4.441,0,0,1-4.578,4.568q-8.84,0-17.68,0a4.444,4.444,0,0,1-4.558-4.546c0-2.249,0-4.5-.009-6.746a.731.731,0,0,0-.2-.5,4.489,4.489,0,0,1-1.6-3.583Zm3.625,5.891a2.045,2.045,0,0,0-.018.211c0,1.969,0,3.938,0,5.907a3.084,3.084,0,0,0,.09.784,2.662,2.662,0,0,0,2.858,2.01q8.651,0,17.3,0a3.729,3.729,0,0,0,.951-.1,2.64,2.64,0,0,0,2-2.819q.006-8.692,0-17.385a3.517,3.517,0,0,0-.1-.909,2.631,2.631,0,0,0-2.782-2c-2.248-.009-4.5,0-6.744,0-.115,0-.23.022-.375.037.051.121.081.2.116.271a9.748,9.748,0,0,1-5.976,13.571C4567.156,5203.309,4564.708,5202.9,4562.23,5203.029Zm-1.814-5.907c0,.588-.035,1.048.006,1.5a2.622,2.622,0,0,0,2.7,2.58c1.283.04,2.569.018,3.854-.014a7.611,7.611,0,0,0,1.613-.194,7.917,7.917,0,0,0,5.282-11.228c-1.013-2.069-2.865-3.431-4.463-5a.8.8,0,0,0-.945-.05.818.818,0,0,0-.517.834,2.2,2.2,0,0,0,.3.795.919.919,0,0,1-.1,1.249.9.9,0,0,1-1.278-.085c-.257-.236-.491-.5-.745-.736a1.046,1.046,0,0,0-1.5-.093,1.016,1.016,0,0,0,.091,1.493c.259.273.544.523.792.808a.879.879,0,0,1-.089,1.328.9.9,0,0,1-1.274-.156c-.455-.433-.885-.893-1.359-1.3a.922.922,0,0,0-1.126-.054.871.871,0,0,0-.407,1.011,1.638,1.638,0,0,0,.4.66c.637.666,1.3,1.308,1.95,1.96a.968.968,0,0,1,.356.889.887.887,0,0,1-1.541.467c-.574-.531-1.134-1.08-1.66-1.657-.673-.74-1.339-.582-1.679-.238-.448.454-.354,1.025.261,1.639q2.1,2.1,4.208,4.206a1.076,1.076,0,0,1,.42.91.85.85,0,0,1-.592.745.931.931,0,0,1-.995-.268Z" transform="translate(-99.205 -99.166)" fill="#fff" stroke="#fff" stroke-width="0.5"/>
    <path id="Trazado_163" data-name="Trazado 163" d="M4506,5311.926c-.306,0-.613.013-.918,0a.888.888,0,0,1-.868-.847.83.83,0,0,1,.783-.907,17.306,17.306,0,0,1,2.038,0,.848.848,0,0,1,.774.879.9.9,0,0,1-.85.87C4506.642,5311.941,4506.321,5311.926,4506,5311.926Z" transform="translate(-52.899 -213.441)" fill="#fff" stroke="#fff" stroke-width="0.5"/>
    <path id="Trazado_164" data-name="Trazado 164" d="M4685.394,5132.3c0,.306.015.613,0,.918a.9.9,0,0,1-.866.853.848.848,0,0,1-.882-.772,17.493,17.493,0,0,1,0-2.08.815.815,0,0,1,.9-.742.87.87,0,0,1,.845.821c.022.333,0,.668,0,1Z" transform="translate(-213.468 -52.637)" fill="#fff" stroke="#fff" stroke-width="0.5"/>
    <path id="Trazado_165" data-name="Trazado 165" d="M4676.188,5083.716a.976.976,0,0,1-.671,1.029.913.913,0,0,1-.995-.444q-.438-.751-.881-1.5a.869.869,0,0,1,.1-1.077.834.834,0,0,1,1.062-.167A3.636,3.636,0,0,1,4676.188,5083.716Z" transform="translate(-204.416 -8.737)" fill="#fff" stroke="#fff" stroke-width="0.5"/>
    <path id="Trazado_166" data-name="Trazado 166" d="M4458.609,5302.01c-.1.642-.537,1.046-1.106.933a3.63,3.63,0,0,1-2.109-1.247.866.866,0,0,1,.034-1.111.882.882,0,0,1,1.1-.187c.527.3,1.068.583,1.563.93A2.81,2.81,0,0,1,4458.609,5302.01Z" transform="translate(-9.036 -204.618)" fill="#fff" stroke="#fff" stroke-width="0.5"/>
  </g>
</svg>
