<?xml version="1.0" encoding="UTF-8" standalone="no"?><!DOCTYPE svg PUBLIC "-//W3C//DTD SVG 1.1//EN" "http://www.w3.org/Graphics/SVG/1.1/DTD/svg11.dtd"><svg width="100%" height="100%" viewBox="0 0 2138 2138" version="1.1" xmlns="http://www.w3.org/2000/svg" xmlns:xlink="http://www.w3.org/1999/xlink" xml:space="preserve" xmlns:serif="http://www.serif.com/" style="fill-rule:evenodd;clip-rule:evenodd;stroke-linecap:round;stroke-linejoin:round;stroke-miterlimit:1.5;"><rect id="Publish" x="0.802" y="4.01" width="2133.33" height="2133.33" style="fill:none;"/><clipPath id="_clip1"><rect x="0.802" y="4.01" width="2133.33" height="2133.33"/></clipPath><g clip-path="url(#_clip1)"><g id="SVGRepo_iconCarrier"><g><rect x="0.802" y="54.773" width="2031.81" height="2031.81" style="fill:none;fill-rule:nonzero;"/><path d="M1687.35,97.525c53.513,0 96.945,43.431 96.945,96.945l-0,364.223l-193.891,193.891l0,-461.169l-1357.23,0l0,1551.12l1357.23,-0l0,-267.375l193.891,-193.89l-0,558.21c-0,53.514 -43.432,96.945 -96.945,96.945l-1551.12,0c-53.514,0 -96.945,-43.431 -96.945,-96.945l-0,-1745.01c-0,-53.514 43.431,-96.945 96.945,-96.945l1551.12,0Zm-678.617,969.452l0,193.891l-484.726,-0l-0,-193.891l484.726,0Zm290.836,-387.781l-0,193.891l-775.562,-0l-0,-193.891l775.562,0Z" style="fill:#43f20d;fill-rule:nonzero;"/></g></g><circle cx="1542.7" cy="1043.58" r="415.678" style="fill:#fff;"/><path d="M1542.7,502.223c298.784,0 541.359,242.575 541.359,541.36c0,298.785 -242.575,541.36 -541.359,541.36c-298.785,-0 -541.36,-242.575 -541.36,-541.36c0,-298.785 242.575,-541.36 541.36,-541.36Zm-0,125.682c-229.419,0 -415.678,186.259 -415.678,415.678c0,229.419 186.259,415.678 415.678,415.678c229.419,-0 415.677,-186.259 415.677,-415.678c0,-229.419 -186.258,-415.678 -415.677,-415.678Z" style="fill:#04530e;"/><path d="M1404.19,995.81l134.605,198.889l534.122,-651.622" style="fill:none;stroke:#04530e;stroke-width:125.68px;"/></g></svg>