<svg xmlns="http://www.w3.org/2000/svg" width="27.749" height="24" viewBox="0 0 27.749 24">
  <g id="Grupo_507" data-name="Grupo 507" transform="translate(-5023.809 -5684.171)">
    <path id="Trazado_144" data-name="Trazado 144" d="M5051.558,5686.746a3.467,3.467,0,0,1-1.083,1.609c-1.415,1.4-2.813,2.806-4.218,4.212-.067.067-.13.139-.235.252h2.047a1.507,1.507,0,0,1,1.526,1.528q0,4.728,0,9.456a1.5,1.5,0,0,1-1.534,1.523c-.468.006-.936,0-1.437,0v1.313c0,.334,0,.668,0,1,0,.471-.336.664-.746.428-1.493-.859-2.981-1.725-4.479-2.576a1.234,1.234,0,0,0-.579-.16c-2.068-.012-4.137-.022-6.2,0a1.569,1.569,0,0,1-1.656-1.655c.041-.954.01-1.912.01-2.9a1.728,1.728,0,0,0-.97.135c-1.452.855-2.917,1.69-4.377,2.532-.047.027-.092.058-.14.083a.444.444,0,0,1-.708-.409c-.011-.677,0-1.354,0-2.032v-.32c-.483,0-.933.006-1.382,0a1.506,1.506,0,0,1-1.549-1.175,1.411,1.411,0,0,1-.03-.321q0-4.755,0-9.51a1.461,1.461,0,0,1,1.512-1.5h13.547a1.486,1.486,0,0,1,1.564,1.537c.01.776,0,1.552,0,2.4.114-.108.189-.176.26-.247q3.535-3.535,7.071-7.068a2.192,2.192,0,0,1,3.151-.082,2.856,2.856,0,0,1,.641,1.133Zm-23.905,15.659c.117-.064.2-.1.271-.149,1.273-.734,2.542-1.475,3.822-2.2a1.434,1.434,0,0,1,.659-.179c2.068-.013,4.136-.007,6.2-.008.136,0,.271,0,.406-.009a.548.548,0,0,0,.51-.479c.021-.349,0-.7,0-1.073-.086.027-.154.045-.22.068q-1.142.414-2.284.83a.491.491,0,0,1-.576-.07.482.482,0,0,1-.054-.577c.517-1.248,1.031-2.5,1.553-3.741a1.169,1.169,0,0,1,.236-.354c.4-.415.818-.817,1.22-1.232a.454.454,0,0,0,.13-.275q.012-1.611,0-3.224a.577.577,0,0,0-.521-.593,1.714,1.714,0,0,0-.3-.014h-13.192c-.063,0-.126,0-.19,0a.631.631,0,0,0-.657.673q-.006,4.7,0,9.4a.611.611,0,0,0,.678.667c.569.005,1.138,0,1.707,0,.435,0,.589.154.59.585C5027.653,5701.091,5027.652,5701.722,5027.652,5702.4Zm6.185-1.636v2.845c0,.631.191.821.826.821,2.1,0,4.208-.005,6.312.009a1.482,1.482,0,0,1,.685.188c1.28.721,2.549,1.461,3.822,2.194.075.043.154.08.268.138,0-.656,0-1.275,0-1.895,0-.511.125-.632.645-.633s1.047,0,1.571,0,.737-.2.737-.735q0-4.633,0-9.265c0-.525-.213-.736-.743-.738-.876,0-1.752-.006-2.628.005a.56.56,0,0,0-.348.147c-.589.572-1.167,1.157-1.747,1.739-.055.054-.1.113-.192.21h2.86c.055,0,.108,0,.163,0a.457.457,0,0,1,.49.434.442.442,0,0,1-.484.435c-1.165,0-2.33.013-3.495,0a.882.882,0,0,0-.728.3,2.557,2.557,0,0,1-1.3.968c-.05.01-.107.134-.11.208-.012.315,0,.632,0,.948a1.533,1.533,0,0,1-1.681,1.683c-.984,0-1.968,0-2.952,0Zm5.78-5.354,8.68-8.678-.511-.525-8.687,8.688Zm1.223,1.23,8.695-8.691-.516-.541-8.713,8.714Zm9.4-9.307a1.284,1.284,0,0,0,.379-1.376,1.295,1.295,0,0,0-2.215-.458Zm-10.256,9.852-1.458-1.475c-.313.758-.633,1.535-.975,2.365Z" fill="#168aff"/>
    <path id="Trazado_145" data-name="Trazado 145" d="M5122.358,5809.516a1.266,1.266,0,0,1,1.267,1.277,1.3,1.3,0,0,1-1.3,1.262,1.27,1.27,0,0,1-1.241-1.277A1.242,1.242,0,0,1,5122.358,5809.516Zm.374,1.275a.384.384,0,0,0-.375-.405.405.405,0,0,0-.4.389.381.381,0,0,0,.37.382A.366.366,0,0,0,5122.732,5810.791Z" transform="translate(-90.235 -116.269)" fill="#168aff"/>
    <path id="Trazado_146" data-name="Trazado 146" d="M5072.236,5810.783a1.27,1.27,0,0,1-1.274,1.273,1.3,1.3,0,0,1-1.266-1.266,1.268,1.268,0,0,1,1.272-1.273A1.244,1.244,0,0,1,5072.236,5810.783Zm-.874.006a.4.4,0,0,0-.383-.4.383.383,0,0,0-.387.393.361.361,0,0,0,.364.38A.374.374,0,0,0,5071.362,5810.789Z" transform="translate(-42.566 -116.27)" fill="#168aff"/>
    <path id="Trazado_147" data-name="Trazado 147" d="M5174.643,5810.775a1.278,1.278,0,0,1-1.27,1.28,1.3,1.3,0,0,1-1.271-1.26,1.265,1.265,0,0,1,1.265-1.279A1.248,1.248,0,0,1,5174.643,5810.775Zm-1.271-.39a.39.39,0,0,0-.378.405.368.368,0,0,0,.381.367.392.392,0,0,0,.4-.383A.409.409,0,0,0,5173.372,5810.386Z" transform="translate(-137.556 -116.269)" fill="#168aff"/>
    <path id="Trazado_148" data-name="Trazado 148" d="M5217.68,5930.271h3.844a1.834,1.834,0,0,1,.243.007.441.441,0,0,1,.008.88,1.33,1.33,0,0,1-.216.008q-3.9,0-7.8,0a.5.5,0,0,1-.612-.455.647.647,0,0,1,.266-.387.594.594,0,0,1,.339-.048Q5215.717,5930.269,5217.68,5930.271Z" transform="translate(-175.632 -228.281)" fill="#168aff"/>
    <path id="Trazado_149" data-name="Trazado 149" d="M5274.543,5887.481c.614,0,1.227,0,1.841,0,.342,0,.566.185.559.453s-.209.431-.55.432q-1.841.007-3.682,0c-.35,0-.533-.162-.534-.438s.192-.446.553-.447C5273.334,5887.48,5273.939,5887.481,5274.543,5887.481Z" transform="translate(-230.385 -188.589)" fill="#168aff"/>
  </g>
</svg>
