<svg xmlns="http://www.w3.org/2000/svg" width="47.905" height="19.19" viewBox="0 0 47.905 19.19">
  <g id="Grupo_1251" data-name="Grupo 1251" transform="translate(181.658 -220.212)">
    <path id="Trazado_238" data-name="Trazado 238" d="M-181.658,229.52a1.174,1.174,0,0,1,1.153-.546c.4.018.808,0,1.258,0a9.631,9.631,0,0,1,4.071-7,9.3,9.3,0,0,1,5.6-1.764,9.587,9.587,0,0,1,9.289,7.617,4.238,4.238,0,0,1,2.579-.955,4.09,4.09,0,0,1,2.532.932c1.447-4.735,4.544-7.578,9.539-7.542,5.128.036,8.127,3.055,9.424,7.941.5,0,1.026-.006,1.555,0,.557.008.9.314.9.791a.8.8,0,0,1-.894.8c-.48.007-.959,0-1.409,0-.145.872-.228,1.711-.429,2.52a9.51,9.51,0,0,1-7.7,6.936,9.6,9.6,0,0,1-10.854-7.221,5.407,5.407,0,0,1-.21-1.286c0-1.1-.773-1.623-1.582-2.053a2.01,2.01,0,0,0-2.338.363,2.5,2.5,0,0,0-1.011,1.829,9.56,9.56,0,0,1-7.625,8.335,9.682,9.682,0,0,1-11.3-7.678c-.055-.288-.084-.581-.132-.921-.43,0-.847-.015-1.264,0a1.175,1.175,0,0,1-1.153-.546Zm19.939.269a7.834,7.834,0,0,0-7.92-7.951,7.984,7.984,0,0,0-8,7.973,7.985,7.985,0,0,0,8.025,7.951A7.835,7.835,0,0,0-161.719,229.789Zm23.953.031a7.834,7.834,0,0,0-7.889-7.982,7.986,7.986,0,0,0-8.035,7.942,7.983,7.983,0,0,0,7.995,7.982A7.832,7.832,0,0,0-137.766,229.82Z" fill="#3a3a3c"/>
  </g>
</svg>
