<svg xmlns="http://www.w3.org/2000/svg" width="53.974" height="41.751" viewBox="0 0 53.974 41.751">
  <g id="Grupo_54" data-name="Grupo 54" transform="translate(243.386 -56.017)">
    <path id="Trazado_74" data-name="Trazado 74" d="M-187.063,83.157c-.1.494-.193.989-.3,1.482a12.9,12.9,0,0,1-3.385,6.428c-1.5,1.556-3.016,3.1-4.6,4.569a13.1,13.1,0,0,1-9.2,3.536c-4.813.013-9.627,0-14.44,0q-4.137,0-8.274,0a3.771,3.771,0,0,1-3.8-4.979,5.413,5.413,0,0,1,4.643-4.16c3.213-.544,6.438-1.013,9.751-1.529-.18-.189-.314-.336-.455-.477q-7.993-7.993-15.987-15.987a4.7,4.7,0,0,1-1.3-5.142A4.662,4.662,0,0,1-227.15,64.8c1.513,1.3,2.875,2.785,4.3,4.19.148.146.269.321.467.562A4.8,4.8,0,0,1-219.3,66.4a4.721,4.721,0,0,1,4.3.668,4.781,4.781,0,0,1,3.067-3.123,4.681,4.681,0,0,1,4.282.664c.06-.139.115-.259.164-.382a4.7,4.7,0,0,1,7.769-1.534q4.908,5.257,9.651,10.667a12.38,12.38,0,0,1,2.906,6.763,2.992,2.992,0,0,0,.107.4Zm-28.4,13.522c3.6,0,7.2-.016,10.8.005a10.8,10.8,0,0,0,7.8-3c1.476-1.4,2.909-2.854,4.322-4.322a10.4,10.4,0,0,0,2.88-5.957,10.365,10.365,0,0,0-2.323-8.462c-2.58-3.015-5.307-5.9-7.972-8.847-.507-.56-1.01-1.124-1.53-1.672A2.206,2.206,0,0,0-204,63.9a2.071,2.071,0,0,0-1.29,2.146,3.5,3.5,0,0,0,.621,1.451,1.41,1.41,0,0,1,.3,1.548,1.241,1.241,0,0,1-2.077.212c-.859-.83-1.675-1.706-2.553-2.515a2.163,2.163,0,0,0-3.037.09,2.2,2.2,0,0,0-.081,3.044c.161.185.339.357.512.53.681.685,1.379,1.355,2.044,2.056a1.245,1.245,0,0,1,.08,1.79,1.264,1.264,0,0,1-1.836-.049c-.105-.093-.2-.2-.3-.3-1.516-1.515-3.027-3.036-4.549-4.544a2.188,2.188,0,0,0-2.6-.528,2.224,2.224,0,0,0-.527,3.694c1.515,1.541,3.055,3.057,4.581,4.587a3.481,3.481,0,0,1,.445.517A1.192,1.192,0,0,1-215,79.487a1.421,1.421,0,0,1-1.424-.577L-228.1,67.246a6.733,6.733,0,0,0-.5-.471,2.2,2.2,0,0,0-3.489.979,2.337,2.337,0,0,0,.744,2.562q8.974,8.952,17.933,17.92a1.374,1.374,0,0,1,.522,1.489,1.329,1.329,0,0,1-1.194.889q-5.843.913-11.687,1.815a3.133,3.133,0,0,0-2.849,2.209c-.363,1.188.063,2.073,1.5,2.055C-223.232,96.647-219.349,96.678-215.467,96.678Z" transform="translate(-2.349 -1.411)" fill="#fff"/>
    <path id="Trazado_75" data-name="Trazado 75" d="M-240.9,67.479a8.366,8.366,0,0,0,4.646,7.193c.481.263.986.5,1.084,1.121A1.168,1.168,0,0,1-235.647,77a1.243,1.243,0,0,1-1.343.088,10.814,10.814,0,0,1-5.446-5.553,11.037,11.037,0,0,1,7.785-15.267,11.087,11.087,0,0,1,12.277,6.1,1.249,1.249,0,0,1-.479,1.773,1.224,1.224,0,0,1-1.713-.638,9.461,9.461,0,0,0-2.754-3.336,8.557,8.557,0,0,0-11.8,1.68A8.778,8.778,0,0,0-240.9,67.479Z" fill="#fff"/>
  </g>
</svg>
