<svg xmlns="http://www.w3.org/2000/svg" width="17.836" height="22.279" viewBox="0 0 17.836 22.279">
  <g id="Grupo_58" data-name="Grupo 58" transform="translate(351.287 74.63)">
    <path id="Trazado_84" data-name="Trazado 84" d="M-342.374-61.454c.964,0,1.929,0,2.894,0a6.01,6.01,0,0,1,5.962,5.18,3.177,3.177,0,0,1-.027,1.422,2.106,2.106,0,0,1-1.12,1.335,10.225,10.225,0,0,1-2.861.824,32.688,32.688,0,0,1-6.6.3,18.251,18.251,0,0,1-5.052-.769,7.666,7.666,0,0,1-1.032-.425,2.007,2.007,0,0,1-1.068-2.137,6.037,6.037,0,0,1,4.223-5.428,7.183,7.183,0,0,1,1.788-.29C-344.306-61.488-343.339-61.454-342.374-61.454Z" fill="#25aae1"/>
    <path id="Trazado_85" data-name="Trazado 85" d="M-342.376-74.63a5.488,5.488,0,0,1,5.489,5.395,5.479,5.479,0,0,1-5.466,5.524,5.461,5.461,0,0,1-5.5-5.41A5.458,5.458,0,0,1-342.376-74.63Z" fill="#25aae1"/>
  </g>
</svg>
